<?xml version="1.0" encoding="utf-8"?>
<!-- Generator: Adobe Illustrator 26.4.0, SVG Export Plug-In . SVG Version: 6.00 Build 0)  -->
<svg version="1.1" id="Layer_1" xmlns="http://www.w3.org/2000/svg" xmlns:xlink="http://www.w3.org/1999/xlink" x="0px" y="0px"
	 viewBox="0 0 600 600" style="enable-background:new 0 0 600 600;" xml:space="preserve">
<style type="text/css">
	.st0{fill:#D4D93E;}
</style>
<path class="st0" d="M446.7,273.7H311.3c-16.6,0-30.1,13.5-30.1,30.1c0,16.6,13.5,30.1,30.1,30.1h101.4
	c-13.3,50.1-59,87.1-113.3,87.1c-64.6,0-117.2-52.6-117.2-117.2s52.6-117.2,117.2-117.2c16.6,0,30.1-13.5,30.1-30.1
	s-13.5-30.1-30.1-30.1C201.6,126.4,122,206,122,303.9c0,97.8,79.6,177.4,177.4,177.4c44.9,0,85.9-16.7,117.2-44.3v128.8
	c0,16.6,13.5,30.1,30.1,30.1c16.6,0,30.1-13.5,30.1-30.1V303.9C476.8,287.2,463.4,273.7,446.7,273.7z M592.9,44.5
	c0-16.6-13.5-30.1-30.1-30.1s-30.1,13.5-30.1,30.1v75.8c-54-70.9-139.2-116.7-235-116.7C135,3.6,2.6,136.1,2.6,298.8
	C2.6,461.6,135,594,297.7,594c16.6,0,30.1-13.5,30.1-30.1s-13.5-30.1-30.1-30.1c-129.6,0-235-105.4-235-235s105.4-235,235-235
	s235,105.4,235,235v264.4c0,16.6,13.5,30.1,30.1,30.1s30.1-13.5,30.1-30.1V298.8c0-4.2-0.1-8.4-0.3-12.5c0.2-1.3,0.3-2.6,0.3-3.9
	V44.5z"/>
</svg>
