<?xml version="1.0" encoding="utf-8"?>
<!-- Generator: Adobe Illustrator 26.4.0, SVG Export Plug-In . SVG Version: 6.00 Build 0)  -->
<svg version="1.1" id="Layer_1" xmlns="http://www.w3.org/2000/svg" xmlns:xlink="http://www.w3.org/1999/xlink" x="0px" y="0px"
	 viewBox="0 0 600 600" style="enable-background:new 0 0 600 600;" xml:space="preserve">
<style type="text/css">
	.st0{fill:#FFFFFF;}
</style>
<path class="st0" d="M588.7,173c-6.2-5.5-14.2-8.2-23.9-8.2c-14.5,0-27.9,3.7-40.3,11.1c-6.8,4-12.4,8.8-16.8,14.1
	c-2.7-2.4-5.7-4.7-8.9-6.8c-18.9-12.3-44.6-18.4-77.1-18.4s-58.5,6.3-78,18.8c-19.5,12.6-29.2,29.9-29.2,52.1s9.7,39.5,29.2,52.1
	c11.8,7.6,26,12.8,42.7,15.9c-18.2,8.8-31.7,18.1-40.5,27.8c-3.8,4.2-6.9,8.6-9,13.1L195.5,88.1h-2.7L72.3,320.7
	c-9.5,18-17.9,32.6-25.3,43.9c-7.4,11.2-14.6,19.9-21.7,25.9c-7.1,6.1-15.2,11-24.4,14.8v2.7h119.2v-2.7
	c-16.2-0.6-28.1-6.5-35.7-17.7c-7.5-11.2-10.4-26.1-8.6-44.5c0.9-9.9,3.4-20.4,7.2-31.5h134.5l30.7,55.7c4.7,8.6,6.6,15.6,5.5,21
	c-1,5.5-4.8,9.6-11.3,12.4s-16.4,4.4-29.7,4.7v2.7h183.4l0,0c1.7,0.1,3.4,0.1,5.1,0.1H449c20.1,0,35.1,3,45,9.1
	c9.9,6,14.8,15.1,14.8,27.2c0,11.2-3.5,21.3-10.4,30.1c-6.9,8.9-16.5,15.8-28.6,20.8s-26.1,7.5-42.1,7.5c-23,0-41.2-4.9-54.5-14.6
	s-19.9-23.2-19.9-40.3c0-0.1,0-0.2,0-0.2c0-12-9.6-21.7-21.5-21.4c-1.3,0-2.6,0.1-3.9,0.1c-12.4,0.3-23.9,7-29.6,18
	c-2.3,4.5-3.5,9.2-3.5,14.2c0,14.5,10.3,26.1,31,35s48.3,13.3,82.9,13.3c32.8,0,61.4-4.1,85.7-12.2c24.4-8.1,43.3-19.5,56.7-34.1
	s20.2-31.8,20.2-51.6c0-21.6-8.3-37.9-24.8-49s-40.9-16.6-73.1-16.6h-65.6c-11.8,0-20.7-1.6-26.6-4.7s-8.9-7.6-8.9-13.5
	c0-3.8,1.4-7.5,4.2-10.9c2.7-3.2,6.7-6.7,11.9-10.3c10.4,1.7,21.7,2.6,34,2.6c31.9,0,57.3-6.2,76.2-18.6
	c18.9-12.4,28.4-29.8,28.4-52.3c0-17.9-5.9-32.5-17.6-43.9c0.7-0.8,1.4-1.6,2.1-2.4c4.4-4.6,8.9-8,13.5-10.4s8-3.5,10.4-3.5
	c3.5,0,6.5,2.4,8.9,7.1c2.4,4.7,4.7,10.1,7.1,16.2c2.4,6.1,5.6,11.4,9.7,16.2c4.1,4.7,9.4,7.1,15.9,7.1c5.9,0,10.9-2.4,14.8-7.3
	c4-4.9,6-11.3,6-19.3C598,186,594.9,178.5,588.7,173z M84.4,307.9c3.1-8.5,7.1-17.4,11.9-26.6l50.5-98l68.7,124.6H84.4z
	 M447.8,287.4c-5.6,11.1-14,16.6-25.3,16.6c-11.2,0-19.4-5.6-24.6-16.8c-5.2-11.2-7.8-28.4-7.8-51.4c0-23.3,2.7-40.5,8.2-51.6
	s13.8-16.6,25-16.6c10.9,0,19.1,5.5,24.6,16.6s8.2,28.3,8.2,51.6C456.2,259.1,453.4,276.3,447.8,287.4z"/>
</svg>
