<?xml version="1.0" encoding="utf-8"?>
<!-- Generator: Adobe Illustrator 26.4.0, SVG Export Plug-In . SVG Version: 6.00 Build 0)  -->
<svg version="1.1" id="Layer_1" xmlns="http://www.w3.org/2000/svg" xmlns:xlink="http://www.w3.org/1999/xlink" x="0px" y="0px"
	 viewBox="0 0 600 600" style="enable-background:new 0 0 600 600;" xml:space="preserve">
<style type="text/css">
	.st0{fill:#FFFFFF;}
</style>
<path class="st0" d="M588.8,161.7c-6.1-5.4-14.1-8.1-23.7-8.1c-14.3,0-27.7,3.7-40,11c-6.7,4-12.3,8.7-16.6,14
	c-2.7-2.4-5.6-4.7-8.8-6.8c-18.7-12.1-44.2-18.2-76.4-18.2c-32.2,0-58,6.2-77.3,18.7c-19.3,12.4-29,29.6-29,51.6
	c0,22,9.7,39.2,29,51.6c11.7,7.5,25.8,12.7,42.4,15.7c1,0.2,2.1,0.4,2.2,0.4c10.3,1.7,21.5,2.6,33.7,2.6c31.6,0,56.8-6.1,75.5-18.4
	c18.7-12.3,28.1-29.6,28.1-51.8c0-17.7-5.8-32.3-17.4-43.6c0.7-0.8,1.4-1.6,2.1-2.3c4.4-4.5,8.9-8,13.4-10.3c4.5-2.3,8-3.5,10.3-3.5
	c3.5,0,6.4,2.3,8.8,7c2.3,4.7,4.7,10,7,16c2.3,6,5.6,11.4,9.7,16c4.1,4.7,9.4,7,15.8,7c5.9,0,10.8-2.4,14.7-7.2
	c4-4.8,5.9-11.2,5.9-19.1C598,174.5,594.9,167.1,588.8,161.7z M449.1,275c-5.6,11-13.9,16.5-25,16.5c-11.1,0-19.3-5.6-24.4-16.7
	c-5.1-11.1-7.7-28.1-7.7-50.9c0-23.1,2.7-40.2,8.1-51.2c5.4-11,13.7-16.5,24.8-16.5c10.8,0,19,5.5,24.4,16.5c5.4,11,8.1,28,8.1,51.2
	C457.5,247,454.7,264.1,449.1,275z M241.4,386c-6.2,2.7-15.6,4.2-28.2,4.6c-0.7,0-1.2,0.6-1.2,1.2l0,1.4h149.6
	c0.5,0,0.6-0.7,0.1-0.8c-11.5-2.2-22.4-7.4-30.4-16.3c-14.1-15-18.5-36.5-12.8-56.2c1.1-4,2.6-7.9,4.4-11.7
	c-19.3-34.9-57.6-104.4-87.4-158.3l0,0.1c0,0-0.1-0.2-0.3-0.6c-0.5-1-1.1-2-1.6-3c-5.2-8.5-21.6-29.2-60.4-32c-0.2,0-0.4,0-0.6-0.1
	l0,0c-68.5-4.2-113.9,6.3-114.6,40c-1.2,56.2,93.5,43,65.2-3.3c-17.6-28.8,12.7-33.6,22.8-32.8c14.4,1.1,17.1,9.8,14.7,19.2
	l-13.5,26.2L72.7,306.7c-9.4,17.9-17.7,32.4-25,43.5c-7.3,11.1-14.5,19.7-21.5,25.7c-6.8,5.8-14.6,10.6-23.4,14.4
	C2.3,390.5,2,391,2,391.5v1.8h118.1v-1.4c0-0.7-0.6-1.3-1.3-1.3c-15.5-0.8-26.8-6.7-34.1-17.5c-7.5-11.1-10.3-25.8-8.6-44.1
	c0.9-9.8,3.3-20.2,7.1-31.2h133.3l30.4,55.2c4.7,8.5,6.5,15.4,5.5,20.9C251.5,379.1,247.8,383.2,241.4,386z M84.7,294
	c3.1-8.4,61.8-121.6,61.8-121.6L214.6,294H84.7z M547.1,345.7c-16.4-11-40.6-16.5-72.5-16.5H415c-6.8,0.3-12.8,0-18-0.7
	c-5.7-0.7-10.3-2-13.8-3.9c-2.5-1.3-4.4-2.8-5.8-4.6c-3.1-3.3-4.5-7.4-4.4-12.3c0-1,0.1-2-0.5-3.2c-1.5-2.6-4.9-3.3-7.3-1.6
	c-2.8,1.9-5.3,3.8-7.7,5.7c-1.8,1.5-4.4,3.8-6.4,5.6c-1.1,1-2.1,2.1-3,3.1c-0.2,0.3-0.4,0.5-0.7,0.8c-7.3,8.5-11.5,18.6-11.2,30
	c0.8,19.4,14.2,35.5,32.6,41.5c1.9,0.7,4.5,1.3,7.2,1.9c5.7,1.2,11.5,1.8,17.3,1.8h4.6v0c1.7,0.1,3.3,0.1,5,0.1h47.4
	c19.9,0,34.8,3,44.6,9c9.8,6,14.7,15,14.7,27c0,11.1-3.4,21.1-10.3,29.9c-6.9,8.8-16.3,15.7-28.3,20.6c-12,5-25.9,7.5-41.7,7.5
	c-22.8,0-40.8-4.8-54-14.5c-13.2-9.7-19.8-23-19.8-40c0-0.1,0-0.2,0-0.2c0-11.8-9.5-21.5-21.3-21.2c-1.3,0-2.6,0.1-3.8,0.1
	c-12.3,0.3-23.7,7-29.4,17.9c-2.3,4.5-3.5,9.2-3.5,14c0,14.3,10.2,25.9,30.7,34.7c20.5,8.8,47.9,13.2,82.1,13.2
	c32.5,0,60.8-4,85-12.1c24.2-8.1,42.9-19.3,56.2-33.8c13.3-14.5,20-31.6,20-51.2C571.6,372.8,563.4,356.7,547.1,345.7z"/>
</svg>
