<?xml version="1.0" encoding="utf-8"?>
<!-- Generator: Adobe Illustrator 26.4.0, SVG Export Plug-In . SVG Version: 6.00 Build 0)  -->
<svg version="1.1" id="Layer_1" xmlns="http://www.w3.org/2000/svg" xmlns:xlink="http://www.w3.org/1999/xlink" x="0px" y="0px"
	 viewBox="0 0 600 600" style="enable-background:new 0 0 600 600;" xml:space="preserve">
<style type="text/css">
	.st0{fill:#45799A;}
	.st1{fill:#90D7CE;}
	.st2{fill:#6AB1CF;}
	.st3{fill:#E76F51;}
	.st4{fill:#E9C46A;}
</style>
<path class="st0" d="M446.3,299V156.6c-0.1,0-0.2,0-0.3,0c-78.7,0-142.5,63.1-142.5,140.9s63.8,140.9,142.5,140.9c0.1,0,0.2,0,0.3,0
	L446.3,299L446.3,299z"/>
<path class="st1" d="M530.5,289.7c36.8,0,66.5-29.8,66.5-66.5c0-36.8-29.8-66.5-66.5-66.5s-66.5,29.8-66.5,66.5
	C463.9,259.9,493.7,289.7,530.5,289.7z"/>
<path class="st2" d="M597,305.3H463.9v133.1H597V305.3z"/>
<path class="st3" d="M262.8,305.3H86L2,438.4h344.5L262.8,305.3L262.8,305.3z"/>
<path class="st4" d="M174.4,164.4L95.9,289.7h156.6L174.4,164.4z"/>
</svg>
