<?xml version="1.0" encoding="utf-8"?>
<!-- Generator: Adobe Illustrator 26.4.0, SVG Export Plug-In . SVG Version: 6.00 Build 0)  -->
<svg version="1.1" id="Layer_1" xmlns="http://www.w3.org/2000/svg" xmlns:xlink="http://www.w3.org/1999/xlink" x="0px" y="0px"
	 viewBox="0 0 600 600" style="enable-background:new 0 0 600 600;" xml:space="preserve">
<style type="text/css">
	.st0{fill:#FFFFFF;}
</style>
<path class="st0" d="M589.1,162.6c-6.3-5.5-14.3-8.3-24.1-8.3c-14.6,0-28.1,3.7-40.7,11.2c-6.8,4.1-12.5,8.8-16.9,14.2
	c-2.7-2.4-5.7-4.7-9-6.9c-19.1-12.4-45-18.5-77.7-18.5c-32.8,0-59,6.3-78.6,19c-19.7,12.7-29.5,30.2-29.5,52.5
	c0,22.3,9.8,39.8,29.5,52.5c11.9,7.6,26.2,13,43.1,16c1,0.2,2.2,0.4,2.2,0.4c10.5,1.7,21.9,2.6,34.2,2.6c32.2,0,57.8-6.3,76.8-18.8
	c19.1-12.5,28.6-30.1,28.6-52.7c0-18-5.9-32.8-17.7-44.3c0.7-0.8,1.4-1.6,2.1-2.4c4.5-4.6,9-8.1,13.6-10.5c4.6-2.4,8.1-3.6,10.5-3.6
	c3.6,0,6.5,2.4,8.9,7.1c2.4,4.8,4.8,10.2,7.1,16.3c2.4,6.1,5.7,11.5,9.8,16.3c4.2,4.8,9.5,7.1,16.1,7.1c6,0,10.9-2.5,15-7.4
	c4-4.9,6-11.4,6-19.4C598.5,175.6,595.4,168.1,589.1,162.6z M447.1,277.9c-5.7,11.2-14.1,16.8-25.5,16.8c-11.3,0-19.6-5.7-24.8-17
	c-5.2-11.3-7.8-28.6-7.8-51.8c0-23.5,2.8-40.9,8.3-52c5.5-11.2,13.9-16.8,25.2-16.8c11,0,19.3,5.6,24.8,16.8
	c5.5,11.2,8.3,28.5,8.3,52C455.5,249.4,452.7,266.7,447.1,277.9z M245,385.1c-6.4,2.7-15.9,4.3-28.7,4.7c-0.7,0-1.2,0.6-1.2,1.3v1.5
	h152.1c0.5,0,0.6-0.8,0.1-0.9c-11.7-2.2-22.7-7.5-30.9-16.6c-14.3-15.2-18.8-37.1-13-57.2c1.2-4,2.7-8,4.5-11.9
	c-19.6-35.5-58.6-106.2-88.8-161l0,0.1c0,0-0.1-0.2-0.3-0.7c-0.6-1-1.1-2-1.7-3c-5.3-8.6-22-29.7-61.4-32.5c-0.2,0-0.4,0-0.7-0.1
	l0,0c-69.7-4.2-115.8,6.4-116.6,40.6c-1.2,57.2,95.1,43.8,66.3-3.4c-17.9-29.3,12.9-34.2,23.2-33.4c14.7,1.1,17.4,10,14.9,19.5
	l-13.8,26.6L73.4,304.4c-9.5,18.2-18,32.9-25.5,44.2c-7.4,11.3-14.7,20-21.9,26.1c-6.9,5.9-14.9,10.8-23.8,14.6
	c-0.5,0.2-0.8,0.7-0.8,1.2v1.8h120.2V391c0-0.7-0.6-1.3-1.3-1.3c-15.7-0.9-27.3-6.8-34.7-17.8c-7.6-11.3-10.5-26.3-8.7-44.9
	c1-10,3.4-20.6,7.2-31.8h135.6l31,56.1c4.8,8.6,6.6,15.7,5.6,21.2C255.3,378.1,251.5,382.2,245,385.1z M85.6,291.5
	c3.2-8.6,62.9-123.7,62.9-123.7l69.3,123.7H85.6z M546.7,344.1c-16.7-11.2-41.3-16.8-73.7-16.8h-60.6c-6.9,0.3-13,0-18.3-0.7
	c-5.8-0.7-10.5-2.1-14.1-3.9c-2.5-1.3-4.5-2.9-5.9-4.7c-3.2-3.4-4.6-7.6-4.5-12.5c0-1,0.1-2-0.6-3.2c-1.5-2.6-4.9-3.3-7.4-1.6
	c-2.8,1.9-5.4,3.8-7.8,5.8c-1.8,1.5-4.4,3.8-6.5,5.7c-1.1,1.1-2.1,2.1-3.1,3.2c-0.2,0.3-0.5,0.5-0.7,0.8
	c-7.4,8.6-11.7,18.9-11.4,30.5c0.8,19.7,14.4,36.1,33.2,42.2c1.9,0.7,4.6,1.3,7.3,1.9c5.8,1.2,11.7,1.8,17.6,1.8h4.7v0
	c1.7,0.1,3.4,0.1,5.1,0.1h48.2c20.2,0,35.4,3,45.3,9.2c10,6.1,15,15.3,15,27.5c0,11.3-3.5,21.4-10.5,30.4c-7,8.9-16.6,15.9-28.8,21
	c-12.2,5.1-26.4,7.6-42.4,7.6c-23.2,0-41.5-4.9-54.9-14.7c-13.4-9.8-20.1-23.4-20.1-40.7c0-0.1,0-0.2,0-0.2
	c0-12.1-9.6-21.9-21.7-21.6c-1.3,0-2.6,0.1-3.9,0.1c-12.5,0.3-24.1,7.1-29.9,18.2c-2.4,4.6-3.5,9.3-3.5,14.3
	c0,14.6,10.4,26.4,31.3,35.3c20.8,8.9,48.7,13.4,83.5,13.4c33.1,0,61.9-4.1,86.4-12.3c24.6-8.2,43.6-19.7,57.2-34.4
	c13.5-14.7,20.3-32.1,20.3-52C571.7,371.7,563.4,355.2,546.7,344.1z"/>
</svg>
