<?xml version="1.0" encoding="UTF-8"?>
<svg id="Layer_1" xmlns="http://www.w3.org/2000/svg" version="1.1" viewBox="0 0 455.7 100">
  <!-- Generator: Adobe Illustrator 30.1.0, SVG Export Plug-In . SVG Version: 2.1.1 Build 136)  -->
  <g>
    <path d="M53,52.9v-.4c0-6.3,5.1-11.4,11.4-11.4h10c2.3,0,4,1.8,4,4v6.3c0,2.3-1.8,4.1-4.1,4.1h-18.9c-1.3,0-2.5-1.2-2.5-2.6Z"/>
    <path d="M44.6,38.1h-.4c-1.1,0-2-.9-2-2v-17c0-1.8,1.5-3.3,3.3-3.3h7.3c2.1,0,3.8,1.7,3.8,3.8v6.5c0,6.6-5.3,12-12,12Z"/>
    <g>
      <path d="M67.2,96.2c-1,.4-2.1-.4-2.1-1.5v-3.8c0-1.2.7-2.3,1.8-2.9,14.7-6.6,24.9-21.6,24.6-38.9-.4-21.8-17.8-39.8-39.5-40.9C27.9,7,7.9,26.2,7.9,50s13.1,35.5,30.9,40.3h0c4.1,1.7,6.7,1.4,7.4,1.3,0,0,0-.1,0-.1-2.6-.5-3.6-1.5-4-2.3,0-.2-.1-.4-.1-.6v-16.8c0-6.6,5.3-11.9,11.9-11.9h0c1.4,0,2.5,1.1,2.5,2.5v28.8h0v4.6c0,1.8-1.4,3.3-3.2,3.5-1.2,0-2.4.1-3.7.1C22.4,99.4.3,77.2.3,50S23.5-.4,51.7.6c25.6,1,46.4,21.7,47.5,47.3.9,21.9-12.6,41-31.9,48.3Z"/>
      <path d="M51.2,42.6c-2,.4-2.9,2.1-3.4,3-.3.6-.4,2.3-.4,3,0,2.5,0,4.9-.7,7.4-.5,2-1.6,3.5-3.1,4.9-.3.3-.7.5-1,.8-.2.1-.3.3-.5.4-.2.1.1-.4.2-.7.8-1.6,1.8-3.4,2-6.8,0-.7,0-1.4.2-2.1,0,0-.1-.1-.1-.2,0,0-.2.1-.2.2-.1.8-.4,1.5-.5,2.3-.4,2.1-1.3,4.1-2.3,6-.7,1.5-2,2.6-3.1,3.8-.4.4-.9.7-1.3,1.1h0c-2.9,1.6-2,4.3-2,4.4-2.3-2.7.3-5.4.3-5.4,2.4-2.6,2.4-5.7,2.4-5.7.2-2.5-1.6-4-3.7-4.6-1.5-.5-3.1-.5-4.7-.7-1.7-.1-3.4-.2-4.9-1-.5-.2-.9-.4-1.3-.8-.7-.6-1.3-1.3-1.7-2.2-.2-.4-.4-.9-.5-1.3s-1.2-2.4-.7-2.8c.2-.2.9,0,1.4,0,2.3.5,4.7.9,7,1.5,1.2.4,2.4.8,3.5,1.3.6.2,1.2.5,1.7.9,1.6,1,2.9,2.2,4.1,3.6.2.2.4.4.5.6s.4.1.4,0c0,0,0-.2,0-.3-1.1-2.1-2.6-4-4.8-5.1-2-1-4.2-1.9-6.5-2.4-2.1-.5-4.3-1.1-6.5-1.4-.9-.1-1.8-.4-2.3-1.3-.3-.5-2.2-4.1-2.3-4.6,0-.1.1-.4.2-.4,3.3-.6,6.5-.4,8.7-.3,1.6,0,3.2.3,4.9.6,1.8.4,3.4,1.4,4.8,2.6,1,.8,1.9,1.6,3,2.3,1.1.7,2.3.7,3.5.7.9,0,1.9-.5,2.7-1.1,1-.7,1.5-1.2,2.3-1.5,1.6-.7,4.5-.2,5,.5.1.4.5.5-.1.6Z"/>
    </g>
  </g>
  <g>
    <g>
      <path d="M124.4,26.7h-4.6l-.8,2.2h-1.9l3.9-10.9h2.1l3.9,10.9h-1.9l-.7-2.2ZM123.9,25.2l-1.8-5.1-1.8,5.1h3.5Z"/>
      <path d="M142.2,28.9l-2.5-4.3h-1.3v4.3h-1.8v-10.9h3.8c.9,0,1.5.1,2.1.4.5.3,1,.7,1.3,1.2.3.5.4,1,.4,1.6s-.2,1.3-.6,2c-.4.5-1,1-1.9,1.2l2.7,4.5h-2.2ZM138.3,23.2h2c.7,0,1.2-.2,1.5-.5s.5-.8.5-1.3-.2-1-.5-1.3c-.3-.3-.9-.5-1.5-.5h-2v3.7h0Z"/>
      <path d="M154.5,20.6c.5-.9,1.2-1.5,2-2,.9-.5,1.8-.7,2.8-.7s2.2.3,3.1.9,1.6,1.4,2,2.4h-2.1c-.3-.5-.7-1-1.2-1.3s-1.1-.4-1.7-.4-1.3.2-2,.5c-.5.3-1,.8-1.3,1.4-.3.6-.5,1.3-.5,2.1s.2,1.5.5,2.1.7,1.1,1.3,1.4c.5.3,1.2.5,2,.5s1.2-.1,1.7-.4.9-.7,1.2-1.3h2.1c-.4,1-1,1.8-2,2.4-.9.5-2,.9-3.1.9s-2-.2-2.8-.7c-.9-.5-1.5-1.2-2-2-.5-.9-.7-1.8-.7-2.9s.2-2.1.7-3Z"/>
      <path d="M182.9,18v10.9h-1.8v-4.8h-5.1v4.8h-1.8v-10.9h1.8v4.7h5.1v-4.6h1.8Z"/>
      <path d="M194.8,18v10.9h-1.8v-10.9h1.8Z"/>
      <path d="M211.6,18.7c.9.4,1.5,1.1,2,1.9.5.9.7,1.8.7,2.9s-.2,2.1-.7,2.9c-.5.8-1.2,1.5-2,1.9s-1.9.7-3.1.7h-3.5v-10.9h3.5c1.2,0,2.2.2,3.1.7ZM211.6,26.5c.7-.7,1-1.6,1-2.9s-.4-2.3-1-3c-.7-.7-1.6-1-2.9-1h-1.8v8h1.8c1.2,0,2.2-.4,2.9-1Z"/>
      <path d="M225.8,18v10.9h-1.8v-10.9h1.8Z"/>
      <path d="M238.1,28.4c-.9-.5-1.5-1.2-2-2s-.7-1.8-.7-2.9.2-2,.7-2.9c.5-.9,1.2-1.5,2-2,.9-.5,1.8-.7,2.8-.7s2,.2,2.8.7,1.5,1.2,2,2c.5.9.7,1.8.7,2.9s-.2,2-.7,2.9c-.5.9-1.2,1.5-2,2s-1.8.7-2.8.7c-1,0-2-.3-2.8-.7ZM242.9,27c.5-.3,1-.8,1.3-1.4.3-.6.5-1.3.5-2.1s-.2-1.5-.5-2.1-.7-1.1-1.3-1.4c-.5-.3-1.2-.5-2-.5s-1.3.2-2,.5c-.5.3-1,.8-1.3,1.4-.3.6-.5,1.3-.5,2.1s.2,1.5.5,2.1.7,1.1,1.3,1.4c.5.3,1.2.5,2,.5s1.3-.2,2-.5Z"/>
      <path d="M256.2,20.6c.5-.9,1.2-1.5,2-2,.9-.5,1.8-.7,2.8-.7s2.2.3,3.1.9,1.6,1.4,2,2.4h-2.1c-.3-.5-.7-1-1.2-1.3s-1.1-.4-1.7-.4-1.3.2-2,.5c-.5.3-1,.8-1.3,1.4-.3.6-.5,1.3-.5,2.1s.2,1.5.5,2.1.7,1.1,1.3,1.4c.5.3,1.2.5,2,.5s1.2-.1,1.7-.4.9-.7,1.2-1.3h2.1c-.4,1-1,1.8-2,2.4-.9.5-2,.9-3.1.9s-2-.2-2.8-.7c-.9-.5-1.5-1.2-2-2-.5-.9-.7-1.8-.7-2.9,0-1.2.2-2.1.7-3Z"/>
      <path d="M277.8,19.5v3.2h3.8v1.5h-3.8v3.4h4.2v1.5h-6v-10.9h6v1.5h-4.2ZM280.5,16.1v1.3l-3.5-1.7v-1.5l3.5,1.9Z"/>
      <path d="M293.6,28.7c-.6-.2-1-.6-1.4-1.1-.3-.5-.5-1-.5-1.6h1.9c0,.5.2.9.5,1.2s.8.4,1.4.4,1.1-.1,1.5-.4.5-.7.5-1.2-.1-.7-.3-.9c-.2-.2-.5-.4-.8-.5-.3-.1-.7-.2-1.3-.4-.7-.2-1.3-.4-1.7-.5-.4-.2-.8-.5-1.2-.9-.3-.4-.5-1-.5-1.6s.2-1.2.5-1.6.7-.9,1.3-1.1c.5-.2,1.2-.4,2-.4,1,0,1.9.2,2.6.8.7.5,1,1.2,1.1,2.2h-2c0-.4-.2-.7-.5-1-.4-.3-.8-.4-1.3-.4s-.9.1-1.3.4c-.3.2-.5.6-.5,1.1s.1.6.3.8c.2.2.5.4.8.5.3.1.7.2,1.3.4.7.2,1.3.4,1.8.6.4.2.9.5,1.2.9s.5,1,.5,1.6-.1,1.1-.4,1.6c-.3.5-.7.9-1.3,1.2-.5.3-1.2.4-2,.4-.8.2-1.4,0-2-.2Z"/>
      <path d="M311.1,19.5v3.2h3.8v1.5h-3.8v3.4h4.2v1.5h-6v-10.9h6v1.5h-4.2Z"/>
    </g>
    <g>
      <path d="M124.4,78h-4.6l-.8,2.2h-1.9l3.9-10.9h2.1l3.9,10.9h-1.9l-.7-2.2ZM123.9,76.6l-1.8-5.1-1.8,5.1h3.5Z"/>
      <path d="M142.2,80.3l-2.5-4.3h-1.3v4.3h-1.8v-10.9h3.8c.9,0,1.5.1,2.1.4.5.3,1,.7,1.3,1.2.3.5.4,1,.4,1.6s-.2,1.3-.6,2c-.4.5-1,1-1.9,1.2l2.7,4.5h-2.2ZM138.3,74.5h2c.7,0,1.2-.2,1.5-.5s.5-.8.5-1.3-.2-1-.5-1.3c-.3-.3-.9-.5-1.5-.5h-2v3.7h0Z"/>
      <path d="M154.5,71.9c.5-.9,1.2-1.5,2-2,.9-.5,1.8-.7,2.8-.7s2.2.3,3.1.9,1.6,1.4,2,2.4h-2.1c-.3-.5-.7-1-1.2-1.3s-1.1-.4-1.7-.4-1.3.2-2,.5c-.5.3-1,.8-1.3,1.4-.3.6-.5,1.3-.5,2.1s.2,1.5.5,2.1.7,1.1,1.3,1.4c.5.3,1.2.5,2,.5s1.2-.1,1.7-.4.9-.7,1.2-1.3h2.1c-.4,1-1,1.8-2,2.4-.9.5-2,.9-3.1.9s-2-.2-2.8-.7-1.5-1.2-2-2c-.5-.9-.7-1.8-.7-2.9s.2-2.1.7-3Z"/>
      <path d="M182.9,69.4v10.9h-1.8v-4.8h-5.1v4.8h-1.8v-10.9h1.8v4.6h5.1v-4.6h1.8Z"/>
      <path d="M199.7,70c.9.4,1.5,1.1,2,1.9.5.9.7,1.8.7,2.9s-.2,2.1-.7,2.9c-.5.8-1.2,1.5-2,1.9-.9.4-1.9.7-3.1.7h-3.5v-10.9h3.5c1.2,0,2.2.2,3.1.6ZM199.5,77.8c.7-.7,1-1.6,1-2.9s-.4-2.3-1-3-1.6-1-2.9-1h-1.8v8h1.8c1.3,0,2.3-.4,2.9-1Z"/>
      <path d="M213.8,69.4v10.9h-1.8v-10.9h1.8Z"/>
      <path d="M226.1,79.7c-.9-.5-1.5-1.2-2-2-.5-.9-.7-1.8-.7-2.9s.2-2,.7-2.9c.5-.9,1.2-1.5,2-2,.9-.5,1.8-.7,2.8-.7s2,.2,2.8.7,1.5,1.2,2,2c.5.9.7,1.8.7,2.9s-.2,2-.7,2.9c-.5.9-1.2,1.5-2,2s-1.8.7-2.8.7c-1,0-2-.3-2.8-.7ZM230.9,78.3c.5-.3,1-.8,1.3-1.4.3-.6.5-1.3.5-2.1s-.2-1.5-.5-2.1-.7-1.1-1.3-1.4c-.5-.3-1.2-.5-2-.5s-1.3.2-2,.5c-.5.3-1,.8-1.3,1.4-.3.6-.5,1.3-.5,2.1s.2,1.5.5,2.1.7,1.1,1.3,1.4c.5.3,1.2.5,2,.5s1.3-.2,2-.5Z"/>
      <path d="M244.3,71.9c.5-.9,1.2-1.5,2-2,.9-.5,1.8-.7,2.8-.7s2.2.3,3.1.9,1.6,1.4,2,2.4h-2.1c-.3-.5-.7-1-1.2-1.3s-1.1-.4-1.7-.4-1.3.2-2,.5c-.5.3-1,.8-1.3,1.4-.3.6-.5,1.3-.5,2.1s.2,1.5.5,2.1.7,1.1,1.3,1.4c.5.3,1.2.5,2,.5s1.2-.1,1.7-.4.9-.7,1.2-1.3h2.1c-.4,1-1,1.8-2,2.4-.9.5-2,.9-3.1.9s-2-.2-2.8-.7-1.5-1.2-2-2c-.5-.9-.7-1.8-.7-2.9,0-1.2.2-2.1.7-3Z"/>
      <path d="M265.8,70.8v3.2h3.8v1.5h-3.8v3.4h4.2v1.5h-6v-10.9h6v1.5h-4.2Z"/>
      <path d="M281.7,80c-.6-.2-1-.6-1.4-1.1-.3-.5-.5-1-.5-1.6h1.9c0,.5.2.9.5,1.2s.8.4,1.4.4,1.1-.1,1.5-.4.5-.7.5-1.2-.1-.7-.3-.9c-.2-.2-.5-.4-.8-.5s-.7-.2-1.3-.4c-.7-.2-1.3-.4-1.7-.5-.4-.2-.8-.5-1.2-.9-.3-.4-.5-1-.5-1.6s.2-1.2.5-1.6.7-.9,1.3-1.1c.5-.2,1.2-.4,2-.4,1,0,1.9.2,2.6.8.7.5,1,1.2,1.1,2.2h-1.9c0-.4-.2-.7-.5-1-.4-.3-.8-.4-1.3-.4s-.9.1-1.3.4c-.3.2-.5.6-.5,1.1s.1.6.3.8c.2.2.5.4.8.5s.7.2,1.3.4c.7.2,1.3.4,1.8.6.4.2.9.5,1.2.9s.5,1,.5,1.6-.1,1.1-.4,1.6-.7.9-1.3,1.2c-.5.3-1.2.4-2,.4-.9.2-1.5,0-2.1-.2Z"/>
      <path d="M299.1,70.8v3.2h3.8v1.5h-3.8v3.4h4.2v1.5h-6v-10.9h6v1.5h-4.2Z"/>
    </g>
    <g>
      <g>
        <path d="M124,60.4c-2.1-1.2-3.7-2.7-4.9-4.8s-1.8-4.4-1.8-7,.6-4.9,1.8-7,2.9-3.7,4.9-4.8c2.1-1.2,4.3-1.7,6.8-1.7s4.8.5,6.8,1.7,3.7,2.7,4.9,4.8c1.2,2.1,1.8,4.4,1.8,7s-.6,4.9-1.8,7-2.8,3.7-4.9,4.8c-2.1,1.2-4.3,1.7-6.8,1.7s-4.7-.5-6.8-1.7ZM135.8,54.2c1.3-1.4,1.9-3.2,1.9-5.6s-.6-4.2-1.9-5.6c-1.3-1.4-2.9-2.1-5.1-2.1s-3.8.7-5.1,2.1c-1.3,1.4-1.9,3.2-1.9,5.6s.6,4.2,1.9,5.6c1.3,1.4,3,2.1,5.1,2.1,2.1,0,3.8-.7,5.1-2.1Z"/>
        <path d="M159.5,56.5v5.4h-3.3c-2.3,0-4.1-.5-5.4-1.7-1.3-1.2-2-3-2-5.6v-8.4h-2.6v-5.4h2.6v-5.1h6.4v5.1h4.2v5.4h-4.2v8.4c0,.6.1,1.1.4,1.3.3.3.8.4,1.5.4h2.3Z"/>
        <path d="M174.8,56.5v5.4h-3.3c-2.3,0-4.1-.5-5.4-1.7-1.3-1.2-2-3-2-5.6v-8.4h-2.6v-5.4h2.6v-5.1h6.4v5.1h4.2v5.4h-4.2v8.4c0,.6.1,1.1.4,1.3.3.3.8.4,1.5.4h2.3Z"/>
        <path d="M178.3,45.7c.8-1.6,2-2.9,3.4-3.8,1.4-.9,3-1.3,4.7-1.3s2.8.3,3.9.9,2,1.4,2.6,2.4v-3h6.4v21h-6.4v-3c-.6,1-1.5,1.8-2.6,2.4s-2.4.9-3.9.9-3.2-.4-4.6-1.3c-1.4-.9-2.5-2.1-3.4-3.8-.8-1.6-1.2-3.5-1.2-5.7,0-2.1.4-4,1.2-5.7ZM191.5,47.6c-.9-.9-2-1.4-3.2-1.4s-2.4.5-3.2,1.4c-.9.9-1.3,2.2-1.3,3.8s.4,2.9,1.3,3.8c.9.9,2,1.4,3.2,1.4s2.4-.5,3.2-1.4c.9-.9,1.3-2.2,1.3-3.8s-.4-2.9-1.3-3.8Z"/>
        <path d="M234.1,40.9l-5.7,21h-7.1l-3.3-13.6-3.4,13.6h-7.1l-5.7-21h6.4l3,15,3.5-15h6.8l3.6,14.9,2.9-14.9h6Z"/>
        <path d="M236.5,45.7c.8-1.6,2-2.9,3.4-3.8,1.4-.9,3-1.3,4.7-1.3s2.8.3,3.9.9,2,1.4,2.6,2.4v-3h6.4v21h-6.4v-3c-.6,1-1.5,1.8-2.6,2.4s-2.4.9-3.9.9-3.2-.4-4.6-1.3c-1.4-.9-2.5-2.1-3.4-3.8-.8-1.6-1.2-3.5-1.2-5.7,0-2.1.4-4,1.2-5.7ZM249.6,47.6c-.9-.9-2-1.4-3.2-1.4s-2.4.5-3.2,1.4c-.9.9-1.3,2.2-1.3,3.8s.4,2.9,1.3,3.8c.9.9,2,1.4,3.2,1.4s2.4-.5,3.2-1.4c.9-.9,1.3-2.2,1.3-3.8s-.5-2.9-1.3-3.8Z"/>
      </g>
      <g>
        <path d="M287,41.7c1.1-2,2.7-3.7,4.7-4.8,2-1.2,4.3-1.7,6.9-1.7s5.8.9,8.1,2.5c2.3,1.6,3.7,3.9,4.5,6.8h-7.1c-.5-1.1-1.3-2-2.3-2.5-1-.5-2.1-.9-3.3-.9-2,0-3.6.7-4.8,2.1s-1.8,3.2-1.8,5.6.6,4.1,1.8,5.6c1.2,1.4,2.8,2.1,4.8,2.1s2.3-.3,3.3-.9c1-.5,1.7-1.4,2.3-2.5h7.1c-.7,2.9-2.3,5.1-4.5,6.8-2.3,1.6-4.9,2.4-8.1,2.4s-4.8-.5-6.9-1.7c-2-1.2-3.6-2.7-4.7-4.8-1.1-2-1.7-4.3-1.7-7s.6-5.1,1.7-7.1Z"/>
        <path d="M319.1,60.9c-1.6-.9-2.9-2.1-3.9-3.8-.9-1.6-1.4-3.5-1.4-5.7s.5-4,1.4-5.7c1-1.6,2.3-2.9,3.9-3.8,1.6-.9,3.5-1.3,5.6-1.3s3.9.4,5.6,1.3c1.6.9,2.9,2.1,3.9,3.8,1,1.6,1.4,3.5,1.4,5.7s-.5,4-1.5,5.7c-1,1.6-2.3,2.9-4,3.8-1.6.9-3.5,1.3-5.6,1.3-1.9,0-3.7-.4-5.4-1.3ZM327.7,55.3c.9-.9,1.3-2.2,1.3-3.9s-.4-3-1.3-3.9c-.9-.9-1.9-1.3-3.1-1.3s-2.3.4-3.1,1.3c-.9.9-1.2,2.2-1.2,3.9s.4,3,1.2,3.9,1.8,1.3,3.1,1.3,2.3-.5,3.2-1.3Z"/>
        <path d="M348.3,41.7c1.1-.7,2.4-1,3.8-1v6.8h-1.8c-1.6,0-2.8.4-3.6,1-.8.7-1.2,1.9-1.2,3.7v9.8h-6.5v-21.1h6.4v3.5c.8-1.1,1.7-2,2.9-2.7Z"/>
        <path d="M373.8,43.1c1.5,1.6,2.2,3.8,2.2,6.6v12.3h-6.4v-11.4c0-1.4-.4-2.5-1.1-3.3s-1.7-1.2-2.9-1.2-2.2.4-2.9,1.2-1.1,1.9-1.1,3.3v11.4h-6.4v-21h6.4v2.8c.7-.9,1.5-1.6,2.6-2.2s2.3-.8,3.7-.8c2.5,0,4.5.7,5.9,2.4Z"/>
        <path d="M410.6,40.9l-5.7,21h-7.1l-3.3-13.6-3.4,13.6h-7.1l-5.7-21h6.4l3,15,3.5-15h6.8l3.6,14.9,2.9-14.9s6,0,6,0Z"/>
        <path d="M412.9,45.7c.8-1.6,2-2.9,3.4-3.8,1.4-.9,3-1.3,4.7-1.3s2.8.3,3.9.9c1.1.6,2,1.4,2.6,2.4v-3h6.4v21h-6.4v-3c-.6,1-1.5,1.8-2.6,2.4s-2.4.9-3.9.9-3.2-.4-4.6-1.3-2.5-2.1-3.4-3.8c-.8-1.6-1.2-3.5-1.2-5.7s.4-4,1.2-5.7ZM426.1,47.6c-.9-.9-2-1.4-3.2-1.4s-2.4.5-3.2,1.4c-.9.9-1.3,2.2-1.3,3.8s.4,2.9,1.3,3.8c.9.9,2,1.4,3.2,1.4s2.4-.5,3.2-1.4c.9-.9,1.3-2.2,1.3-3.8s-.4-2.9-1.3-3.8Z"/>
        <path d="M445,34.1v27.8h-6.4v-27.8h6.4Z"/>
        <path d="M456.1,34.1v27.8h-6.4v-27.8h6.4Z"/>
      </g>
      <rect x="264.5" y="46.8" width="14.5" height="8.4"/>
    </g>
  </g>
</svg>