<?xml version="1.0" encoding="UTF-8"?>
<svg id="Layer_1" xmlns="http://www.w3.org/2000/svg" version="1.1" viewBox="0 0 264.5 100">
  <!-- Generator: Adobe Illustrator 30.1.0, SVG Export Plug-In . SVG Version: 2.1.1 Build 136)  -->
  <g id="surface1">
    <path d="M189,95.7v-.3c.5,0,.8-.1,1.1-.4.2-.2.4-1.6.4-4.1s-.5-1.9-1.4-1.9-1.3.4-2.4,1.2v4c0,.5,0,.8.2,1,.2.2.5.2,1,.2v.3h-3.7v-.3c.8,0,1.2-.4,1.2-1.2v-3.9c0-.3,0-.5,0-.6,0-.2-.2-.3-.5-.3h-.6v-.4l2.1-.8h.3v1.4c.8-.5,1.4-.9,1.7-1,.6-.3,1.1-.4,1.5-.4,1.3,0,2,.9,2,2.8s0,1.8,0,2.5c0,.4,0,.8,0,1.2,0,.5.3.7,1,.7h.4v.3h-3.9"/>
    <path d="M197.6,94.8c-.6.5-1,.8-1.4,1-.2.1-.5.2-.8.2-.5,0-.9-.1-1.3-.4-.3-.3-.5-.6-.5-1.1s.2-.9.6-1.2c.3-.2.8-.4,1.5-.6.5-.1,1.1-.4,1.6-.7v-1.5c0-.5,0-.9-.3-1.2-.3-.4-.6-.5-1-.5s-.6.1-.8.3c-.2.2-.3.4-.3.6s0,.2,0,.4l-1.2.6c0-.1,0-.2,0-.3,0-.4.3-.8.9-1.3.6-.5,1.2-.8,1.8-.8.8,0,1.5.3,1.9,1,.2.3.3.8.3,1.6v2.5c0,.8,0,1.3,0,1.5,0,.2.2.3.4.3s.6-.1.9-.4v.3c-.7.7-1.3,1-1.7,1s-.8-.4-.8-1.1M196.5,92.8c-.6.3-1,.5-1.2.6-.2.2-.3.5-.3.8s.1.6.3.8c.2.2.5.3.8.3s.8-.3,1.5-.8v-2.2c-.3.2-.6.3-1.1.5"/>
    <path d="M210.8,95.7v-.3h.2c.5,0,.8,0,1-.3.2-.2.3-1,.3-2.6v-1.4c0-1.4-.5-2.1-1.4-2.1s-1.4.3-2.5,1v4.2c0,.5,0,.8.2.9.2.2.5.2.9.2v.3h-3.8v-.3c.5,0,.9-.1,1.1-.3.2-.2.3-.6.3-1.1v-3.4c0-.5-.2-1-.4-1.2-.2-.2-.6-.4-.9-.4-.6,0-1.4.4-2.5,1.1v4.2c0,.5,0,.8.3,1,.2.1.5.2,1,.2v.3h-3.8v-.3c.5,0,.8-.1,1-.3.2-.2.3-.6.3-1.1v-3.6c0-.3,0-.5,0-.6,0-.2-.2-.3-.5-.3h-.7v-.4l2.2-.8h.3v1.5c1.4-1,2.5-1.5,3.3-1.5s1.6.5,1.7,1.5c1.6-1,2.7-1.5,3.2-1.5,1.2,0,1.8.9,1.8,2.8s0,2.5,0,3.5c0,.6.3.8,1,.8h.6v.3h-4.1"/>
    <path d="M216.1,94.9c-.6-.7-.9-1.6-.9-2.7s.3-1.9.9-2.7c.7-.8,1.5-1.2,2.6-1.2s1.3.2,1.7.5c.3.2.6.6.8,1,.2.5.4.8.5.9v.4h-5.4c0,.4,0,.6,0,.8,0,.9.3,1.7.8,2.3.6.6,1.2.9,2,.9s1.7-.4,2.3-1.2l.2.2c-1,1.3-2.1,1.9-3.3,1.9s-1.7-.4-2.3-1.1M216.4,90.6h3.8c0-.6-.3-1.1-.7-1.4-.3-.4-.7-.5-1.2-.5-1,0-1.6.7-2,2"/>
    <path d="M127.9,95.7v-.3c.6,0,1-.1,1.2-.3.2-.2.3-.5.3-1v-3.7c0-.3,0-.5,0-.6,0-.2-.2-.2-.5-.3l-.9-.2v-.3l2.4-.8h.3v6.2c0,.7.4,1.1,1.3,1.1v.3h-4.1M129.3,85.2c-.2-.1-.2-.3-.2-.5s0-.4.2-.5c.2-.1.3-.2.6-.2s.4,0,.6.2c.2.1.2.3.2.5s0,.4-.2.5c-.2.1-.3.2-.6.2s-.4,0-.6-.2"/>
    <path d="M137.7,95.7v-.3c.5,0,.8-.1,1.1-.4.2-.2.4-1.6.4-4.1s-.5-1.9-1.4-1.9-1.3.4-2.4,1.2v4c0,.5,0,.8.2,1,.2.2.5.2,1,.2v.3h-3.7v-.3c.8,0,1.2-.4,1.2-1.2v-3.9c0-.3,0-.5,0-.6,0-.2-.2-.3-.5-.3h-.6v-.4l2.1-.8h.3v1.4c.8-.5,1.4-.9,1.7-1,.6-.3,1-.4,1.4-.4,1.3,0,2,.9,2,2.8s0,1.8,0,2.5c0,.4,0,.8,0,1.2,0,.5.3.7,1,.7h.4v.3h-4"/>
    <path d="M144.4,100c-.5,0-.9,0-1.3-.3-.3-.2-.5-.4-.5-.7s0-.4.2-.5c.1-.2.3-.2.5-.2s.5.1.9.4c.4.3.7.4,1,.4,1,0,1.5-.9,1.5-2.7v-9.8c0-.8,0-1.2-.2-1.5-.2-.4-.6-.5-1.3-.5h-.2v-.4h4.6v.4c-.6,0-1,.1-1.2.3-.2.2-.3.5-.3,1v7.8c0,1.8-.3,3.3-1,4.5s-1.6,1.7-2.8,1.7"/>
    <path d="M151.2,94.9c-.6-.7-.9-1.6-.9-2.7s.3-1.9.9-2.7c.7-.8,1.5-1.2,2.6-1.2s1.3.2,1.7.5c.3.2.6.6.8,1,.2.5.4.8.5.9v.4h-5.4c0,.4,0,.6,0,.8,0,.9.3,1.7.8,2.3.6.6,1.2.9,2,.9s1.7-.4,2.3-1.2l.2.2c-1,1.3-2.1,1.9-3.3,1.9s-1.7-.4-2.3-1.1M151.6,90.6h3.8c0-.6-.3-1.1-.7-1.4-.3-.4-.7-.5-1.2-.5-1,0-1.6.7-1.9,2"/>
    <path d="M159.5,95.8c-.3,0-.5-.1-.6-.1s-.2,0-.3.2h-.3l-.2-2.1h.3c.1.5.3,1,.6,1.3s.7.5,1.1.5.7-.1.9-.4c.2-.2.4-.5.4-.9s-.2-.7-.6-1.1c-.3-.3-.7-.6-1.3-1-.5-.4-.9-.6-1.1-.8-.3-.3-.4-.7-.4-1.2s.2-1.1.6-1.5c.4-.4,1-.6,1.7-.6s1,0,1.5.3v1.7s-.3,0-.3,0c0-.5-.2-.8-.5-1.1-.3-.3-.6-.4-1-.4s-.6,0-.8.3-.3.4-.3.7c0,.4.3.9.9,1.3.6.4,1.1.8,1.7,1.1.6.5.9,1.1.9,1.7s-.2,1.1-.6,1.5-1,.6-1.6.6-.4,0-.7-.1"/>
    <path d="M169.8,94.5c-1.4,1-2.4,1.5-3.1,1.5s-.9-.2-1.3-.5c-.4-.3-.6-.8-.6-1.4v-4.1c0-.4-.2-.6-.5-.8l-.6-.2v-.3l2.4-.5v5.1c0,.5.2,1,.5,1.3.3.3.7.4,1.1.4.6,0,1.4-.3,2.2-1v-4c0-.3,0-.6-.1-.7,0-.1-.3-.2-.6-.3l-.9-.2v-.3l2.8-.4v6.2c0,.3.1.5.4.5,0,0,.2,0,.4,0h.4c0,0,0,.3,0,.3l-2.5.8v-1.5"/>
    <path d="M174.6,95.8c-.3,0-.5-.1-.6-.1s-.2,0-.3.2h-.3l-.2-2.1h.3c.1.5.3,1,.6,1.3.3.3.7.5,1.1.5s.7-.1.9-.4c.2-.2.4-.5.4-.9s-.2-.7-.6-1.1c-.3-.3-.7-.6-1.3-1-.5-.4-.9-.6-1.1-.8-.3-.3-.4-.7-.4-1.2s.2-1.1.7-1.5c.4-.4,1-.6,1.7-.6s1,0,1.5.3v1.7s-.3,0-.3,0c0-.5-.2-.8-.5-1.1-.3-.3-.6-.4-1-.4s-.6,0-.8.3-.3.4-.3.7c0,.4.3.9.9,1.3.5.4,1.1.8,1.7,1.1.6.5.9,1.1.9,1.7s-.2,1.1-.7,1.5c-.4.4-1,.6-1.6.6s-.4,0-.7-.1"/>
    <path d="M177.7,87.5c.9-.6,1.4-1.2,1.4-1.8s0-.4-.3-.4h-.2s-.2,0-.2,0c-.2,0-.4,0-.6-.2-.2-.2-.2-.3-.2-.6s0-.4.3-.6c.2-.2.4-.3.7-.3s.7.2.9.4c.2.3.4.6.4,1.1s-.2,1.1-.6,1.6c-.4.5-.9.9-1.5,1.1v-.3"/>
    <path d="M43.5,49c-.2.3-.5.8-.9,1.5,0-2,.2-3.8.5-5.5l-.9,1.2c0-1.6.3-3.3.7-5,.8-3.7,1.9-6.8,3.2-9.3,1.3-2.7,3.1-5,5.1-6.7,1.1-1,2.4-1.8,3.8-2.6,1.5-.9,3.2-1.7,5.1-2.3,1.7-.6,3.5-1,5.3-1.2,1.2-.1,2.9-.2,5-.2s4.3,0,5.5-.1c2.3-.1,4.5-.5,6.6-1-.3,1.9-1.6,3.5-3.9,4.9-1.8,1-4.2,2-7.5,2.9-1,.2-2.4.6-4.1,1-1.9.5-3.2.8-3.7.9-1.1.3-2,.6-2.7.8-.1,0-1.7.8-2,1.2-1.6,1.6-2.8,3.1-3.9,4.4-1.1,1.4-2.2,2.9-3.1,4.4-.9,1.5-1.9,3.2-2.9,5.2-.9,1.8-2,4.2-3.2,7-.1-.5-.2-1-.4-1.4l-2,4.8v-4.8M37.3,29.4c-.5,0-.9,0-1.3.2.2-.8.4-1.3.7-1.7,2.3-3.2,4.7-5.9,7.3-8,2.7-2.2,6.1-4.4,10.3-6.4,3.3-1.7,6.4-3.7,9.1-6,2.6-2.2,4.8-4.6,6.6-7.1,0-.1.2-.2.2-.3h.4c.2.2.3.6.3,1.2,0,.5.1,1.1,0,1.7,0,.6,0,1-.1,1.3-.2.6-.4,1.3-.8,2.2-.6,1.4-1.3,2.8-2.2,4.1-2.5,4.1-5.8,7.1-9.8,9.2-5.2,2.7-8.6,4.4-9.9,5.2-2,1.1-3.4,1.9-4.2,2.6l1-1.5-2,1.5c-.6.4-1.2,1-1.8,1.5l.5-1.1c-1.3.8-2.4,1.6-3.2,2.5l.3-1.1c-.4.1-.8.4-1.2.7l-1.3,1,.8-1.6M50.1,12.6c-.9-.2-1.7-.5-2.5-.9-.8-.5-1.4-1-2-1.7-.5-.7-.9-1.5-1-2.3-.2-.9-.2-1.7,0-2.5.2-.8.5-1.5,1-2.2.5-.7,1.1-1.3,1.9-1.7.8-.5,1.6-.8,2.6-.9.9-.2,1.9-.2,2.8,0,.9.2,1.7.5,2.5,1,.8.5,1.4,1.1,2,1.7.5.7.9,1.5,1,2.3.2.8.2,1.7,0,2.5-.2.8-.5,1.5-1,2.2-.5.7-1.2,1.3-1.9,1.7-.8.5-1.7.8-2.6,1-.5,0-.9.1-1.3.1s-1,0-1.5-.1"/>
    <path d="M59.4,50.8c-.3-.2-.8-.5-1.3-1.1l-.8-.8c-.5-.5-.9-.8-1.2-1h-1.4v2c0,.3,0,.6.2.7.1.1.4.2.7.2h.3v.2h-3.4v-.2h.2c.4,0,.6,0,.7-.2.1-.1.2-.4.2-.8v-5c0-.4,0-.6-.2-.7-.1-.1-.4-.2-.7-.2h-.3v-.2s.5,0,1.5,0c.5,0,1,0,1.5,0,1.1,0,1.9.2,2.4.6.5.4.8.9.8,1.5s-.2.8-.4,1.2c-.3.3-.7.6-1.1.7.4.3.8.7,1.3,1.2l.9.9c.7.7,1.5,1.1,2.3,1.2v.2c-.2,0-.3,0-.5,0-.8,0-1.4-.1-1.8-.3M54.7,43.8v3.9c.1,0,.4,0,.7,0,1.5,0,2.2-.7,2.2-2s-.8-2-2.3-2-.5,0-.6,0"/>
    <path d="M61.8,50.5c-.4-.5-.6-1-.6-1.7s.2-1.3.6-1.7c.4-.5,1-.8,1.7-.8s.9,0,1.1.3c.2.1.4.4.5.7.2.3.3.5.3.6v.3h-3.5c0,.2,0,.4,0,.5,0,.6.2,1.1.6,1.5.4.4.8.6,1.3.6s1.1-.3,1.5-.8h.1c-.7,1-1.4,1.4-2.1,1.4s-1.1-.2-1.5-.7M62.1,47.7h2.4c0-.4-.2-.7-.4-.9-.2-.2-.5-.4-.8-.4-.6,0-1,.4-1.3,1.3"/>
    <path d="M66,51v-.2c.4,0,.6,0,.8-.2.1-.1.2-.3.2-.6v-5.8c0-.2,0-.3,0-.3s-.2-.1-.3-.1h-.5v-.3l1.5-.5h.2v7.1c0,.5.2.7.7.7h.2v.2h-2.7"/>
    <path d="M69.5,50.5c-.4-.5-.6-1-.6-1.7s.2-1.3.6-1.7c.4-.5,1-.8,1.7-.8s.9,0,1.1.3c.2.1.4.4.5.7.2.3.3.5.3.6v.3h-3.5c0,.2,0,.4,0,.5,0,.6.2,1.1.6,1.5.4.4.8.6,1.3.6s1.1-.3,1.5-.8h.1c-.6,1-1.3,1.4-2.1,1.4s-1.1-.2-1.5-.7M69.7,47.7h2.4c0-.4-.2-.7-.4-.9-.2-.2-.5-.4-.8-.4-.6,0-1,.4-1.3,1.3"/>
    <path d="M76.4,50.5c-.4.3-.7.5-.9.6-.2,0-.3.1-.5.1-.3,0-.6,0-.8-.3-.2-.2-.3-.4-.3-.7s.1-.6.4-.8c.2-.2.5-.3,1-.4.4,0,.7-.2,1.1-.5v-.9c0-.4,0-.6-.2-.8-.2-.2-.4-.3-.7-.3s-.4,0-.5.2-.2.2-.2.4v.2s-.8.4-.8.4v-.2c0-.2.2-.5.6-.9.4-.3.8-.5,1.2-.5.5,0,.9.2,1.2.6.1.2.2.5.2,1v1.6c0,.5,0,.8,0,.9s.1.2.3.2.4,0,.6-.3v.2c-.5.4-.9.6-1.1.6s-.5-.2-.6-.7M75.7,49.2c-.4.2-.7.3-.8.4-.2.1-.2.3-.2.5s0,.4.2.5c.1.1.3.2.5.2s.5-.2,1-.5v-1.4c-.2.1-.4.2-.7.3"/>
    <path d="M79.7,51.1c-.2,0-.3,0-.4,0s-.1,0-.2.2h-.2v-1.3c-.1,0,0,0,0,0,0,.3.2.6.4.8.2.2.4.3.7.3s.4,0,.6-.2c.2-.1.2-.3.2-.6s-.1-.5-.4-.7c-.2-.2-.5-.4-.8-.6-.3-.2-.6-.4-.7-.5-.2-.2-.3-.4-.3-.7s.1-.7.4-1c.3-.2.7-.4,1.1-.4s.6,0,.9.2v1.1s-.2,0-.2,0c0-.3-.2-.6-.3-.7s-.4-.3-.6-.3-.4,0-.5.2c-.2.1-.2.3-.2.5,0,.3.2.6.6.8.4.2.7.5,1.1.7.4.3.6.7.6,1.1s-.1.7-.4,1c-.3.3-.6.4-1.1.4s-.3,0-.5,0"/>
    <path d="M82.5,51v-.2c.4,0,.6,0,.8-.2.1-.1.2-.3.2-.7v-2.4c0-.2,0-.3,0-.4,0,0-.2-.2-.3-.2h-.6v-.3l1.6-.5h.2v4c0,.5.3.7.9.7v.2h-2.6M83.5,44.2c-.1,0-.2-.2-.2-.3s0-.2.2-.3c0,0,.2-.1.4-.1s.3,0,.4.1c.1,0,.2.2.2.3s0,.2-.2.3c0,0-.2.1-.4.1s-.3,0-.4-.1"/>
    <path d="M88.9,51v-.2c.3,0,.5,0,.7-.2.1-.2.2-1,.2-2.6s-.3-1.3-.9-1.3-.9.3-1.6.8v2.6c0,.3,0,.5.2.6s.3.2.6.2v.2h-2.4v-.2c.5,0,.8-.2.8-.8v-2.5c0-.2,0-.3,0-.4,0,0-.2-.2-.3-.2h-.4v-.3l1.4-.5h.2v.9c.5-.3.9-.6,1.1-.6.4-.2.7-.3.9-.3.8,0,1.3.6,1.3,1.8s0,1.2,0,1.6c0,.3,0,.5,0,.8,0,.3.2.5.7.5h.3v.2h-2.6"/>
    <path d="M92.5,53.5c-.3-.2-.5-.5-.5-.8s.1-.5.4-.7c.5-.4.7-.6.8-.7-.3,0-.6-.1-.8-.3-.2-.2-.3-.3-.3-.5s.2-.4.5-.5c.5-.2.7-.3.8-.3-.8-.3-1.1-.8-1.1-1.5s.2-1,.6-1.3c.4-.4.9-.5,1.5-.5s1,.2,1.3.5c.3,0,.9,0,1.6-.1v.7c-.4,0-.8,0-1.2-.1.1.2.2.5.2.8,0,.5-.2.9-.6,1.2-.4.3-.9.5-1.5.5s-.3,0-.5,0c0,0-.2.1-.4.3-.2.1-.3.2-.3.3,0,.3.6.4,1.7.4.7,0,1.2,0,1.5,0,.3,0,.5.2.7.3.2.2.4.5.4.8,0,.5-.3.9-.8,1.3-.6.5-1.4.7-2.5.7s-1-.1-1.4-.3M93,51.7c-.2.2-.3.3-.3.5,0,.3.2.6.5.8.4.3.8.4,1.2.4s1-.1,1.4-.4c.4-.3.6-.6.6-1s-.3-.6-.8-.7c-.6,0-1.3,0-2.1,0-.2.2-.3.3-.5.5M93.4,46.7c-.3.2-.4.6-.4,1.1s.1.8.3,1.1c.2.4.5.6,1,.6s.6-.1.8-.4c.2-.3.3-.6.3-1s-.1-.9-.3-1.2c-.2-.3-.5-.4-.9-.4s-.5,0-.7.3"/>
    <path d="M101.5,50.4c-.3-.4-.5-.9-.5-1.5s.3-1.4.8-1.9c.5-.5,1.2-.8,1.9-.8s.7,0,.9.2c.3.1.4.3.4.5s-.1.4-.3.4-.4-.1-.7-.4c-.3-.2-.5-.4-.7-.4-.4,0-.8.2-1.1.6-.3.4-.5.9-.5,1.5s.2,1.1.5,1.5c.3.4.7.6,1.2.6s1-.3,1.4-.9h.2c-.5.9-1.2,1.3-2.1,1.3s-1.2-.3-1.5-.8"/>
    <path d="M109,51v-.2c.3,0,.5,0,.7-.2.2-.2.3-1,.3-2.5s-.4-1.4-1.1-1.4-.8.2-1.4.6v2.9c0,.3,0,.5.1.6.1.1.3.2.6.2v.2h-2.4v-.2c.3,0,.5,0,.6-.2.1-.1.2-.4.2-.7v-5.7c0-.2,0-.4-.3-.4h-.5v-.3l1.4-.5h.2v3.9c.8-.5,1.5-.7,2-.7.9,0,1.3.6,1.3,1.8s0,1.7,0,2.4c0,.2.1.3.3.4.1,0,.3,0,.6,0v.2h-2.6"/>
    <path d="M112,51v-.2c.4,0,.6,0,.8-.2.1-.1.2-.3.2-.7v-2.4c0-.2,0-.3,0-.4,0,0-.2-.2-.3-.2h-.6v-.3l1.6-.5h.2v4c0,.5.3.7.9.7v.2h-2.6M112.9,44.2c0,0-.1-.2-.1-.3s0-.2.1-.3c.1,0,.2-.1.4-.1s.3,0,.4.1c.1,0,.2.2.2.3s0,.2-.2.3c0,0-.2.1-.4.1s-.3,0-.4-.1"/>
    <path d="M115,51v-.2c.4,0,.6,0,.8-.2.1-.1.2-.3.2-.6v-5.8c0-.2,0-.3,0-.3s-.2-.1-.3-.1h-.5v-.3l1.5-.5h.2v7.1c0,.5.2.7.7.7h.2v.2h-2.7"/>
    <path d="M122,51.2v-.8c-.8.6-1.4.8-1.8.8s-1-.2-1.3-.7c-.4-.5-.6-1-.6-1.6s.2-1.4.7-1.9c.5-.5,1.1-.8,1.8-.8s.8,0,1.2.2v-2.3c0-.1,0-.2-.1-.3,0,0-.2,0-.3,0h-.4v-.2l1.7-.5v7c0,.3.1.4.4.4h.2s.3-.1.3-.1v.3l-1.5.6h-.1M119.5,47.1c-.3.4-.4.8-.4,1.4s.2,1.1.4,1.5c.3.4.7.6,1.1.6s.8-.2,1.4-.6v-2.7c-.4-.6-.9-.9-1.4-.9s-.8.2-1.1.6"/>
    <path d="M124,51v-.2c.3,0,.5,0,.6-.2.1-.1.2-.4.2-.7v-2.7l-.8-.3v-.2l1.4-.5h.2v1.3h0c.3-.5.5-.9.6-1,.1-.2.3-.2.5-.2s.2,0,.4.1c.1,0,.3,0,.6.2l-.3.7c-.2,0-.4,0-.6-.2s-.3-.1-.4-.1-.3,0-.5.3c-.2.2-.3.4-.4.6v2.3c0,.2,0,.4.2.5.1,0,.3.1.6.1h.4v.2h-2.8"/>
    <path d="M128.8,50.5c-.4-.5-.6-1-.6-1.7s.2-1.3.6-1.7c.4-.5,1-.8,1.7-.8s.8,0,1.1.3c.2.1.4.4.5.7.2.3.3.5.3.6v.3h-3.5c0,.2,0,.4,0,.5,0,.6.2,1.1.5,1.5.4.4.8.6,1.3.6s1.1-.3,1.5-.8h.1c-.6,1-1.4,1.4-2.1,1.4s-1.1-.2-1.5-.7M129.1,47.7h2.4c0-.4-.2-.7-.4-.9-.2-.2-.5-.4-.8-.4-.6,0-1,.4-1.3,1.3"/>
    <path d="M136.4,51v-.2c.3,0,.5,0,.7-.2.2-.2.2-1,.2-2.6s-.3-1.3-.9-1.3-.9.3-1.6.8v2.6c0,.3,0,.5.2.6,0,.1.3.2.6.2v.2h-2.4v-.2c.5,0,.8-.2.8-.8v-2.5c0-.2,0-.3,0-.4,0,0-.2-.2-.3-.2h-.4v-.3l1.4-.5h.2v.9c.5-.3.9-.6,1.1-.6.4-.2.7-.3.9-.3.8,0,1.3.6,1.3,1.8s0,1.2,0,1.6c0,.3,0,.5,0,.8,0,.3.2.5.7.5h.3v.2h-2.5"/>
    <path d="M142.7,51v-.2c.3,0,.6,0,.7-.2,0-.1.1-.3.1-.7v-3.1h-.9v-.2c.3,0,.6-.2.9-.3,0-1,.3-1.8.9-2.4.6-.6,1.1-.8,1.7-.8s.6,0,.9.2c.2.1.4.2.4.3s0,.2-.1.3c0,.2-.1.2-.2.2-.6-.4-1.1-.6-1.4-.6-.9,0-1.3.6-1.3,1.8v.9h1.2v.5c0,0-1.2,0-1.2,0v3.3c0,.3,0,.4.2.5.1.1.4.2.7.2h.5v.2h-2.9"/>
    <path d="M151.3,50.5c-.5-.5-.8-1.1-.8-1.8s.3-1.4.8-1.9c.5-.4,1.1-.6,1.7-.6s1.3.2,1.8.7c.5.5.7,1.1.7,1.8s-.2,1.3-.7,1.8c-.5.5-1.1.7-1.8.7s-1.3-.2-1.8-.7M151.9,47c-.3.4-.5.8-.5,1.3,0,.7.2,1.3.5,1.8.4.5.8.8,1.3.8s.7-.2,1-.5c.3-.4.5-.8.5-1.4s-.2-1.3-.5-1.8c-.4-.5-.8-.7-1.3-.7s-.7.2-1,.5"/>
    <path d="M162.5,51v-.2h.1c.3,0,.5,0,.6-.2.1-.1.2-.7.2-1.7v-.9c0-.9-.3-1.4-.9-1.4s-.9.2-1.6.7v2.7c0,.3,0,.5.2.6,0,.1.3.2.6.2v.2h-2.4v-.2c.3,0,.6,0,.7-.2.1-.1.2-.4.2-.7v-2.2c0-.3,0-.6-.3-.8-.2-.1-.4-.2-.6-.2-.4,0-.9.2-1.6.7v2.7c0,.3,0,.5.2.6.1,0,.3.1.6.1v.2h-2.5v-.2c.3,0,.5,0,.7-.2s.2-.4.2-.7v-2.3c0-.2,0-.3,0-.4,0-.1-.2-.2-.3-.2h-.5v-.3l1.4-.5h.2v.9c.9-.6,1.6-.9,2.1-.9s1,.3,1.1.9c1-.6,1.7-.9,2.1-.9.8,0,1.2.6,1.2,1.8s0,1.6,0,2.3c0,.4.2.5.6.5h.4v.2h-2.7"/>
    <path d="M168.6,53.8v-.2h.1c.3,0,.5,0,.6-.2.1-.1.2-.4.2-.7v-5.2c0-.2-.1-.3-.3-.4h-.4v-.3l1.3-.8h.2v1.1c.8-.6,1.4-.9,1.8-.9s.9.2,1.2.7c.4.5.5,1,.5,1.6s-.3,1.3-.7,1.9c-.5.5-1.1.8-1.8.8s-.7,0-1.1-.2v1.9c0,.5.3.8.8.8h.3v.2h-2.8M170.3,47.4v2.7c.5.4.9.6,1.4.6s.7-.2,1-.5c.3-.3.4-.8.4-1.3,0-.7-.2-1.3-.5-1.7-.3-.3-.6-.5-1-.5s-.8.2-1.2.6"/>
    <path d="M175.7,50.5c-.5-.5-.7-1.1-.7-1.8s.3-1.4.8-1.9c.5-.4,1.1-.6,1.7-.6s1.3.2,1.8.7c.5.5.7,1.1.7,1.8s-.2,1.3-.7,1.8c-.5.5-1.1.7-1.8.7s-1.4-.2-1.9-.7M176.3,47c-.3.4-.5.8-.5,1.3,0,.7.2,1.3.5,1.8.4.5.8.8,1.3.8s.7-.2,1-.5c.3-.4.5-.8.5-1.4s-.2-1.3-.5-1.8c-.4-.5-.8-.7-1.3-.7s-.8.2-1.1.5"/>
    <path d="M182.9,51.1l-1.7-3.9c-.2-.4-.3-.6-.5-.6h-.4v-.3h2.4v.2c-.5,0-.8.1-.8.3s0,.2.1.4l1.3,3,1.2-2.7c0-.2,0-.3,0-.4,0-.3-.3-.5-.9-.5v-.2h2.1v.2c-.4,0-.7.4-.9.9l-1.6,3.7h-.3"/>
    <path d="M186.6,50.5c-.4-.5-.6-1-.6-1.7s.2-1.3.6-1.7c.4-.5,1-.8,1.7-.8s.9,0,1.1.3c.2.1.4.4.5.7.2.3.3.5.3.6v.3h-3.5c0,.2,0,.4,0,.5,0,.6.2,1.1.5,1.5.4.4.8.6,1.3.6s1.1-.3,1.5-.8h.1c-.6,1-1.3,1.4-2.1,1.4s-1.1-.2-1.5-.7M186.8,47.7h2.4c0-.4-.2-.7-.4-.9-.2-.2-.5-.4-.8-.4-.6,0-1,.4-1.3,1.3"/>
    <path d="M190.9,51v-.2c.3,0,.5,0,.6-.2.1-.1.2-.4.2-.7v-2.7l-.8-.3v-.2l1.4-.5h.2v1.3h0c.3-.5.5-.9.6-1,.1-.2.3-.2.5-.2s.2,0,.4.1c.1,0,.3,0,.6.2l-.3.7c-.2,0-.4,0-.6-.2-.2,0-.3-.1-.4-.1s-.3,0-.5.3c-.2.2-.3.4-.4.6v2.3c0,.2,0,.4.2.5.1,0,.3.1.6.1h.5v.2h-2.8"/>
    <path d="M196.3,50.8c-.2-.3-.3-.6-.3-1v-2.9h-.5v-.2c.5-.2.9-.7,1.1-1.5h.2v1.2h1.7l-.2.5h-1.5v2.8c0,.3,0,.6.3.8.2.1.3.2.5.2.3,0,.5-.2.7-.6l.2.2c-.3.6-.7,1-1.3,1s-.6-.1-.9-.4"/>
    <path d="M200,53.4c0-.2.1-.3.4-.4.3-.1.5-.2.6-.3.2-.2.3-.4.4-.7l.4-.9-1.8-3.9c-.1-.3-.2-.4-.4-.5-.1,0-.3-.2-.6-.2v-.2h2.4v.2c-.5,0-.7.1-.7.3s0,.2.1.4l1.3,2.9,1-2.5c.1-.3.2-.5.2-.7,0-.3-.2-.4-.7-.5v-.2h2v.2c-.4,0-.8.4-1,1l-2,5c-.3.9-.7,1.3-1,1.3s-.5-.1-.5-.4"/>
    <path d="M146.9,51v-.2c.3,0,.5,0,.6-.2.1-.1.2-.4.2-.7v-2.7l-.8-.3v-.2l1.4-.5h.2v1.3h0c.3-.5.5-.9.6-1,.1-.2.3-.2.5-.2s.2,0,.4.1c.1,0,.3,0,.6.2l-.3.7c-.2,0-.4,0-.6-.2-.2,0-.3-.1-.4-.1-.2,0-.3,0-.5.3-.2.2-.3.4-.4.6v2.3c0,.2,0,.4.2.5.1,0,.3.1.6.1h.5v.2h-2.8"/>
    <path d="M6,76C2,72.3,0,67.7,0,62.1s2.1-10.7,6.1-14.4c4-3.8,9.2-5.7,15.6-5.7s5.8.4,8.5,1.2c2.7.8,4.1,1.2,4.2,1.2.6,0,.9-.1,1.1-.4h.9l.5,8.8h-1.2c-1-2.9-2.7-5.1-5.2-6.8-2.4-1.7-5.3-2.5-8.6-2.5-5,0-9,1.6-11.9,4.9-2.9,3.2-4.4,7.4-4.4,12.6s1.7,9.9,5,13.5c3.3,3.6,7.4,5.4,12,5.4s10.6-2.5,14-7.6c.3-.4.5-.9.8-1.3h1.1c-.5,1.8-1.2,3.6-1.9,5.2-.6,1.3-1.2,2.5-2,3.6-.4,0-.9,0-1.3,0-.8,0-2.5.2-5,.8-2.5.5-5,.9-7.4.9-6.1,0-11.2-1.8-15.1-5.4"/>
    <path d="M110.1,95.7v-1.2h.6c1.5,0,2.6-.3,3.1-.9.4-.4.7-1.2.9-2.3h0v-1.2h0c0-.3,0-.8,0-1.2v-26.6c0-1-.5-1.7-1.6-2l-2-.5v-1.1l6.3-3.8h1.4v5.7c3.8-2.9,6.9-4.4,9.3-4.4s4.4,1.1,6.2,3.4c1.8,2.2,2.7,4.8,2.7,7.8s-1.3,6.8-3.8,9.6c-1.3,1.4-2.8,2.4-4.4,3.1-1.4.6-3,.9-4.6.9-1.2,0-2.7-.3-4.4-.8-.4-.1-.8-.3-1.1-.4v9.2h0v2.4c.1,1,.4,1.9,1.1,2.4.7.5,1.7.8,2.9.8h1.5v1.2h-14.2M118.7,61.9v13.8c2.4,2.1,4.8,3.2,7.1,3.2s3.7-.9,5-2.6c1.4-1.7,2-3.8,2-6.3,0-3.6-.9-6.5-2.8-8.5-1.5-1.7-3.2-2.5-5.1-2.5s-4.1,1-6.4,2.9"/>
    <path d="M99.5,80.4v-1.2h.6c1.5,0,2.5-.3,3.2-.9.6-.6.9-3.4.9-8.5v-4.7c0-4.6-1.5-6.9-4.5-6.9-1.9,0-4.6,1.1-8,3.4v13.9c0,1.5.3,2.5.8,3,.5.5,1.5.8,3,.8v1.2h-12.4v-1.2h.5c1.4,0,2.5-.4,3.1-1,.7-.7,1-1.9,1.1-3.6v-11.2c0-1.7-.5-3.1-1.4-4-.7-.7-1.6-1.1-2.7-1.1h-.3c-1.9,0-4.5,1.1-8.1,3.5v13.8c0,1.7.3,2.7,1,3.2.5.4,1.6.5,3.2.5v1.2h-12.6v-1.2c1.6,0,2.8-.3,3.4-1.1.6-.7.9-2,.9-3.6v-11.8c0-1.1,0-1.7-.2-2.1-.2-.6-.8-.9-1.6-1l-2.4-.3v-1l7.3-2.5h.9v4.8c3.3-2.4,6.1-3.9,8.4-4.5.8-.2,1.6-.3,2.3-.3,3.1,0,5.1,1.6,5.7,4.8,5.1-3.2,8.7-4.8,10.6-4.8,4,0,6,3,6,9.1s0,8.3-.2,11.6c0,1.8,1,2.7,3.2,2.7h2v1.2h-13.6"/>
    <path d="M44.1,77.6c-2.5-2.4-3.8-5.4-3.8-8.9,0-3.9,1.4-7.1,4.1-9.5,2.5-2.2,5.5-3.3,8.9-3.3,3.6,0,6.7,1.2,9.2,3.6,2.5,2.4,3.7,5.4,3.8,9,0,3.5-1.3,6.5-3.7,9-2.5,2.4-5.5,3.6-9.1,3.6s-6.9-1.2-9.4-3.6M47.2,60c-1.6,1.8-2.3,4-2.3,6.6,0,3.7.9,6.8,2.7,9.4,1.8,2.5,4,3.7,6.6,3.7s3.7-.9,5.2-2.5c1.6-1.9,2.5-4.3,2.5-7.1,0-3.5-1-6.5-2.8-9-1.8-2.5-4-3.8-6.5-3.8s-3.9.9-5.4,2.8"/>
    <path d="M251.2,80.4v-1.2c1.6,0,2.7-.4,3.5-1.2.8-.8,1.2-5.3,1.2-13.5s-1.6-6.3-4.7-6.3-4.3,1.3-8.1,3.8v13c0,1.7.3,2.8.8,3.3.5.6,1.6.8,3.2.8v1.2h-12.1v-1.2c2.7,0,4-1.2,4-3.8v-12.7c0-1,0-1.7-.2-1.9-.2-.5-.8-.9-1.6-1l-2.1-.4v-1l7-2.5h.9v4.7c2.7-1.7,4.6-2.8,5.7-3.3,1.8-.9,3.4-1.4,4.7-1.4,4.3,0,6.5,3,6.5,9s0,5.9-.2,8.1c0,1.2-.2,2.5-.2,3.8,0,1.6,1.1,2.4,3.4,2.4h1.3v1.2h-13"/>
    <path d="M216.1,80c-1.3-.6-2.4-1.4-3.5-2.4-2.6-2.4-3.8-5.4-3.8-8.9s1.4-7.1,4.2-9.5c2.5-2.2,5.4-3.3,8.9-3.3,3.6,0,6.7,1.2,9.2,3.6.1.1.2.2.3.3,2.3,2.4,3.4,5.3,3.4,8.7,0,3.4-1.1,6.2-3.4,8.6-.1,0-.2.2-.3.3-2,1.9-4.4,3.2-7.1,3.5-.6,0-1.2.1-1.9.1-2.2,0-4.2-.4-5.9-1.2M215.7,60c-1.6,1.8-2.3,4-2.3,6.6,0,3.7.9,6.8,2.7,9.4,1.8,2.5,4,3.7,6.6,3.7s3.6-.9,5.1-2.5c1.7-1.9,2.4-4.3,2.5-7.1,0-3.5-.9-6.5-2.8-9-1.9-2.5-4-3.8-6.5-3.8s-3.8.9-5.3,2.8"/>
    <path d="M195.6,80.4v-1.2c1.8,0,3.1-.3,3.9-1,.7-.7,1.1-1.8,1.1-3.4v-12.1c0-1,0-1.7-.1-2-.2-.5-.8-.8-1.7-1l-2.8-.6v-.9l7.8-2.7h.9v20.3c0,2.3,1.4,3.4,4.4,3.4v1.2h-13.4"/>
    <path d="M183.8,80.7c-.9-.2-1.6-.4-2-.4-.3,0-.6.2-1,.8h-.9l-.7-6.8h1c.3,1.8,1.1,3.2,2.1,4.2.8.8,1.6,1.3,2.6,1.4.3,0,.6,0,1,0s.6,0,1,0c.8-.2,1.4-.5,2.1-1.1.8-.8,1.2-1.7,1.2-2.8s-.6-2.4-1.9-3.6c-1-1-2.4-2.1-4.2-3.3-1.8-1.2-2.9-2.1-3.5-2.7-.9-1-1.4-2.3-1.4-3.8,0-2,.7-3.7,2.2-4.9,1.4-1.3,3.2-1.9,5.5-1.9,1.6,0,3.2.3,4.8.9v5.5c.1,0-.9,0-.9,0-.2-1.5-.8-2.8-1.7-3.7-.9-.9-1.9-1.3-3.1-1.3s-1.9.3-2.6,1c-.8.6-1.1,1.4-1.1,2.4,0,1.4,1,2.9,2.9,4.2,1.8,1.3,3.7,2.5,5.5,3.8,1.9,1.7,2.9,3.5,2.9,5.6s-.7,3.6-2.2,4.9c-.3.3-.6.5-.9.8-1.3.8-2.7,1.2-4.4,1.2s-1.4-.1-2.3-.4"/>
    <path d="M166.8,80.7c-1-.2-1.6-.4-2-.4-.3,0-.7.2-1.1.8h-.9l-.7-6.8h1c.3,1.8,1,3.2,2.1,4.2.8.8,1.7,1.3,2.6,1.4.3,0,.6,0,.9,0s.7,0,1,0c.8-.2,1.5-.5,2.1-1.1.8-.8,1.2-1.7,1.2-2.8s-.6-2.4-2-3.6c-1-1-2.4-2.1-4.1-3.3-1.8-1.2-3-2.1-3.5-2.7-.9-1-1.4-2.3-1.4-3.8s.7-3.7,2.1-4.9c1.4-1.3,3.3-1.9,5.6-1.9,1.6,0,3.2.3,4.8.9l.2,5.5h-1.1c-.2-1.5-.8-2.8-1.7-3.7-.9-.9-1.9-1.3-3.1-1.3s-1.9.3-2.6,1c-.7.6-1.1,1.4-1.1,2.4,0,1.4.9,2.9,2.9,4.2,1.8,1.3,3.6,2.5,5.5,3.8,1.9,1.7,2.9,3.5,2.9,5.6s-.7,3.6-2.1,4.9c-.3.3-.6.5-1,.8-1.3.8-2.7,1.2-4.4,1.2s-1.4-.1-2.3-.4"/>
    <path d="M152.4,80c-.3-.6-.5-1.4-.6-2.5-1.3,1-2.3,1.9-3.2,2.5-.4.2-.8.5-1.2.7-.8.3-1.6.6-2.6.6-1.6,0-2.9-.4-3.9-1.2h-.2c-1-1.1-1.5-2.3-1.5-3.8s.7-3,2.1-4c1.1-.7,2.7-1.4,5-1.9,1.7-.5,3.5-1.2,5.3-2.3v-4.8c0-1.7-.4-3-1-3.9-1-1.2-2.1-1.7-3.4-1.7-1,0-1.9.3-2.6.9-.7.7-1.1,1.3-1.1,2.1s.1.7.3,1.1l-4.1,2c-.1-.4-.2-.6-.2-.8,0-1.2,1-2.7,3-4.4,2.1-1.8,4-2.6,5.9-2.6,2.7,0,4.8,1,6.4,3.2.6.9.9,2.6.9,5.2v8.1c0,2.6,0,4.2.2,4.8.2.7.6,1.1,1.3,1.1.9,0,1.9-.4,3-1.3l.3.9c-1.1.9-2,1.5-2.8,2.1-1.3.8-2.4,1.2-3.2,1.2s-1.7-.4-2.2-1.2M148.1,70.9c-2.1.9-3.4,1.5-3.9,2-.8.6-1.2,1.5-1.2,2.7s.3,1.9,1.1,2.6c.7.7,1.5,1,2.5,1s2.5-.9,5.1-2.7v-7.2c-.9.5-2,1.1-3.5,1.7"/>
    <path d="M262.7,58.3l-.3-.7v-.2c-.2,0-.3,0-.4,0h-.2v.9h-.5v-2.2h.5c.4,0,.7,0,.8,0,.3,0,.4.3.4.5s0,.3-.1.3c0,0-.2.2-.4.2h0c.1,0,.2,0,.3.2l.4.9h-.6M261.9,57h.2c.4,0,.5-.1.5-.3s0-.2-.2-.2-.2,0-.4,0h-.2v.6"/>
    <path d="M260,57.2c0-1.2,1-2.2,2.2-2.2s2.2,1,2.2,2.2-1,2.2-2.2,2.2-2.2-1-2.2-2.2M260.7,57.2c0,.9.7,1.6,1.6,1.6s1.6-.7,1.6-1.6-.7-1.6-1.6-1.6-1.6.7-1.6,1.6"/>
  </g>
</svg>