<?xml version="1.0" encoding="UTF-8"?>
<svg id="font_Mulish" xmlns="http://www.w3.org/2000/svg" version="1.1" viewBox="0 0 84.5 100">
  <!-- Generator: Adobe Illustrator 30.1.0, SVG Export Plug-In . SVG Version: 2.1.1 Build 136)  -->
  <path d="M64.4,35.7h-8.6c-1,0-1.5,0-1.9.2-.3.2-.6.5-.8.8-.2.4-.2.9-.2,1.9v8.6c0,1,0,1.5.2,1.9.2.3.5.6.8.8.4.2.9.2,1.9.2h8.6c1,0,1.5,0,1.9-.2.3-.2.6-.5.8-.8.2-.4.2-.9.2-1.9v-8.6c0-1,0-1.5-.2-1.9-.2-.3-.5-.6-.8-.8-.4-.2-.9-.2-1.9-.2Z"/>
  <path d="M58.2,11.9c-1,0-1.5,0-1.9-.2-.3-.2-.6-.5-.8-.8-.2-.4-.2-.9-.2-1.9V2.9c0-1,0-1.5-.2-1.9-.2-.3-.5-.6-.8-.8-.4-.2-.9-.2-1.9-.2h-8.6c-1,0-1.5,0-1.9.2-.3.2-.6.5-.8.8-.2.4-.2.9-.2,1.9v6.2c0,1,0,1.5-.2,1.9-.2.3-.5.6-.8.8-.4.2-.9.2-1.9.2h-6.2c-1,0-1.5,0-1.9.2-.3.2-.6.5-.8.8-.2.4-.2.9-.2,1.9v6.2c0,1,0,1.5-.2,1.9-.2.3-.5.6-.8.8-.4.2-.9.2-1.9.2h-6.2c-1,0-1.5,0-1.9.2-.3.2-.6.5-.8.8-.2.4-.2.9-.2,1.9v8.6c0,1,0,1.5.2,1.9.2.3.5.6.8.8.4.2.9.2,1.9.2h6.2c1,0,1.5,0,1.9.2.3.2.6.5.8.8.2.4.2.9.2,1.9v30c0,1,0,1.5.2,1.9.2.3.5.6.8.8.4.2.9.2,1.9.2h8.6c1,0,1.5,0,1.9-.2.3-.2.6-.5.8-.8.2-.4.2-.9.2-1.9v-32.3c0-1,0-1.5-.2-1.9-.2-.3-.5-.6-.8-.8-.4-.2-.9-.2-1.9-.2h-6.2c-1,0-1.5,0-1.9-.2-.3-.2-.6-.5-.8-.8-.2-.4-.2-.9-.2-1.9v-3.8c0-1,0-1.5.2-1.9.2-.3.5-.6.8-.8.4-.2.9-.2,1.9-.2h6.2c1,0,1.5,0,1.9-.2.3-.2.6-.5.8-.8.2-.4.2-.9.2-1.9v-6.2c0-1,0-1.5.2-1.9.2-.3.5-.6.8-.8.4-.2.9-.2,1.9-.2h3.8c1,0,1.5,0,1.9.2.3.2.6.5.8.8.2.4.2.9.2,1.9v6.2c0,1,0,1.5.2,1.9.2.3.5.6.8.8.4.2.9.2,1.9.2h8.6c1,0,1.5,0,1.9-.2.3-.2.6-.5.8-.8.2-.4.2-.9.2-1.9v-8.6c0-1,0-1.5-.2-1.9-.2-.3-.5-.6-.8-.8-.4-.2-.9-.2-1.9-.2h-6.2Z" fill-rule="evenodd"/>
  <polygon points="0 90.7 6.5 90.7 6.5 92.2 1.7 92.2 1.7 94.9 5.7 94.9 5.7 96.4 1.7 96.4 1.7 99.8 0 99.8 0 90.7"/>
  <path d="M13.5,95.6l-.9-3.5h-.8l-.9,3.5h2.7,0ZM10.7,90.7h3l2.8,9.2h-1.8l-.8-2.8h-3.5l-.7,2.8h-1.7l2.6-9.2h0Z"/>
  <polygon points="18.6 98.4 21.3 98.3 21.3 92.1 19.1 92.1 19.1 90.7 25.2 90.7 25.2 92.1 23 92.1 23 98.3 25.8 98.4 25.8 99.8 18.6 99.8 18.6 98.4 18.6 98.4"/>
  <polygon points="30.9 92.1 28 92.1 28 90.6 35.5 90.6 35.5 92.1 32.6 92.1 32.6 99.8 30.9 99.8 30.9 92.1 30.9 92.1"/>
  <polygon points="38 90.7 39.7 90.7 39.7 94.1 43.5 94.1 43.5 90.7 45.2 90.7 45.2 99.8 43.5 99.8 43.5 95.5 39.7 95.5 39.7 99.8 38 99.8 38 90.7"/>
  <polygon points="50.6 92.1 47.7 92.1 47.7 90.6 55.3 90.6 55.3 92.1 52.4 92.1 52.4 99.8 50.7 99.8 50.7 92.1 50.6 92.1"/>
  <polygon points="57.9 90.7 64.3 90.7 64.3 92.2 59.6 92.2 59.6 94.5 63.2 94.5 63.2 95.8 59.6 95.8 59.6 98.3 64.5 98.3 64.5 99.8 57.9 99.8 57.9 90.7"/>
  <path d="M66.4,95.2c0-2.8,1.3-4.8,4.3-4.8s3.8,1.2,4.3,3.6l-1.5.3c-.4-1.7-1.3-2.4-2.8-2.4s-2.6,1.2-2.6,3.2.9,3.3,2.7,3.3,2.4-1,2.7-2.6l1.5.3c-.5,2.4-2,3.7-4.4,3.7s-4.3-1.8-4.3-4.8h0Z"/>
  <polygon points="77.3 90.7 78.9 90.7 78.9 94.1 82.8 94.1 82.8 90.7 84.5 90.7 84.5 99.8 82.8 99.8 82.8 95.5 78.9 95.5 78.9 99.8 77.3 99.8 77.3 90.7"/>
</svg>