<?xml version="1.0" encoding="UTF-8"?>
<svg id="Layer_1" xmlns="http://www.w3.org/2000/svg" version="1.1" viewBox="0 0 185.4 100">
  <!-- Generator: Adobe Illustrator 30.1.0, SVG Export Plug-In . SVG Version: 2.1.1 Build 136)  -->
  <path d="M110.5,73.2h-15.6c0,0-.2-5-.2-5-9.1,9-23.8,8-31.9-1.7-2.2-2.6-3.5-5.5-4.9-8.8v15.4c0,0-16.6,0-16.6,0v-29.4s-23.9,0-23.9,0v29.4s-16.5,0-16.5,0V0s16.5,0,16.5,0v29.2s23.8,0,23.8,0V0s16.5,0,16.5,0v43.6c3-10.5,11.1-17,21.7-17.3,5.7-.1,11,1.6,15.2,5.9l.2-4.6h15.6s0,45.5,0,45.5ZM85.4,61.1c6.1-.6,10.1-5.9,9.6-11.7-.5-5.5-5.4-10-11.2-9.7s-10.4,5.7-10,11.5,5.4,10.4,11.6,9.9Z"/>
  <path d="M144.7,52.7c-.4,4,2.3,7.8,6.3,8.8,3.4,1,6.7.7,10.4,0l-10,12.9c-10.5-.7-19.4-7.6-22.6-17.8v16.7c-.1,0-15.8,0-15.8,0V0s15.7,0,15.7,0v44.3c5.2-15,20-21,34.5-16.2,6.5,2.3,11.3,7.3,13.5,13.8l-8.5,10.8h-23.5ZM162.1,43.9c-.3-4.3-3.8-7.2-7.9-7.4s-8.7,2.3-9.4,7.4h17.3Z"/>
  <path d="M50.9,93.1l-4.4-.2v-3s8.6,0,8.6,0c.5,2.5-.2,5.2-2,7.3s-4.2,2.9-6.9,2.8c-5-.1-8.5-4-8.6-8.9s4.1-9.5,9.6-9.2,5.6,1.3,7.1,4l-3.7,1.8c-1.3-1.6-2.6-2.2-4.4-2s-3,1.2-3.8,2.9c-1.2,2.6-.4,6,2.4,7.2s5.5.4,6.2-2.7Z"/>
  <path d="M14,94.2c-.9,3.3-3.7,5.5-7,5.5H1s0-17.4,0-17.4c5,0,11.1-.9,13,5.1s.7,4.4,0,6.7ZM9.9,93.2c.4-1.4.4-3.1,0-4.3-.7-2.3-2.8-3.4-4.9-2.9v10.1c2.1.4,4.2-.5,4.9-2.8Z"/>
  <path d="M111.5,96.3h-6.7c0,0-1.3,3.4-1.3,3.4h-4.2c0,0,6.8-17.4,6.8-17.4h4s6.8,17.3,6.8,17.3h-4.2c0,.1-1.2-3.3-1.2-3.3ZM110.2,92.6l-2-5.3-1.9,5.3h3.9Z"/>
  <path d="M168.2,73l13.1-16.8c3.8,3.8,4,9.9.9,13.9s-8.9,5.7-14,2.9Z"/>
  <polygon points="88.4 99.6 84.4 99.7 84.4 85.7 80.3 85.7 80.3 82.3 92.4 82.3 92.4 85.7 88.4 85.8 88.4 99.6"/>
  <polygon points="134.2 96.2 131.6 99.7 124.6 99.7 124.6 82.3 128.6 82.3 128.6 96.1 134.2 96.2"/>
  <polygon points="27.7 99.6 23.8 99.7 23.8 82.3 27.7 82.3 27.7 99.6"/>
  <polygon points="69.6 99.6 65.6 99.7 65.6 82.3 69.5 82.3 69.6 99.6"/>
</svg>