<?xml version="1.0" encoding="UTF-8"?>
<svg id="font_Mulish" xmlns="http://www.w3.org/2000/svg" version="1.1" viewBox="0 0 315.9 100">
  <!-- Generator: Adobe Illustrator 30.1.0, SVG Export Plug-In . SVG Version: 2.1.1 Build 136)  -->
  <g>
    <path d="M67,43.8c-.6-1.6-.8-3.7-.8-6,0-3.7.7-6.5,2.1-8.5,1.4-2.1,3.7-3,6.7-3s5.3,1,6.8,3.1,2.2,4.8,2.2,8.5,0,1.5,0,2.2c4.6-1,9.5-1.8,14.4-2.6,0-4.4-1-8.2-2.9-11.5-1.9-3.4-4.6-6.1-8.1-7.9s-7.6-2.9-12.4-2.9-8.8,1-12.3,2.9c-3.5,1.9-6.2,4.6-8,7.9-1.9,3.4-2.8,7.3-2.8,12s.6,6.7,1.8,9.5c4.3-1.2,8.7-2.4,13.4-3.6h0Z"/>
    <path d="M82.6,45.1c-.2.5-22.4,5.3-26.8,6.5,1.8,2.6,4.1,4.7,7,6.2,3.5,1.9,7.6,2.9,12.3,2.9s8.9-1,12.4-2.9c3.5-1.9,6.2-4.6,8.1-8,1.2-2.3,2.1-4.8,2.5-7.6-5.3.9-10.4,1.8-15.4,2.9h0Z"/>
  </g>
  <g>
    <path d="M118.4,34.7v-8.5h5.8c1.9,0,3.5.4,4.4,1.1,1,.7,1.5,1.8,1.5,3.2s-.4,2.5-1.3,3.2c4.8-.4,9.5-.7,14.2-1,.1-.8.2-1.8.2-2.6,0-4.4-1.5-7.9-4.3-10.4-2.9-2.5-7-3.7-12.3-3.7h-22v20.6c4.6-.7,9.1-1.2,13.7-1.8h.2Z"/>
    <path d="M135.8,44c-.5-.4-1.1-.7-1.6-1,.5-.2,1-.4,1.5-.6,2.5-1.2,4.4-2.8,5.7-4.8,0,0,0,0,0-.2-12.2.7-24.5,1.9-36.7,3.7v18.9h13.7v-15.6h1.2c.8,0,1.6.1,2.4.4.8.3,1.3.7,1.6,1.4l7.6,13.9h15.1l-6.9-11.9c-1-1.7-2.2-3.1-3.7-4.2h.1Z"/>
  </g>
  <g>
    <path d="M166.6,32.2V15.9h-13.7v16.5c4.6,0,9.1-.1,13.7,0h0Z"/>
    <path d="M152.9,37v23h13.7v-23.1c-4.6,0-9.1,0-13.7,0h0Z"/>
  </g>
  <g>
    <path d="M190.9,33.4c1.5,0,2.9.2,4.4.4,3.6.4,7.1.7,10.7,1.1l7.8-9.1v-9.8h-37.3v10.9h20.1l-5.7,6.5h0Z"/>
    <path d="M202.4,39.1c-2.4-.3-4.9-.5-7.3-.8-2.6-.2-5.2-.4-7.8-.7l-10.7,12.4v9.8h38.4v-10.9h-21.2l8.6-10h0Z"/>
  </g>
  <g>
    <path d="M220.6,41.8c.4,2.9,1.2,5.7,2.6,8,1.9,3.5,4.6,6.1,8,8,3.5,1.9,7.6,2.9,12.3,2.9s8.9-1,12.4-2.9c2.6-1.4,4.7-3.2,6.5-5.5-5-4.2-36.6-9.5-41.7-10.5h0Z"/>
    <path d="M234.6,39.4v-1.5c0-3.7.7-6.5,2.1-8.5,1.4-2.1,3.7-3,6.7-3s5.3,1,6.8,3.1,2.2,4.8,2.2,8.5-.2,3.8-.7,5.4c4.5,1.2,9,2.4,13.5,3.7,1-2.7,1.5-5.8,1.5-9.1s-1-8.5-2.9-12c-1.9-3.4-4.6-6.1-8.1-7.9s-7.6-3-12.4-3-8.8,1-12.3,2.9c-3.5,1.9-6.2,4.6-8,7.9-1.8,3.2-2.6,6.8-2.8,10.9,4.8.8,9.6,1.6,14.4,2.6h0Z"/>
  </g>
  <path d="M303.2,15.9v22.3l-18.8-22.3h-10v34c4.3,1.4,8.6,2.9,12.9,4.5v-16.7l18.7,22.3h10V15.9h-12.8Z"/>
  <g>
    <path d="M40,87.5c-1.8,0-3.2-.4-4.5-1-1.2-.7-2.2-1.6-2.9-2.8s-1-2.6-1-4.3.4-3.1,1-4.3c.7-1.2,1.6-2.1,2.9-2.8,1.2-.7,2.8-1,4.5-1s2.1.1,2.9.4,1.6.7,2.3,1.2l-1.2,3.2c-.7-.5-1.3-.8-1.9-1s-1.2-.3-2-.3c-1.4,0-2.4.4-3.1,1.2s-1.1,1.9-1.1,3.3.4,2.6,1.1,3.4,1.8,1.2,3.1,1.2,1.4,0,2-.3,1.2-.5,1.9-1l1.2,3.2c-.7.5-1.4,1-2.3,1.2-1,.3-1.9.4-2.9.4h0Z"/>
    <path d="M46.7,79.4c0-1.6.4-3.1,1-4.3.7-1.2,1.5-2.1,2.8-2.8,1.2-.7,2.6-1,4.3-1s3.1.4,4.3,1,2.1,1.6,2.8,2.8,1,2.6,1,4.3-.4,3.1-1,4.3c-.7,1.2-1.5,2.1-2.8,2.8-1.2.7-2.6,1-4.3,1s-3.1-.4-4.3-1c-1.2-.7-2.1-1.6-2.8-2.8s-1-2.6-1-4.3ZM51.1,79.4c0,1.5.3,2.6,1,3.4.6.8,1.5,1.2,2.7,1.2s2.1-.4,2.8-1.2c.7-.8,1-1.9,1-3.4s-.3-2.6-1-3.4-1.5-1.2-2.8-1.2-2.1.4-2.7,1.2c-.6.8-1,1.9-1,3.4h0Z"/>
    <path d="M65.5,87.2v-15.6h4.2v12.3h6.8v3.4h-11Z"/>
    <path d="M78.7,87.2v-15.6h4.2v12.3h6.8v3.4h-11Z"/>
    <path d="M91.9,87.2v-15.6h11.4v3.1h-7.3v3h6.8v3.2h-6.8v3.2h7.3v3.2s-11.4,0-11.4,0Z"/>
    <path d="M113.8,87.5c-1.8,0-3.4-.4-4.6-1s-2.2-1.6-2.9-2.8-1-2.6-1-4.2.4-3.1,1.1-4.3,1.8-2.2,3.1-2.8c1.4-.7,2.9-1,4.8-1s2.1.1,3.1.4c.9.2,1.6.7,2.3,1.2l-1.2,3.2c-.5-.3-1-.5-1.3-.7-.4-.2-.8-.3-1.2-.4s-1,0-1.5,0c-1.5,0-2.7.4-3.5,1.2s-1.2,1.9-1.2,3.5.4,2.6,1.1,3.4,1.8,1.2,3.4,1.2,1,0,1.5-.1c.5,0,1.1-.2,1.6-.4l-.7,1.5v-3.7h-3.2v-2.8h6.7v7.8c-.8.4-1.8.7-2.9,1s-2.1.4-3.2.4h0v-.2Z"/>
    <path d="M122.8,87.2v-15.6h11.4v3.1h-7.3v3h6.8v3.2h-6.8v3.2h7.3v3.2s-11.4,0-11.4,0Z"/>
    <path d="M156.8,87.5c-.7-.1-1.4-.4-2.1-.8-.7-.4-1.3-.8-1.9-1.2h.8c-.7.7-1.5,1.1-2.5,1.5s-1.8.5-2.9.5-2.3-.2-3.2-.6-1.6-1-2.1-1.6c-.5-.7-.7-1.5-.7-2.4s.3-1.8,1-2.6c.6-.7,1.4-1.3,2.4-1.8l.8-.4-.7.7c-.6-.5-1-1.1-1.3-1.6s-.4-1.2-.4-1.9.2-1.5.7-2.1c.4-.7,1-1.1,1.8-1.4.8-.4,1.6-.5,2.6-.5s2.4.4,3.2,1c.8.7,1.2,1.6,1.2,2.7s-.1,1.1-.4,1.6-.7,1-1.1,1.4c-.5.4-1.1.8-1.8,1.2v-.7c0,0,3.5,3.3,3.5,3.3h-.8c.4-.7.7-1.3.9-2.1s.4-1.5.4-2.3h3.3c0,1.2-.3,2.4-.7,3.5s-.9,2.1-1.5,2.9v-.8c.4.4.9.7,1.4,1s1,.4,1.6.6l-1.2,2.8h-.1ZM148.7,84.5c.5,0,1.1,0,1.5-.3s.9-.5,1.3-.9v.8c0,0-4.6-4.3-4.6-4.3h1.6l-.6.3c-.4.2-.7.4-1,.7s-.4.5-.6.8-.2.7-.2,1c0,.6.2,1,.7,1.3s1,.5,1.8.5h.1ZM148.9,73.9c-.4,0-.8.1-1.1.4s-.4.6-.4,1,0,.4.1.7c0,.2.2.4.4.7s.4.5.8.8h-.9c.8-.4,1.4-.7,1.8-1s.5-.8.5-1.2-.1-.7-.4-1-.6-.4-1-.4h0Z"/>
    <path d="M172.2,87.5c-1.2,0-2.5-.1-3.7-.5s-2.1-.7-2.9-1.2l1.2-3.2c.5.3,1,.6,1.6.8.6.2,1.2.4,1.8.5s1.3.2,1.9.2c1,0,1.6-.1,2.1-.4.4-.2.6-.6.6-1s0-.7-.4-.8-.7-.4-1.5-.5l-2.7-.5c-1.5-.3-2.5-.8-3.2-1.5s-1.1-1.7-1.1-2.9.3-1.9.8-2.6,1.4-1.4,2.4-1.8,2.2-.7,3.6-.7,2.2.1,3.2.5c1,.3,1.8.7,2.4,1.2l-1.2,3c-.6-.4-1.2-.8-2.1-1-.7-.2-1.6-.4-2.5-.4s-1.5.1-2,.4c-.4.2-.7.7-.7,1.1s.1.7.4.9.7.4,1.5.5l2.7.5c1.5.3,2.5.8,3.2,1.5s1.1,1.6,1.1,2.8-.3,1.9-.8,2.6c-.6.8-1.4,1.4-2.4,1.8s-2.2.7-3.5.7h0Z"/>
    <path d="M181.5,87.2v-15.6h11.4v3.1h-7.3v3h6.8v3.2h-6.8v3.2h7.3v3.2s-11.4,0-11.4,0Z"/>
    <path d="M195.4,87.2v-15.6h3.7l5.2,11.5h-.7l5.1-11.5h3.6v15.6h-3.7v-9.5h1l-4.5,9.5h-2.4l-4.5-9.6h1.1v9.6h-4Z"/>
    <path d="M215.5,87.2v-15.6h4.2v15.6h-4.2Z"/>
    <path d="M222.7,87.2v-15.6h3.1l8,9.8h-.7v-9.8h3.8v15.6h-3.1l-8-9.8h.7v9.8h-3.9,0Z"/>
    <path d="M238.2,87.2l7.3-15.6h3.4l7.4,15.6h-4.2l-1.9-4.3,1.6,1.2h-9.3l1.5-1.2-1.9,4.3h-4.1.1ZM247.3,75.8l-2.6,6.2-.7-1h6.6l-.6,1-2.6-6.2h0Z"/>
    <path d="M257.7,87.2v-15.6h7.5c1.8,0,3.2.4,4.3,1.3s1.5,2.1,1.5,3.5-.2,1.9-.7,2.6-1.1,1.3-1.9,1.7-1.9.6-3.1.6l.2-.6h1.1c.7,0,1.2.2,1.8.5.5.4,1,.9,1.2,1.5l2.4,4.5h-4.6l-2.6-4.9c-.1-.4-.4-.6-.7-.7s-.7-.2-1.1-.2h-1.2v5.8h-4.2.1ZM261.9,78.5h2.6c.8,0,1.4-.1,1.8-.5.4-.3.7-.8.7-1.4s-.2-1.1-.7-1.4-1-.5-1.8-.5h-2.6v3.8h0Z"/>
    <path d="M277.6,87.2v-7.5l.8,2.3-7.1-10.4h4.8l4,6.2h-.8l4-6.2h4.6l-7.1,10.4.8-2.3v7.5h-4.2,0Z"/>
  </g>
  <path d="M159.3,42.9c58.5,0,110.6,9.2,144.3,23.4-29.6-17.9-83.2-29.9-144.3-29.9S44.5,48.4,14.9,66.3c33.8-14.3,85.9-23.4,144.3-23.4Z"/>
  <g>
    <path d="M16.3,43.2h15.3v11.3c4-1.4,8.5-2.9,13.7-4.6V15.9h-13.7v16.2h-15.3V15.9H2.6v44.1h13.7v-16.8h0Z"/>
    <path d="M31.7,59.3v.7l13.7-4v-1.3c-5.1,1.5-9.7,3.1-13.7,4.6Z"/>
  </g>
</svg>