<?xml version="1.0" encoding="UTF-8"?>
<svg id="Layer_1" xmlns="http://www.w3.org/2000/svg" version="1.1" viewBox="0 0 469 100">
  <!-- Generator: Adobe Illustrator 30.1.0, SVG Export Plug-In . SVG Version: 2.1.1 Build 136)  -->
  <path d="M180.6,53l7.6,10.8h-7.8l-7.2-10h-15.3v10h-7.3v-29.2h26.2c3.1,0,9.6,1.8,9.6,9.6s-3,7.7-5.7,8.8M175.7,40.9h-17.8v6.6h17.8c.6,0,3.4-.6,3.4-3.4s-2.4-3.4-3.4-3.4"/>
  <path d="M316.2,53l7.4,10.8h-7.8l-7.2-10h-15.3v10h-7.3v-29.2h26.2c3.1,0,9.6,1.8,9.6,9.6s-3,7.7-5.7,8.8M311.2,40.9h-17.8v6.6h17.8c.6,0,3.2-.6,3.2-3.4s-2.4-3.4-3.2-3.4"/>
  <polygon points="215.9 46.1 184.8 12.9 214.6 69.9 256.7 4.7 215.9 46.1"/>
  <path d="M221.7,31.5c-.7,3.5-3.4,5.9-6.1,5.3-2.6-.6-4.3-3.6-3.6-7.2s3.4-5.9,6.1-5.3c2.6.6,4.3,3.6,3.6,7.2" fill-rule="evenodd"/>
  <rect y="34.2" width="7.3" height="29.2"/>
  <polygon points="47.4 63.4 26.2 43 26.2 63.4 18.9 63.4 18.9 34.2 26.2 34.2 47.4 54.7 47.4 34.2 54.8 34.2 54.8 63.4 47.4 63.4"/>
  <polygon points="83.1 40.5 83.1 63.4 75.8 63.4 75.8 40.5 62.7 40.5 62.7 34.2 96.3 34.2 96.3 40.5 83.1 40.5"/>
  <polygon points="105 63.4 105 34.2 140.2 34.2 140.2 40.5 112.4 40.5 112.4 45.7 136.8 45.7 136.8 51.4 112.4 51.4 112.4 57 141.4 57 141.4 63.4 105 63.4"/>
  <path d="M270.8,63.4l-3.4-5.9h-20.6l-3.4,5.9h-7.8l16.9-29.2h9.4l16.9,29.2h-8ZM257.3,39.6l-6.7,11.7h13.3l-6.7-11.7h.1Z"/>
  <path d="M346.2,64.5s-8.7,0-15.6-3.5l2.5-5.9c6.1,3.1,13,3.1,13,3.1,8.3,0,12.3-1.7,12.3-4.1s-1.3-2.2-4-2.4c-1.3,0-7.2-.3-13.6-.6-6.5-.3-11.1-3-11.1-8.3s7.3-9.7,18.8-9.7c0,0,8.6,0,15.6,3.2l-2.2,5.7c-3.5-1.4-9-2.6-13.3-2.6-6.6,0-11.8,1.3-11.8,3.5s1.3,2.1,3.6,2.2c2.6,0,7.6.3,14.2.6,6.6.3,10.8,3,10.8,8s-6.2,10.5-19.4,10.5"/>
  <rect x="375.7" y="34.2" width="7.3" height="29.2"/>
  <polygon points="411.3 40.5 411.3 63.4 404 63.4 404 40.5 390.8 40.5 390.8 34.2 424.5 34.2 424.5 40.5 411.3 40.5"/>
  <polygon points="452.9 53.5 452.9 63.4 445.4 63.4 445.4 54 429.3 34.2 438.2 34.2 449.1 47.3 459.9 34.2 469 34.2 452.9 53.5"/>
</svg>