<?xml version="1.0" encoding="UTF-8"?>
<svg id="font_Mulish" xmlns="http://www.w3.org/2000/svg" version="1.1" viewBox="0 0 336.1 100">
  <!-- Generator: Adobe Illustrator 30.1.0, SVG Export Plug-In . SVG Version: 2.1.1 Build 136)  -->
  <g>
    <path d="M19.6,80.8c6.7,5.2,11.4,6.9,14.7,8.1.6.2,1.2.5,1.8.7.5.2.8.4,1.1.5.4-.2.8-.4,1.1-.5.5-.2,1.1-.5,1.8-.7,3.4-1.2,8-2.9,14.7-8.1,4.6-3.6,12.3-10.8,12.3-19.7V7.7H7.5v53.5c0,9.5,8.3,17,11.9,19.7h.2ZM53.2,58.5c.8,3.1,1,6.3.4,9.3-.3,1.5-.8,3.1-1.7,4.4-.9,1.6-2.3,3-3.8,4.3-1.5,1.2-3.2,2.3-5,3.1-1,.5-2.1.7-3.2.8-.2,0-1.4.2-2.2.2-.5-1.1-.9-2.4-1.1-3.7-.2-2.1,0-4,.7-5.9h0c.2,0,.5,0,.7-.2.2,0,.5,0,.7-.2h0c.3,0,.6-.2.9-.3,1.1-.4,2.1-.8,3.1-1.5,1.5-.9,2.7-2,3.7-3.2,2.6-3.1,4-6.6,4.3-10.2v-2.7c1.1,1.8,1.9,3.7,2.4,5.7h0ZM22,44.9c5.7-7.2,13.1-15.1,12.5-24.6,0-1.6-.5-3.1-1.2-4.5,0,0,26.7,17.3,12.5,35.4-5.7,7.2-13.1,15.1-12.5,24.6,0,1.6.5,3.1,1.2,4.5-3.2-2.1-7.2-4.4-9-7.8-2.7-4.7-1.1-9.5,1-13.3,2.4-4.1,5.7-8.7,8.7-12.4,6-7.3,7.4-8.6,3.4-14,.4,4.1-1.6,5.8-8.6,13.8-4.8,5.6-8.4,11.3-9.9,18.5-3.1-6-4-13.1,1.8-20.2h0Z"/>
    <path d="M0,.1v62.5c0,11.8,9.5,21.1,15,25.3,9.5,7.3,15.8,8.9,19.6,10.4,1.8.7,2.7,1.8,2.7,1.8h0s.8-1.1,2.7-1.8c3.8-1.5,10.1-3.1,19.6-10.4,5.4-4.2,15.4-13.5,15.4-25.3V.1H0ZM70.7,61.1c0,10.5-8.9,18.7-13.7,22.5-8.4,6.5-14.1,7.9-17.4,9.2-1.6.6-2.4,1.6-2.4,1.6h0s-.8-.9-2.4-1.6c-3.4-1.3-8.9-2.7-17.4-9.2-4.8-3.7-13.3-12-13.3-22.5V4.2h66.5v57h0Z"/>
  </g>
  <g>
    <path d="M142.7,4.5l-13.4,31.3-13.5-31.3h-30.9v84.2h30.4v-9.4l4,9.4h20.2l4-9.4v9.4h30.4V4.5h-31.2ZM169.3,9.6v74.6h-21.6v-26.7l-11.1,26.2-.2.5h-14.4l-.2-.5-11.1-26.2v26.7h-21.6V8.8h23.7l.2.5,16.2,37.6,16.1-37.6.2-.5h23.8v.8h0Z"/>
    <polygon points="129.3 55.5 110.7 12.3 92.6 12.3 92.6 80.8 107.4 80.8 107.4 40.5 124.3 80.8 134.2 80.8 151.1 40.5 151.1 80.8 165.9 80.8 165.9 12.3 147.9 12.3 129.3 55.5"/>
  </g>
  <g>
    <path d="M245.9,53.3l-8.1-5.4c.2,0-7.4,9.5-7.9,9.9-3.4,3.2-7.9,3.3-12,1.5-1.5-.7-2.8-1.5-3.8-2.7-1.1-1.1-1.9-2.6-2.5-4.1-.6-1.7-1-3.6-1-5.6s.4-4.3,1.1-6.1c.7-1.8,1.5-3.3,2.7-4.5,1.1-1.2,2.3-2.1,3.9-2.7,1.5-.7,3.3-1,5.3-1s2.7.3,4.1.9c1.1.5,2,1.1,2.7,2.1l6.7,8.5,25.1-18.6-7-8.9c-3.8-4.9-8.8-8.5-14.7-10.8-5.3-2.1-11-3.1-16.6-3.1s-12.4,1.1-17.9,3.3c-5.6,2.2-10.4,5.4-14.4,9.5-4,4-7.1,8.9-9.3,14.3-2.1,5.4-3.3,11.3-3.3,17.5s1,10.6,3.1,15.7c2.1,5.2,5,9.9,8.9,13.9,3.8,4.1,8.6,7.4,14,9.9,5.6,2.6,11.8,3.9,18.5,3.9s9.3-.6,13.3-1.9c8.8-2.8,15.7-7.9,20.6-15.2l5.2-7.8-16.5-12.2ZM252.9,70.5c-4.2,6.3-10.2,10.7-17.9,13.2-3.4,1.1-7.3,1.7-11.7,1.7s-11.5-1.1-16.3-3.4c-4.8-2.2-8.9-5.2-12.4-8.8-3.4-3.6-6-7.7-7.8-12.3-1.8-4.5-2.7-9.2-2.7-13.9s1-10.8,2.9-15.6,4.7-9.1,8.2-12.6c3.5-3.6,7.8-6.3,12.7-8.3,4.8-1.9,10.2-2.9,15.9-2.9s9.9.9,14.7,2.8c5.1,2,9.3,5,12.6,9.2l3.7,4.7-16.9,12.5-3.6-4.6c-1.2-1.6-2.7-2.7-4.7-3.6-2.1-.9-4-1.4-6.2-1.4s-5.3.5-7.4,1.5c-2.2,1-4,2.3-5.6,4-1.6,1.8-2.8,3.8-3.7,6.2-.9,2.4-1.4,5.1-1.4,7.9s.5,5,1.3,7.3c.8,2.2,2,4.2,3.5,5.9,1.5,1.6,3.4,2.9,5.6,3.9,4.2,1.8,10.6,2.5,14.2.2,2.5-1.6,4.7-3.7,6.5-6.1.8-1.1,1.6-2.4,2.4-3.5l3.9,2.8,12.5,9.3-2.4,3.7h0Z"/>
    <path d="M232.7,67.2c-2.4,1.3-5.3,1.9-8.6,1.9s-6.5-.6-9.2-1.8-5-2.7-6.8-4.7-3.3-4.4-4.3-7c-1-2.7-1.5-5.6-1.5-8.6s.5-6.3,1.6-9.2,2.5-5.3,4.4-7.3,4.1-3.7,6.8-4.9c2.6-1.1,5.6-1.8,8.9-1.8s5.2.5,7.6,1.7c2.4,1.1,4.4,2.6,6,4.6l1.5,1.8,11.1-8.2-1.5-1.8c-2.9-3.6-6.6-6.3-11.1-8.1-4.4-1.7-8.9-2.5-13.4-2.5s-10.2.9-14.6,2.7c-4.4,1.8-8.2,4.3-11.5,7.5-3.1,3.2-5.7,7-7.4,11.4-1.8,4.4-2.6,9.2-2.6,14.2s.8,8.4,2.4,12.5,4,7.9,7.1,11.2c3.1,3.3,6.9,6,11.2,7.9,4.4,2.1,9.4,3.1,14.8,3.1s7.5-.5,10.5-1.5c6.9-2.2,12.3-6.2,16-11.8l.5-.8-10.8-8s-2.1,4.8-7.6,7.6h.2Z"/>
  </g>
  <g>
    <path d="M319.1,36.8l17-15-6.7-7.9c-3.8-4.5-8.4-7.6-13.7-9.2-4.2-1.2-8.6-1.8-13.2-1.8s-10.1.8-14.1,2.6c-4,1.7-7.4,3.9-10.2,6.5-2.8,2.7-5,6-6.3,9.4-1.3,3.3-2,6.6-2,9.8,0,6.2,1.4,11.5,4.1,15.6,2.1,3.1,4.6,5.7,7.5,7.8l-17.4,14.6,6,8.1c3.4,4.6,8,8,13.7,10.2,5,1.9,10.2,2.8,15.7,2.8s8.3-.6,12.1-1.8c4-1.3,7.6-3.2,10.7-5.7,3.2-2.6,5.7-5.9,7.6-9.7,1.9-3.9,2.8-8.2,2.8-12.8s-1.5-11.2-4.4-15.2c-2.4-3.3-5.4-6-9-8h0ZM325.7,71c-1.6,3.2-3.7,6-6.4,8.2-2.6,2.1-5.7,3.8-9.2,5-3.4,1.1-7,1.7-10.8,1.7s-9.6-.8-14.1-2.5c-4.9-1.8-8.8-4.8-11.7-8.7l-3.1-4.2-.4-.5.5-.5,16.1-13.4.6-.5.5.7,3.6,5.2c.9,1.3,2,2.3,3.4,2.8,1.6.8,3.3,1.1,5,1.1s1.8-.2,2.7-.4c.8-.2,1.5-.6,2.2-1.1.5-.4,1-.8,1.3-1.4.2-.3.3-.7.3-1.2v-.7c-1-.8-2.4-1.5-4-2.1-2.2-.8-4.6-1.6-7.3-2.4-3.3-.9-6.4-2.3-9.2-4-3.1-1.9-5.8-4.5-7.9-7.6-2.3-3.4-3.4-7.9-3.4-13.1s.5-5.3,1.7-8.2c1.1-2.9,3-5.5,5.3-7.9,2.4-2.3,5.3-4.1,8.8-5.7,3.5-1.5,7.7-2.2,12.4-2.2s8.2.5,11.9,1.7c4.4,1.3,8.3,3.9,11.6,7.8l3.5,4.1.5.5-.5.5-16.1,14.3-.6.5-.5-.7-3.7-5.5c-.5-.7-1.2-1.3-2.1-1.8-1.1-.5-2.4-.8-3.9-.8s-2.9.2-3.7.5c-.8.3-1.3.6-1.6.9-.3.3-.5.5-.5.8-.2.5-.2.8-.2,1,0,1,.2,1.4.2,1.5,1,.9,2.3,1.6,3.9,2.2,2.1.8,4.4,1.5,7,2.1,3.3.8,6.3,2.1,9.2,3.5,3.1,1.8,5.9,4,8,7,2.4,3.3,3.6,7.5,3.6,12.6s-.8,7.6-2.4,10.9l-.3.2Z"/>
    <path d="M315,43.5c-2.5-1.4-5.3-2.4-8.3-3.2-2.7-.7-5.1-1.5-7.3-2.3-2-.8-3.7-1.8-5-2.9-.4-.3-1.4-1.3-1.4-4s.2-1.4.5-2.1c.2-.7.7-1.4,1.4-2.1.7-.7,1.6-1.2,2.8-1.7,1.2-.5,2.9-.8,5-.8s3.9.4,5.5,1.2c1.5.8,2.7,1.8,3.5,3l1.9,2.9,11.8-10.5-1.8-2.1c-2.8-3.4-6.1-5.6-9.9-6.7-3.5-1-7.2-1.5-11-1.5s-8,.7-11.2,2c-3.1,1.3-5.7,3-7.7,4.9-2.1,2-3.6,4.2-4.6,6.6-.9,2.4-1.5,4.7-1.5,6.9,0,4.6,1,8.4,2.8,11.2,1.8,2.7,4.1,5,6.8,6.6,2.5,1.5,5.3,2.7,8.4,3.7,2.7.8,5.2,1.6,7.5,2.4,2,.8,3.7,1.7,5,2.7.5.5,1.3,1.3,1.3,3.3s-.2,2.2-.8,3.1c-.6,1-1.3,1.8-2.2,2.4-1,.7-2.1,1.2-3.2,1.5-1.2.4-2.4.5-3.6.5-2.2,0-4.3-.5-6.3-1.4-2-.8-3.5-2.2-4.8-4l-1.8-2.7-11.8,9.9,1.6,2.1c2.5,3.4,6,6,10.2,7.6,4,1.5,8.3,2.3,12.8,2.3s6.6-.5,9.7-1.5c3.1-1,5.8-2.4,8.1-4.4s4.2-4.3,5.6-7.1c1.4-2.8,2.1-6,2.1-9.4s-1-7.9-2.9-10.5c-1.8-2.5-4.1-4.5-6.9-6h-.2Z"/>
  </g>
</svg>