<?xml version="1.0" encoding="UTF-8"?><svg id="Layer_2" xmlns="http://www.w3.org/2000/svg" viewBox="0 0 143.7804 19.6232"><g id="Components"><g id="_x37_1ce6e95-dd0f-435c-b395-29dc1f64a105_x40_4"><path d="M7.1823,1.8041c2.1573.0098,3.9859.3712,5.7252,1.1428.8517.3778,1.606.9176,2.3091,1.523.4088.352.3707.5418-.1116.8213-.5617.3256-.553.3157-1.0405-.1157-.8366-.7404-1.8339-1.1974-2.8838-1.5294-1.2947-.4094-2.6282-.6527-3.9889-.619-1.1099.0275-2.1687.2933-3.1066.9362-.6827.468-1.0767,1.5613-.9162,2.3867.2831,1.4568,1.357,2.0191,2.612,2.3753,1.2078.3428,2.4794.2889,3.7005.5403,1.2484.257,2.4279.6632,3.3865,1.5961,1.472,1.4325,1.4527,4.3027-.4748,5.6242-1.456.9983-3.0724,1.2008-4.7679,1.1248-1.1879-.0533-2.3395-.3002-3.4703-.6543-1.3643-.4273-2.5874-1.1087-3.6433-2.0749-.3737-.3419-.3413-.4151.051-.7122.3635-.2753.6632-.3413,1.0495-.0036,1.2237,1.0697,2.7025,1.6451,4.2665,1.9426,1.6374.3114,3.2922.4627,4.9208-.1589,1.5292-.5837,2.2058-1.9352,1.636-3.4649-.2549-.6844-.8289-1.1065-1.4628-1.4322-1.1026-.5665-2.3212-.6443-3.5162-.7626-1.2759-.1264-2.4961-.3778-3.6265-1.0073-1.9463-1.0838-2.5933-3.6235-1.3375-5.462.636-.9311,1.5966-1.4461,2.6658-1.7427.743-.2061,1.5054-.3035,2.024-.2736Z"/><path d="M7.525.0151c2.016-.0692,3.8419.3874,5.6204,1.084.2492.0976.5643.164.422.5478-.187.5048-.5651.7572-.9209.6113-.8596-.3525-1.7435-.6217-2.6562-.7875-2.1848-.3969-4.3249-.4057-6.3675.6604C1.3761,3.3038.552,6.135,1.9942,8.2988c.722,1.0832,1.7592,1.6628,2.9434,2.0572.6211.2068,1.2606.3253,1.9078.4189.4051.0586.4393.1946.2611.5512-.2529.5062-.5553.7198-1.1883.5945-1.9744-.3907-3.7652-1.0878-4.9537-2.8057C-.8297,6.5215-.1795,2.3841,3.4101.7899,4.7441.1974,6.1488-.0687,7.525.0151Z"/><path d="M8.2311,19.4302c-1.412-.0272-2.8346-.1993-4.2213-.6124-.4972-.1481-.4494-.1968-.2491-.6434.4034-.8996,1.0654-.4495,1.6024-.3238,1.3622.319,2.7424.396,4.1118.2612,1.5439-.152,2.9732-.7026,4.0201-1.9239.8938-1.0427,1.202-2.258.8891-3.6226-.4638-2.0228-1.8965-3.0176-3.7467-3.5707-.4973-.1487-.5563-.2558-.2651-.701.3772-.5768.5035-.6012,1.1636-.3707,1.5795.5517,2.8373,1.4818,3.6467,2.9779.4774.8825.5819,1.8234.5495,2.8054-.0297.9-.2284,1.7339-.6984,2.515-.794,1.3195-1.9489,2.1653-3.3742,2.6747-1.0974.3922-2.2386.5202-3.4284.5343Z"/><path d="M3.7264,5.9171c-.0945-.8536.4188-1.3478,1.04-1.7755.2567-.1767.4337-.1069.5811.1684.311.5813.3099.6453-.1665,1.1005-.3785.3617-.2368,1.0147.3036,1.3078.3633.197.7647.3343,1.171.3701.6492.0571,1.2814.2344,1.9429.2209.3099-.0064.7851-.0114.8842.2782.1018.2976-.2915.5726-.4755.8518-.0993.1506-.2679.2293-.4484.1921-.9986-.2057-2.0427-.16-3.0089-.5401-.4244-.167-.8381-.3525-1.1774-.6743-.4337-.4112-.7208-.8797-.6461-1.5Z"/><path d="M12.0234,13.494c.0802.7879-.3036,1.308-.9248,1.7058-.2533.1622-.4463.1168-.545-.1507-.1411-.3823-.3732-.7511.0937-1.1371.3417-.2825.2139-.7999-.2066-1.0939-.5541-.3873-1.2036-.4911-1.8562-.5699-.1268-.0153-.2573-.0023-.3834-.0204-.2178-.0313-.311-.1581-.1932-.3593.1436-.2451.3075-.4789.4727-.7105.078-.1094.1998-.1671.3367-.1493.8836.115,1.7299.3447,2.4634.8751.548.3962.8222.9323.7427,1.6101Z"/><path d="M86.7571.8553h1.9019c.8514,0,1.5623.1523,2.1321.4563s.9974.7237,1.2823,1.2583c.2849.5345.4274,1.1478.4274,1.8393s-.1425,1.3047-.4274,1.8393c-.2849.5348-.7125.9558-1.2823,1.2632s-1.2807.461-2.1321.461h-1.9019V.8553ZM88.073,1.8735v5.0809h.7396c.7683,0,1.3461-.2289,1.7337-.6866.3872-.4579.581-1.0742.581-1.8491,0-.7812-.1938-1.4007-.581-1.8584-.3877-.4577-.9654-.6868-1.7337-.6868h-.7396Z"/><path d="M93.8358.8553h1.3159v7.1172h-1.3159V.8553Z"/><path d="M102.3168,7.4634c-.2242.1859-.5474.3379-.9701.4563-.4225.1184-.8739.1777-1.3542.1777-.7172,0-1.3302-.1457-1.8393-.4372-.5091-.2912-.8981-.7123-1.1669-1.2629-.269-.5507-.4035-1.2134-.4035-1.9883,0-.762.1378-1.4182.4131-1.9691.2751-.5504.6691-.9731,1.1814-1.2678.5121-.2942,1.1268-.4418,1.8442-.4418.8323,0,1.556.1793,2.1706.538l-.3073,1.0948c-.2882-.2111-.578-.3664-.8694-.4657s-.5939-.149-.9075-.149c-.698,0-1.2312.2321-1.5992.6964-.3683.4643-.5523,1.1158-.5523,1.9546,0,.8645.184,1.527.5523,1.9883.368.461.9042.6915,1.6088.6915.1857,0,.3601-.0175.5233-.0528.1635-.0353.3122-.0848.4467-.149v-1.8442h-1.4311v-1.0275h2.6604v3.4576Z"/><path d="M103.7574.8553h1.3159v7.1172h-1.3159V.8553Z"/><path d="M108.2234,1.883h-2.0649V.8553h5.4459v1.0278h-2.0651v6.0895h-1.3159V1.883Z"/><path d="M112.5171,4.4091c.4288-1.191.8676-2.3787,1.3157-3.5634h1.4986c.4544,1.1847.8963,2.3724,1.3253,3.5634.429,1.191.8484,2.379,1.2583,3.5634h-1.3638c-.096-.3073-.1955-.6163-.2977-.9269-.1025-.3106-.2018-.6196-.2977-.9269h-2.7855c-.2048.6277-.4066,1.2454-.6051,1.8537h-1.3157c.4161-1.1845.8386-2.3724,1.2678-3.5634ZM115.0959,3.5591c-.1763-.5154-.354-1.0292-.5331-1.5415-.1793.5124-.3554,1.0261-.5282,1.5415-.1728.5156-.3459,1.0294-.5187,1.5415h2.0938c-.1665-.5121-.3377-1.0259-.5138-1.5415Z"/><path d="M119.1731.8553h1.3159v6.0895h2.9007v1.0278h-4.2166V.8553Z"/><path d="M86.8435,12.3811h1.2391l2.382,4.8121,2.382-4.8121h1.2006l.173,7.1172h-1.2008l-.1151-4.9081-2.0747,4.2166h-.7973l-2.0651-4.1974-.1151,4.8889h-1.1814l.1728-7.1172Z"/><path d="M96.5923,15.9349c.4288-1.191.8676-2.3787,1.3157-3.5634h1.4986c.4544,1.1847.8963,2.3724,1.3253,3.5634.429,1.191.8484,2.379,1.2583,3.5634h-1.3638c-.096-.3073-.1955-.6163-.2977-.9269-.1025-.3106-.2018-.6196-.2977-.9269h-2.7855c-.2048.6277-.4066,1.2454-.6051,1.8537h-1.3157c.4161-1.1845.8386-2.3724,1.2678-3.5634ZM99.1712,15.0849c-.1763-.5154-.354-1.0292-.5331-1.5415-.1793.5124-.3554,1.0261-.5282,1.5415-.1728.5156-.3459,1.0294-.5187,1.5415h2.0938c-.1665-.5121-.3377-1.0259-.5138-1.5415Z"/><path d="M103.2483,12.3811h1.9497c.5507,0,1.0422.0738,1.4745.2209.432.1474.7713.3666,1.0179.6578.2466.2914.3699.6581.3699,1.0999,0,.4481-.1233.8197-.3699,1.1142s-.5843.5091-1.0133.6434c.3713.1922.7235.5572,1.0565,1.095.333.5378.6852,1.3001,1.0567,2.286h-1.4696c-.237-.6083-.4514-1.0997-.6436-1.4743-.192-.3746-.3778-.6644-.557-.8694-.1793-.2048-.3683-.344-.5668-.4178-.1985-.0736-.426-.1105-.6819-.1105h-.3073v2.8719h-1.3159v-7.1172ZM106.3171,15.3681c.2786-.2048.4178-.493.4178-.8643,0-.3778-.1392-.6611-.4178-.85s-.6357-.2835-1.071-.2835h-.6819v2.3054h.6819c.4353,0,.7924-.1025,1.071-.3076Z"/><path d="M109.8086,12.3811h1.3159v3.0352c.4481-.5058.8916-1.0116,1.3302-1.5175s.8692-1.0119,1.2919-1.5177h1.5656c-.9542,1.095-1.9402,2.19-2.9583,3.2848.538.6212,1.0854,1.2615,1.6424,1.921.5572.6597,1.0822,1.2968,1.5754,1.9114h-1.6714c-.429-.5507-.8837-1.1221-1.3638-1.7146-.4804-.592-.9509-1.1669-1.4119-1.7239v3.4385h-1.3159v-7.1172Z"/><path d="M116.6568,12.3811h4.3126l-.1151,1.0182h-2.8815v1.8537h2.3147v1.0278h-2.3147v2.1994h3.0926v1.0182h-4.4085v-7.1172Z"/><path d="M123.6393,13.4088h-2.0649v-1.0278h5.4459v1.0278h-2.0651v6.0895h-1.3159v-6.0895Z"/><path d="M128.1056,12.3811h1.3159v7.1172h-1.3159v-7.1172Z"/><path d="M131.1312,12.3811h1.3351l3.0256,4.764-.0096-.5187v-4.2453h1.1814v7.1172h-1.0854l-3.2657-5.1867v5.1867h-1.1814v-7.1172Z"/><path d="M143.7804,18.9892c-.2242.1859-.5474.3379-.9701.4563-.4225.1184-.8739.1777-1.3542.1777-.7172,0-1.3302-.1457-1.8393-.4372-.5091-.2912-.8981-.7123-1.1669-1.2629-.269-.5507-.4035-1.2134-.4035-1.9883,0-.762.1378-1.4182.4131-1.9691.2751-.5504.6691-.9731,1.1814-1.2678.5121-.2942,1.1268-.4418,1.8442-.4418.8323,0,1.556.1793,2.1702.538l-.3073,1.0948c-.2877-.2111-.5775-.3664-.869-.4657s-.5939-.149-.9075-.149c-.698,0-1.2312.2321-1.5992.6964-.3683.4643-.5523,1.1158-.5523,1.9546,0,.8645.184,1.527.5523,1.9883.368.461.9042.6915,1.6088.6915.1857,0,.3601-.0175.5233-.0528.1635-.0353.3122-.0848.4467-.149v-1.8442h-1.4311v-1.0275h2.6604v3.4576Z"/><path d="M21.5646,3.8087h-5.2663V.6638h14.6259v3.1449h-5.2413v15.3498h-4.1183V3.8087Z"/><path d="M33.2704,14.7782c-.6324-1.4726-.9484-3.1655-.9484-5.0792,0-1.8302.3202-3.4483.961-4.8546.6403-1.4058,1.5973-2.5083,2.8703-3.307,1.273-.7987,2.8409-1.198,4.7047-1.198,1.8969,0,3.4819.3993,4.7549,1.198,1.2727.7987,2.2295,1.9012,2.8703,3.307.6403,1.4063.9607,3.0244.9607,4.8546,0,1.9138-.3162,3.6066-.9484,5.0792-.6326,1.4726-1.585,2.6249-2.8579,3.4569-1.2727.8321-2.8663,1.2477-4.7796,1.2477-1.8967,0-3.4779-.4157-4.7423-1.2477-1.2646-.8321-2.2131-1.9843-2.8453-3.4569ZM45.151,9.699c0-1.9467-.3662-3.4775-1.098-4.5923-.7326-1.1146-1.7972-1.6723-3.1949-1.6723-1.3645,0-2.4128.5577-3.1447,1.6723-.7326,1.1149-1.0983,2.6456-1.0983,4.5923,0,2.0303.3657,3.6484,1.0983,4.8546.7319,1.2066,1.7802,1.8096,3.1447,1.8096,1.3811,0,2.4418-.603,3.1823-1.8096.7403-1.2062,1.1107-2.8243,1.1107-4.8546Z"/><path d="M52.7133.6638h5.3662c1.5137,0,2.8535.1915,4.0183.574,1.1644.383,2.0798.961,2.7456,1.7346.6653.7739.9983,1.7433.9983,2.9079,0,1.1149-.3038,2.0427-.911,2.783-.6076.7405-1.4521,1.294-2.5335,1.6597.9486.5159,1.847,1.4726,2.6956,2.8703.8486,1.3977,1.7386,3.3862,2.6706,5.9652h-4.6423c-.5827-1.5639-1.1067-2.8203-1.5723-3.7689-.4661-.9484-.9154-1.6679-1.3479-2.159-.4327-.4904-.882-.8237-1.3477-.9983-.4661-.1747-.9902-.262-1.5726-.262h-.4491v7.1882h-4.1183V.6638ZM60.7502,8.3137c.6322-.4904.9484-1.152.9484-1.9841,0-.8486-.3162-1.4934-.9484-1.9343-.6326-.4409-1.4645-.6616-2.4959-.6616h-1.4227v5.3163h1.4227c1.0315,0,1.8633-.2452,2.4959-.7363Z"/><path d="M77.5224,11.7706v7.3879h-4.1183v-7.4129l-6.1649-11.0818h4.4926l3.8187,7.5876,3.7439-7.5876h4.3179l-6.0899,11.1068Z"/></g></g></svg>