<?xml version="1.0" encoding="UTF-8"?><svg id="Layer_2" xmlns="http://www.w3.org/2000/svg" viewBox="0 0 100.1423 35.5252"><g id="Components"><g id="_x32_22fa69a-55c2-4541-b050-6ae6a1611ceb_x40_4"><path d="M8.295,2.3491c2.4915.0113,4.6033.4287,6.6121,1.3198.9837.4364,1.8548,1.0597,2.6668,1.759.4722.4066.4281.6257-.1289.9485-.6487.376-.6386.3646-1.2017-.1337-.9661-.855-2.118-1.3829-3.3305-1.7663-1.4952-.4728-3.0353-.7538-4.6068-.7148-1.2819.0317-2.5046.3387-3.5878,1.0812-.7884.5404-1.2434,1.8032-1.0582,2.7564.327,1.6824,1.5672,2.3319,3.0166,2.7433,1.3949.3959,2.8635.3336,4.2738.624,1.4418.2969,2.804.7659,3.9111,1.8434,1.7,1.6545,1.6777,4.9692-.5484,6.4955-1.6815,1.1529-3.5484,1.3868-5.5066,1.299-1.3719-.0615-2.702-.3467-4.0079-.7557-1.5757-.4935-2.9882-1.2805-4.2077-2.3963-.4316-.3949-.3941-.4794.0589-.8225.4198-.318.766-.3942,1.212-.0042,1.4133,1.2354,3.1211,1.9,4.9274,2.2435,1.891.3597,3.8022.5344,5.6831-.1836,1.7661-.6742,2.5474-2.235,1.8894-4.0017-.2944-.7905-.9573-1.2779-1.6894-1.6541-1.2733-.6543-2.6808-.7441-4.0609-.8807-1.4736-.1459-2.8827-.4363-4.1883-1.1633-2.2478-1.2517-2.9951-4.1848-1.5447-6.3082.7345-1.0753,1.8439-1.6701,3.0788-2.0127.8581-.238,1.7386-.3505,2.3375-.316Z"/><path d="M8.6907.2829c2.3283-.08,4.4371.4474,6.4911,1.252.2878.1127.6517.1894.4874.6327-.216.583-.6526.8745-1.0636.706-.9928-.4072-2.0136-.718-3.0677-.9095-2.5232-.4584-4.9949-.4686-7.3539.7627-2.5948,1.3544-3.5465,4.6241-1.8809,7.1232.8338,1.251,2.0318,1.9204,3.3994,2.3758.7173.2389,1.4558.3757,2.2033.4838.4678.0677.5073.2247.3016.6366-.2921.5846-.6414.8313-1.3724.6866-2.2803-.4512-4.3485-1.2563-5.7211-3.2404C-.9582,7.7973-.2073,3.0189,3.9383,1.1777c1.5407-.6843,3.163-.9916,4.7524-.8948Z"/><path d="M9.5061,22.7056c-1.6307-.0314-3.2737-.2302-4.8752-.7072-.5742-.171-.519-.2273-.2877-.7431.4659-1.039,1.2304-.5191,1.8506-.3739,1.5732.3684,3.1672.4574,4.7487.3017,1.7831-.1755,3.4338-.8114,4.6429-2.2219,1.0323-1.2042,1.3882-2.6078,1.0268-4.1838-.5356-2.3362-2.1903-3.485-4.3271-4.1238-.5743-.1717-.6424-.2954-.3062-.8096.4357-.6661.5815-.6944,1.3439-.4281,1.8242.6372,3.2769,1.7113,4.2116,3.4392.5514,1.0192.6721,2.1059.6346,3.2399-.0344,1.0395-.2638,2.0025-.8065,2.9046-.917,1.5239-2.2508,2.5007-3.8969,3.089-1.2674.4529-2.5854.6008-3.9595.617Z"/><path d="M4.3036,7.0993c-.1091-.9859.4837-1.5566,1.2011-2.0505.2964-.2041.5009-.1235.6711.1945.3592.6714.3579.7452-.1923,1.271-.4372.4177-.2735,1.1719.3507,1.5104.4196.2276.8832.3861,1.3524.4274.7497.066,1.4799.2708,2.2439.2551.3579-.0073.9067-.0132,1.0212.3213.1176.3437-.3366.6613-.5492.9838-.1147.174-.3094.2648-.5178.2219-1.1533-.2376-2.3592-.1847-3.475-.6238-.4901-.1928-.9679-.4072-1.3598-.7788-.5009-.4749-.8324-1.016-.7461-1.7323Z"/><path d="M13.886,15.8499c.0927.91-.3506,1.5107-1.0681,1.9701-.2925.1873-.5154.1349-.6295-.174-.163-.4415-.431-.8675.1082-1.3133.3947-.3262.2471-.9239-.2386-1.2633-.6399-.4473-1.39-.5671-2.1438-.6582-.1464-.0177-.2971-.0026-.4428-.0236-.2515-.0362-.3592-.1826-.2231-.4149.1658-.2831.3552-.5531.5459-.8205.0901-.1263.2308-.193.3889-.1725,1.0205.1328,1.9979.3982,2.845,1.0107.6329.4576.9495,1.0767.8578,1.8596Z"/><path d="M.4192,28.15h1.9368c.8674,0,1.5908.155,2.1716.4647.5799.3097,1.0153.7371,1.3057,1.2813.2899.5445.4354,1.169.4354,1.8731s-.1455,1.3286-.4354,1.8731c-.2904.5445-.7258.9733-1.3057,1.2862-.5809.3131-1.3042.4696-2.1716.4696H.4192v-7.248ZM1.7596,29.187v5.1742h.7532c.7824,0,1.3706-.2331,1.7655-.6995.3944-.4661.5916-1.0939.5916-1.8829,0-.7954-.1972-1.4263-.5916-1.8927-.3949-.4661-.9831-.6992-1.7655-.6992h-.7532Z"/><path d="M7.6282,28.15h1.3404v7.248h-1.3404v-7.248Z"/><path d="M16.2649,34.8796c-.2279.1891-.5574.3439-.9879.4647-.43.1206-.8898.1808-1.3789.1808-.7302,0-1.3545-.1481-1.8729-.4452-.5189-.2965-.9147-.7253-1.1886-1.2862-.2738-.5606-.411-1.2357-.411-2.0247,0-.7759.1401-1.4443.4208-2.0052.2802-.5606.6814-.9911,1.2032-1.2911.5213-.2999,1.1476-.45,1.8778-.45.8479,0,1.5844.1828,2.2107.5479l-.3129,1.1151c-.2938-.2153-.5887-.3734-.8854-.4744s-.6048-.1516-.9245-.1516c-.7107,0-1.2535.2362-1.6283.709-.3749.473-.5623,1.1363-.5623,1.9905,0,.8803.1874,1.5551.5623,2.0247s.9211.7043,1.6381.7043c.1894,0,.3671-.0178.5335-.0539.166-.0356.3178-.0862.4544-.1516v-1.878h-1.457v-1.0465h2.709v3.5213Z"/><path d="M17.7317,28.15h1.3404v7.248h-1.3404v-7.248Z"/><path d="M22.2799,29.1968h-2.1028v-1.0468h5.5459v1.0468h-2.1033v6.2012h-1.3399v-6.2012Z"/><path d="M26.6519,31.7691c.4369-1.2127.884-2.4223,1.3404-3.6289h1.5258c.4627,1.2066.9128,2.4162,1.3496,3.6289.4369,1.213.864,2.4225,1.2813,3.6289h-1.3887c-.0981-.3129-.1992-.6275-.3031-.9438-.1045-.3163-.2055-.6311-.3036-.944h-2.8364c-.2089.6392-.4139,1.2684-.616,1.8878h-1.3404c.4242-1.2064.8542-2.4159,1.2911-3.6289ZM29.2785,30.9034c-.1796-.5247-.3602-1.048-.5428-1.5698-.1826.5218-.3622,1.0451-.5379,1.5698-.1762.525-.3524,1.0482-.5281,1.57h2.1321c-.1699-.5218-.3441-1.0451-.5233-1.57Z"/><path d="M33.4304,28.15h1.3404v6.2015h2.9536v1.0465h-4.2939v-7.248Z"/><path d="M41.1479,28.15h1.2618l2.4254,4.9004,2.4259-4.9004h1.2227l.1757,7.248h-1.2222l-.1176-4.9983-2.1126,4.2939h-.8117l-2.1033-4.2744-.1171,4.9788h-1.2032l.1762-7.248Z"/><path d="M51.0752,31.7691c.4369-1.2127.884-2.4223,1.3404-3.6289h1.5258c.4627,1.2066.9128,2.4162,1.3496,3.6289.4369,1.213.864,2.4225,1.2813,3.6289h-1.3887c-.0981-.3129-.1992-.6275-.3031-.9438-.1045-.3163-.2055-.6311-.3036-.944h-2.8364c-.2089.6392-.4139,1.2684-.616,1.8878h-1.3404c.4242-1.2064.8542-2.4159,1.2911-3.6289ZM53.7017,30.9034c-.1796-.5247-.3602-1.048-.5428-1.5698-.1826.5218-.3622,1.0451-.5379,1.5698-.1762.525-.3524,1.0482-.5281,1.57h2.1321c-.1699-.5218-.3441-1.0451-.5233-1.57Z"/><path d="M57.8536,28.15h1.9856c.5608,0,1.0612.0752,1.5014.225.4403.1501.7859.3734,1.0368.6702.2509.2968.3768.6699.3768,1.1197,0,.4566-.1259.8349-.3768,1.1346-.2509.3002-.595.5186-1.0319.6555.3783.1955.7371.5672,1.0758,1.1151.3392.5477.698,1.3238,1.0763,2.3278h-1.4966c-.2416-.6194-.4598-1.12-.6555-1.5014s-.3846-.6765-.5672-.8852-.3749-.3505-.577-.4254c-.2026-.0749-.4339-.1125-.6946-.1125h-.3129v2.9245h-1.3404v-7.248ZM60.979,31.1922c.2836-.2087.4251-.5023.4251-.8803,0-.3849-.1416-.6734-.4251-.8657s-.6472-.2887-1.0909-.2887h-.6941v2.3476h.6941c.4437,0,.8073-.1042,1.0909-.3129Z"/><path d="M64.5344,28.15h1.3404v3.091c.4564-.515.9079-1.0302,1.3545-1.5454.4466-.5152.8854-1.0304,1.3155-1.5456h1.5947c-.9718,1.1151-1.9759,2.2302-3.0126,3.3453.5477.6326,1.1051,1.2847,1.6723,1.9564.5672.6716,1.1022,1.3203,1.6044,1.9464h-1.7021c-.4369-.5608-.9001-1.1427-1.3892-1.746-.4891-.6031-.9684-1.1883-1.4375-1.7557v3.5017h-1.3404v-7.248Z"/><path d="M71.5086,28.15h4.392l-.1176,1.037h-2.9341v1.8878h2.3571v1.0465h-2.3571v2.24h3.1493v1.0368h-4.4897v-7.248Z"/><path d="M78.6194,29.1968h-2.1028v-1.0468h5.5459v1.0468h-2.1033v6.2012h-1.3399v-6.2012Z"/><path d="M83.1677,28.15h1.3404v7.248h-1.3404v-7.248Z"/><path d="M86.2486,28.15h1.3599l3.081,4.8516-.0098-.5281v-4.3235h1.2032v7.248h-1.1056l-3.3255-5.2819v5.2819h-1.2032v-7.248Z"/><path d="M99.1305,34.8796c-.2279.1891-.5574.3439-.9879.4647-.43.1206-.8898.1808-1.3789.1808-.7302,0-1.3545-.1481-1.8729-.4452-.5189-.2965-.9147-.7253-1.1886-1.2862-.2738-.5606-.411-1.2357-.411-2.0247,0-.7759.1401-1.4443.4208-2.0052.2802-.5606.6814-.9911,1.2032-1.2911.5213-.2999,1.1476-.45,1.8778-.45.8479,0,1.5844.1828,2.2107.5479l-.3129,1.1151c-.2938-.2153-.5887-.3734-.8854-.4744s-.6048-.1516-.9245-.1516c-.7107,0-1.2535.2362-1.6283.709-.3749.473-.5623,1.1363-.5623,1.9905,0,.8803.1874,1.5551.5623,2.0247s.9211.7043,1.6381.7043c.1894,0,.3671-.0178.5335-.0539.166-.0356.3178-.0862.4544-.1516v-1.878h-1.457v-1.0465h2.709v3.5213Z"/><path d="M26.1643,4.1363h-6.2791V.3868h17.4383v3.7494h-6.2493v18.3013h-4.9099V4.1363Z"/><path d="M40.1209,17.215c-.7541-1.7557-1.131-3.7741-1.131-6.0558,0-2.1821.3817-4.1111,1.1456-5.7878.7639-1.6764,1.9046-2.9907,3.4222-3.943,1.518-.9523,3.3875-1.4285,5.6094-1.4285,2.2619,0,4.1514.4762,5.669,1.4285,1.518.9523,2.6583,2.2666,3.4222,3.943.7639,1.6767,1.1461,3.6057,1.1461,5.7878,0,2.2817-.3773,4.3-1.131,6.0558-.7541,1.7557-1.8895,3.1298-3.4075,4.1216-1.5175.9921-3.4173,1.4878-5.6987,1.4878-2.2614,0-4.1465-.4957-5.6538-1.4878-1.5078-.9918-2.6387-2.3659-3.3924-4.1216ZM54.286,11.1593c0-2.321-.4369-4.146-1.3096-5.4754-.8732-1.3289-2.1423-1.9939-3.8092-1.9939-1.6269,0-2.8765.6651-3.7492,1.9939-.8732,1.3294-1.3096,3.1544-1.3096,5.4754,0,2.4206.4364,4.3498,1.3096,5.7881.8727,1.4385,2.1223,2.1575,3.7492,2.1575,1.6469,0,2.9116-.719,3.7946-2.1575.8825-1.4382,1.3243-3.3675,1.3243-5.7881Z"/><path d="M63.3019.3868h6.3982c1.805,0,3.4022.2284,4.7908.6846,1.3887.4564,2.4801,1.1456,3.2738,2.0681.7932.9225,1.19,2.0784,1.19,3.4668,0,1.3294-.3622,2.4354-1.0861,3.318-.7244.883-1.7309,1.5427-3.0204,1.9788,1.131.6153,2.2019,1.7557,3.2137,3.4222,1.0119,1.6667,2.073,4.0374,3.1845,7.1123h-5.5352c-.6946-1.8646-1.3194-3.3626-1.8748-4.4936-.5555-1.1307-1.0914-1.9886-1.6069-2.5741-.5159-.5848-1.0519-.9818-1.6069-1.1903-.5555-.2082-1.1807-.3124-1.8748-.3124h-.5355v8.5703h-4.9104V.3868ZM72.8841,9.5077c.7536-.585,1.131-1.3736,1.131-2.3659,0-1.0116-.3773-1.7802-1.131-2.3061-.7541-.5255-1.746-.7885-2.9755-.7885h-1.6962v6.3384h1.6962c1.2296,0,2.2214-.2924,2.9755-.8779Z"/><path d="M92.8811,13.6291v8.8085h-4.9099v-8.8383L80.6207.3868h5.3566l4.5531,9.0465L94.9942.3868h5.1481l-7.2612,13.2423Z"/></g></g></svg>