<?xml version="1.0" encoding="UTF-8"?>
<svg id="layer" xmlns="http://www.w3.org/2000/svg" version="1.1" viewBox="0 0 393.7 100">
  <!-- Generator: Adobe Illustrator 30.1.0, SVG Export Plug-In . SVG Version: 2.1.1 Build 136)  -->
  <rect x="294.6" width="99.1" height="100"/>
  <path d="M327.8,65.1c1.8-1.5,2-3.3,2-5v-6.9h-9.5v9.3c0,1.3-1.1,2.4-2.4,2.4s-2.3-1.1-2.3-2.4v-26.4c0-1.3,1-2.4,2.3-2.4s2.4,1.1,2.4,2.4v9.4h9.5v-9.7c0-5.4-3.5-9.8-12-9.8s-12,4.4-12,9.8v27.6c0,5.4,4.2,9.4,9.6,9.4h3l9.4-7.7h0Z" fill="#fff"/>
  <polygon points="365.3 66.2 365.3 35.9 358.8 35.9 358.8 26.9 382.5 26.9 382.5 35.9 375.9 35.9 375.9 72.8 373.1 72.8 365.3 66.2" fill="#fff"/>
  <polygon points="369.5 72.9 346.4 53.3 322.5 72.9 369.5 72.9" fill="#fff"/>
  <path d="M343.9,48l2.6-13.2,2.6,13.2h-5.2ZM353,26.9h-13.3l-7.7,35,14.4-11.7,15,12.7-8.4-36Z" fill="#fff"/>
  <polygon points="51.6 29.5 71.7 29.5 71.7 37.5 65.4 37.5 65.4 69.6 57.7 69.6 57.7 37.5 51.6 37.5 51.6 29.5"/>
  <path d="M93.9,40.6c0-7.7-3.6-12-10.4-12s-10.6,4.3-10.6,12v16.3c0,9,2.7,13.7,10.6,13.7s10.4-4.7,10.4-13.7v-16.3ZM86.1,57.6c0,2.3-.2,5.7-2.7,5.7s-2.8-3.4-2.8-5.7v-16.4c0-2.4.3-5.4,2.8-5.4s2.7,2.9,2.7,5.4v16.4h0Z"/>
  <path d="M104.2,53.8h2.6c1.8.2,2.4,1.8,2.6,4.2.2,2.4,0,5.7.2,9.3,0,.8.2,1.5.5,2.3h8.5v-.5c-.3-.4-.6-.9-.7-1.4-.5-2.6-.5-9.4-.7-12.6-.1-2.8-1.7-4.6-3.8-5.2h0c3.2-1.9,4.1-5,4.1-9.2,0-7.9-3.2-11-9.5-11h-11.4v40h7.8v-15.9h0ZM104.2,36.7c3.8-.1,5.4.1,5.4,4.9s-.5,5-2.8,5h-2.6v-9.8Z"/>
  <path d="M140,40.6c0-7.7-3.6-12-10.4-12s-10.6,4.3-10.6,12v16.3c0,9,2.7,13.7,10.6,13.7s10.4-4.7,10.4-13.7v-16.3ZM132.3,57.6c0,2.3-.2,5.7-2.7,5.7s-2.8-3.4-2.8-5.7v-16.4c0-2.4.3-5.4,2.8-5.4s2.7,2.9,2.7,5.4v16.4h0Z"/>
  <polygon points="142.7 69.6 142.7 29.5 153.6 29.5 157.7 53.2 157.7 53.2 161.9 29.5 172.7 29.5 172.7 69.6 165.3 69.6 166.1 38.2 166 38.2 160.6 69.6 154.8 69.6 149.5 38.2 149.3 38.2 150.1 69.6 142.7 69.6"/>
  <path d="M196.2,40.6c0-7.7-3.7-12-10.4-12s-10.6,4.3-10.6,12v16.3c0,9,2.7,13.7,10.6,13.7s10.4-4.7,10.4-13.7v-16.3ZM188.5,57.6c0,2.3-.2,5.7-2.7,5.7s-2.8-3.4-2.8-5.7v-16.4c0-2.4.3-5.4,2.8-5.4s2.7,2.9,2.7,5.4v16.4h0Z"/>
  <polygon points="205 47.2 204.9 47.2 205.6 69.6 198.2 69.6 198.2 29.5 206.2 29.5 212.2 51.9 212.3 51.9 211.6 29.5 219 29.5 219 69.6 211 69.6 205 47.2"/>
  <polygon points="220.4 29.5 240.6 29.5 240.6 37.5 234.3 37.5 234.3 69.6 226.5 69.6 226.5 37.5 220.4 37.5 220.4 29.5"/>
</svg>