<svg version="1.1" id="dribbble" class="contact-icon" xmlns="http://www.w3.org/2000/svg" xmlns:xlink="http://www.w3.org/1999/xlink" x="0px" y="0px"
	 viewBox="0 0 32 32" style="enable-background:new 0 0 32 32;" xml:space="preserve">
<path class="st0" d="M0.2,16c0-2.9,0.7-5.5,2.1-7.9s3.3-4.3,5.8-5.8s5.1-2.1,7.9-2.1s5.5,0.7,7.9,2.1s4.3,3.3,5.8,5.8
	s2.1,5.1,2.1,7.9s-0.7,5.5-2.1,7.9s-3.3,4.3-5.8,5.8s-5.1,2.1-7.9,2.1s-5.5-0.7-7.9-2.1s-4.3-3.3-5.8-5.8S0.2,18.9,0.2,16z M2.8,16
	c0,3.3,1.1,6.2,3.3,8.7c1-2,2.6-3.9,4.8-5.7c2.2-1.8,4.3-2.9,6.4-3.4c-0.3-0.7-0.6-1.4-0.9-2c-3.6,1.2-7.6,1.7-11.8,1.7
	c-0.8,0-1.4,0-1.8,0c0,0.1,0,0.2,0,0.3C2.8,15.8,2.8,15.9,2.8,16z M3.2,12.7c0.5,0,1.1,0.1,2.1,0.1c3.5,0,6.9-0.5,10-1.4
	c-1.6-2.8-3.4-5.2-5.3-7.1c-1.7,0.8-3.1,2-4.3,3.5C4.5,9.3,3.7,10.9,3.2,12.7z M7.9,26.4c2.4,1.9,5.1,2.8,8.1,2.8
	c1.6,0,3.1-0.3,4.7-0.9c-0.4-3.6-1.2-7.1-2.5-10.5c-1.9,0.4-3.9,1.5-5.9,3.2C10.3,22.7,8.9,24.5,7.9,26.4z M12.8,3.2
	c1.9,1.9,3.6,4.3,5.2,7.2c2.9-1.2,5-2.7,6.5-4.6c-2.4-2-5.3-3-8.4-3C14.9,2.8,13.8,3,12.8,3.2z M19.1,12.7c0.3,0.7,0.7,1.5,1.1,2.6
	c1.6-0.1,3.3-0.2,5.1-0.2c1.3,0,2.6,0,3.9,0.1C29,12.2,27.9,9.7,26,7.5C24.7,9.5,22.3,11.2,19.1,12.7z M20.9,17.5
	c1.1,3.1,1.8,6.3,2.2,9.6c1.7-1.1,3-2.5,4.1-4.1c1.1-1.7,1.7-3.5,1.9-5.5c-1.5-0.1-2.9-0.2-4.2-0.2C23.7,17.3,22.4,17.4,20.9,17.5z"
	/>
</svg>
