<svg version="1.1" id="email" class="contact-icon" xmlns="http://www.w3.org/2000/svg" xmlns:xlink="http://www.w3.org/1999/xlink" x="0px" y="0px"
	 viewBox="0 0 32 32" style="enable-background:new 0 0 32 32;" xml:space="preserve">
<path class="st0" d="M12.7,23.4l0.9-1.1l-0.9-0.6V23.4z M18.3,22.8l2.8-11.6l-7.9,8.5L18.3,22.8L18.3,22.8z M8,16.4l3.5,2.2l7-7.5
	C18.5,11.1,8,16.4,8,16.4z M16,0.2C7.3,0.2,0.2,7.3,0.2,16S7.3,31.8,16,31.8S31.8,24.7,31.8,16S24.7,0.2,16,0.2z M24,7.6
	C24,7.7,24,7.7,24,7.6l0,0.2c0,0,0,0.1,0,0.1l-3.8,15.7c0,0,0,0,0,0c-0.1,0.5-0.5,1-1,1.2c-0.2,0.1-0.4,0.1-0.6,0.1
	c-0.3,0-0.6-0.1-0.9-0.2l-2.3-1.3l-2.2,2.8c0,0,0,0-0.1,0.1c-0.3,0.3-0.6,0.4-1,0.4c-0.4,0-0.7-0.1-1-0.4l0,0
	c-0.3-0.3-0.4-0.6-0.4-1v-4.9l-4.1-2.5c-0.4-0.2-0.7-0.6-0.8-1.1c-0.1-0.4,0-0.9,0.2-1.3c0.2-0.3,0.4-0.5,0.7-0.6l15.9-8.1
	c0,0,0,0,0.1,0l0,0c0,0,0,0,0,0l0,0c0,0,0.1,0,0.1,0l0.1,0c0,0,0.1,0,0.1,0l0,0c0,0,0.1,0,0.1,0l0.1,0c0,0,0.1,0,0.1,0l0,0
	c0,0,0.1,0,0.1,0.1l0.1,0.1c0,0,0.1,0,0.1,0.1l0,0c0,0,0,0,0.1,0.1l0,0c0,0,0,0,0,0.1l0,0.1c0,0,0,0.1,0,0.1l0,0c0,0,0,0.1,0,0.1
	l0,0.1C24,7.5,24,7.6,24,7.6L24,7.6L24,7.6L24,7.6z"/>
</svg>
