<svg version="1.1" id="github" class="contact-icon" xmlns="http://www.w3.org/2000/svg" xmlns:xlink="http://www.w3.org/1999/xlink" x="0px" y="0px"
	 viewBox="0 0 32 32" style="enable-background:new 0 0 32 32;" xml:space="preserve">
<path class="st0" d="M16,0.1C7.3,0.1,0.2,7.2,0.2,15.9c0,7.4,5.1,13.6,12,15.3c-0.1-0.2-0.1-0.5-0.1-0.8v-2.7h-2
	c-1.1,0-2.1-0.5-2.5-1.3c-0.5-0.9-0.6-2.4-1.9-3.3c-0.4-0.3-0.1-0.6,0.4-0.6c0.8,0.2,1.5,0.8,2.1,1.6c0.6,0.8,0.9,1,2.1,1
	c0.6,0,1.4,0,2.2-0.2c0.4-1.1,1.2-2.1,2.1-2.6c-5.3-0.6-7.8-3.2-7.8-6.8c0-1.5,0.7-3,1.8-4.3c-0.4-1.2-0.8-3.8,0.2-4.7
	c2.4,0,3.8,1.5,4.2,1.9C14,8.2,15.3,8,16.7,8c1.4,0,2.7,0.2,3.8,0.6c0.4-0.4,1.8-1.9,4.2-1.9c0.9,0.9,0.5,3.5,0.1,4.7
	c1.1,1.2,1.7,2.7,1.7,4.3c0,3.6-2.5,6.2-7.8,6.7c1.5,0.8,2.5,2.9,2.5,4.5v3.6c0,0.1,0,0.2,0,0.4c6.2-2.1,10.6-8,10.6-14.9
	C31.8,7.2,24.7,0.1,16,0.1L16,0.1z"/>
</svg>
