<svg version="1.1" id="linkedin" class="contact-icon" xmlns="http://www.w3.org/2000/svg" xmlns:xlink="http://www.w3.org/1999/xlink" x="0px" y="0px"
	 viewBox="0 0 32 32" style="enable-background:new 0 0 32 32;" xml:space="preserve">

<path class="st0" d="M16,0.2C7.3,0.2,0.2,7.3,0.2,16S7.3,31.8,16,31.8S31.8,24.7,31.8,16S24.7,0.2,16,0.2z M11.8,23.7H8.3V12.4h3.5
	L11.8,23.7L11.8,23.7z M10,11C8.9,11,8,10,8,8.9C8,7.7,8.9,6.8,10,6.8s2.1,0.9,2.1,2.1C12.1,10,11.2,11,10,11z M24.8,23.7h-3.5v-5.9
	c0-1.6-0.6-2.5-1.9-2.5c-1.4,0-2.1,0.9-2.1,2.5v5.9H14V12.4h3.3v1.5c0,0,1-1.9,3.4-1.9s4.1,1.5,4.1,4.5L24.8,23.7L24.8,23.7z"/>
</svg>
