<?xml version="1.0" encoding="utf-8"?>
<!-- Generator: Adobe Illustrator 24.1.2, SVG Export Plug-In . SVG Version: 6.00 Build 0)  -->
<svg version="1.1" id="Layer_1" xmlns="http://www.w3.org/2000/svg" xmlns:xlink="http://www.w3.org/1999/xlink" x="0px" y="0px"
	 viewBox="0 0 200 200" style="enable-background:new 0 0 200 200;" xml:space="preserve">
<style type="text/css">
	.st0{fill:#FFFFFF;}
</style>
<path class="st0" d="M162.5,55.4c-10.3-14-25-24.2-41.7-28.7l1.4,2.4c15.5,4.6,29.2,14.3,38.8,27.5L162.5,55.4z M153.2,62.7
	c-6-8.2-13.8-15-22.9-19.7l1.8,3.2c7.7,4.4,14.3,10.5,19.5,17.7L153.2,62.7z M157.9,59c-3.8-5.3-8.4-10-13.5-14
	c-5.8-4.5-12.2-8.1-19.1-10.7l1.6,2.7c5.9,2.4,11.4,5.6,16.4,9.5s9.4,8.5,13.2,13.7L157.9,59z M136.8,54.2l2.8,4.9
	c2.7,2.6,5.2,5.4,7.4,8.4l1.5-1.2C145.2,61.8,141.3,57.7,136.8,54.2z M28.5,135l-5.5,9.5c0.4,0.6,0.8,1.2,1.2,1.8l5.3-9.1
	C29.2,136.4,28.9,135.7,28.5,135z M171.6,137.8l5.8,9.4c0.4-0.6,0.7-1.4,1.1-2l-5.7-9.4C172.3,136.4,172,137.1,171.6,137.8z
	 M190.5,100.4c0-49.3-40.1-89.5-89.5-89.5c-49.3,0-89.5,40.1-89.5,89.5c0,13.7,3,26.9,9,39.1c0,0,0,0,0-0.1l0.5,1l5.6-9.9l-0.9-2.4
	l-4.6,7.9c-5-11.2-7.6-23.2-7.6-35.7c0-48.2,39.3-87.5,87.5-87.5s87.5,39.3,87.5,87.5c0,12.9-2.7,25.3-8.1,36.8l-4.8-8.2
	c-0.3,0.8-0.6,1.5-0.9,2.3l5.9,10l0.4-0.8l0,0c0.1-0.1,0.1-0.3,0.2-0.4l0.2-0.3l0,0C187.4,127.6,190.5,114.3,190.5,100.4z
	 M168.3,143.5l5.4,8.8c0.4-0.6,0.8-1.1,1.3-1.7l-5.5-9C169,142.3,168.7,142.9,168.3,143.5z M40.8,53.7c-5.1,6.6-9.1,13.8-11.8,21.7
	c-0.8,2.3-1.5,4.7-2.1,7.1c-2.7,10.9-2.9,22.5-0.6,33.4c2.4,11.9,7.6,22.8,15.3,32.4c5.4,6.7,11.8,12.4,19.1,16.9
	c1.8,1.1,3.7,2.2,5.6,3.2c10.8,5.6,22.6,8.4,34.8,8.4c8.6,0,17.1-1.4,25.1-4.2c7.8-2.7,15.1-6.7,21.6-11.8c6.5-5,12.1-11,16.6-17.8
	c4.6-6.9,8.1-14.5,10.3-22.5l0.3-0.9l-0.5-0.3V119h-5.7c0.5-1.7,0.9-3.3,1.2-5l0.2-1.2h-6.1c0.4-1.9,0.7-3.9,0.9-5.8l0.1-1.1h-6
	c0.2-1.8,0.3-3.7,0.3-5.5v-1H71.6l-1.1,1.9h87.1c0,1.5-0.1,3-0.3,4.5H67.8l-1.1,1.9H157c-0.2,1.7-0.5,3.3-0.9,5H63.8l-1.1,1.9h93
	c-0.4,1.4-0.8,2.9-1.3,4.3H60.3l-1.1,1.9h94.5c-2.8,7.2-7.1,13.8-12.7,19.4c-10.7,10.7-24.9,16.6-40,16.6c-2.1,0-4.1-0.1-6.1-0.3
	c-3.3-0.4-6.4-1-9.5-1.9c-0.1,0-0.1,0-0.2,0c-0.3-0.1-0.6-0.2-1-0.3c-9.3-2.9-17.6-8.1-24.3-15.2c-0.2-0.2-0.3-0.3-0.5-0.5
	s-0.3-0.3-0.5-0.5c-0.1-0.1-0.2-0.2-0.3-0.3c-0.3-0.3-0.5-0.6-0.8-0.9c-0.1-0.1-0.1-0.1-0.2-0.2c-0.2-0.3-0.5-0.6-0.7-0.9
	c0-0.1-0.1-0.1-0.1-0.2c-0.1-0.2-0.2-0.3-0.4-0.5c-0.1-0.1-0.2-0.2-0.2-0.3c-0.1-0.1-0.2-0.3-0.3-0.4c-0.1-0.1-0.2-0.3-0.3-0.4
	c-0.1-0.1-0.1-0.2-0.2-0.3c-0.1-0.2-0.2-0.3-0.4-0.5c0-0.1-0.1-0.1-0.1-0.2c-0.1-0.2-0.3-0.4-0.4-0.6c0,0,0-0.1-0.1-0.1
	c-1.1-1.5-2.1-3.1-3-4.8c-6.9-12.4-8.8-27-5.4-40.8v-0.1c1.3-5.2,3.3-10.1,6-14.8c2.7-4.6,5.9-8.8,9.7-12.4l3-5.2
	C59,59.1,54.1,64.7,50.4,71.1c-1.5,2.6-2.8,5.4-3.9,8.2c-7.1,18.5-4.5,39.3,7.1,55.3c0.2,0.2,0.3,0.4,0.5,0.7l0.1,0.1
	c0.1,0.2,0.3,0.4,0.4,0.6c0.1,0.1,0.1,0.2,0.2,0.2c0.1,0.2,0.2,0.3,0.4,0.5c0.1,0.1,0.2,0.2,0.3,0.3c0,0,0,0.1,0.1,0.1
	c0,0.1,0.1,0.1,0.1,0.2c0.2,0.3,0.4,0.5,0.7,0.8c0.1,0.1,0.1,0.2,0.2,0.3c0.3,0.3,0.5,0.6,0.8,0.9c0.1,0.1,0.2,0.3,0.4,0.4
	c0.1,0.1,0.3,0.3,0.4,0.4c7.1,7.7,15.9,13.3,25.8,16.3c0.2,0.1,0.5,0.1,0.7,0.2c0.1,0,0.2,0.1,0.3,0.1c5.2,1.5,10.7,2.3,16.2,2.3
	c15.6,0,30.3-6.1,41.3-17.1c6-6,10.5-13.1,13.4-20.8h4.2c-3.4,9.8-9.2,18.6-17,25.7c-11.5,10.5-26.4,16.2-42,16.2
	c-3.3,0-6.5-0.3-9.7-0.8c-6.7-1.1-13.1-3.2-19-6.2c-0.1,0-0.2-0.1-0.2-0.1c-0.3-0.2-0.7-0.4-1-0.5c-0.1-0.1-0.2-0.1-0.3-0.2
	c-0.3-0.2-0.6-0.3-0.8-0.5c-0.2-0.1-0.3-0.2-0.5-0.3s-0.4-0.2-0.6-0.4c-0.3-0.2-0.6-0.3-0.8-0.5c-0.1-0.1-0.3-0.2-0.4-0.3
	c-0.2-0.1-0.4-0.3-0.6-0.4c-0.1-0.1-0.2-0.1-0.3-0.2c-0.4-0.2-0.8-0.5-1.1-0.8c-0.1-0.1-0.2-0.1-0.3-0.2c-0.2-0.2-0.4-0.3-0.7-0.5
	c-0.1,0-0.1-0.1-0.2-0.1c-0.4-0.3-0.8-0.6-1.2-0.9c-0.1-0.1-0.2-0.1-0.3-0.2c-0.2-0.2-0.4-0.3-0.6-0.5c-0.1,0-0.1-0.1-0.2-0.1
	c-0.4-0.3-0.8-0.6-1.1-0.9c-0.1-0.1-0.2-0.2-0.3-0.3c-0.2-0.2-0.4-0.3-0.6-0.5c-0.1-0.1-0.2-0.2-0.4-0.3c-0.3-0.3-0.6-0.5-0.8-0.8
	c-0.1-0.1-0.3-0.3-0.4-0.4c-0.2-0.1-0.3-0.3-0.5-0.4c-0.3-0.2-0.5-0.5-0.7-0.7c-0.1-0.1-0.3-0.3-0.4-0.4c-0.2-0.2-0.3-0.3-0.5-0.5
	c-0.1-0.1-0.2-0.3-0.4-0.4c-0.3-0.3-0.5-0.5-0.8-0.8c-0.1-0.1-0.2-0.2-0.3-0.3c-0.2-0.2-0.4-0.4-0.6-0.6c-0.1-0.1-0.2-0.2-0.3-0.3
	c-0.3-0.3-0.5-0.6-0.8-0.9c-0.1-0.1-0.2-0.2-0.3-0.3c-0.2-0.2-0.4-0.5-0.6-0.7c-0.1-0.1-0.2-0.2-0.3-0.4l-0.1-0.1
	c-0.2-0.2-0.3-0.4-0.5-0.7c0,0,0,0-0.1-0.1c-0.2-0.2-0.4-0.5-0.5-0.7c-0.2-0.2-0.4-0.5-0.5-0.7c-0.2-0.3-0.4-0.5-0.5-0.8
	c-0.2-0.2-0.3-0.5-0.5-0.7c0,0,0,0,0-0.1c-0.4-0.6-0.8-1.2-1.2-1.8c-6.4-10.1-9.7-21.8-9.6-33.7c0.1-11.5,3.3-22.8,9.4-32.5
	c5.4-8.6,12.8-15.8,21.5-20.9l1.9-3.3c-10.3,5.3-18.9,13.3-25.1,23.1c-3,4.7-5.3,9.8-6.9,15.1c-5.6,18.4-2.8,38.1,7.6,54l0.6,0.9
	c0.2,0.3,0.3,0.5,0.5,0.8c0,0,0,0,0,0.1c0.2,0.3,0.4,0.5,0.5,0.8c0.2,0.2,0.4,0.5,0.5,0.7c0,0,0,0,0,0.1c0.2,0.2,0.4,0.5,0.5,0.7
	l0.1,0.1c0.2,0.2,0.3,0.4,0.5,0.6l0.2,0.2c0.1,0.1,0.1,0.1,0.2,0.2c0.2,0.2,0.4,0.5,0.6,0.7l0.3,0.3c0.3,0.3,0.5,0.6,0.8,0.9
	c0.1,0.1,0.2,0.2,0.3,0.3c0.2,0.2,0.4,0.5,0.6,0.7c0.1,0.1,0.2,0.2,0.3,0.3c0.3,0.3,0.5,0.6,0.8,0.8l0.4,0.4
	c0.2,0.2,0.4,0.4,0.6,0.6c0.1,0.1,0.3,0.3,0.4,0.4l0.8,0.8c0.2,0.1,0.3,0.3,0.5,0.4c0.2,0.1,0.3,0.3,0.5,0.4
	c0.3,0.2,0.5,0.5,0.8,0.7c0.2,0.1,0.3,0.3,0.5,0.4c0.2,0.2,0.4,0.3,0.6,0.5c0.1,0.1,0.2,0.2,0.4,0.3c0.4,0.3,0.7,0.6,1.1,0.9
	c0.1,0.1,0.2,0.1,0.2,0.2c0.2,0.2,0.4,0.3,0.6,0.5c0.1,0.1,0.2,0.1,0.3,0.2c0.4,0.3,0.8,0.6,1.2,0.9c0.1,0.1,0.1,0.1,0.2,0.2
	c0.2,0.2,0.4,0.3,0.7,0.5c0.1,0.1,0.2,0.1,0.3,0.2c0.4,0.3,0.7,0.5,1.1,0.8c0.1,0.1,0.2,0.2,0.4,0.2c0.2,0.1,0.4,0.3,0.6,0.4
	s0.3,0.2,0.5,0.3c0.3,0.2,0.6,0.3,0.8,0.5c0.2,0.1,0.4,0.3,0.6,0.4c0.2,0.1,0.3,0.2,0.5,0.3c0.3,0.2,0.6,0.3,0.9,0.5
	c0.1,0.1,0.2,0.1,0.3,0.2c0.3,0.2,0.7,0.4,1,0.5c0.1,0,0.2,0.1,0.3,0.1c9,4.7,19.1,7.2,29.6,7.2c16.1,0,31.4-5.9,43.3-16.7
	c8.2-7.5,14.3-16.8,17.7-27.1h4.2c-3.9,12.4-11.4,23.6-21.5,32c-6,5-12.8,8.9-20.1,11.6c-7.6,2.8-15.5,4.2-23.7,4.2
	c-20.6,0-40-9.3-53-25.1l-0.1-0.1c-1.1-1.3-2.1-2.7-3.1-4.1c-6.3-9.1-10.2-19.4-11.6-30.2c-0.4-2.9-0.6-5.9-0.6-8.8
	c0-14.3,4.4-28,12.6-39.6C52.7,50.2,63,42.1,74.9,37.2l1.6-2.7c-13.2,4.9-24.6,13.6-32.8,25.2c-4.7,6.6-8.2,13.9-10.4,21.6
	c-6.1,21.9-1.4,45.4,12.9,63.1c0.2,0.3,0.5,0.6,0.7,0.8c0,0.1,0.1,0.1,0.1,0.2c0.2,0.2,0.4,0.5,0.6,0.7c0.1,0.1,0.1,0.1,0.2,0.2
	c4.9,5.7,10.6,10.5,17,14.4c10.8,6.5,23.3,10.1,36.2,10.1c8.4,0,16.5-1.5,24.3-4.3c7.5-2.8,14.5-6.8,20.6-11.9
	c10.6-8.8,18.3-20.5,22.3-33.5h4.2c-2.1,7.4-5.4,14.4-9.7,20.8c-4.5,6.6-9.9,12.5-16.2,17.4c-6.4,5-13.5,8.8-21.1,11.5
	c-7.9,2.7-16.1,4.1-24.5,4.1c-12,0-23.4-2.8-33.9-8.2c-10-5.1-18.8-12.6-25.5-21.5c-6.3-8.4-10.7-17.7-13-27.9
	c-1.3-5.5-1.9-11.1-1.9-16.8c0-8.4,1.4-16.7,4.2-24.6c2.7-7.6,6.5-14.7,11.5-21.1c9.4-12.1,22.6-21.1,37.2-25.5l1.4-2.4
	C73,29.1,65.5,32.4,58.7,37S45.8,47.2,40.8,53.7z M160.6,119h-4.2c0.5-1.4,0.9-2.8,1.2-4.3h4.1C161.5,116.2,161.1,117.6,160.6,119z
	 M158.1,112.8c0.4-1.6,0.6-3.3,0.9-5h4c-0.2,1.7-0.5,3.3-0.8,5H158.1z M166.8,119h-4.2c0.4-1.4,0.8-2.8,1.1-4.3h4.1
	C167.6,116.2,167.2,117.6,166.8,119z M107.1,22.3l-3.3-5.7l-3.3,5.7l-3.3-5.7l-3.3,5.7l-3.3-5.7L47.9,90.1c-0.2,1.6-0.4,3.2-0.5,4.7
	l43.1-74.4l2.2,3.8l-45.4,78.3c0.2,1.1,0.3,2.2,0.4,3.3l46.2-79.7l2.2,3.8l-47.4,81.9c0.2,1,0.4,1.9,0.7,2.7l47.9-82.7l2.2,3.8
	l-48.6,83.8c0.3,0.9,0.6,1.6,0.9,2.3l48.8-84.2L134,95.3h2.2l-34.6-59.7l2.2-3.8l36.8,63.5h2.2L105,29.9l2.2-3.8l40.1,69.3h2.2
	l-41.3-71.2l2.2-3.8l43.5,75h2.2l-45.7-78.8L107.1,22.3z M97.2,28L95,24.2l2.2-3.9l2.2,3.8L97.2,28z M100.6,33.7l-2.2-3.8l2.2-3.8
	l2.2,3.8L100.6,33.7z M103.9,27.9l-2.2-3.8l2.2-3.8l2.2,3.8L103.9,27.9z M164.6,148.8l4.3,6.8c-16.7,20.5-41.4,32.3-67.9,32.3
	c-26.9,0-51.7-12-68.4-33l0,0l3.8-6.7c-0.4-0.6-0.9-1.1-1.3-1.7l-4.9,8.6l0.5,0.7l0,0c17.1,21.7,42.6,34.1,70.3,34.1
	c27.4,0,52.9-12.3,70-33.7c0.1-0.1,0.2-0.3,0.3-0.4l-5.5-8.7C165.5,147.6,165,148.2,164.6,148.8z M31.7,141.2l-4.9,8.5
	c0.4,0.6,0.9,1.1,1.3,1.6l4.8-8.3C32.5,142.4,32.1,141.8,31.7,141.2z"/>
</svg>
