<?xml version="1.0" encoding="UTF-8"?><svg id="b" xmlns="http://www.w3.org/2000/svg" width="1387.48432" height="973.25585" viewBox="0 0 1387.48432 973.25585"><defs><style>.d{fill:#fff;}</style></defs><g id="c"><path class="d" d="M1365.8583,197.37939c-14.41547-12.69323-32.94964-19.04901-55.60251-19.04901-33.64079,0-64.86959,8.59145-93.70335,25.7419-15.78719,9.40073-28.77592,20.35638-39.00639,32.84173-6.26762-5.63677-13.14177-10.93784-20.71483-15.85066-43.93755-28.4783-103.66158-42.73297-179.16646-42.73297-75.52181,0-135.92007,14.59319-181.22582,43.76264-45.30575,29.18497-67.96144,69.50455-67.96144,120.98976s22.6557,91.8189,67.96144,120.98835c27.3372,17.61046,60.46173,29.86325,99.29463,36.84301-42.26891,20.5073-73.64794,42.03388-94.14625,64.5815-8.93279,9.82635-15.9219,19.97801-20.98,30.45108L452.03627,0h-6.17806L165.78067,540.58983c-21.97865,41.8782-41.54249,75.85751-58.69154,101.93793-17.16879,26.09735-33.98213,46.17745-50.45695,60.23746-16.47482,14.07976-35.36162,25.5811-56.63219,34.49556v6.17806H276.98851v-6.17806c-37.76231-1.3682-65.38584-15.09251-82.89034-41.18704-17.50449-26.08043-24.1988-60.57599-20.08009-103.48386,2.20675-22.98011,7.79451-47.40618,16.69979-73.24947H503.21752l71.35303,129.3654c10.97099,19.9193,15.26742,36.21639,12.86954,48.91103-2.41198,12.71156-11.16564,22.31717-26.25533,28.83093-15.10944,6.53351-38.10084,10.13596-68.99112,10.81301v6.17806h426.29437v-.01904c3.8761,.12606,7.79592,.21264,11.81165,.21264h111.20502c46.67395,0,81.50803,7.03001,104.51636,21.10977,22.98858,14.06002,34.49274,35.16979,34.49274,63.32649,0,26.08043-8.07661,49.42445-24.19598,70.01798-16.13912,20.59352-38.27574,36.71571-66.41552,48.39478-28.1567,11.66496-60.75371,17.50449-97.82205,17.50449-53.54316,0-95.7627-11.32644-126.65298-33.97931s-46.33542-53.89861-46.33542-93.70053c0-.18848,0-.37661,.00141-.56474,.09874-27.77551-22.20856-50.37426-49.97737-49.74817-3.06999,.06929-6.08426,.13735-8.99203,.20294-28.79285,.64972-55.59757,16.33976-68.82186,41.92404-5.42061,10.48824-8.13021,21.45411-8.13021,32.89815,0,33.62668,24.02107,60.75089,72.08015,81.34441,48.03933,20.59352,112.2347,30.8931,192.55225,30.8931,76.19603,0,142.61155-9.44481,199.24656-28.3175,56.63219-18.88962,100.55563-45.30575,131.79854-79.28788,31.22881-33.97931,46.85167-73.97588,46.85167-119.95868,0-50.1015-19.22532-88.03872-57.66186-113.78062-38.45347-25.7419-95.08565-38.61426-169.89938-38.61426h-152.39488c-27.46555,0-48.05907-3.60246-61.78339-10.81019-13.73842-7.20773-20.59352-17.66811-20.59352-31.40653,0-8.91446,3.24983-17.32677,9.78333-25.22848,6.2246-7.5281,15.46066-15.54811,27.64187-24.03165,24.14732,4.00198,50.44919,6.01373,78.93102,6.01373,74.13668,0,133.16956-14.41547,177.10711-43.24922,43.92344-28.83093,65.89927-69.32682,65.89927-121.50178,0-41.60156-13.67636-75.62178-40.89295-102.131,1.57061-1.89185,3.17436-3.7354,4.85429-5.47298,10.29676-10.63528,20.75432-18.69497,31.40653-24.19739,10.63528-5.4869,18.69497-8.23882,24.1988-8.23882,8.23741,0,15.08969,5.50242,20.59352,16.47623,5.4869,10.98791,10.97099,23.52175,16.47482,37.58318,5.4869,14.07835,13.03034,26.61078,22.65287,37.58459,9.60561,10.98791,21.96172,16.47482,37.06834,16.47482,13.72431,0,25.22848-5.66322,34.49556-16.98966,9.26708-11.32785,13.90204-26.25815,13.90204-44.79232,0-21.96172-7.21055-39.2899-21.62602-52.00005ZM193.78998,510.72922c7.29307-19.78071,16.46777-40.36542,27.5932-61.78339l117.39789-227.73332,159.68654,289.51671H193.78998Zm844.62568-47.68776c-13.04727,25.7419-32.61111,38.61426-58.69154,38.61426-26.09735,0-45.14495-13.03316-57.14843-39.13051-12.01759-26.08043-18.02074-65.89927-18.02074-119.44243,0-54.22162,6.34168-94.21818,19.05042-119.96009,12.69464-25.74331,32.08076-38.61426,58.17811-38.61426,25.38927,0,44.43687,12.87095,57.14843,38.61426,12.69464,25.7419,19.0476,65.73847,19.0476,119.96009,0,54.23431-6.53069,94.21677-19.56385,119.95868Z"/></g></svg>