<?xml version="1.0" encoding="utf-8"?>
<!-- Generator: Adobe Illustrator 26.4.0, SVG Export Plug-In . SVG Version: 6.00 Build 0)  -->
<svg version="1.1" id="b" xmlns="http://www.w3.org/2000/svg" xmlns:xlink="http://www.w3.org/1999/xlink" x="0px" y="0px"
	 viewBox="0 0 1387.5 973.3" style="enable-background:new 0 0 1387.5 973.3;" xml:space="preserve">
<style type="text/css">
	.st0{fill:#FFFFFF;}
</style>
<path class="st0" d="M1361.3,161.6c-14.2-12.5-32.5-18.8-54.8-18.8c-33.2,0-64,8.5-92.4,25.4c-15.6,9.3-28.4,20.1-38.5,32.4
	c-6.2-5.6-13-10.8-20.4-15.6c-43.3-28.1-102.2-42.1-176.7-42.1c-74.5,0-134,14.4-178.7,43.1c-44.7,28.8-67,68.5-67,119.3
	c0,50.8,22.3,90.5,67,119.3c27,17.4,59.6,29.4,97.9,36.3c2.2,0.4,4.9,0.9,5,0.9c23.8,3.9,49.7,5.9,77.8,5.9
	c73.1,0,131.3-14.2,174.6-42.6c43.3-28.4,65-68.4,65-119.8c0-41-13.5-74.6-40.3-100.7c1.5-1.9,3.1-3.7,4.8-5.4
	c10.2-10.5,20.5-18.4,31-23.9c10.5-5.4,18.4-8.1,23.9-8.1c8.1,0,14.9,5.4,20.3,16.2c5.4,10.8,10.8,23.2,16.2,37.1
	c5.4,13.9,12.8,26.2,22.3,37.1c9.5,10.8,21.7,16.2,36.5,16.2c13.5,0,24.9-5.6,34-16.8c9.1-11.2,13.7-25.9,13.7-44.2
	C1382.6,191.2,1375.5,174.1,1361.3,161.6z M1038.4,423.5c-12.9,25.4-32.2,38.1-57.9,38.1c-25.7,0-44.5-12.9-56.3-38.6
	c-11.8-25.7-17.8-65-17.8-117.8c0-53.5,6.3-92.9,18.8-118.3c12.5-25.4,31.6-38.1,57.4-38.1c25,0,43.8,12.7,56.3,38.1
	c12.5,25.4,18.8,64.8,18.8,118.3C1057.7,358.7,1051.3,398.1,1038.4,423.5z M558.2,680c-14.4,6.2-36.2,9.8-65.2,10.6
	c-1.5,0-2.8,1.3-2.8,2.9l0,3.3l345.8,0c1.2,0,1.4-1.7,0.2-2c-26.6-5-51.7-17.1-70.3-37.6c-32.6-34.6-42.7-84.4-29.6-129.9
	c2.6-9.2,6.1-18.3,10.2-27.1c-44.5-80.7-133.2-241.4-201.9-365.9l0,0.2c0,0-0.2-0.5-0.7-1.5c-1.3-2.3-2.5-4.6-3.8-6.9
	c-11.9-19.6-50-67.4-139.6-74c-0.5,0-1-0.1-1.5-0.2l0,0.1c-158.4-9.6-263.3,14.6-265,92.4c-2.8,130,216.2,99.5,150.8-7.7
	C244,70.1,314,59,337.3,60.8c33.3,2.5,39.5,22.7,33.9,44.4l-31.3,60.4l-171.5,331c-21.7,41.3-41,74.8-57.9,100.5
	C93.6,623,77,642.8,60.8,656.6C45,670.1,27,681.2,6.8,689.9c-1.1,0.5-1.9,1.6-1.9,2.8v4.1H278v-3.2c0-1.6-1.3-3-2.9-3
	c-35.7-1.9-62-15.4-78.8-40.5c-17.3-25.7-23.9-59.7-19.8-102c2.2-22.7,7.7-46.7,16.5-72.2h308.1l70.4,127.5
	c10.8,19.6,15.1,35.7,12.7,48.2C581.7,664.1,573.1,673.6,558.2,680z M196,467.3c7.2-19.5,143-281.2,143-281.2l157.4,281.2H196z
	 M1264.8,586.8c-37.9-25.4-93.8-38.1-167.5-38.1H959.6c-15.6,0.7-29.5,0.1-41.5-1.7c-13.1-1.7-23.8-4.7-31.9-9
	c-5.7-3-10.2-6.5-13.4-10.6c-7.2-7.7-10.5-17.2-10.2-28.5c0-2.3,0.3-4.5-1.3-7.3c-3.4-5.9-11.2-7.5-16.9-3.7
	c-6.4,4.3-12.3,8.7-17.7,13.1c-4.1,3.5-10.1,8.7-14.7,13c-2.4,2.4-4.8,4.8-7,7.2c-0.5,0.6-1,1.2-1.5,1.7
	c-16.8,19.6-26.7,43-25.9,69.4c1.9,44.9,32.8,82,75.4,95.9c4.4,1.5,10.5,3,16.6,4.3c13.2,2.8,26.6,4.1,40.1,4.1h10.7v0
	c3.8,0.1,7.7,0.2,11.6,0.2h109.6c46,0,80.4,6.9,103,20.8c22.7,13.9,34,34.7,34,62.4c0,25.7-8,48.7-23.9,69
	c-15.9,20.3-37.7,36.2-65.5,47.7c-27.8,11.5-59.9,17.3-96.4,17.3c-52.8,0-94.4-11.2-124.9-33.5c-30.5-22.3-45.7-53.1-45.7-92.4
	c0-0.2,0-0.4,0-0.6c0.1-27.4-21.9-49.7-49.3-49c-3,0.1-6,0.1-8.9,0.2c-28.4,0.6-54.8,16.1-67.9,41.3c-5.3,10.3-8,21.2-8,32.4
	c0,33.2,23.7,59.9,71.1,80.2c47.4,20.3,110.7,30.5,189.8,30.5c75.1,0,140.6-9.3,196.4-27.9c55.8-18.6,99.1-44.7,129.9-78.2
	c30.8-33.5,46.2-72.9,46.2-118.3C1321.7,649.6,1302.7,612.2,1264.8,586.8z"/>
</svg>
