<?xml version="1.0" encoding="utf-8"?>
<!-- Generator: Adobe Illustrator 26.4.0, SVG Export Plug-In . SVG Version: 6.00 Build 0)  -->
<svg version="1.1" id="Layer_1" xmlns="http://www.w3.org/2000/svg" xmlns:xlink="http://www.w3.org/1999/xlink" x="0px" y="0px"
	 viewBox="0 0 190.4 92" style="enable-background:new 0 0 190.4 92;" xml:space="preserve">
<style type="text/css">
	.st0{fill:#FFFFFF;}
</style>
<g id="Group_1">
	<path id="Vector" class="st0" d="M145,46.5V0c0,0-0.1,0-0.1,0c-25.7,0-46.5,20.6-46.5,46s20.8,46,46.5,46c0,0,0.1,0,0.1,0L145,46.5
		L145,46.5z"/>
	<path id="Vector_2" class="st0" d="M168.5,43.4c12,0,21.7-9.7,21.7-21.7c0-12-9.7-21.7-21.7-21.7s-21.7,9.7-21.7,21.7
		C146.8,33.7,156.5,43.4,168.5,43.4z"/>
	<path id="Vector_3" class="st0" d="M190.2,48.6h-43.4V92h43.4V48.6z"/>
	<path id="Vector_4" class="st0" d="M85.1,48.6H27.4L0,92h112.4L85.1,48.6L85.1,48.6z"/>
	<path id="Vector_5" class="st0" d="M56.3,2.6L28.2,47.4h56.1L56.3,2.6z"/>
</g>
</svg>
