<?xml version="1.0" encoding="UTF-8"?><svg id="a" xmlns="http://www.w3.org/2000/svg" width="390.59996" height="247.586" viewBox="0 0 390.59996 247.586"><defs><style>.b{fill:#fff;}</style></defs><path class="b" d="M384.50001,31.78602c-4-3.5-9.20001-5.3-15.5-5.3-9.39999,0-18.10001,2.4-26.20001,7.2-4.39999,2.6-8.10001,5.7-10.89999,9.2-1.79999-1.6-3.70001-3.1-5.79999-4.4-12.29999-8-29-11.9-50.10001-11.9s-38,4.1-50.7,12.2c-12.7,8.2-19,19.4-19,33.8s6.3,25.7,19,33.8c7.7,4.89999,16.89999,8.3,27.8,10.3,.60001,.10001,1.39999,.3,1.39999,.3,6.70001,1.10001,14.10001,1.7,22.10001,1.7,20.70001,0,37.20001-4,49.5-12.10001,12.29999-8.1,18.39999-19.4,18.39999-34,0-11.6-3.79999-21.1-11.39999-28.5,.39999-.5,.89999-1,1.39999-1.5,2.89999-3,5.79999-5.2,8.79999-6.8,3-1.5,5.20001-2.3,6.79999-2.3,2.29999,0,4.20001,1.5,5.79999,4.6,1.5,3.1,3.10001,6.6,4.60001,10.5s3.60001,7.4,6.29999,10.5c2.70001,3.1,6.20001,4.6,10.29999,4.6,3.79999,0,7.10001-1.6,9.60001-4.8,2.60001-3.2,3.89999-7.3,3.89999-12.5-.09995-6.19999-2.09995-11.09999-6.09995-14.59999Zm-91.5,74.2c-3.70001,7.2-9.10001,10.8-16.39999,10.8s-12.60001-3.7-16-10.89999c-3.29999-7.3-5-18.4-5-33.4,0-15.2,1.79999-26.3,5.29999-33.5,3.5-7.2,9-10.8,16.29999-10.8,7.10001,0,12.39999,3.6,16,10.8,3.5,7.2,5.29999,18.4,5.29999,33.5-.09998,15.19999-1.89999,26.3-5.49997,33.49999Zm-136.20001,72.7c-4.10001,1.8-10.3,2.8-18.5,3-.39999,0-.8,.39999-.8,.8v.89999h98c.3,0,.39999-.5,.10001-.60001-7.5-1.39999-14.7-4.8-19.89999-10.7-9.2-9.8-12.10001-23.89999-8.39999-36.8,.7-2.60001,1.7-5.2,2.89999-7.7-12.60001-22.89999-37.8-68.4-57.2-103.7v.1s-.10001-.1-.2-.4c-.39999-.7-.7-1.3-1.10001-2-3.39999-5.6-14.2-19.1-39.6-21-.1,0-.3,0-.4-.1h0C66.8-2.01398,37.1,4.88602,36.6,26.88603c-.8,36.9,61.3,28.2,42.7-2.2-11.6-18.9,8.3-22,14.9-21.5,9.4,.7,11.2,6.4,9.6,12.6l-8.9,17.1L46.3,126.78603c-6.2,11.7-11.6,21.2-16.4,28.5-4.8,7.3-9.5,13-14.1,16.89999-4.5,3.8-9.6,7-15.3,9.39999-.3,.10001-.5,.5-.5,.8v1.2H77.4v-.89999c0-.5-.4-.89999-.8-.89999-10.1-.5-17.6-4.39999-22.3-11.5-4.9-7.3-6.8-16.89999-5.6-28.89999,.6-6.39999,2.2-13.2,4.7-20.5h87.3l20,36.09999c3.10001,5.60001,4.3,10.10001,3.60001,13.7-.8,3.5-3.2,6.2-7.5,8ZM54.2,118.38602c2-5.5,40.5-79.7,40.5-79.7l44.6,79.7H54.2Zm302.89999,33.90001c-10.70001-7.2-26.60001-10.8-47.5-10.8h-39c-4.39999,.2-8.39999,0-11.79999-.5-3.70001-.5-6.70001-1.3-9-2.60001-1.60001-.89999-2.89999-1.8-3.8-3-2-2.2-3-4.89999-2.89999-8.10001,0-.7,.10001-1.3-.39999-2.10001-1-1.7-3.2-2.10001-4.8-1-1.8,1.2-3.5,2.5-5,3.7-1.2,1-2.89999,2.5-4.2,3.7l-2,2c-.10001,.2-.3,.3-.39999,.5-4.8,5.60001-7.60001,12.2-7.3,19.7,.5,12.7,9.3,23.2,21.39999,27.2,1.2,.39999,3,.89999,4.7,1.2,3.7,.8,7.49998,1.2,11.40001,1.2h3c1.10001,0,2.20001,.10001,3.29999,.10001h31.10001c13,0,22.79999,2,29.20001,5.89999,6.39999,3.89999,9.60001,9.8,9.60001,17.7,0,7.3-2.29999,13.8-6.79999,19.60001s-10.70001,10.3-18.60001,13.49998c-7.89999,3.29999-17,4.89999-27.29999,4.89999-15,0-26.79999-3.20001-35.39999-9.5s-13-15.10001-13-26.2v-.2c0-7.8-6.2-14.10001-14-13.89999-.89999,0-1.7,0-2.5,.10001-8.10001,.2-15.5,4.60001-19.2,11.7-1.5,2.89999-2.3,6-2.3,9.2,0,9.39999,6.7,17,20.2,22.70001,13.39999,5.79999,31.39999,8.60001,53.8,8.60001,21.29999,0,39.89999-2.60001,55.70001-7.89999,15.79999-5.29999,28.10001-12.7,36.79999-22.2,8.70001-9.5,13.10001-20.7,13.10001-33.5,.09995-13.89998-5.30005-24.49998-16.10007-31.69998Z"/></svg>