<?xml version="1.0" encoding="utf-8"?>
<!-- Generator: Adobe Illustrator 26.4.0, SVG Export Plug-In . SVG Version: 6.00 Build 0)  -->
<svg version="1.1" id="b" xmlns="http://www.w3.org/2000/svg" xmlns:xlink="http://www.w3.org/1999/xlink" x="0px" y="0px"
	 viewBox="0 0 1387.5 973.3" style="enable-background:new 0 0 1387.5 973.3;" xml:space="preserve">
<style type="text/css">
	.st0{fill:#FFFFFF;}
</style>
<path class="st0" d="M1360.8,168.8c-14.5-12.7-33.1-19.1-55.8-19.1c-33.8,0-65.1,8.6-94,25.8c-15.8,9.4-28.9,20.4-39.1,33
	c-6.3-5.7-13.2-11-20.8-15.9c-44.1-28.6-104-42.9-179.8-42.9c-75.8,0-136.4,14.6-181.9,43.9c-45.5,29.3-68.2,69.8-68.2,121.4
	c0,51.7,22.7,92.2,68.2,121.4c27.4,17.7,60.7,30,99.7,37c2.3,0.4,5,1,5.1,0.9c24.2,4,50.6,6,79.2,6c74.4,0,133.7-14.5,177.7-43.4
	c44.1-28.9,66.1-69.6,66.1-121.9c0-41.8-13.7-75.9-41-102.5c1.6-1.9,3.2-3.7,4.9-5.5c10.3-10.7,20.8-18.8,31.5-24.3
	c10.7-5.5,18.8-8.3,24.3-8.3c8.3,0,15.1,5.5,20.7,16.5c5.5,11,11,23.6,16.5,37.7c5.5,14.1,13.1,26.7,22.7,37.7
	c9.6,11,22,16.5,37.2,16.5c13.8,0,25.3-5.7,34.6-17.1c9.3-11.4,14-26.4,14-45C1382.5,199,1375.3,181.6,1360.8,168.8z M1032.2,435.5
	c-13.1,25.8-32.7,38.8-58.9,38.8c-26.2,0-45.3-13.1-57.4-39.3c-12.1-26.2-18.1-66.1-18.1-119.9c0-54.4,6.4-94.6,19.1-120.4
	c12.7-25.8,32.2-38.8,58.4-38.8c25.5,0,44.6,12.9,57.4,38.8c12.7,25.8,19.1,66,19.1,120.4C1051.8,369.5,1045.3,409.6,1032.2,435.5z
	 M564.7,683.4c-14.7,6.4-36.8,9.9-66.4,10.8c-1.6,0-2.8,1.3-2.8,2.9v3.4h351.9c1.2,0,1.4-1.8,0.2-2c-27.1-5.1-52.6-17.4-71.6-38.3
	c-33.2-35.2-43.5-85.9-30.2-132.2c2.7-9.4,6.2-18.6,10.4-27.6c-45.3-82.2-135.6-245.7-205.5-372.5l0,0.2c0,0-0.2-0.5-0.7-1.5
	c-1.3-2.3-2.6-4.7-3.9-7C533.9,99.6,495.2,51,404,44.3c-0.5,0-1-0.1-1.5-0.2l0,0.1c-161.2-9.8-268,14.9-269.7,94
	c-2.9,132.3,220.1,101.3,153.5-7.8c-41.4-67.8,29.9-79,53.6-77.2c33.9,2.6,40.2,23.1,34.5,45.2l-31.9,61.5l-174.6,337
	c-22.1,42-41.7,76.1-58.9,102.3c-17.2,26.2-34.1,46.3-50.6,60.5c-16,13.7-34.4,25-54.9,33.8c-1.1,0.5-1.9,1.6-1.9,2.9v4.2h278v-3.2
	c0-1.7-1.3-3-3-3.1c-36.4-2-63.1-15.7-80.2-41.2c-17.6-26.2-24.3-60.8-20.2-103.9c2.2-23.1,7.8-47.6,16.8-73.5h313.6l71.6,129.8
	c11,20,15.3,36.3,12.9,49.1C588.6,667.3,579.9,676.9,564.7,683.4z M196,466.9c7.3-19.9,145.5-286.2,145.5-286.2l160.3,286.2H196z
	 M1262.7,588.6c-38.6-25.8-95.4-38.8-170.5-38.8H952c-15.9,0.7-30,0.1-42.3-1.7c-13.3-1.7-24.2-4.8-32.5-9.1
	c-5.8-3-10.3-6.7-13.7-10.8c-7.3-7.8-10.6-17.5-10.4-29c0-2.3,0.3-4.6-1.3-7.5c-3.5-6-11.4-7.6-17.2-3.7c-6.5,4.4-12.5,8.8-18,13.3
	c-4.2,3.6-10.3,8.9-15,13.3c-2.5,2.4-4.9,4.9-7.1,7.3c-0.5,0.6-1,1.2-1.6,1.8c-17.1,20-27.2,43.8-26.4,70.7
	c1.9,45.7,33.4,83.5,76.7,97.6c4.5,1.5,10.7,3.1,16.9,4.4c13.4,2.8,27.1,4.2,40.8,4.2h10.9v0c3.9,0.1,7.8,0.2,11.9,0.2h111.6
	c46.8,0,81.8,7.1,104.9,21.2c23.1,14.1,34.6,35.3,34.6,63.6c0,26.2-8.1,49.6-24.3,70.3c-16.2,20.7-38.4,36.8-66.7,48.6
	c-28.3,11.7-61,17.6-98.2,17.6c-53.7,0-96.1-11.4-127.1-34.1c-31-22.7-46.5-54.1-46.5-94c0-0.2,0-0.4,0-0.6
	c0.1-27.9-22.3-50.6-50.2-49.9c-3.1,0.1-6.1,0.1-9,0.2c-28.9,0.7-55.8,16.4-69.1,42.1c-5.4,10.5-8.2,21.5-8.2,33
	c0,33.7,24.1,61,72.3,81.6c48.2,20.7,112.6,31,193.2,31c76.5,0,143.1-9.5,200-28.4c56.8-19,100.9-45.5,132.3-79.6
	c31.3-34.1,47-74.2,47-120.4C1320.5,652.5,1301.2,614.4,1262.7,588.6z"/>
</svg>
