<?xml version="1.0" encoding="UTF-8"?>
<svg id="Layer_1" xmlns="http://www.w3.org/2000/svg" version="1.1" viewBox="0 0 1310.5 309.9">
  <!-- Generator: Adobe Illustrator 30.1.0, SVG Export Plug-In . SVG Version: 2.1.1 Build 136)  -->
  <path d="M431.9,52.5s-12.9,44-19.9,67.7c-.3.9.1,1.9.9,2.4.3.2.7.3,1,.3.6,0,1.1-.2,1.5-.6,4.5-4.7,8.9-8.2,12.9-10.5,5-2.8,9.9-4.1,14.7-4.1,7.8,0,14.8,4,19.6,11.3,4.5,6.8,3.5,17.1,2.3,30.1-1.2,12.4-2.6,27.9,1.3,39.8,5.2,16.2,18.7,19.9,29.8,21.3,2.2.3,4.5.5,6.7.5,12,0,23.6-4.2,33.7-12.2,8.2-6.5,15.3-15.5,21.1-26.6.5-1,1.2-2.5,2.2-4.5,6.8-14.8,11.4-32.3,13.4-52.2.5-4.7,4.4-8.2,9.1-8.2s.6,0,.9,0c2.4.2,4.6,1.4,6.2,3.3,1.6,1.9,2.2,4.3,2,6.7,0,1.2-.2,2.4-.4,3.6,0,.5,0,1,.3,1.5.4.6,1,.9,1.7.9s.9,0,1.2-.3c0,0,.5-.3.6-.4,6.4-4.4,12.9-6.6,19.4-6.6s5.8.5,8.6,1.4c6.7,2.2,15.2,7.7,17.3,21.1,1.2,7.8,0,16.6-1,25.3-1.5,11.7-3,23.8,1.3,31.4,2,3.5,4.4,5.2,7.1,5.2s.7,0,1.2-.1c4.1-.7,12.7-7,15.4-24.9v-.6c0-4,0-8.2.2-12.6,1-22.3,4.8-43.6,5-44.4.8-4.4,4.5-7.5,9-7.5s1.1,0,1.7.2c2.4.5,4.5,1.8,5.9,3.8s1.9,4.4,1.5,6.8c0,.7-3.3,18.5-4.5,37.6-1.9,29.8,2.2,38.8,4,41.3.3.4.8.7,1.3.8,1,.2,2,.3,2.9.3,3.3,0,6.3-1,9.4-3.3,9.7-7,18.9-24.8,25.8-50.2,5.6-20.6,7.8-39.1,7.9-39.2.5-4.6,4.4-8.1,9.1-8.1s.4,0,.6,0c4.8.3,8.6,4.4,8.6,9.2-.6,56.7-9.7,100.9-26.9,131.5-11.8,20.8-27.1,35.1-46.7,43.7-1.3.6-2.8.9-4.3.7-2.9-.2-5.6-1.8-7.1-4.2-1.6-2.5-1.8-5.5-.8-8.3.9-2.3,2.6-4.1,4.8-5.1,15.9-7,28.4-18.7,38.1-36,3.5-6.2,6.7-13.2,9.4-20.7.3-.8,0-1.7-.5-2.3-.4-.4-.9-.6-1.4-.6s-1,.2-1.4.6c-1.5,1.4-3,2.6-4.5,3.7-6.2,4.4-13,6.7-20.1,6.7s-4.9-.3-7.4-.8c-5.1-1.1-9.2-4.1-12.4-9-.3-.5-.9-.9-1.5-.9h-.3c-.6,0-1.1.3-1.5.7-4.7,4.8-10.3,7.9-16.1,9-1.5.3-3,.4-4.5.4-9.1,0-17.7-5.4-22.9-14.3-7.4-12.9-5.4-28.8-3.6-42.8,1-7.7,1.9-14.9,1.1-20.1-.7-4.8-2.7-5.8-5-6.6-.9-.3-1.8-.4-2.7-.4-6.4,0-15.2,6.9-24.1,18.9-5.6,7.5-10.2,15.6-13.1,21h0c-7.4,16.5-17.3,29.6-29.2,39.1-13.3,10.6-28.9,16.2-45.2,16.2s-5.9-.2-8.9-.6c-12.3-1.6-22.4-5.5-30-11.7-6.9-5.6-11.9-13-14.8-22.1-5-15.5-3.4-33-2.1-47.1.7-8.3,1.3-15.3.6-18.2,0-.2-.2-.5-.3-.6-.6-.8-1.7-2.6-4.3-2.6s-3.2.6-5.5,1.8c-14.3,7.9-36.1,44.4-47.2,67,0,0,0,.1-.1.2v.2c-.2.4-.3.8-.5,1.2v.2c-3.5,11.4-5.8,19.4-7.2,24.3-.9.3-1.4,1.2-1.3,2.2.1,1.1,0,2.1-.2,3.2h0c0,.2-.1.4-.2.6-1.2,3.8-4.7,6.4-8.7,6.4s-1.9-.2-2.8-.5c-2.4-.7-5.4-3-6.2-6.8-.1-.6-.5-1-1-1.4-.3-.2-.7-.3-1.1-.3h-.6c-3.5,1-7,1.4-10.5,1.4s-3,0-4.5-.3c-8.6-1-16.3-4.9-21.9-10.9-.4-.4-1-.7-1.6-.7h-.1c-.6,0-1.2.3-1.5.7-8.7,10.6-17.8,16.1-26.9,16.1s-.7,0-1,0c-9.8-.5-18.2-7.1-23.1-18.3-4.8-10.9-4.5-25-4.3-38.5.1-7.1.2-13.8-.3-19.7-1-10-3.2-14.5-4.4-16.2-.4-.6-1-.9-1.7-.9s-.7,0-1,.2c-3.3,1.8-9,8.1-14,19.7-7.9,18.2-17.1,45.2-23.1,63v.2c-2.1,6-3.9,11.2-5.2,14.8-.7,2.1-1.3,3.6-1.7,4.7-2.4,5.9-6.3,7.1-9.2,7.1s-2-.2-2.4-.3c-3.9-1-6.6-4.4-6.8-8.4v-2c0-.7.2-1.6.5-2.8.3-1.7.8-4,1.3-6.8,2.2-10.8,5.8-28.9,7.9-45.8,3-24.1,1.3-32,.4-34.3-.1-.3-.3-.6-.6-.9-.8-.6-1.5-.9-2.4-.9s-.5,0-.8,0c-3.1.2-8.2,1.9-14.6,4-6.2,2-14.7,4.8-25.7,7.7-1,.3-1.7,1.2-1.6,2.2,4.2,42.1,9.6,68.5,16.6,80.8.9,1.5,1.3,3.2,1.2,4.9v.2c.2,3.4-1.5,6.6-4.4,8.3s-3,1.3-4.7,1.3c-3.2,0-6.2-1.7-7.8-4.4-9.1-15-37.3-56.4-58.9-67.7-4.6-2.4-9.1-4.5-13.2-6.3-.2-.1-.5-.2-.8-.2-.8,0-1.5.5-1.8,1.2C51.3,247.1,17.4,304.9,17,305.4c-1.7,2.8-4.7,4.5-7.9,4.5s-3.2-.5-4.7-1.3c-2.1-1.3-3.6-3.2-4.2-5.6-.6-2.4-.3-4.8,1-6.9,1.3-2.3,33.3-56.8,66.3-124.4.3-.6.3-1.3,0-1.8s-.9-1-1.5-1.1c-5.2-.9-9.4-1-13.3-1s-1.3,0-2,0c-5.1,0-9.1-4.1-9.2-9.1v-1.1c.4-4.7,4.3-8.3,9-8.4h2.7c4.7,0,9,.2,13.2.3h0c3.2.1,6.5.2,10.1.3h0c.8,0,1.6-.5,1.9-1.2,1.1-2.4,2.2-4.7,3.3-7,16.6-35.7,25.3-62.5,31.2-80.1,6.6-20,9.9-30,18.5-33,1.4-.5,2.9-.7,4.4-.7,3,0,6.2,1,9.3,3.1,4.8,3.2,5.5,9.3,6.6,20.9.7,8.4,1.4,19.9,2.2,33.2v.2c.9,14.4,2,32.3,3.5,50.6,0,.6.3,1.2.9,1.6.3.2.7.3,1.2.3h.5c8.6-2.3,15.4-4.5,21-6.4,8.1-2.6,15-4.9,21.2-4.9s10.5,2,15.1,6.2c3.3,3,5.5,7.7,6.5,14.3.1.9.9,1.6,1.8,1.7h.3c.8,0,1.6-.5,1.9-1.2,8.5-18.3,20-28.8,31.4-28.8s1.9,0,2.8.2c4.3.7,10.4,3.2,15,11.6,3,5.5,4.9,12.9,5.9,22.2.7,6.9.6,14.5.4,21.8-.2,11.6-.4,23.6,2.8,30.9,1.5,3.5,4.2,7.2,7.1,7.4h.2c4.3,0,12.2-5.9,21.6-22.4.2-.3.3-.6.3-1,.2-13.1,3.2-32.1,8.9-56.4.1-.5,0-1.2-.2-1.6-.4-.6-1-1-1.8-1s-.3,0-.5,0l-16.8,4.2c-.7.2-1.5.3-2.2.3-4.2,0-7.8-2.9-8.9-7-1.2-4.9,1.8-9.9,6.7-11.1l28.4-7.1c.7-.2,1.3-.7,1.5-1.5,6.7-25.3,13.3-46,13.6-46.8,1.2-3.8,4.7-6.4,8.7-6.4s1.9.2,2.8.5c4.8,1.6,7.5,6.7,5.9,11.5-1.4,4.5-5.4,16.9-10.1,33.9-.2.7,0,1.5.5,2,.4.4.9.6,1.5.6s.3,0,.5,0l18.9-4.7c.7-.2,1.5-.3,2.2-.3,4.2,0,7.8,2.9,8.9,7,1.2,4.9-1.8,9.9-6.7,11.1l-30.9,7.7c-.7.2-1.3.7-1.5,1.5-5.9,23.8-12.7,55.4-10.9,70.4.6,5.1,5.1,10.6,13.6,11.6.7,0,1.4.1,2.2.1,5.6,0,16-2.2,22.4-17.1,0,0,0-.2.1-.2,4.9-16.5,11.1-37.6,17.4-58.9,9.9-33.5,26.9-90.8,27.6-93.1,1.2-3.9,4.7-6.4,8.7-6.4s3.2.5,4.7,1.3c2.2,1.3,3.8,3.6,4.3,6.1.3,1.6.2,3.1-.3,4.6h0c0,0-2.8,8.7-2.8,8.7h0v-.3ZM139.6,161.2h-.4c-1.1.2-2.1.4-3.2.6-7,1.3-13.6,2.5-19.7,3.3-.9.1-1.6.7-1.7,1.6s.2,1.7.9,2.2c7.9,5.3,16.7,13.3,26,23.8.4.5,1,.7,1.6.7s.6,0,.9-.2c.8-.4,1.3-1.3,1.2-2.2-1.2-8.5-2.3-17.7-3.4-28.1,0-.6-.3-1.1-.8-1.4-.3-.3-.8-.4-1.2-.4h-.2ZM132.6,65.3c-.9,0-1.7.6-2,1.4l-.2.5c-5.7,17.4-14.3,43.6-30.3,78.4-.3.7-.2,1.5.2,2.1.4.5,1,.9,1.7.9s0,0,.2,0c8.9-1,18.8-2.5,30.2-4.7,1.8-.3,3.7-.7,5.4-1.1,1-.2,1.7-1.2,1.7-2.2-1.5-18.5-2.8-37.9-3.7-54.4v-.3c-.4-6.2-.8-12.7-1.2-18.7,0-1-.8-1.8-1.8-1.9h-.3.1Z" fill="#2d554e"/>
  <path d="M507,193.3c-7,0-13.7-2.5-19.2-7.3-9.6-8.4-16.7-25.6-7.7-48.7,5.4-13.8,12-23.8,19.8-29.7,5.5-4.2,11.4-6.3,17.5-6.3s1.3,0,1.9,0c12.7.9,23.3,11.3,26.6,25.7.6,2.5,0,5.1-1.4,7.2-.3.5-.5,1.1-.3,1.7.9,4,1.9,10.2,1.3,17.4-1.3,15.8-9.5,28.3-23.6,36.1-4.7,2.6-10,4-15,4h.1ZM517.5,119.5c-5.3,0-13.4,6.4-20.4,24.4-3.5,8.9-4.8,21.7,2.7,28.3,2.1,1.8,4.5,2.8,7.1,2.8s4.1-.6,6.2-1.7c8.5-4.7,13.1-11.6,14.1-20.9.3-3.5,0-6.7-.2-9.1-.3-1.9.9-3.7,2.6-4.3h0c.6-.2,1.2-.7,1.4-1.3.2-.7,0-1.6-.5-2.1-1.3-1.2-2.1-2.8-2.5-4.5-1.4-6.3-5.6-11.1-10.1-11.4h-.5v-.2Z" fill="#2d554e"/>
  <path d="M835.3,210.5c-6.3,0-12.1-.8-17.3-2.4-16.6-4.9-27.7-17.7-31.2-35.9-4.8-24.9,4.1-62.4,23.8-100.2,7.4-14.3,34.1-61.4,65.2-70.1,4.7-1.3,9.3-1.9,13.8-1.9,7.8,0,15,2,21.3,5.8,19.3,11.7,25.1,36.2,25.7,38.9.5,2.4,0,4.8-1.3,6.9-1.3,2.1-3.4,3.5-5.8,4-.6,0-1.3.2-2,.2-4.3,0-8-3-8.9-7.2-1.2-5.4-6.7-20.8-17.3-27.2-3.6-2.1-7.4-3.2-11.7-3.2s-5.8.5-9,1.3c-7.8,2.2-17,9.1-26.8,20.3-9.6,10.9-19,25-27.2,40.7-17.3,33.3-25.9,67.9-22,88.3,2.2,11.7,8.3,18.8,18.5,21.9,3.4,1,7.4,1.6,11.9,1.6,16.1,0,40.4-7.2,55.9-23.1.5-.5,1.2-1,1.8-1.4.5-.3.7-.7.9-1.2,4.2-14,10.1-28.4,14.1-38.1.8-2,1.6-3.9,2.5-5.8.3-.8.2-1.7-.5-2.3-.4-.4-.9-.6-1.4-.6s-.6,0-.9.2c-5.5,2.5-11,4.6-16.4,6.2-8.2,2.4-16.2,3.6-23.2,3.6s-8.2-.5-11.3-1.5c-2.4-.7-4.3-2.4-5.4-4.5s-1.3-4.7-.6-7c1.2-3.8,4.7-6.4,8.7-6.4s1.8,0,2.8.4c1.2.3,3.2.6,5.6.6,6.6,0,30.4-1.8,59-24.9.2-.2.4-.4.6-.7,1.7-3.4,2.8-5.5,3-6.1,1.6-3.1,4.7-5,8.2-5s2.8.3,4.1,1c4.5,2.3,6.3,7.8,4,12.3,0,0-.6,1.2-1.7,3.3,0,.2-.2.5-.2.7-.2,2.1-1.2,4-2.7,5.5-.2.2-.3.3-.4.6-4.4,9-10.8,22.8-17,37.6-4.8,11.4-20.3,49.8-17.7,62.5,1,4.9-2.2,9.8-7.2,10.8-.6.1-1.2.2-1.8.2-4.4,0-8.1-3.1-9-7.4-.2-1.2-.4-2.4-.5-3.9,0-.7-.5-1.4-1.1-1.7-.3-.2-.6-.2-1-.2s-.7.1-1,.3c-6.4,3.7-13.3,6.9-20.5,9.3-10.2,3.5-20.1,5.2-29.5,5.2h-.2c0-.1.3-.3.3-.3Z" fill="#2d554e"/>
  <path d="M1300.9,244.2c-5.4,0-10.3-1.9-14.2-5.5-11.8-11-12.4-35.4-13.1-63.6-.3-14.5-.7-29.5-2.9-40.6-2.4-12-5.7-14.4-7.5-14.8-1.2-.2-2.4-.3-3.6-.3-12.4,0-20.5,13.7-23.2,18.2-5.2,8.7-8.5,18.1-9.9,22.9v.2c-3.2,14.6-7.1,28.8-11.5,42.2-1.3,3.7-4.7,6.3-8.7,6.3s-2-.2-2.9-.5c-3.9-1.3-6.4-4.8-6.3-8.9,0-.7-.3-1.4-1-1.8-.3-.2-.7-.3-1-.3s-.7.1-1,.3c-10.5,6.2-20.7,9.4-30.3,9.4h-.5c-12.8-.1-24.3-6-33.5-17.1-.4-.5-1-.7-1.6-.7s-.7.1-1,.3c-4.6,2.8-11.7,6.7-19.6,9.8-9.1,3.6-17.5,5.4-24.9,5.4s-16.3-2.6-22.3-7.8c-.4-.3-.9-.5-1.4-.5s-.8.1-1.1.3c-2.1,1.4-4.3,2.6-6.4,3.7-8.8,4.7-16.8,7.1-23.8,7.1s-3.6-.2-5.2-.5c-7.1-1.3-12.8-5.5-16.6-12-4.6-7.9-8.8-22-2.6-44,.6-2.2,1.4-4.5,2.3-7,.2-.5.2-1.2,0-1.7-.2-.5-.7-.9-1.3-1-10.6-3-19.1-9.8-25.4-20.1-.4-.6-1-1-1.8-1s-.2,0-.3,0c-.8,0-1.5.6-1.7,1.4-9.8,30.9-20.6,48-28,56.8-1.7,2.1-4.3,3.3-7,3.3s-6.3-1.7-7.9-4.5c-1.9-3.3-1.6-7.5.9-10.4,8.4-10.1,24.1-35.8,35.2-93.5.8-4.3,4.6-7.4,9-7.4s1.2,0,1.7.2c4.9,1,8.2,5.8,7.2,10.7,0,.6-.5,2.3-.5,2.3v1.1c.3.9.5,1.8.5,2.8s.5,11.9,5.1,22.7c3.2,7.5,9.1,17.7,23.2,18.9h.2c.6,0,1.2-.2,1.6-.7.9-1,1.8-2,2.6-2.6,1.6-1.3,3.6-2,5.7-2s5.4,1.3,7.1,3.4c3.1,3.9,2.5,9.6-1.3,12.8,0,0,0,.1-.2.1-2.6,2.6-7.1,11.3-9.7,20.8-2.4,8.5-4.1,20.5.9,29.3,1.4,2.4,2.8,2.9,4.2,3.2.6.1,1.3.2,2,.2,7,0,17-5.9,19.9-7.8.8-.5,1.2-1.6.8-2.5-3.7-9.8-4.6-21.2-2.7-33.1,2.5-15.8,9.8-31.6,19.7-42.1,8-8.6,17.4-13.3,26.4-13.3s11.2,1.8,16.2,5.4c6.3,4.5,10,11.1,10.5,18.9,1,12.7-5.9,28.4-20.9,48-6.4,8.4-12.9,15.5-17.1,20-.6.6-.7,1.4-.4,2.2s1,1.3,1.8,1.3h.9c4.8,0,10.7-1.3,17.5-4,7.9-3.1,15.1-7.2,19.8-10.2.7-.5,1-1.2.9-2-1.2-8-.3-16.7,2.6-25.9,4.5-14.8,13.7-29,24.4-38.1,6.2-5.2,12.4-8.3,18.5-9.1,1.1-.2,2.2-.2,3.3-.2,6.6,0,12.4,2.8,16.8,7.9,5.3,6.1,7.5,13.6,6.5,21.7-1.4,11.2-9.2,23.6-23.1,37-9.7,9.3-19,15.8-19.4,16.1s-.7.5-1.2.7c-.6.3-1.1.9-1.2,1.7s.2,1.4.8,1.8c4.4,3.4,9,5.1,14.2,5.2h.3c7.5,0,16-3.2,25.4-9.6,9.2-6.2,15.7-13.1,17.5-15.1.2-.3.4-.6.5-.9.2-.9.4-1.8.6-2.6v-.3c0-.6,0-1.2.2-1.7,0-.1.2-.9.7-2.4h0c6.3-29.3,7.9-50.5,7.9-50.7.3-4.8,4.4-8.5,9.1-8.5s.5,0,.7,0c4.8.3,8.6,4.4,8.5,9.3,0,.8.4,1.5,1.1,1.8.3.2.6.2,1,.2s.9,0,1.2-.4c6.6-4.7,13.8-7.1,21.3-7.1s4.9.2,7.4.7c4.4.9,10.6,3.6,15.4,11.4,2.8,4.5,4.9,10.4,6.3,17.9,2.4,12.6,2.8,28.4,3.2,43.6.3,12.5.6,25.4,2.1,35.4,1.7,11.4,4.3,14.6,5.4,15.4.3.2.7.4,1.1.5h1.1c4.9,0,9.1,4,9.1,9s-4.1,9.1-9.3,9.3h-.5.2c0,.1.4-.1.4-.1ZM1092,108.9c-.8,0-1.6,0-2.5.3-3.3.9-7,3.4-10.5,7.1-7.3,7.9-13.1,20.4-15,32.5-.8,4.9-1.3,12.4.5,19.9.2.7.7,1.3,1.5,1.5h.5c.6,0,1.1-.2,1.5-.6,8.3-8.7,16.4-18.8,22.2-27.6,7.3-11.2,10.8-19.8,10.3-25.8-.2-2.5-1-4-3-5.5-1.8-1.3-3.6-2-5.5-2h0v.2ZM1170.1,115.2h-.8c-1.5.2-4.6,1.2-9.2,5-7.9,6.7-15.3,18.3-18.8,29.5-.9,2.8-1.9,7-2.2,11.5,0,.8.4,1.6,1.1,2,.3.2.6.2,1,.2s.9-.1,1.2-.4c12.4-9,31.2-26.7,32.8-38.9.3-2.9-.3-5.2-2.2-7.4-.7-.8-1.6-1.6-2.9-1.6h0Z" fill="#2d554e"/>
  <path d="M84,304.1c-4.4,0-8.2-3.2-9-7.5-.9-4.9,2.4-9.7,7.4-10.6.6-.1,62.7-11,163.5-22.5,93.2-10.6,240-24.1,409.9-27.6h.2c4.9,0,9.1,4,9.1,9,0,5.1-3.9,9.2-9,9.3-169,3.5-315.2,16.9-407.9,27.5-100.2,11.4-162,22.3-162.6,22.4-.5.1-1.1.1-1.6.1h0Z" fill="#2d554e"/>
  <path d="M763,250.6c-4.8,0-8.8-3.8-9.1-8.6-.2-2.4.7-4.8,2.3-6.6s3.9-2.9,6.3-3c1.6-.1,159.6-9.4,362.1-9.4s91.8.5,135.3,1.5c2.4,0,4.7,1,6.4,2.8s2.6,4.1,2.5,6.5c0,4.9-4.2,8.9-9.1,8.9h-.2c-43.3-1-88.7-1.5-134.9-1.5-200.9,0-359.3,9.3-360.9,9.4h-.7Z" fill="#2d554e"/>
</svg>