<svg id="Layer_1" data-name="Layer 1" xmlns="http://www.w3.org/2000/svg" viewBox="0 0 18 18"><defs><style>.cls-1{fill:none;stroke:#fff;stroke-linecap:round;stroke-miterlimit:10;stroke-width:1.25px;}</style></defs><title>zoom-button-18x18</title><path class="cls-1" d="M5.86384,15.4126H2.76865a.18125.18125,0,0,1-.18125-.18125V12.13616"/><path class="cls-1" d="M12.13616,2.5874h3.09519a.18125.18125,0,0,1,.18125.18125V5.86384"/><path class="cls-1" d="M2.5874,5.86384V2.76865a.18125.18125,0,0,1,.18125-.18125H5.86384"/><path class="cls-1" d="M15.4126,12.13616v3.09519a.18125.18125,0,0,1-.18125.18125H12.13616"/><line class="cls-1" x1="15.30721" y1="2.69279" x2="10.82208" y2="7.17792"/><line class="cls-1" x1="7.17792" y1="10.82208" x2="2.69279" y2="15.30721"/><line class="cls-1" x1="15.30721" y1="15.30721" x2="10.82208" y2="10.82208"/><line class="cls-1" x1="7.17792" y1="7.17792" x2="2.69279" y2="2.69279"/></svg>