<svg id="Layer_1" data-name="Layer 1" xmlns="http://www.w3.org/2000/svg" viewBox="0 0 18 18"><defs><style>.cls-1{fill:none;stroke:#fff;stroke-linecap:round;stroke-miterlimit:10;stroke-width:0.75px;}</style></defs><title>zoom-button-24x24</title><path class="cls-1" d="M4.79928,17.58936H.65341a.24277.24277,0,0,1-.24277-.24277V13.20072"/><path class="cls-1" d="M13.20072.41064h4.14587a.24277.24277,0,0,1,.24277.24277V4.79928"/><path class="cls-1" d="M.41064,4.79928V.65341A.24277.24277,0,0,1,.65341.41064H4.79928"/><path class="cls-1" d="M17.58936,13.20072v4.14587a.24277.24277,0,0,1-.24277.24277H13.20072"/><line class="cls-1" x1="17.44819" y1="0.55181" x2="11.44059" y2="6.55941"/><line class="cls-1" x1="6.55941" y1="11.44059" x2="0.55181" y2="17.44819"/><line class="cls-1" x1="17.44819" y1="17.44819" x2="11.44059" y2="11.44059"/><line class="cls-1" x1="6.55941" y1="6.55941" x2="0.55181" y2="0.55181"/></svg>