<svg id="Layer_1" data-name="Layer 1" xmlns="http://www.w3.org/2000/svg" viewBox="0 0 48 48"><defs><style>.cls-1{fill:none;stroke:#000;stroke-linecap:round;stroke-miterlimit:10;stroke-width:2px;}</style></defs><title>zoom-button-48x48-black</title><path class="cls-1" d="M14.78825,42.83557H5.69681a.53237.53237,0,0,1-.53238-.53238V33.21175"/><path class="cls-1" d="M33.21175,5.16443h9.09144a.53237.53237,0,0,1,.53238.53238v9.09144"/><path class="cls-1" d="M5.16443,14.78825V5.69681a.53237.53237,0,0,1,.53238-.53238h9.09144"/><path class="cls-1" d="M42.83557,33.21175v9.09144a.53237.53237,0,0,1-.53238.53238H33.21175"/><line class="cls-1" x1="42.526" y1="5.474" x2="29.35196" y2="18.64804"/><line class="cls-1" x1="18.64804" y1="29.35196" x2="5.474" y2="42.526"/><line class="cls-1" x1="42.526" y1="42.526" x2="29.35196" y2="29.35196"/><line class="cls-1" x1="18.64804" y1="18.64804" x2="5.474" y2="5.474"/></svg>