<?xml version="1.0" encoding="UTF-8"?>
<svg id="Layer_1" xmlns="http://www.w3.org/2000/svg" version="1.1" viewBox="0 0 80.6 100">
  <!-- Generator: Adobe Illustrator 30.1.0, SVG Export Plug-In . SVG Version: 2.1.1 Build 136)  -->
  <path d="M31.3,15.3c-.7-.5-1.4-.9-2.1-1.5-3-2.4-3.7-6.8-1.7-10,.9-1.6,2.4-2.5,4.1-3.1C33.5,0,35.5,0,37.4,0c1.6,0,3.3.3,4.7,1.1.6.2,1.2.7,1.6,1.1,2.5,2.3,2.1,6.3-.8,8-.8.5-1.6.9-2.5,1.3-.2,0-.2,0-.5.2.5.2.9.5,1.4.7,1.3.7,2.5,1.5,3.4,2.5,1.4,1.6,1.9,3.3,1.8,5.4,0,1.6-.6,3.2-1.6,4.6-1.1,1.4-2.6,2.3-4.2,2.8-2.2.7-4.4.9-6.7.8-1.6,0-3-.3-4.5-.9-1.4-.5-2.6-1.3-3.6-2.6-1.5-2.3-1.2-5,.8-7,1.1-1.2,2.5-2,4-2.6.3-.2.4-.2.5-.2h0ZM32.1,15.7c-.2,0-.5,0-.5.2,0,.2-.2.5-.2.8-.3,1.5-.3,3-.3,4.5s.2,2.3.5,3.4c.7,2.2,2.3,3.3,4.5,3.3s2.3-.2,3.1-.9c1.3-1,1.9-3.4,1.4-5.1-.3-1.1-1.2-2-2.2-2.6-1.1-.7-2.3-1.4-3.4-2-1.1-.5-1.9-1-2.9-1.6h0ZM39.6,11.4c0-.2,0-.2,0-.3.3-1,.6-2.2.6-3.2,0-1.6,0-3.2-.5-4.7-.2-.9-.7-1.6-1.5-2.1-1.4-.8-3-.8-4.4,0-1.9.9-2.6,3.7-1.7,5.7.5,1,1.3,1.6,2.3,2.2,1.6.8,3,1.6,4.6,2.3.2,0,.4,0,.5,0Z" fill="#525146"/>
  <path d="M21.9,0v47.3c0,2.6,1.4,3.7,2.5,3.9h0v.7l-20.1,23.9s.2-1.8.2-1.9c1.6-2.6,2.9-5.9,3.2-7.8.5-2.3.2-40.7.2-48.7s0-2.3-.3-3.3c-.5-2.3-2.2-3.6-4.5-3.8-.6,0-1.1,0-1.7-.2,0-.3,0-.5.3-.6C8.6,7.3,15.1,4.1,21.2.3c.2-.2.5-.2.7-.3h0Z" fill="#525146"/>
  <path d="M18.4,86.6H2.3c-.5,0-.7-.5-.6-.8,0-.2.2-.3.3-.5,10-11.8,20.1-23.8,30.2-35.7.2-.3.6-.3.9-.2.3,0,.6.2.6.6v34.8c0,.3.2.6.6.6h4.5c.3,0,.6.2.6.6h0c0,.3-.2.6-.6.6h-5q0,0,0,.2c0,2.4,0,4.9.2,7.4.2,2.3,1.4,4,3.3,5.3,0,0,.2.2.2.5H15.1c0-.2.2-.5.2-.5,1.9-1.2,3-3,3.3-5.1.2-.8.2-1.6.2-2.3v-4.7c.2-.5,0-.8-.5-.8h0ZM5,85.2h13.4c.3,0,.6-.2.6-1.4v-15.9c0,.2-.7,0-1.1.3-4.5,5.3-8.9,10.6-13.4,15.9-.3.5,0,1.1.5,1.1Z" fill="#525146"/>
  <path d="M58.8,99.8h-21.4c-.5,0-.9-.5-.9-.9.2-.9.2-1.6.5-2.5,1.2-4.9,3.3-9.5,5.7-13.9,5.2-9.8,11.7-18.7,19-27.1,3.1-3.6,6.4-6.9,9.5-10.3.2-.2.3-.3.6-.6-.3,0-.5,0-.8,0-9.2,0-22.5,0-31.8,0-1.9,0-3.7,0-5.6.2-2,.2-3.3,1.5-6.1,4h-.9c-.5,0-1.1-.6-1.1-1.3v-15.3c.2-.3.5-.6.9-.6h53.3c.6,0,1,.6.8,1.2,0,0,0,.2-.2.2-3.7,6.1-7.6,12-11.1,18-4,6.8-6.8,14.1-8.2,21.8-.7,3.9-1.2,7.8-1.6,11.7-.3,4.9-.5,9.9-.7,14.7v.7h0Z" fill="#525146"/>
</svg>