<?xml version="1.0" encoding="UTF-8"?>
<svg id="Layer_1" xmlns="http://www.w3.org/2000/svg" version="1.1" viewBox="0 0 121 100">
  <!-- Generator: Adobe Illustrator 30.1.0, SVG Export Plug-In . SVG Version: 2.1.1 Build 136)  -->
  <g>
    <path d="M9.8,90.4c-.4-.5-.9-.9-1.4-1-.5-.2-1-.3-1.6-.3-1.2,0-2.1.4-2.7,1.2-.6.7-.9,1.9-.9,3.2s.3,2.6.9,3.4,1.5,1.2,2.7,1.2,1.5-.2,2.2-.7c.3-.2.7-.5.8-.7.6.6.8,1,.8,1.4s-.1.5-.6.8c-.3.3-.9.6-1.4.7s-1.4.2-2.1.2c-1.2,0-2.2-.2-3-.7s-1.5-1.2-2-2.2-.7-2.1-.7-3.5.2-2.5.7-3.4c.5-.9,1.2-1.6,2.1-2.2.9-.5,1.9-.7,2.9-.7s1.4,0,2,.3,1,.5,1.4.7.6.6.6.9-.2.8-.7,1.4h-.2Z" fill="#525146"/>
    <path d="M17.1,90c-.1-.2-.2-.5-.3-.7s-.1-.5-.1-.7c0-.3.2-.6.7-.8.5-.2,1-.5,1.7-.6.7-.1,1.4-.2,2-.2,1.6,0,2.7.3,3.5,1,.7.7,1,1.9,1,3.5v5c0,.5,0,.8,0,1s.1.4.3.5.4.1.9.1v1c-.3,0-.8.1-1.2.1-1.3,0-2-.5-2.1-1.4-.6.6-1.2.9-1.7,1.2-.7.2-1.3.3-2.1.3-1.2,0-2.2-.3-2.8-.9-.7-.7-.9-1.5-.9-2.7s.6-2.4,1.7-3.1,2.7-1.2,4.8-1.2h1v-.4c0-.9-.2-1.4-.7-1.7s-1.2-.6-2-.6-1.3,0-1.7.2c-.6.1-1.2.5-1.7.9h-.2ZM23.4,93.3h-.7c-1.5,0-2.7.2-3.5.7s-1.2,1-1.2,2,.1,1.2.6,1.4c.4.3.9.5,1.6.5s1.2,0,1.6-.3c.5-.2.9-.5,1.2-.7.3-.3.5-.6.5-.8v-2.7h0Z" fill="#525146"/>
    <path d="M32.5,86.1c0-1.6.4-2.8,1.2-3.7s1.9-1.3,3.3-1.3,1.3,0,1.7.2c.6.1.9.4,1.3.7s.5.6.5.7c0,.3-.2.8-.7,1.3h-.4c-.7-.8-1.4-1.2-2.5-1.2s-1.4.2-1.9.7c-.4.5-.6,1.2-.6,2.1v1.7h4.3v1.9h-4.3v10.1h-2.2v-13h0Z" fill="#525146"/>
    <path d="M45.2,93.7c0,1.3.4,2.3,1,3s1.5,1,2.7,1,2.5-.5,3.4-1.4c.2.2.4.5.5.8s.2.5.2.7c0,.3-.1.6-.6.9-.9.7-2.2,1-3.7,1s-3.3-.6-4.3-1.7-1.5-2.7-1.5-4.8.2-2.4.7-3.3c.5-.9,1.2-1.6,2-2.1.8-.5,1.7-.7,2.8-.7s2,.2,2.7.7,1.3,1,1.7,1.9c.4.8.6,1.7.6,2.7s0,1.2,0,1.4h-8.2ZM51.1,92.1c0-2.2-.9-3.2-2.8-3.2s-1.6.3-2.2.9c-.6.6-.9,1.4-.9,2.3h5.9ZM49.5,82.5c.2-.3.5-.6.7-.7.1,0,.4-.1.7-.1s.5,0,.7.1.5.2.7.4l-2.6,2.7c-.4.5-.9.7-1.3.7s-.7-.1-1-.4l2.1-2.7h0Z" fill="#525146"/>
    <path d="M71.2,86.4l-3.2,1.7c-.4-.5-.7-.9-.7-1.2s0-.3.1-.4.2-.2.4-.3l3-1.7c.6-.3,1-.6,1.4-.6s.4,0,.6,0c.1,0,.3.1.4.2v15h-2v-12.8h-.1Z" fill="#525146"/>
    <path d="M81.3,89.9c-.4-.7-.6-1.3-.6-2s.2-1.5.7-2.2,1-1,1.7-1.4c.7-.3,1.5-.5,2.4-.5,1.4,0,2.6.3,3.5,1,.9.7,1.3,1.7,1.3,2.9s-.1,1.4-.6,2c-.4.6-.9,1-1.6,1.4.8.2,1.4.8,2,1.5s.7,1.5.7,2.4c0,1.4-.5,2.6-1.4,3.4s-2.2,1.2-3.8,1.2-3-.4-3.9-1.2c-.9-.8-1.4-1.9-1.4-3.3s.2-1.6.8-2.3c.5-.7,1.2-1.3,2-1.6-.7-.4-1.3-.8-1.7-1.4h0ZM83.1,97.2c.7.5,1.4.7,2.4.7s1.7-.2,2.4-.8c.6-.6.9-1.3.9-2.2s-.3-1.6-.9-2.2c-.6-.6-1.4-.8-2.4-.8s-1.7.2-2.4.8c-.7.6-.9,1.3-.9,2.2,0,1.1.4,1.8.9,2.2h0ZM83.5,89.7c.6.5,1.2.7,2,.7s1.4-.2,2-.7.8-1,.8-1.7-.2-1.4-.8-1.7c-.6-.4-1.2-.7-2-.7s-1.5.2-2,.7-.8,1-.8,1.7.2,1.2.8,1.7h0Z" fill="#525146"/>
    <path d="M95.2,93.7l6.2-8.6c.3-.5.7-.8.9-.9.2-.1.5-.2.8-.2s.7,0,.9.2v9.5h.7c.7,0,1.2.3,1.2,1v.4h0c0,.1-1.7.1-1.7.1v4h-2.1v-4h-6.7v-1.5h0ZM102,93.6v-6.7l-4.8,6.7h4.8Z" fill="#525146"/>
    <path d="M118.6,85.9h-7.7v-.6c0-.4.1-.7.4-.9.2-.2.6-.3,1-.3h7.8c.3,0,.6,0,.7.1s.1.3.1.7v.6l-6.6,13.9h-2.2l6.4-13.5h0Z" fill="#525146"/>
  </g>
  <path d="M47.6,43.4h0c-.2,0-.3-.1-.3-.3.1-1.3,0-8.2,0-9.6,0-1.5.3-2.6.3-2.6h0c0-.2.1-.4.2-.5-.2-.1-.4-.4-.4-.7h0c-.2-.1-.3-.5-.2-1,0-.2-.2-2-.2-4.3,0-4.3,1.6-7.4,1.6-7.6,2.3-4.3,5-6.9,11.8-6.9,3.3,0,6.7.8,9.5,2.4,2.6,1.5,4.5,3.6,5.3,5.7,1.2,3.2,1.4,5.8.7,9,0,.2-.1.5-.3.8,0,0,.1.2.2.4.9,1.7.2,5.5-.6,6.4-.3.3-.5.8-.7,1.3-.4,1-.9,2.2-2.4,2.2-.7,0-1.2-.3-1.3-.7-.7-.9,0-2.9.1-3.3.1-.3.5-.5.7-.7.2-.1.5-.2.7-.6,0-.1,0-.2,0-.5-.1-.2-.3-.7,0-1.3.1-.5.7-1.2,1.3-2,.4-.5.8-.9,1-1.4-.1,0-.4,0-.7,0-2.9.5-7.8,3.3-7.9,3.4s-.1,0-.2,0c0,0-.6-.1-1.3-.3,0,.1,0,.2,0,.4-.2.9-.7,1.5-1.5,2-.1,0-.3,0-.5,0,0-.1,0-.3,0-.5.7-.3,1-.9,1.2-1.6,0-.1,0-.2,0-.4,0,0-.1,0-.2,0,0,.1,0,.3-.1.5,0,0,0,0,0,.1-.4.8-1.4,2.5-4.6,1.7-1.2-.2-1.9-1.2-1.9-2.5s.8-2.8,2.3-3.1c2.3-.6,4.3.4,5,1.4.1.3.3.8.4,1.4.6.1,1,.2,1.3.3.8-.5,5.2-2.9,8-3.4.4,0,.8,0,1.2,0,0-.1.1-.4.2-.6.7-3.1.6-5.5-.7-8.7-1.4-3.8-7.2-7.9-14.2-7.7-6.5,0-9,2.4-11.3,6.6,0,0-1.6,3.1-1.5,7.3,0,2.3.2,4.2.2,4.2h0v.6h0c0,0,.1.1.1.2,0,.1,0,.3.2.4.7-.8,1.7-1.4,2.7-1.4.5,0,.8.2.9.5.5.2.9.6.9.9s0,.7-.9.9c-1.2.3-2.7.2-3.6-.1,0,.1-.1.2-.2.4,0,.1-.3,1-.2,2.3,0,1.4.1,8.4,0,9.8,0,.4,0,.5-.2.5h0ZM75.1,28.4c-.3.5-.7.9-1,1.4-.6.7-1,1.4-1.2,1.7-.1.4,0,.6,0,.7,0,.2.2.6,0,1s-.7.7-.9.8c-.2.1-.4.2-.5.4-.1.4-.7,2-.1,2.7,0,.1.2.3.7.3,1,0,1.4-.9,1.9-1.9.2-.5.5-1,.8-1.4.7-.7,1.3-4.2.5-5.6,0,0-.2,0-.2,0h0ZM60.7,28c-.4,0-.8,0-1.2.1-1.2.2-1.9,1.4-1.9,2.5s.5,1.7,1.4,1.9c2.9.7,3.5-.7,3.9-1.4,0,0,0,0,0-.1,0,0,0-.1,0-.2h-.1c-.1,0-.5,0-.8,0-1.5.1-3.7.3-3.9-.8,0-.3,0-.7.3-.9.2-.2,1-.9,2.7-.7.3,0,.6.1.8.4.2,0,.5.1.7.2.5.3.8.7.9,1.2,0,0,.1,0,.2,0,0-.4-.1-.7-.2-.9-.3-.9-1.4-1.5-2.9-1.5h0ZM48.9,30.1c.5.1,1.2.3,1.7.2-.5,0-.7-.5-.7-.8s0-.3.1-.4c-.4.3-.9.6-1.2,1ZM52.1,29.7c0,0,0,.1-.1.2l-.3.3c0,0,.1,0,.3,0,.3,0,.4-.1.4-.2,0,0,0-.1-.3-.2h0ZM60.5,29c-.7,0-1.2.2-1.4.5,0,0-.1.2-.1.3,0,.4.9.4,1.7.4-.1-.1-.3-.3-.4-.6,0-.2.1-.5.3-.7ZM62.4,29.5c0,.2-.1.5-.3.7h0c.4,0,.7,0,.9,0-.1-.2-.4-.4-.6-.5,0,0,0,0,0,0h0ZM51.1,29.4c-.2,0-.4.1-.4.3,0,0,0,0,0,0,.2,0,.5,0,.7-.1,0,0,0,0,0-.1,0,0-.2,0-.4,0h0ZM61.5,29.3c-.1,0-.4,0-.5,0,0,0,0,0,0,.1s.1.1.2.1c.1,0,.3,0,.4,0,0,0,.1-.2.1-.3,0,0-.1,0-.2,0ZM47.7,29.1h0Z" fill="#525146"/>
  <path d="M55,50.2c-.9,0-1.6-.1-2.1-.7-.7-.7-.9-1.5-.9-2.3,0-.4,0-.7-.2-1-.3-.9-.2-1.7,0-2.3.5-.7,1.4-1.2,2.7-1.2,2.5-.2,3.5.7,3.6,1.3,0,.2,0,.5-.1.7-.5.6-1.7.7-2.5.7-1.4,0-2.2-.5-2.2-.5-.1,0-.2-.3-.1-.4,0-.1.3-.2.4-.1,0,0,.7.4,2,.4s1.7-.1,2-.4c0,0,0,0,0,0,0-.2-.8-.9-2.9-.7-1.2,0-2,.4-2.2.9-.2.4-.3.9,0,1.7.1.4.1.8.2,1.2,0,.7.1,1.4.8,2s3.2.6,4.8-.3c1.2-.7,2.7-3.6,3.8-5.9.2-.6.6-1,.8-1.5.3-.7,1.2-1.6,2.1-2.7,1.2-1.4,2.5-2.9,3.4-4.4.6-.9.9-2.2.9-3.8h0v-.7c0-2,.1-4.2.3-4.8,0-.2.1-.6.4-.9.3-.7.7-1.7.9-2.8,0-.1,0-.3,0-.5.1-1.5.4-2.8-1.7-5.5-2.2-2.8-4.5-3-6.9-3h-.3c-1.4,0-2.1.2-2.7.5-.6.2-.9.4-1.6.1-.9-.4-1.3-.5-2.7-.2-.9.1-1.9.8-1.9.8-.1,0-.3,0-.5,0,0-.1,0-.3,0-.5,0,0,1-.7,2.1-.9,1.5-.3,2-.2,3.1.2.3.1.6,0,1-.1.7-.2,1.4-.6,3-.5h.2c2.5.1,5.1.3,7.4,3.4,2.2,2.9,2,4.4,1.9,5.9,0,.1,0,.3,0,.5-.1,1.2-.6,2.2-.9,3-.1.3-.2.7-.3.8-.1.6-.2,3.3-.3,4.6v.7h0c0,.9-.2,2.7-1,4-.9,1.5-2.2,3.1-3.5,4.5-.9,1-1.7,2-2,2.6-.2.4-.5.9-.8,1.4-1.2,2.4-2.7,5.4-4.1,6.1-.8.4-2.1.8-3.3.8h0Z" fill="#525146"/>
  <path d="M71.5,64.3q0,0-.1,0c-.1,0-.2-.3,0-.5,3.7-6.4,9.4-9.2,11.1-9.9-2.9-2.6-8.4-11.6-9.8-14.1-.9,2.2-3.5,8.6-4.8,11.2-1.7,3.5-7.2,6.7-11.6,6.9-4.5.1-8.2-3.3-9.1-5.9-.7-1.7-.9-3.3-.9-5.1-.4,1.4-.4,3.4.9,6,0,0,0,.2,0,.3s-1.7,2.1-5.1,4.6c1,.6,3.5,2,5.6,4.2.1.1,0,.3,0,.5-.1.1-.3,0-.5,0-2.5-2.7-5.8-4.3-5.8-4.3,0,0-.1-.1-.1-.2s0-.2.1-.3c3-2.2,4.8-4.2,5.4-4.6-1.7-3.8-1-6.4,0-7.8.1-1.7,1.6-2.7,3-3.4.7-.3,1.2-.7,1.6-1,1.2-1.3,2.8-1.9,3.9-1.4.3,0,.6,0,.8-.1.7-.1,1.2-.2,2.3.3.9.4,1.7,1,2.5,1.7,1.4,1.2,2.9,2.3,4.8,2.5.1,0,.2,0,.3.2,0,.1,0,.2,0,.3s-1.5,1.4-3.3.9c-1.4-.3-2.2-.8-3.1-1.4-.6-.4-1.2-.7-1.9-1-.7-.2-1-.4-1.4-.5-.1,0-.3,0-.5-.1,0,0-.1,0-.2-.1-.4.3-1.6.9-2.7,1.4-.5.1-.9.3-1.4.6-.9.3-1.7.7-2.3.7-.8.1-1.3.4-1.6.8-.1,2.4,0,4.1.8,6.4.8,2.3,4.3,5.6,8.5,5.5,4.3-.1,9.5-3.3,11.1-6.5,1.4-2.9,4.6-10.7,5-11.7,0-.1.1-.2.2-.2.1,0,.2,0,.3.1,0,.1,7.4,12.7,10.5,14.9,0,0,.1.1.1.3s0,.2-.2.2-7.1,2.6-11.3,9.8c-.1,0-.3,0-.4,0h0ZM54.8,41.3c.1,0,.3,0,.4.1h0c.1.1.2.1.5.2.3,0,.8.2,1.4.6.8.3,1.4.7,2,1.2.8.6,1.5,1,2.9,1.3.8.1,1.5,0,2.1-.4-1.7-.4-3-1.5-4.3-2.5-.8-.7-1.6-1.3-2.4-1.7-1-.5-1.4-.4-2-.2-.2,0-.6.1-.9.1h-.1c-.7-.3-2.2,0-3.3,1.3-.4.5-1,.8-1.7,1.2-.9.6-2,1-2.3,2,.4-.2.9-.3,1.3-.4.6,0,1.4-.4,2.2-.7.5-.1.9-.4,1.5-.6,1.2-.4,2.3-1.2,2.6-1.3-.2-.3-.1-.3,0-.3Z" fill="#525146"/>
  <path d="M54.2,38.8c-.4,0-.8-.2-1.2-.4,0,0-.1,0-.3-.1-.9-.5-1.3-1.3-.9-2,.2-.5.7-1.3.7-2,0,0,0-.4,0-.8-.9.2-2,.3-2.4.3-1.4,0-2.3-.3-3-.9s-.8-1.4-.7-2.4c0-2,1.7-3.1,4.4-3,.9,0,1.7.3,2.2.9.3.3.5.7.6,1.2.2-.1.6-.2.9-.3.7-.1,1.9,0,2.4.5.2.1.4.4.4.7s0,.3-.2.4c-.1,0-.3,0-.4-.2,0,0,0-.1-.1-.2-.4-.3-1.4-.5-2-.4-.7,0-1,.6-1,.6,0,0-.2,0-.3,0-.1,0-.1-.1-.1-.3,0-.6-.1-.9-.4-1.4-.4-.4-1-.7-1.9-.7-1.4,0-3.7.1-3.8,2.4,0,.9.1,1.5.6,2,.5.5,1.3.7,2.5.7s1.9,0,2.5-.3c0-.5,0-.9.1-1.3,0-.3.3-.6.7-.6s.7.1.9.5c0,.1.2.7-.4,1.4s-.4.3-.7.5c0,.6,0,1,0,1.2h0c-.1.8-.6,1.7-.8,2.2-.2.5,0,.9.6,1.2,0,0,.1,0,.3.1.6.3.9.5,1.2.2.5-.3.9-.2,1.4-.2h.2c.3,0,.8,0,1.4-.5.2-.1.3-.5.2-.9,0-.1-.1-.7-.7-.8-.1,0-.2-.2-.2-.4s.2-.2.4-.2c.7.1,1,.7,1.2,1.3,0,.7,0,1.2-.6,1.5-.7.5-1.2.7-1.9.6h-.2c-.3,0-.7,0-.9,0-.1,0-.4,0-.7,0h0ZM53.6,31.5h0s0,0,0,0c0,.2,0,.5,0,.8,0,0,0,0,.1-.1.2-.2.3-.5.2-.7,0,0,0,0-.2,0h0Z" fill="#525146"/>
  <path d="M49.9,67.5c0,0-.2,0-.3,0l-11.6-6.7c-.2,0-.3-.3-.3-.6V14.5c0-.2.1-.5.3-.6L61.1.5c.2,0,.5,0,.7,0l7.1,4.1c.3.1.4.6.2.9-.1.3-.6.4-.9.2l-6.7-3.9-22.4,12.9v44.8l11.3,6.5c.3.1.4.6.2.9-.1.4-.4.5-.7.5h0Z" fill="#525146"/>
  <path d="M61.4,74.2c0,0-.2,0-.3,0l-3.7-2.2c-.3-.1-.4-.6-.2-.9.1-.3.6-.4.9-.2l3.4,2,22.4-12.9V15l-5.7-3.3c-.3-.1-.4-.6-.2-.9.1-.3.6-.4.9-.2l6,3.5c.2,0,.3.3.3.6v45.7c0,.2-.1.5-.3.6l-23.1,13.4c0-.1-.2-.1-.4-.1h0Z" fill="#525146"/>
  <path d="M54.9,70.4c0,0-.2,0-.3,0l-2.6-1.5c-.3-.1-.4-.6-.2-.9.1-.3.6-.4.9-.2l2.6,1.5c.3.1.4.6.2.9,0,.2-.3.3-.6.3Z" fill="#525146"/>
</svg>