<?xml version="1.0" encoding="UTF-8"?>
<svg id="Layer_1" xmlns="http://www.w3.org/2000/svg" version="1.1" viewBox="0 0 145.7 100">
  <!-- Generator: Adobe Illustrator 30.1.0, SVG Export Plug-In . SVG Version: 2.1.1 Build 136)  -->
  <path d="M80,42.1v-5.4h-12.6l17.6-25.1v55.3h5.4V2.4h-5.6l-27.8,39.5h22.9ZM9.3,61.7h5.4V2.4h-5.6L0,14.6l4.3,3.2,5-6.7v50.7h0ZM69.4,61.1s0,0,0,0c-.3-.9-.6-1.9-.9-2.7,0,0,0-.2,0-.5-.3-.7-.6-1.5-.9-2.2,0-.2-.2-.6-.3-.8-.3-.6-.6-1.2-.9-1.6-.3-.5-.7-1-1-1.5-.2-.2-.3-.6-.6-.8-.5-.7-1-1.3-1.6-2,0,0-.2-.2-.3-.3-.5-.6-1-1-1.5-1.5s-.5-.5-.7-.6c-.3-.3-.7-.7-1.2-.9-.5-.3-.9-.7-1.4-1-.2-.2-.5-.3-.7-.6-.7-.5-1.4-.9-2.1-1.3,0,0-.2,0-.2-.2,0,0,0,0,0,0-.8-.5-1.6-.8-2.4-1.2,0,0-.2,0-.3,0-.2,0-.3,0-.6-.2,6.3-3.9,10.7-10.8,10.7-18.8C62.5,10.2,52.6.4,40.4.4s-22,9.9-22,22,4.3,14.9,10.7,18.8c-.2,0-.6.2-.8.3-.2,0-.3.2-.6.2-.5.2-.8.3-1.3.6-.2,0-.5.2-.7.3-.2,0-.6.3-.8.5h0c-2.6,1.5-4.7,3.2-6.7,5.2l3.9,3.7c1.9-2,3.9-3.6,6.3-4.8,0,0,.3-.2.5-.2.3-.2.7-.3,1.2-.6,0,0,.2,0,.5-.2s.8-.3,1.2-.5c0,0,.2,0,.3,0,.3,0,.8-.2,1.2-.3,0,0,.3,0,.5,0,.7-.2,1.5-.3,2.2-.5.2,0,.3,0,.6,0,.6,0,1,0,1.6-.2.2,0,.5,0,.8,0h2c.7,0,1.5,0,2.2,0h0c1.6,0,3.2.5,4.7.9,0,0,.2,0,.2,0,.6.2,1.2.3,1.7.6.2,0,.5,0,.7.2.5.2.9.5,1.5.7.2,0,.5.2.8.3.6.3,1.2.7,1.7,1,0,0,.2,0,.2.2,3.4,2.2,5.9,5.1,7.9,8.7,0,0,0,.2.2.3.2.5.5,1,.7,1.5,0,.2.2.6.3.8,0,.3.3.8.5,1.2,0,.5.3.8.5,1.3.7,2.3,1,4.7,1,7.2,0,14-11.4,25.3-25.3,25.3s-25.3-11.4-25.3-25.3h-5.4c0,17,13.7,30.7,30.7,30.7s30.7-13.7,30.7-30.7c-.5-2.7-.9-5.4-1.6-8.2h0ZM40.6,38.8h-1.2c-9-.2-16.2-7.6-16.2-16.6S30.6,5.6,39.8,5.6s16.6,7.4,16.6,16.6-7,16.3-15.8,16.6h0ZM97.5,2.6v5.4h38.4l-57.8,90.5h6.4L145.7,2.7h-48.2Z" fill="#525146"/>
</svg>