<?xml version="1.0" encoding="UTF-8"?>
<svg id="Layer_1" xmlns="http://www.w3.org/2000/svg" version="1.1" viewBox="0 0 162 100">
  <!-- Generator: Adobe Illustrator 30.1.0, SVG Export Plug-In . SVG Version: 2.1.1 Build 136)  -->
  <g>
    <path d="M23.6,11.8c-.3-.4-.8-.7-1.2-.9-.4-.2-.9-.2-1.4-.2-1.2,0-2,.3-2.5,1.2s-.9,2-.9,3.4.3,2.5.9,3.4c.6.8,1.5,1.2,2.7,1.2s.9-.1,1.4-.3c.4-.2.8-.6,1.2-.9.1.1.3.2.4.4.1.2.2.3.2.4,0,.2-.1.3-.2.4-.3.3-.8.6-1.4.8s-1.2.3-1.9.3c-1.7,0-2.8-.4-3.8-1.5-.8-1.1-1.3-2.4-1.3-4.3s.4-3.3,1.3-4.3,2.1-1.5,3.8-1.5,1.2.1,1.7.2c.4.1.9.3,1.3.6.3.2.4.4.4.7s-.1.4-.4.9h-.3Z" fill="#525146"/>
    <path d="M39.4,9.6c.1,0,.2-.1.3-.1h.4c.4,0,.8.2,1.1.7l3.9,10.6h-1.5l-1.2-3.1h-4.5l-1.1,3.1h-1.5l4-11.3h0ZM42,16.6l-1.9-5.4-1.9,5.4h3.8Z" fill="#525146"/>
    <path d="M56.5,9.5h6.5v.3c0,.6-.3.9-1.1.9h-4.1v3.5h3.9v1.3h-3.9v5.4h-1.5c.1,0,.1-11.4.1-11.4Z" fill="#525146"/>
    <path d="M74.4,9.5h6.5v.3c0,.6-.3.9-1.1.9h-4.1v3.5h3.9v1.3h-3.9v4h4.3c.3,0,.6.1.8.2s.2.3.2.7v.3h-6.7v-11.3h0ZM78.6,6.8c.2-.1.3-.2.4-.3.1-.1.2-.1.3-.1.2,0,.3.1.6.2.2.1.3.2.4.4l-2.1,1.3c-.3.2-.6.3-.8.3s-.2,0-.4-.1c-.1-.1-.3-.2-.3-.3l1.9-1.4h0Z" fill="#525146"/>
  </g>
  <polygon points="100.1 100 0 100 0 0 100.1 0 100.1 33.6 98.4 33.6 98.4 1.7 1.7 1.7 1.7 98.3 98.4 98.3 98.4 78.5 100.1 78.5 100.1 100" fill="#525146"/>
  <path d="M145.5,84.3h4.3v1.3h-14.8v-1.3h4.1c.2-19.7,6.4-37.4,19.8-53-.3.1-.4.2-.7.2-4.5,1.9-9.3,3-14.2,2.7-2.8-.1-5.6-.4-8.4-.8-1.5-.1-3-.2-4.4-.3-1.8-.1-3,.7-3.8,2-1.1,1.7-1.4,3.4-1.7,5.3-.1.7-.1,1.4-.1,2.1h-1.4v-16.1h1.3c.1.6.1,1.2.2,1.8.1.3.2.6.3.9.2.4.7.7,1.3.4.3-.1.7-.2,1.1-.3,2.5-1.3,5.3-1.4,8.1-.8,3,.6,5.9,1.3,8.7,1.9,4.1.8,8.2.9,12.3-.2,1.4-.3,2.7-.9,4.1-1.4.1.2.2.6.3.9,0,.1-.1.3-.2.6-1.8,2.1-3.5,4.2-5.2,6.4-4.4,6.1-7.3,13-9,20.2-1.4,6.4-2,12.9-2.3,19.5-.1,2.4-.1,5-.1,7.5.3-.1.3.1.3.4h0Z" fill="#525146"/>
  <path d="M23.4,84.3h4.2v1.3h-12.9v-1.3h4.1v-51.1c-1.9,2-3.6,3.8-5.4,5.7-.3-.3-.6-.6-.9-.9.1-.1.2-.3.3-.4,2.7-3,5.4-5.7,8.1-8.6.4-.4.8-.7,1.4-.6h1.1v56.1h0Z" fill="#525146"/>
  <path d="M122,72.3v-1.3h-8.7V28.2h-1.2c-.6-.1-.9.1-1.3.6-10.4,13.9-21,27.8-31.5,41.6-.4.6-.3,1.2-.3,1.9h29.2v11.9h-4.2v1.3h13.5v-1.3h-4.3v-11.9h8.9ZM107.8,69.9h-27.5c9.2-12.1,18.2-24,27.5-36.2v36.2Z" fill="#525146"/>
  <path d="M75.1,68.1c-.1-3.1-1.2-5.9-3.3-8.2-1.9-2.1-4.3-3.6-7-5-1.8-.8-3.6-1.7-5.5-2.4h0c.1-.1.3-.1.4-.2,3.1-1.3,5.6-3.2,7.7-5.6,2.4-2.8,3.6-6.1,2.7-9.7-1.1-4.3-4-7.2-8.3-8.6-5.4-2-10.9-1.8-16,.7-4.5,2.2-7.5,5.6-8,10.6-.2,3,.4,5.7,2.4,8.1,1.8,2.1,4.1,3.5,6.5,4.6.2.1.4.2.7.3h-.1c-.1.1-.2.2-.3.2-3.1,1.2-5.7,2.8-8.2,4.8-3.8,3.2-6.3,7.1-6.6,11.9-.4,6.3,2.1,11.3,8,14.5,3.3,1.9,7,2.7,10.7,3,5.3.3,10.3-.6,14.6-3.3,6.1-3.8,9.5-9,9.4-15.9h0ZM42.6,43.6c-2.8-3.9-2.1-9.2,1.8-12.2,4.3-3.4,9.4-4.3,14.8-2.5,3.8,1.3,6,4,7,7.5.2,1.1.3,2.1.4,3.2-.2,5.5-2.8,9.6-7.9,12.3-.2.1-.6.2-.7.1-3.3-1.4-6.5-2.7-9.8-4.1-2.2-.9-4.1-2.4-5.5-4.2ZM71.5,72.5c-.3,5.6-4.6,10.9-12.1,12.6-.7.2-1.5.3-2.3.4-1.1.1-2.1.2-3.2.2-8.7,0-15.6-5.6-16.6-13.7-.6-5.3.7-10.1,4.4-14,1.9-2.1,4.3-3.8,7.2-4.6.2-.1.4-.1.6,0,3.6,1.4,7.3,2.7,10.7,4.2,2.7,1.1,5.2,2.4,7.3,4.4,3.1,3,4.2,6.5,4,10.4h0Z" fill="#525146"/>
</svg>