<?xml version="1.0" encoding="UTF-8"?>
<svg id="Layer_1" xmlns="http://www.w3.org/2000/svg" version="1.1" viewBox="0 0 183.6 100">
  <!-- Generator: Adobe Illustrator 30.1.0, SVG Export Plug-In . SVG Version: 2.1.1 Build 136)  -->
  <path d="M113.6,73.8v-5.6h-18.3l25.1-41.4v60.5h5.6V7.2l-40.4,66.6h28ZM0,14.6h5.3v72.8c-.1,0,5.4,0,5.4,0V9C10.9,9,0,9,0,9,0,9,0,14.6,0,14.6ZM134.8,9.6v5.6h39l-43.1,72.3h6.5L183.6,9.7h-48.8ZM97.1,24.1C96.2,9.9,84-.9,69.9,0c-14.2.9-25,13.2-24.1,27.2.1,2.6.8,5,1.5,7.5-14.3,1.1-26.8,11.7-29.6,26.1-3.5,17.7,7.9,34.9,25.6,38.5,2.2.3,4.3.7,6.5.7,15.3,0,28.9-10.8,32-26.2,1.6-7.9.1-16.1-3.9-23,11.6-3.2,20-14.2,19.2-26.7h0ZM56.3,12.3c3.5-4.1,8.6-6.5,13.8-6.8,11.1-.7,20.6,7.8,21.4,18.9.7,11.1-7.8,20.6-18.9,21.4-5.4.2-10.6-1.5-14.6-5-4.1-3.5-6.5-8.6-6.8-13.8-.3-5.6,1.6-10.8,5.1-14.7h0ZM76.5,72.7c-2.9,14.7-17.4,24.2-32,21.3-7-1.4-13.3-5.6-17.2-11.6-4.1-6-5.4-13.4-4.1-20.4,2.5-12.7,14.2-21.9,27-21.8,1.9,2.7,4.3,5.2,7,7l-3.6,6.5c-.8,1.2-.2,3.1,1,3.7.3.2.9.3,1.4.3,1,0,1.9-.5,2.4-1.4l3.7-6.6c2.9,1.1,6,1.8,9.3,1.8h.5c4.5,5.9,6.1,13.6,4.7,21h0ZM66.9,20.2c1,.5,2,1.1,2.9,2,.9.8,1.6,1.8,2.3,2.9,0,.1.1.1.2.1h0q.1,0,.2-.1c.5-2.4,2-4.4,3.7-6,1.5-1.2-.7-3.3-1.8-1.8-.9,1.1-1.4,2.4-1.9,3.7-.2.8-.5,1.6-.5,2.5-.8-2.2-2.2-3.9-3.7-5.4-1.7-1.4-3.2,1.1-1.5,2h0ZM66.6,27.8c2.2,1.2,4.4,1.4,5.8,3.5.1.2.2.2.3,0,.8-2.3,2.6-3.1,4.4-4.5s2.5-4.2,1.9-6.5c0-.1-.2-.2-.3,0-.9,1.4-1.6,2.5-2.5,3.7-1.1,1.2-2.4,2.2-3.3,3.5-.2.3-.3.9-.5,1.2-.2-.3-.5-.9-.8-1.2-1-1-2.3-1.5-3.5-2.3-1.5-.9-2.5-2-3.9-3.3-.1-.1-.3,0-.3.1-.6,2.4.7,4.5,2.6,5.7h0ZM67.4,37.6c2,.5,4.2.7,6,.3,3.2-.3,5.9-1.8,7.5-2.9,1.6-1.2,2.7-3.3,3.5-5.2,1.4-3.5.5-7.9-2.3-10.6-.1-.1-.3,0-.3.2.8,3.9.7,7.8-2.2,10.9-1.9,2-5.7,3.7-6.4,6.7-1.5-2.6-5.8-3.2-8.1-4.8-3.5-2-4.2-5.9-4.4-10-.3-1.1-1.5,2.4-1.5,2.7-.2,1-.2,2-.1,3.2.1,4.4,4,8.4,8.2,9.4ZM71.7,17.6s0-1,1.4-2.7c1.2-1.5-1.2-2.9-2.3-.7-.7-2.2-2.4-.9-2.3,0,.2,1.6,1.5,1.5,3.2,3.4h0Z" fill="#525146"/>
</svg>