<?xml version="1.0" encoding="utf-8"?>
<!-- Generator: Adobe Illustrator 26.4.0, SVG Export Plug-In . SVG Version: 6.00 Build 0)  -->
<svg version="1.1" id="a" xmlns="http://www.w3.org/2000/svg" xmlns:xlink="http://www.w3.org/1999/xlink" x="0px" y="0px"
	 viewBox="0 0 696.3 594.2" style="enable-background:new 0 0 696.3 594.2;" xml:space="preserve">
<style type="text/css">
	.st0{fill:#525146;}
</style>
<g>
	<g>
		<path class="st0" d="M581.5,281.7V277h-10.9l15.3-21.9v48.2h4.7v-56.1h-4.9l-24.2,34.4H581.5z M519.9,298.9h4.7v-51.7h-4.9
			l-7.9,10.6l3.8,2.8l4.4-5.9L519.9,298.9L519.9,298.9z M572.3,298.3C572.3,298.3,572.2,298.3,572.3,298.3c-0.3-0.8-0.5-1.6-0.8-2.3
			c0-0.1-0.1-0.2-0.1-0.4c-0.3-0.6-0.5-1.3-0.8-1.9c-0.1-0.2-0.2-0.5-0.3-0.7c-0.3-0.5-0.5-1-0.8-1.4c-0.3-0.4-0.6-0.9-0.9-1.3
			c-0.2-0.2-0.3-0.5-0.5-0.7c-0.4-0.6-0.9-1.1-1.4-1.7c-0.1-0.1-0.2-0.2-0.3-0.3c-0.4-0.5-0.9-0.9-1.3-1.3c-0.2-0.2-0.4-0.4-0.6-0.5
			c-0.3-0.3-0.6-0.6-1-0.8c-0.4-0.3-0.8-0.6-1.2-0.9c-0.2-0.2-0.4-0.3-0.6-0.5c-0.6-0.4-1.2-0.8-1.8-1.1c-0.1,0-0.2-0.1-0.2-0.2
			c0,0-0.1,0-0.1-0.1c-0.7-0.4-1.4-0.7-2.1-1c-0.1,0-0.2-0.1-0.3-0.1c-0.2-0.1-0.3-0.1-0.5-0.2c5.5-3.4,9.3-9.4,9.3-16.4
			c0-10.6-8.6-19.2-19.2-19.2c-10.6,0-19.2,8.6-19.2,19.2c0,6.9,3.7,13,9.3,16.4c-0.2,0.1-0.5,0.2-0.7,0.3c-0.2,0.1-0.3,0.2-0.5,0.2
			c-0.4,0.2-0.7,0.3-1.1,0.5c-0.2,0.1-0.4,0.2-0.6,0.3c-0.2,0.1-0.5,0.3-0.7,0.4l0,0c-2.2,1.3-4.1,2.8-5.9,4.6l3.4,3.2
			c1.6-1.7,3.4-3.1,5.5-4.2c0.1-0.1,0.3-0.2,0.4-0.2c0.3-0.2,0.6-0.3,1-0.5c0.1-0.1,0.2-0.1,0.4-0.2c0.3-0.1,0.7-0.3,1-0.4
			c0.1,0,0.2-0.1,0.3-0.1c0.3-0.1,0.7-0.2,1-0.3c0.1,0,0.3-0.1,0.4-0.1c0.6-0.2,1.3-0.3,1.9-0.4c0.2,0,0.3-0.1,0.5-0.1
			c0.5-0.1,0.9-0.1,1.4-0.2c0.2,0,0.4,0,0.7-0.1c0.4,0,0.8,0,1.2,0c0.1,0,0.2,0,0.3,0c0.1,0,0.2,0,0.3,0c0.6,0,1.3,0,1.9,0.1
			c0,0,0,0,0,0c1.4,0.1,2.8,0.4,4.1,0.8c0.1,0,0.2,0,0.2,0.1c0.5,0.2,1,0.3,1.5,0.5c0.2,0.1,0.4,0.1,0.6,0.2
			c0.4,0.2,0.8,0.4,1.3,0.6c0.2,0.1,0.4,0.2,0.7,0.3c0.5,0.3,1,0.6,1.5,0.9c0.1,0.1,0.2,0.1,0.2,0.2c2.9,1.9,5.2,4.5,6.9,7.6
			c0.1,0.1,0.1,0.2,0.2,0.3c0.2,0.4,0.4,0.9,0.6,1.3c0.1,0.2,0.2,0.5,0.3,0.7c0.1,0.3,0.3,0.7,0.4,1c0.1,0.4,0.3,0.7,0.4,1.1
			c0.6,2,0.9,4.1,0.9,6.3c0,12.2-9.9,22.1-22.1,22.1c-12.2,0-22.1-9.9-22.1-22.1h-4.7c0,14.8,12,26.8,26.8,26.8
			c14.8,0,26.8-12,26.8-26.8C573.3,303.1,572.9,300.7,572.3,298.3L572.3,298.3L572.3,298.3z M547.2,278.9c-0.2,0-0.4,0-0.5,0
			c0,0-0.1,0-0.1,0c-0.1,0-0.3,0-0.4,0c-7.8-0.2-14.1-6.6-14.1-14.5c0-8,6.5-14.5,14.5-14.5s14.5,6.5,14.5,14.5
			C561,272.2,554.9,278.6,547.2,278.9L547.2,278.9z M596.8,247.3v4.7h33.4l-50.4,78.8h5.6l53.4-83.5L596.8,247.3L596.8,247.3z"/>
	</g>
	<g>
		<rect x="93" y="317.2" class="st0" width="52.1" height="4.8"/>
		<rect x="68.5" y="317.2" class="st0" width="19.2" height="4.8"/>
		<path class="st0" d="M103.7,312.7c-8,0-14.5-6.5-14.5-14.5s6.5-14.5,14.5-14.5s14.5,6.5,14.5,14.5S111.7,312.7,103.7,312.7z
			 M103.7,288.4c-5.4,0-9.8,4.4-9.8,9.8s4.4,9.8,9.8,9.8c5.4,0,9.8-4.4,9.8-9.8S109.1,288.4,103.7,288.4z"/>
		<path class="st0" d="M103.7,280.3c-8,0-14.5-6.5-14.5-14.5s6.5-14.5,14.5-14.5s14.5,6.5,14.5,14.5S111.7,280.3,103.7,280.3z
			 M103.7,256c-5.4,0-9.8,4.4-9.8,9.8c0,5.4,4.4,9.8,9.8,9.8c5.4,0,9.8-4.4,9.8-9.8C113.5,260.4,109.1,256,103.7,256z"/>
		<polygon class="st0" points="75.1,252 65.6,272 64.6,273.8 70,273.8 75.8,261.6 75.7,321 80.5,321 80.6,252 		"/>
		<polygon class="st0" points="163.7,321.8 169,321.8 201.1,258.3 201.1,252.5 160.1,252.5 160.1,257.3 196.4,257.3 		"/>
		<polygon class="st0" points="145.1,295.8 129.1,295.8 150.5,260.9 150.5,321.8 155.2,321.8 155.2,252 150.4,252 120.7,300.6 
			145.1,300.6 		"/>
	</g>
	<g>
		<g>
			<g>
				<path class="st0" d="M288.3,339.7c-0.5-0.6-1.1-1.1-1.7-1.3c-0.6-0.3-1.3-0.4-2-0.4c-1.5,0-2.6,0.5-3.3,1.4s-1.2,2.3-1.2,4
					c0,1.8,0.4,3.2,1.2,4.2c0.8,1,1.9,1.5,3.4,1.5c1,0,1.9-0.3,2.7-0.9c0.4-0.3,0.8-0.6,1-0.9c0.7,0.7,1,1.3,1,1.7
					c0,0.3-0.2,0.6-0.7,1c-0.4,0.4-1.1,0.7-1.8,0.9s-1.7,0.3-2.6,0.3c-1.4,0-2.7-0.3-3.8-0.9c-1.1-0.6-1.9-1.5-2.4-2.7
					s-0.8-2.6-0.8-4.3c0-1.7,0.3-3.1,0.9-4.2c0.6-1.1,1.5-2,2.6-2.7c1.1-0.6,2.3-0.9,3.6-0.9c0.9,0,1.8,0.1,2.5,0.4s1.3,0.6,1.8,0.9
					s0.7,0.7,0.7,1.1c0,0.4-0.3,1-0.8,1.7L288.3,339.7L288.3,339.7z"/>
				<path class="st0" d="M297.4,339.3c-0.2-0.3-0.3-0.6-0.4-0.9s-0.2-0.6-0.2-0.8c0-0.4,0.3-0.7,0.9-1c0.6-0.3,1.3-0.6,2.1-0.7
					c0.9-0.2,1.7-0.3,2.5-0.3c2,0,3.4,0.4,4.3,1.3c0.9,0.8,1.3,2.3,1.3,4.3v6.2c0,0.6,0,1,0.1,1.3c0.1,0.3,0.2,0.5,0.4,0.6
					c0.2,0.1,0.5,0.2,1.1,0.2v1.3c-0.4,0.1-1,0.2-1.5,0.2c-1.6,0-2.4-0.6-2.6-1.8c-0.7,0.7-1.4,1.2-2.2,1.5
					c-0.8,0.3-1.6,0.4-2.6,0.4c-1.5,0-2.7-0.4-3.5-1.1c-0.8-0.8-1.2-1.9-1.2-3.3c0-1.7,0.7-3,2.1-3.9s3.4-1.4,6-1.5
					c0.6,0,1.1,0,1.3,0v-0.5c0-1.1-0.3-1.8-0.8-2.2c-0.5-0.4-1.4-0.7-2.5-0.7c-0.8,0-1.6,0.1-2.2,0.3c-0.7,0.2-1.4,0.6-2.1,1.1
					H297.4L297.4,339.3z M305.3,343.4h-0.9c-1.9,0-3.4,0.3-4.4,0.8s-1.5,1.3-1.5,2.4c0,0.8,0.2,1.4,0.7,1.8c0.5,0.4,1.1,0.6,2,0.6
					c0.7,0,1.4-0.1,2-0.4c0.6-0.3,1.2-0.6,1.5-0.9c0.4-0.4,0.6-0.7,0.6-1V343.4z"/>
				<path class="st0" d="M316.5,334.4c0-2,0.5-3.5,1.4-4.6c0.9-1.1,2.3-1.6,4.1-1.6c0.8,0,1.6,0.1,2.2,0.3c0.7,0.2,1.2,0.5,1.6,0.8
					c0.4,0.3,0.6,0.7,0.6,0.9c0,0.4-0.3,1-0.8,1.6h-0.4c-0.8-1-1.8-1.5-3.1-1.5c-1,0-1.8,0.3-2.3,0.8c-0.5,0.6-0.7,1.4-0.7,2.6v2.1
					h5.3v2.3h-5.3v12.5h-2.7V334.4L316.5,334.4z"/>
				<path class="st0" d="M332.3,343.9c0.1,1.6,0.5,2.9,1.3,3.8c0.8,0.9,1.9,1.3,3.4,1.3c1.7,0,3.1-0.6,4.2-1.8
					c0.3,0.3,0.5,0.6,0.6,1s0.3,0.6,0.3,0.8c0,0.4-0.2,0.7-0.7,1.1c-1.1,0.8-2.7,1.3-4.6,1.3c-2.3,0-4.1-0.7-5.3-2.1
					c-1.2-1.4-1.9-3.4-1.9-6c0-1.6,0.3-3,0.9-4.1c0.6-1.1,1.4-2,2.4-2.6c1-0.6,2.2-0.9,3.5-0.9c1.3,0,2.4,0.3,3.3,0.8
					s1.6,1.3,2.1,2.3c0.5,1,0.7,2.1,0.7,3.4c0,0.8,0,1.4-0.1,1.8L332.3,343.9L332.3,343.9z M339.7,341.9c0-2.7-1.2-4-3.5-4
					c-1.1,0-2,0.4-2.7,1.1c-0.7,0.7-1.1,1.7-1.2,2.9H339.7z M337.6,329.9c0.3-0.4,0.6-0.7,0.9-0.9c0.2-0.1,0.5-0.2,0.8-0.2
					c0.3,0,0.6,0.1,0.9,0.2s0.6,0.3,0.9,0.5l-3.2,3.4c-0.5,0.6-1.1,0.9-1.6,0.9c-0.4,0-0.9-0.2-1.3-0.5L337.6,329.9L337.6,329.9z"/>
				<path class="st0" d="M364.6,334.8l-4,2.1c-0.5-0.6-0.8-1.1-0.8-1.5c0-0.2,0.1-0.4,0.2-0.5s0.3-0.3,0.5-0.4l3.7-2.1
					c0.7-0.4,1.3-0.7,1.8-0.7c0.2,0,0.5,0,0.7,0.1s0.4,0.2,0.5,0.3v18.7h-2.5L364.6,334.8L364.6,334.8z"/>
				<path class="st0" d="M377.2,339.1c-0.5-0.8-0.7-1.6-0.7-2.4c0-1,0.3-1.9,0.8-2.7s1.3-1.3,2.2-1.8c0.9-0.4,1.9-0.6,3-0.6
					c1.8,0,3.2,0.4,4.3,1.3s1.6,2.1,1.6,3.6c0,0.9-0.2,1.7-0.7,2.5c-0.5,0.7-1.2,1.3-2,1.8c1,0.3,1.8,1,2.4,1.9
					c0.6,0.9,0.9,1.9,0.9,3c0,1.8-0.6,3.2-1.8,4.2s-2.8,1.5-4.8,1.5c-2.1,0-3.7-0.5-4.9-1.5c-1.1-1-1.7-2.3-1.7-4.1c0-1,0.3-2,1-2.9
					c0.6-0.9,1.4-1.6,2.4-2C378.4,340.4,377.7,339.8,377.2,339.1L377.2,339.1z M379.5,348.3c0.8,0.6,1.8,0.9,3,0.9
					c1.2,0,2.2-0.3,3-1c0.7-0.7,1.1-1.6,1.1-2.7c0-1.1-0.4-2-1.1-2.7c-0.7-0.7-1.7-1-3-1c-1.2,0-2.2,0.3-3,1
					c-0.8,0.7-1.1,1.6-1.1,2.7C378.4,346.8,378.8,347.7,379.5,348.3L379.5,348.3z M380,338.9c0.7,0.6,1.5,0.9,2.5,0.9
					c1,0,1.8-0.3,2.5-0.9c0.7-0.6,1-1.3,1-2.2c0-0.9-0.3-1.7-1-2.2s-1.5-0.8-2.5-0.8c-1,0-1.9,0.3-2.5,0.8s-1,1.3-1,2.2
					C379,337.5,379.3,338.3,380,338.9L380,338.9z"/>
				<path class="st0" d="M394.6,343.9l7.7-10.7c0.4-0.6,0.8-1,1.1-1.2s0.6-0.3,1-0.3c0.4,0,0.8,0.1,1.1,0.3v11.8h0.9
					c0.9,0,1.4,0.4,1.4,1.3c0,0.1,0,0.2,0,0.3c0,0.1,0,0.2,0,0.3c0,0,0,0.1,0,0.1v0.1h-2.2v5H403v-5h-8.4V343.9L394.6,343.9z
					 M403,343.8v-8.3l-6,8.3H403z"/>
				<path class="st0" d="M423.6,334.2H414c0,0,0-0.1,0-0.1v-0.1c0-0.1,0-0.3,0-0.5c0-0.5,0.2-0.9,0.5-1.1c0.3-0.3,0.7-0.4,1.3-0.4
					h9.7c0.4,0,0.7,0.1,0.9,0.2c0.2,0.1,0.2,0.4,0.2,0.8v0.7l-8.2,17.3h-2.7L423.6,334.2L423.6,334.2z"/>
			</g>
			<path class="st0" d="M335.3,281.3C335.3,281.3,335.3,281.3,335.3,281.3c-0.3,0-0.4-0.2-0.4-0.4c0.2-1.6,0.1-10.2,0-12
				c-0.1-1.9,0.4-3.2,0.4-3.2c0,0,0,0,0-0.1c0.1-0.2,0.2-0.4,0.3-0.5c-0.3-0.2-0.5-0.5-0.5-0.8c0,0,0,0,0,0
				c-0.3-0.2-0.4-0.6-0.3-1.3c0-0.3-0.3-2.5-0.3-5.3c0-5.3,2-9.3,2-9.4c2.9-5.4,6.2-8.5,14.7-8.6c4.1-0.1,8.3,1,11.8,3
				c3.2,1.9,5.6,4.5,6.6,7.1c1.5,4,1.8,7.2,0.9,11.2c-0.1,0.3-0.2,0.6-0.4,1c0.1,0.1,0.2,0.3,0.3,0.5c1.2,2.2,0.3,6.8-0.7,7.9
				c-0.4,0.4-0.6,1-0.9,1.6c-0.5,1.3-1.2,2.7-3,2.8c-0.9,0-1.4-0.4-1.6-0.8c-0.8-1.2-0.1-3.6,0.2-4.1c0.2-0.4,0.6-0.6,0.9-0.8
				c0.3-0.2,0.6-0.3,0.8-0.7c0.1-0.2,0.1-0.3,0-0.6c-0.2-0.3-0.4-0.8-0.1-1.6c0.2-0.6,0.9-1.4,1.6-2.4c0.5-0.6,1-1.2,1.3-1.8
				c-0.2-0.1-0.5-0.1-0.8,0c-3.6,0.6-9.7,4.1-9.8,4.2c-0.1,0.1-0.2,0.1-0.3,0c0,0-0.7-0.2-1.6-0.4c0,0.2-0.1,0.3-0.1,0.5
				c-0.3,1.1-0.9,1.9-1.9,2.5c-0.2,0.1-0.4,0-0.6-0.1c-0.1-0.2,0-0.4,0.1-0.6c0.8-0.4,1.3-1.1,1.5-2c0-0.2,0.1-0.3,0.1-0.5
				c-0.1,0-0.2,0-0.3-0.1c0,0.2-0.1,0.4-0.2,0.6c0,0.1-0.1,0.1-0.1,0.2c-0.5,1-1.7,3.1-5.8,2.1c-1.4-0.3-2.3-1.5-2.3-3.1
				c0-1.6,1-3.5,2.9-3.9c2.9-0.7,5.3,0.5,6.2,1.8c0.2,0.4,0.4,1,0.5,1.7c0.7,0.2,1.3,0.3,1.6,0.4c1-0.6,6.5-3.6,9.9-4.2
				c0.5-0.1,1,0,1.4,0.1c0.1-0.2,0.2-0.5,0.3-0.7c0.9-3.9,0.7-6.8-0.8-10.8c-1.8-4.8-8.9-9.8-17.6-9.6c-8.1,0.1-11.2,3-14,8.2
				c0,0-2,3.9-1.9,9.1c0,2.9,0.3,5.2,0.3,5.2c0,0,0,0.1,0,0.1c0,0.4,0,0.5,0,0.6c0,0,0.1,0,0.1,0c0.1,0.1,0.2,0.2,0.2,0.3
				c0,0.2,0.1,0.4,0.3,0.5c0.9-1,2.1-1.8,3.4-1.7c0.6,0.1,1,0.3,1.2,0.6c0.6,0.3,1.1,0.7,1.1,1.2c0,0.3,0,0.9-1.1,1.2
				c-1.5,0.4-3.3,0.3-4.5-0.2c-0.1,0.2-0.2,0.3-0.3,0.5c-0.1,0.2-0.4,1.3-0.3,2.9c0.1,1.8,0.2,10.4,0,12.1
				C335.7,281.2,335.5,281.3,335.3,281.3L335.3,281.3z M369.6,262.7c-0.4,0.6-0.9,1.2-1.3,1.8c-0.7,0.8-1.3,1.7-1.5,2.1
				c-0.2,0.5-0.1,0.7,0.1,0.9c0.1,0.3,0.3,0.7,0,1.3c-0.3,0.5-0.8,0.8-1.1,1c-0.3,0.2-0.5,0.3-0.6,0.5c-0.2,0.5-0.8,2.4-0.2,3.3
				c0.1,0.2,0.3,0.4,0.9,0.4c1.3,0,1.8-1.1,2.3-2.3c0.3-0.6,0.6-1.3,1-1.8c0.8-0.9,1.6-5.2,0.6-7
				C369.7,262.8,369.6,262.7,369.6,262.7L369.6,262.7z M351.6,262.1c-0.5,0-1,0.1-1.5,0.2c-1.5,0.3-2.3,1.8-2.3,3.1
				c0,1.2,0.6,2.1,1.7,2.3c3.6,0.8,4.4-0.8,4.9-1.7c0-0.1,0.1-0.1,0.1-0.2c0.1-0.1,0.1-0.2,0.1-0.3c-0.1,0-0.1,0-0.2,0
				c-0.2,0-0.6,0-1,0.1c-1.9,0.2-4.6,0.4-4.9-1c-0.1-0.4,0.1-0.8,0.4-1.1c0.3-0.3,1.3-1.1,3.4-0.8c0.4,0.1,0.7,0.2,1,0.5
				c0.3,0.1,0.6,0.2,0.8,0.3c0.6,0.4,1,0.9,1.2,1.4c0.1,0,0.2,0,0.3,0.1c0-0.5-0.2-0.9-0.3-1.1C354.8,262.8,353.4,262.1,351.6,262.1
				L351.6,262.1z M336.9,264.8c0.6,0.2,1.4,0.4,2.2,0.3c-0.6-0.1-0.8-0.6-0.8-1c0-0.2,0.1-0.4,0.2-0.5
				C338,263.9,337.4,264.3,336.9,264.8z M340.9,264.3c0,0.1-0.1,0.2-0.2,0.3c-0.1,0.1-0.3,0.3-0.4,0.4c0.1,0,0.2-0.1,0.4-0.1
				c0.4-0.1,0.5-0.2,0.5-0.3C341.1,264.5,341.1,264.4,340.9,264.3L340.9,264.3z M351.4,263.4c-0.9,0-1.5,0.3-1.8,0.6
				c-0.1,0.1-0.2,0.3-0.2,0.4c0.1,0.5,1.2,0.5,2.2,0.5c-0.2-0.2-0.4-0.4-0.5-0.7C351.1,263.9,351.2,263.6,351.4,263.4z M353.7,264
				c0,0.3-0.2,0.6-0.4,0.8c0,0,0.1,0,0.1,0c0.5,0,0.8-0.1,1.1-0.1c-0.2-0.3-0.5-0.5-0.7-0.6C353.8,264.1,353.7,264.1,353.7,264
				L353.7,264z M339.7,263.9c-0.3,0-0.5,0.2-0.5,0.4c0,0,0,0.1,0.1,0.1c0.3,0,0.6,0,0.8-0.2c0-0.1,0.1-0.1,0.1-0.2
				C340.1,263.9,339.9,263.9,339.7,263.9C339.7,263.9,339.7,263.9,339.7,263.9L339.7,263.9z M352.6,263.8c-0.2,0-0.5,0-0.6,0.1
				c-0.1,0-0.1,0.1-0.1,0.2c0,0.1,0.2,0.2,0.3,0.2c0.2,0.1,0.4,0,0.5-0.1c0.1-0.1,0.2-0.3,0.2-0.4
				C352.8,263.8,352.7,263.8,352.6,263.8z M335.4,263.6C335.4,263.6,335.4,263.6,335.4,263.6C335.4,263.6,335.4,263.6,335.4,263.6z"
				/>
			<path class="st0" d="M344.5,289.7c-1.1,0-2-0.2-2.6-0.9c-0.9-0.9-1.1-1.9-1.2-2.9c-0.1-0.5-0.1-0.9-0.3-1.3
				c-0.4-1.2-0.3-2.1,0.1-2.9c0.6-0.9,1.7-1.4,3.4-1.5c3.1-0.3,4.4,0.8,4.5,1.6c0,0.3,0,0.6-0.2,0.8c-0.6,0.7-2.2,0.8-3.1,0.8
				c-1.7,0-2.7-0.6-2.8-0.6c-0.2-0.1-0.3-0.4-0.2-0.5c0.1-0.2,0.4-0.3,0.5-0.2c0,0,0.9,0.5,2.4,0.5c1.2,0,2.2-0.2,2.4-0.5
				c0-0.1,0.1-0.1,0-0.1c0-0.3-1-1.1-3.6-0.9c-1.4,0.1-2.4,0.5-2.8,1.2c-0.3,0.5-0.4,1.2-0.1,2.2c0.2,0.5,0.2,1,0.3,1.5
				c0.1,0.9,0.2,1.7,1,2.5c1.1,1.1,4,0.7,5.9-0.4c1.5-0.8,3.4-4.5,4.8-7.3c0.3-0.7,0.7-1.3,1-1.9c0.4-0.8,1.4-2,2.6-3.3
				c1.5-1.7,3.1-3.6,4.2-5.5c0.7-1.1,1.1-2.8,1.2-4.7l0,0c0-0.2,0-0.5,0-0.8c0.1-2.5,0.2-5.2,0.4-5.9c0.1-0.3,0.2-0.7,0.5-1.2
				c0.4-0.9,0.9-2.1,1.1-3.5c0-0.2,0-0.4,0.1-0.6c0.2-1.9,0.5-3.5-2.1-6.8c-2.7-3.5-5.6-3.7-8.6-3.8l-0.4,0
				c-1.7-0.1-2.6,0.3-3.3,0.6c-0.7,0.3-1.2,0.5-2,0.2c-1.1-0.5-1.6-0.6-3.4-0.3c-1.1,0.2-2.3,1-2.3,1c-0.2,0.1-0.4,0.1-0.6-0.1
				c-0.1-0.2-0.1-0.4,0.1-0.6c0.1,0,1.3-0.9,2.6-1.2c1.9-0.4,2.5-0.3,3.9,0.3c0.4,0.2,0.7,0.1,1.3-0.2c0.8-0.3,1.8-0.7,3.7-0.6
				l0.3,0c3.1,0.2,6.3,0.4,9.2,4.2c2.8,3.6,2.5,5.5,2.3,7.4c0,0.2,0,0.4-0.1,0.6c-0.2,1.5-0.7,2.8-1.1,3.7c-0.2,0.4-0.3,0.8-0.4,1
				c-0.2,0.7-0.3,4.1-0.4,5.7c0,0.4,0,0.7,0,0.9l0,0c-0.1,1.2-0.3,3.4-1.3,5c-1.2,1.9-2.8,3.9-4.3,5.6c-1.1,1.3-2.1,2.4-2.5,3.2
				c-0.3,0.5-0.6,1.2-1,1.8c-1.5,3-3.4,6.7-5.1,7.6C347.6,289.2,346,289.7,344.5,289.7L344.5,289.7z"/>
			<path class="st0" d="M365.1,307.4c-0.1,0-0.1,0-0.2-0.1c-0.2-0.1-0.3-0.4-0.1-0.6c4.6-7.9,11.7-11.4,13.8-12.3
				c-3.6-3.2-10.4-14.5-12.2-17.5c-1.1,2.8-4.4,10.7-6,13.9c-2.1,4.3-8.9,8.3-14.5,8.5c-5.6,0.2-10.2-4.1-11.3-7.3
				c-0.8-2.2-1.1-4.1-1.1-6.3c-0.5,1.7-0.5,4.2,1.1,7.5c0.1,0.1,0,0.3-0.1,0.4c-0.1,0.1-2.2,2.6-6.4,5.8c1.3,0.7,4.3,2.5,6.9,5.2
				c0.2,0.2,0.1,0.4,0,0.6c-0.2,0.2-0.4,0.1-0.6,0c-3.1-3.3-7.2-5.3-7.2-5.3c-0.1-0.1-0.2-0.2-0.2-0.3s0-0.3,0.2-0.4
				c3.8-2.8,6-5.2,6.7-5.8c-2.2-4.8-1.3-7.9-0.1-9.7c0.2-2.2,2-3.3,3.7-4.2c0.8-0.4,1.5-0.9,2-1.3c1.5-1.6,3.5-2.3,4.9-1.8
				c0.4,0,0.7-0.1,1-0.2c0.8-0.2,1.4-0.3,2.9,0.4c1.1,0.5,2.1,1.3,3.1,2.2c1.7,1.4,3.6,2.9,6,3.1c0.2,0,0.3,0.1,0.4,0.3
				s0,0.3-0.1,0.4c-0.1,0.1-1.9,1.7-4.1,1.2c-1.8-0.4-2.8-1-3.9-1.7c-0.7-0.5-1.4-0.9-2.3-1.3c-0.8-0.3-1.3-0.5-1.7-0.6
				c-0.2-0.1-0.4-0.1-0.6-0.2c-0.1-0.1-0.2-0.1-0.3-0.2c-0.5,0.4-2,1.2-3.3,1.7c-0.6,0.2-1.2,0.4-1.8,0.7c-1.1,0.4-2.1,0.8-2.9,0.9
				c-1,0.2-1.6,0.5-2,1c-0.2,3,0.1,5.1,1,7.9c1,2.9,5.3,7,10.5,6.8c5.3-0.2,11.9-4.1,13.8-8.1c1.8-3.6,5.8-13.3,6.2-14.6
				c0.1-0.2,0.2-0.3,0.3-0.3c0.2,0,0.3,0.1,0.4,0.2c0.1,0.2,9.3,15.8,13,18.5c0.1,0.1,0.2,0.2,0.2,0.4c0,0.1-0.1,0.3-0.3,0.3
				c-0.1,0-8.8,3.2-14,12.2C365.3,307.4,365.2,307.4,365.1,307.4L365.1,307.4z M344.3,278.7c0.2,0,0.4,0.1,0.5,0.2
				c0,0,0.1,0.1,0.1,0.1c0.2,0.1,0.3,0.1,0.6,0.2c0.4,0.1,1,0.3,1.8,0.7c1,0.4,1.8,0.9,2.5,1.4c1,0.7,1.9,1.3,3.6,1.6
				c1,0.2,1.9-0.1,2.6-0.5c-2.1-0.5-3.8-1.9-5.3-3.1c-1-0.8-2-1.6-3-2.1c-1.3-0.6-1.7-0.5-2.4-0.3c-0.3,0.1-0.7,0.2-1.2,0.2
				c-0.1,0-0.1,0-0.2,0c-0.9-0.4-2.7,0.1-4.1,1.6c-0.5,0.6-1.3,1-2.2,1.5c-1.2,0.7-2.4,1.3-2.9,2.5c0.5-0.3,1.1-0.4,1.6-0.5
				c0.7-0.1,1.7-0.5,2.8-0.9c0.6-0.2,1.2-0.5,1.9-0.7c1.4-0.5,2.9-1.4,3.2-1.6C344.1,278.7,344.2,278.7,344.3,278.7z"/>
			<path class="st0" d="M343.6,275.6c-0.5,0-1-0.3-1.5-0.5c-0.1-0.1-0.2-0.1-0.4-0.2c-1.1-0.6-1.6-1.6-1.1-2.5
				c0.3-0.6,0.8-1.6,0.9-2.5c0-0.1,0-0.5,0.1-1c-1.2,0.3-2.5,0.4-3,0.4c-1.8,0-2.9-0.4-3.7-1.2c-0.7-0.7-1-1.7-0.9-3
				c0.1-2.5,2.1-3.9,5.5-3.8c1.2,0,2.2,0.4,2.8,1.1c0.4,0.4,0.6,0.9,0.7,1.5c0.3-0.2,0.7-0.3,1.1-0.4c0.9-0.2,2.3,0.1,3,0.6
				c0.3,0.2,0.5,0.5,0.5,0.8c0,0.2-0.1,0.4-0.3,0.5c-0.2,0-0.4-0.1-0.5-0.3c0-0.1-0.1-0.2-0.2-0.3c-0.5-0.4-1.7-0.6-2.4-0.5
				c-0.8,0.1-1.3,0.7-1.3,0.7c-0.1,0.1-0.3,0.1-0.4,0.1c-0.2-0.1-0.2-0.2-0.2-0.4c0-0.7-0.2-1.2-0.5-1.7c-0.5-0.5-1.3-0.8-2.3-0.9
				c-1.7-0.1-4.6,0.2-4.7,3c0,1.1,0.2,1.9,0.7,2.5c0.6,0.6,1.6,0.9,3.1,0.9c1.2,0,2.3-0.1,3.1-0.4c0.1-0.6,0.1-1.2,0.2-1.6
				c0.1-0.4,0.4-0.7,0.8-0.7c0.4,0,0.9,0.2,1.1,0.6c0.1,0.2,0.3,0.9-0.5,1.7c-0.2,0.2-0.5,0.4-0.8,0.6c-0.1,0.7-0.1,1.3-0.1,1.4
				c0,0,0,0,0,0c-0.2,1-0.7,2.1-1,2.7c-0.3,0.6,0.1,1.2,0.7,1.5c0.1,0.1,0.2,0.1,0.4,0.2c0.7,0.4,1.1,0.6,1.5,0.3
				c0.6-0.4,1.2-0.3,1.7-0.3c0.1,0,0.2,0,0.3,0c0.4,0,1,0,1.8-0.6c0.3-0.2,0.4-0.6,0.3-1.1c0-0.2-0.2-0.8-0.9-1
				c-0.2-0.1-0.3-0.3-0.3-0.5s0.3-0.3,0.5-0.3c0.8,0.2,1.3,0.8,1.4,1.6c0.1,0.8-0.1,1.5-0.7,1.9c-0.8,0.6-1.5,0.8-2.3,0.7
				c-0.1,0-0.2,0-0.3,0c-0.4-0.1-0.8-0.1-1.1,0.1C344.2,275.5,343.9,275.6,343.6,275.6L343.6,275.6z M342.8,266.5
				C342.8,266.5,342.8,266.5,342.8,266.5c0,0-0.1,0-0.1,0.1c-0.1,0.3-0.1,0.6-0.1,1c0.1,0,0.1-0.1,0.2-0.2c0.3-0.3,0.4-0.6,0.3-0.8
				C343,266.5,342.9,266.5,342.8,266.5L342.8,266.5z"/>
			<path class="st0" d="M338.2,311.3c-0.1,0-0.3,0-0.4-0.1l-14.4-8.3c-0.3-0.1-0.4-0.4-0.4-0.7v-56.8c0-0.3,0.2-0.6,0.4-0.7
				l28.7-16.6c0.3-0.1,0.6-0.1,0.8,0l8.8,5.1c0.4,0.2,0.5,0.7,0.3,1.1c-0.2,0.4-0.7,0.5-1.1,0.3l-8.4-4.9l-27.9,16.1v55.8l14,8.1
				c0.4,0.2,0.5,0.7,0.3,1.1C338.8,311.2,338.5,311.3,338.2,311.3L338.2,311.3z"/>
			<path class="st0" d="M352.5,319.6c-0.1,0-0.3,0-0.4-0.1l-4.6-2.7c-0.4-0.2-0.5-0.7-0.3-1.1c0.2-0.4,0.7-0.5,1.1-0.3l4.2,2.4
				l27.9-16.1v-55.8l-7.1-4.1c-0.4-0.2-0.5-0.7-0.3-1.1c0.2-0.4,0.7-0.5,1.1-0.3l7.5,4.3c0.3,0.1,0.4,0.4,0.4,0.7v56.8
				c0,0.3-0.2,0.6-0.4,0.7l-28.7,16.6C352.8,319.6,352.7,319.6,352.5,319.6L352.5,319.6z"/>
			<path class="st0" d="M344.4,314.9c-0.1,0-0.3,0-0.4-0.1l-3.2-1.9c-0.4-0.2-0.5-0.7-0.3-1.1c0.2-0.4,0.7-0.5,1.1-0.3l3.2,1.9
				c0.4,0.2,0.5,0.7,0.3,1.1C345,314.8,344.7,314.9,344.4,314.9z"/>
		</g>
	</g>
</g>
<g>
	<g>
		<g>
			<path class="st0" d="M528.2,505.5v0.6c0,10.9,0,21.8,0,32.7c0,1.8,0.8,3.4,2.5,4.8c0.3,0.3,0.8,0.4,1.1,0.7
				c0.2,0.1,0.3,0.2,0.4,0.4c0,0-0.1,0.1-0.1,0.1h-23c0.1-0.2,0.1-0.3,0.3-0.4c2-0.9,3-2.3,3.5-3.9c0.2-0.5,0.2-1.1,0.2-1.6
				c0-6.4,0-12.8,0-19.2c0-0.9-0.1-1.8-0.4-2.7c-0.6-1.8-2.3-2.9-4.9-3.1c-0.6,0-1.2-0.1-1.9-0.1c-0.1-0.3,0-0.4,0.3-0.5
				c7.4-2,14.5-4.4,21.2-7.6C527.7,505.7,527.9,505.6,528.2,505.5L528.2,505.5z"/>
			<path class="st0" d="M625.4,544.6h-19.3c0.2-1,0.3-2,0.5-3c1-4.3,2.9-8.2,4.9-12.1c4.5-8.5,10.2-16.2,16.5-23.4
				c2.7-3.1,5.5-6,8.3-9c0.1-0.2,0.3-0.3,0.5-0.5c-0.3,0-0.5,0-0.7,0c-7.9,0-15.9,0-23.8,0.1c-1.6,0-3.3,0.1-4.9,0.3
				c-2.4,0.3-4.2,1.5-5.5,3.5c-0.1,0.2-0.4,0.4-0.5,0.5c-0.1,0-0.1-0.1-0.2-0.1c1.5-5.1,2.9-10.3,4.4-15.3h39.2
				c-0.2,0.5-0.3,0.9-0.5,1.2c-3.2,5.2-6.6,10.4-9.7,15.7c-3.4,5.9-5.9,12.2-7.1,18.9c-0.6,3.3-1.1,6.7-1.3,10.1
				c-0.3,4.2-0.4,8.5-0.6,12.7C625.5,544.4,625.4,544.5,625.4,544.6L625.4,544.6z"/>
			<g>
				<path class="st0" d="M521.5,498.5c0.5,0.5,0.8,0.8,0.8,1.2c0,0.2-0.2,0.5-0.6,0.9c-0.6,0.5-1.3,0.9-2.1,1.2
					c-0.8,0.3-1.7,0.4-2.6,0.4c-1.5,0-2.9-0.3-4-1c-1.2-0.7-2-1.6-2.6-2.9c-0.6-1.3-0.9-2.8-0.9-4.7c0-1.8,0.3-3.3,1-4.6
					c0.7-1.3,1.6-2.2,2.8-2.9c1.2-0.7,2.5-1,3.8-1c1.9,0,3.5,0.5,4.7,1.5c0.4,0.3,0.6,0.7,0.6,1c0,0.3-0.2,0.7-0.6,1.3h-0.3
					c-1-1.4-2.5-2.1-4.4-2.1c-1.8,0-3.1,0.6-4.1,1.8c-1,1.2-1.4,2.9-1.4,5c0,2.2,0.5,3.9,1.4,5.1c1,1.2,2.3,1.8,4.1,1.8
					c1.2,0,2.3-0.3,3.3-1C520.8,499.2,521.1,498.9,521.5,498.5L521.5,498.5z"/>
				<path class="st0" d="M539.6,501.7c-0.5,0.1-0.9,0.2-1.3,0.2c-0.8,0-1.4-0.2-1.9-0.6c-0.5-0.4-0.7-0.9-0.8-1.6
					c-1.6,1.6-3.4,2.3-5.7,2.3c-1.6,0-2.8-0.4-3.7-1.2c-0.9-0.8-1.4-2-1.4-3.5c0-1.2,0.4-2.3,1.1-3.1c0.7-0.8,1.8-1.5,3.2-2
					c1.4-0.5,3-0.7,4.8-0.7c0.3,0,0.5,0,0.8,0c0.3,0,0.5,0,0.8,0.1v-0.8c0-1.4-0.3-2.4-1-3c-0.6-0.6-1.7-0.9-3.1-0.9
					c-0.9,0-1.8,0.1-2.7,0.4c-0.8,0.3-1.6,0.6-2.2,1.1h-0.3c-0.3-0.5-0.5-0.8-0.5-1.2c0-0.3,0.3-0.6,0.9-0.9
					c0.6-0.3,1.3-0.6,2.2-0.8c0.9-0.2,1.8-0.3,2.7-0.3c2.1,0,3.6,0.5,4.5,1.4c0.9,0.9,1.4,2.4,1.4,4.6v7c0,0.7,0,1.2,0.1,1.6
					c0.1,0.4,0.3,0.7,0.5,0.9c0.2,0.2,0.7,0.3,1.3,0.4L539.6,501.7L539.6,501.7z M535.7,493c-0.1,0-0.3,0-0.4,0h-0.5
					c-5.2,0-7.8,1.4-7.8,4.2c0,1,0.3,1.8,0.9,2.3c0.6,0.6,1.4,0.8,2.5,0.8c0.9,0,1.7-0.2,2.5-0.5c0.8-0.3,1.5-0.7,2-1.2
					c0.5-0.5,0.8-0.8,0.8-1.1L535.7,493L535.7,493z"/>
				<path class="st0" d="M551.8,487.4c-0.4-0.6-1-1.1-1.6-1.4c-0.6-0.3-1.3-0.4-2.1-0.4c-1.1,0-1.9,0.2-2.5,0.7
					c-0.6,0.5-1,1.2-1.2,2.2c-0.1,0.4-0.1,0.9-0.1,1.5v2.7h6.1v1.6h-6.1v7.3h-2v-11c0-0.7,0-1.3,0.1-1.8c0.5-3.2,2.4-4.8,5.6-4.8
					c1.7,0,3,0.4,3.9,1.2c0.4,0.3,0.6,0.7,0.6,1c0,0.1,0,0.3-0.1,0.4c-0.1,0.2-0.2,0.4-0.5,0.7H551.8L551.8,487.4z"/>
				<path class="st0" d="M567.6,499.7c0,0.3-0.3,0.7-0.9,1.2c-0.6,0.4-1.3,0.8-2.1,1c-0.8,0.2-1.7,0.3-2.5,0.3
					c-2.5,0-4.4-0.7-5.7-2.2c-1.3-1.5-2-3.7-2-6.5c0-1.7,0.3-3.2,0.9-4.5c0.6-1.3,1.5-2.2,2.6-2.9c1.1-0.7,2.4-1,3.8-1
					c2,0,3.6,0.6,4.7,1.9c1.1,1.3,1.7,3,1.7,5.1c0,0.6,0,1.2-0.1,1.8h-11.4c0,2.1,0.5,3.8,1.5,4.9c1,1.1,2.3,1.7,4.1,1.7
					c1.1,0,2-0.2,2.9-0.6s1.5-0.9,1.9-1.5C567.3,499,567.6,499.4,567.6,499.7L567.6,499.7z M566,492.4c0-3.8-1.5-5.7-4.6-5.7
					c-1.5,0-2.7,0.5-3.6,1.5c-0.9,1-1.3,2.4-1.4,4.2H566z M562.7,483c-0.3,0.3-0.7,0.5-1.2,0.5c-0.2,0-0.4,0-0.6-0.1
					c-0.2-0.1-0.4-0.1-0.5-0.2l3-3.8c0.4-0.5,0.7-0.8,0.9-0.9c0.2-0.1,0.4-0.2,0.7-0.2c0.5,0,1.1,0.2,1.6,0.6L562.7,483L562.7,483z"
					/>
			</g>
			<path class="st0" d="M567.8,527.4h-5.5c0.7-0.8,1.4-1.6,2.1-2.4c-1.2-0.6-2.5-1.2-3.8-1.7c-0.8-0.3-1.7-0.6-2.6-1
				c0.3-0.1,0.6-0.2,0.8-0.3c2-0.7,4.1-1.4,5.9-2.4c3.7-2.1,4.7-5.6,2.2-8.6c-1.2-1.5-3-2.6-5.1-3.3c-2.8-1-5.8-1.4-8.8-1.5
				c-3.6-0.1-7.1,0.1-10.6,0.9c-3.2,0.8-5.8,2.1-7.7,4.3c-3.7,4.3-2.3,10.2,3.1,13.6c1.2,0.7,2.5,1.4,3.8,2c-0.1,0-0.2,0.1-0.4,0.1
				c-2.8,0.7-5.3,1.9-7.5,3.5c-3.6,2.7-4.2,6.5-1.4,9.6c1.6,1.8,3.9,2.8,6.5,3.6c2.7,0.7,5.4,1.1,8.3,1.2c4.2,0.2,8.3,0,12.3-1
				c3.1-0.7,5.8-1.9,7.8-3.8c2-1.8,2.9-3.9,3-6.2C570.5,531.6,569.8,529.4,567.8,527.4L567.8,527.4z M546.8,507.7
				c2.6-1,5.3-1.1,7.9,0c1.5,0.6,2.2,1.7,2.7,2.8c0.9,2.1,1,4.3,0.8,6.4c-0.1,1.5-0.5,3-1.2,4.4c-0.1,0.1-0.1,0.3-0.2,0.4
				c-0.3-0.1-0.5-0.2-0.7-0.3c-2.8-1-5.6-2.1-8.4-3.1c-1.8-0.7-3.3-1.6-4.2-3C541.9,512.8,543.4,509,546.8,507.7z M556.1,543
				c-1.7,1-3.7,1.3-5.8,1.3c-4.1-0.1-7-1.7-8.3-4.6c-0.7-1.5-0.9-3.1-0.9-4.7c0-2,0-4.1,0.6-6.1c0.2-0.5,0.5-1,0.8-1.5
				c2,0.8,3.8,1.6,5.7,2.4c2.1,0.9,4.3,1.8,6.4,2.8c1.9,0.9,3.3,2,4,3.6C559.6,538.3,558.4,541.6,556.1,543L556.1,543z"/>
			<path class="st0" d="M604.7,528.9v-1.5h-6.8v-42.8c-0.6,0.2-1.2-0.2-1.7,0.4c-11.9,14.1-23.8,28.2-35.7,42.2
				c-0.4,0.5-0.5,1-0.4,1.6h20.5c0,2.1,0,4.2,0,6.2c0,0.9,0,1.9-0.2,2.8c-0.6,2.5-1.7,4.7-4,6.1c-0.2,0.1-0.2,0.4-0.3,0.6h26.4
				c-0.1-0.3-0.2-0.5-0.3-0.6c-2.4-1.4-3.7-3.7-4-6.3c-0.3-2.9-0.2-5.8-0.2-8.7c0,0,0-0.1,0.1-0.2L604.7,528.9L604.7,528.9z
				 M580.5,527.4h-18.2c6.1-7.2,12.1-14.3,18.2-21.5V527.4z"/>
		</g>
	</g>
	<g>
		<path class="st0" d="M145.9,530.6v-4.4h-14.5l19.9-32.8v47.9h4.4v-63.5l-32,52.8H145.9z M55.9,483.6h4.2L60,541.3h4.4l0.1-62.1
			h-8.6V483.6z M162.7,479.7v4.4h30.9l-34.2,57.3h5.1l36.8-61.6L162.7,479.7L162.7,479.7z M132.9,491.2
			c-0.7-11.2-10.4-19.8-21.6-19.1c-11.2,0.7-19.8,10.4-19.1,21.6c0.1,2.1,0.6,4,1.2,5.9c-11.3,0.9-21.2,9.3-23.5,20.7
			c-2.8,14,6.3,27.7,20.3,30.5c1.7,0.3,3.4,0.5,5.1,0.5c12.1,0,22.9-8.5,25.4-20.8c1.3-6.3,0.1-12.8-3.1-18.3
			C126.9,509.8,133.5,501.1,132.9,491.2L132.9,491.2z M100.5,481.8c2.8-3.2,6.8-5.1,11-5.4c8.8-0.5,16.4,6.2,17,15
			c0.5,8.8-6.2,16.4-15,17c-4.3,0.2-8.4-1.2-11.6-4c-3.2-2.8-5.1-6.8-5.4-11C96.2,489.1,97.7,485,100.5,481.8L100.5,481.8z
			 M116.5,529.7c-2.3,11.7-13.8,19.2-25.4,16.9c-5.6-1.1-10.5-4.4-13.7-9.2c-3.2-4.8-4.3-10.6-3.2-16.2c2-10.1,11.2-17.4,21.4-17.3
			c1.5,2.2,3.4,4.1,5.6,5.6l-2.9,5.1c-0.6,1-0.2,2.4,0.8,3c0.3,0.2,0.7,0.3,1.1,0.3c0.8,0,1.5-0.4,1.9-1.1l3-5.2
			c2.3,0.9,4.8,1.4,7.4,1.4c0.1,0,0.3,0,0.4,0C116.4,517.7,117.7,523.8,116.5,529.7L116.5,529.7z M109,488.1
			c0.8,0.4,1.6,0.9,2.3,1.6c0.7,0.6,1.3,1.4,1.8,2.3c0,0.1,0.1,0.1,0.2,0.1c0,0,0,0,0,0c0.1,0,0.1,0,0.2-0.1c0.4-1.9,1.6-3.5,3-4.8
			c1.2-1-0.5-2.6-1.4-1.4c-0.7,0.9-1.1,1.9-1.5,3c-0.2,0.6-0.4,1.3-0.4,2c-0.6-1.7-1.7-3.1-3-4.3C108.8,485.4,107.6,487.4,109,488.1
			L109,488.1z M108.7,494.2c1.7,1,3.5,1.1,4.6,2.8c0.1,0.2,0.2,0.2,0.3,0c0.6-1.8,2.1-2.4,3.5-3.6c1.4-1.2,2-3.3,1.5-5.1
			c0-0.1-0.2-0.2-0.3,0c-0.7,1.1-1.3,2-2,3c-0.9,1-1.9,1.7-2.6,2.8c-0.2,0.3-0.3,0.7-0.4,1c-0.2-0.3-0.4-0.7-0.6-1
			c-0.8-0.8-1.8-1.2-2.8-1.8c-1.2-0.7-2-1.6-3.1-2.6c-0.1-0.1-0.3,0-0.3,0.1C106.2,491.6,107.2,493.3,108.7,494.2L108.7,494.2z
			 M109.3,501.9c1.6,0.4,3.3,0.5,4.8,0.3c2.5-0.3,4.7-1.4,5.9-2.3c1.3-1,2.2-2.6,2.8-4.1c1.1-2.8,0.4-6.3-1.8-8.4
			c-0.1-0.1-0.3,0-0.3,0.2c0.6,3.1,0.5,6.2-1.7,8.6c-1.5,1.6-4.5,3-5,5.3c-1.2-2.1-4.6-2.5-6.4-3.8c-2.8-1.6-3.3-4.7-3.5-7.9
			c-0.3-0.9-1.2,1.9-1.2,2.2c-0.2,0.8-0.2,1.6-0.1,2.5C102.9,497.9,106,501.1,109.3,501.9z M112.7,486.1c0,0,0-0.8,1.1-2.2
			c1-1.2-1-2.3-1.8-0.5c-0.5-1.7-1.9-0.7-1.8,0C110.4,484.6,111.4,484.5,112.7,486.1L112.7,486.1z"/>
	</g>
	<g>
		<g>
			<path class="st0" d="M340.7,471.7c-0.8-0.6-1.6-1.1-2.4-1.7c-3.4-2.8-4.3-7.8-2-11.5c1.1-1.8,2.8-2.9,4.8-3.6
				c2.2-0.8,4.4-0.9,6.7-0.8c1.9,0.1,3.8,0.4,5.5,1.3c0.7,0.3,1.4,0.8,1.9,1.3c2.9,2.6,2.4,7.3-0.9,9.3c-0.9,0.6-1.9,1-2.9,1.5
				c-0.2,0.1-0.3,0.1-0.5,0.2c0.6,0.3,1.1,0.5,1.6,0.8c1.5,0.8,2.9,1.7,4,2.9c1.6,1.8,2.2,3.9,2.1,6.2c-0.1,1.9-0.7,3.7-1.9,5.3
				c-1.3,1.6-3,2.6-4.9,3.2c-2.5,0.8-5.1,1-7.7,0.9c-1.8-0.1-3.5-0.4-5.2-1c-1.6-0.6-3.1-1.5-4.1-3c-1.7-2.6-1.4-5.8,0.9-8.1
				c1.3-1.4,2.9-2.3,4.7-3C340.5,471.7,340.6,471.7,340.7,471.7L340.7,471.7z M341.6,472.1c-0.2-0.1-0.5,0-0.6,0.2
				c-0.1,0.3-0.2,0.6-0.3,0.9c-0.4,1.7-0.4,3.4-0.4,5.2c0,1.4,0.2,2.7,0.6,4c0.8,2.5,2.6,3.9,5.2,3.9c1.3,0,2.6-0.2,3.6-1.1
				c1.5-1.2,2.2-4,1.6-5.9c-0.4-1.3-1.4-2.3-2.5-3c-1.3-0.8-2.7-1.6-4-2.3C343.7,473.3,342.7,472.7,341.6,472.1L341.6,472.1z
				 M350.2,467.2c0.1-0.2,0.1-0.3,0.1-0.4c0.4-1.2,0.7-2.5,0.7-3.7c0.1-1.8,0-3.7-0.5-5.4c-0.3-1-0.8-1.9-1.7-2.4
				c-1.6-0.9-3.4-0.9-5,0c-2.2,1.1-3.1,4.3-2,6.6c0.6,1.2,1.5,1.9,2.6,2.5c1.8,0.9,3.5,1.8,5.3,2.7
				C349.9,467.1,350.1,467.2,350.2,467.2z"/>
			<path class="st0" d="M329.8,454v0.9c0,15.6,0,38.3,0,53.9c0,3.1,1.6,4.3,2.9,4.5l0.1,0v0.8l-23.3,27.7c0,0,0.2-2.1,0.3-2.2
				c1.9-3.1,3.3-6.8,3.7-9c0.5-2.6,0.3-47.1,0.3-56.3c0-1.3-0.1-2.6-0.4-3.9c-0.6-2.6-2.5-4.1-5.2-4.4c-0.7-0.1-1.3-0.1-2-0.2
				c-0.1-0.4,0-0.5,0.4-0.7c7.9-2.8,15.4-6.4,22.5-10.8C329.3,454.2,329.5,454.1,329.8,454L329.8,454z"/>
			<path class="st0" d="M325.7,554.1h-18.6c-0.5,0-0.8-0.5-0.7-0.9c0.1-0.2,0.2-0.4,0.4-0.6c11.6-13.7,23.2-27.5,34.9-41.3
				c0.3-0.4,0.7-0.4,1-0.3c0.4,0,0.7,0.3,0.7,0.7v40.3c0,0.4,0.3,0.7,0.7,0.7h5.2c0.4,0,0.7,0.3,0.7,0.7l0,0c0,0.4-0.3,0.7-0.7,0.7
				h-5.8c-0.1,0.1-0.1,0.1-0.1,0.2c0.1,2.8-0.1,5.7,0.2,8.5c0.3,2.6,1.6,4.7,3.9,6.1c0.1,0.1,0.2,0.3,0.3,0.6H322
				c0.1-0.2,0.2-0.5,0.3-0.6c2.2-1.4,3.4-3.5,3.9-5.9c0.2-0.9,0.2-1.8,0.2-2.7c0-1.8,0-3.5,0-5.4
				C326.4,554.4,326.1,554.1,325.7,554.1L325.7,554.1z M310.2,552.6h15.5c0.4,0,0.7-0.3,0.7-1.6v-18.4c0,0.2-0.8-0.1-1.3,0.4
				c-5.2,6.1-10.3,12.2-15.5,18.4C309.3,551.9,309.6,552.6,310.2,552.6z"/>
			<path class="st0" d="M372.4,569.4h-24.7c-0.6,0-1.1-0.5-1-1.1c0.2-1,0.3-1.9,0.5-2.9c1.4-5.7,3.8-11,6.6-16.1
				c6-11.3,13.6-21.6,22-31.3c3.6-4.1,7.4-8,11-12c0.2-0.2,0.4-0.4,0.7-0.7c-0.4,0-0.6-0.1-0.9-0.1c-10.6,0-26.1,0-36.8,0.1
				c-2.2,0-4.2,0.1-6.5,0.2c-2.3,0.2-3.9,1.7-7.1,4.7l-1,0c-0.6,0-1.3-0.7-1.3-1.5l0.1-17.7c0.1-0.4,0.5-0.7,0.9-0.7h61.7
				c0.7,0,1.2,0.7,0.9,1.4c0,0.1-0.1,0.2-0.2,0.3c-4.3,7-8.8,13.9-12.9,20.9c-4.6,7.9-7.9,16.3-9.5,25.3c-0.8,4.5-1.4,9-1.8,13.5
				c-0.4,5.7-0.5,11.4-0.8,17C372.4,569,372.4,569.2,372.4,569.4L372.4,569.4z"/>
		</g>
	</g>
</g>
<g>
	<g>
		<g>
			<g>
				<path class="st0" d="M526.1,34.3c-0.3-0.4-0.7-0.6-1-0.8c-0.4-0.2-0.8-0.2-1.2-0.2c-1,0-1.7,0.3-2.2,1c-0.5,0.7-0.8,1.7-0.8,2.9
					c0,1.3,0.3,2.2,0.8,2.9c0.5,0.7,1.3,1,2.3,1c0.4,0,0.8-0.1,1.2-0.3c0.4-0.2,0.7-0.5,1-0.8c0.1,0.1,0.3,0.2,0.4,0.4
					c0.1,0.2,0.2,0.3,0.2,0.4c0,0.2-0.1,0.3-0.2,0.4c-0.3,0.3-0.7,0.5-1.2,0.7c-0.5,0.2-1,0.3-1.6,0.3c-1.4,0-2.4-0.4-3.2-1.3
					c-0.7-0.9-1.1-2.1-1.1-3.7c0-1.6,0.4-2.8,1.1-3.7c0.7-0.9,1.8-1.3,3.2-1.3c0.5,0,1,0.1,1.4,0.2c0.4,0.1,0.8,0.3,1.1,0.5
					c0.3,0.2,0.4,0.4,0.4,0.6c0,0.2-0.1,0.4-0.4,0.8L526.1,34.3L526.1,34.3z"/>
				<path class="st0" d="M539.6,32.4c0.1,0,0.2-0.1,0.3-0.1c0.1,0,0.3,0,0.4,0c0.4,0,0.7,0.2,0.9,0.6l3.3,9.1h-1.3l-1-2.6h-3.9
					l-0.9,2.6h-1.3L539.6,32.4L539.6,32.4z M541.9,38.4l-1.6-4.6l-1.6,4.6H541.9L541.9,38.4z"/>
				<path class="st0" d="M554.2,32.3h5.6c0,0,0,0.1,0,0.1c0,0,0,0.1,0,0.2c0,0.5-0.3,0.8-0.9,0.8h-3.5v2.9h3.3v1.1h-3.3V42h-1.3
					C554.2,42,554.2,32.3,554.2,32.3z"/>
				<path class="st0" d="M569.5,32.3h5.6c0,0.1,0,0.2,0,0.3c0,0.5-0.3,0.8-0.9,0.8h-3.5v3h3.3v1.1h-3.3v3.4h3.7
					c0.3,0,0.5,0.1,0.7,0.2c0.2,0.1,0.2,0.3,0.2,0.6c0,0.1,0,0.2,0,0.3h-5.8L569.5,32.3L569.5,32.3z M573.1,30
					c0.2-0.1,0.3-0.2,0.4-0.3c0.1-0.1,0.2-0.1,0.3-0.1c0.2,0,0.3,0.1,0.5,0.2c0.2,0.1,0.3,0.2,0.4,0.4l-1.8,1.1
					c-0.3,0.2-0.5,0.3-0.7,0.3c-0.1,0-0.2,0-0.4-0.1c-0.1-0.1-0.3-0.2-0.3-0.3L573.1,30L573.1,30z"/>
			</g>
			<polygon class="st0" points="591.4,109.5 506,109.5 506,24.2 591.4,24.2 591.4,52.9 590,52.9 590,25.6 507.4,25.6 507.4,108.1 
				590,108.1 590,91.2 591.4,91.2 			"/>
			<path class="st0" d="M630.2,96.1h3.7v1.1h-12.6v-1.1h3.5c0.2-16.8,5.5-31.9,16.9-45.2c-0.3,0.1-0.4,0.2-0.6,0.2
				c-3.9,1.6-7.9,2.5-12.1,2.3c-2.4-0.1-4.8-0.4-7.2-0.7c-1.3-0.1-2.5-0.2-3.8-0.3c-1.5-0.1-2.5,0.6-3.2,1.7
				c-0.9,1.4-1.2,2.9-1.4,4.5c-0.1,0.6-0.1,1.2-0.1,1.8h-1.2V46.7h1.1c0.1,0.5,0.1,1,0.2,1.5c0.1,0.3,0.2,0.5,0.3,0.8
				c0.2,0.4,0.6,0.6,1.1,0.4c0.3-0.1,0.6-0.2,0.9-0.3c2.2-1.1,4.5-1.2,6.9-0.7c2.5,0.5,5,1.1,7.5,1.6c3.5,0.7,7,0.8,10.5-0.2
				c1.2-0.3,2.3-0.8,3.5-1.2c0.1,0.2,0.2,0.5,0.3,0.8c0,0.1-0.1,0.3-0.2,0.5c-1.5,1.8-3,3.6-4.4,5.5c-3.8,5.2-6.2,11.1-7.6,17.3
				c-1.2,5.5-1.7,11-2,16.6c-0.1,2.1-0.1,4.2-0.1,6.4C630.2,95.7,630.2,95.9,630.2,96.1L630.2,96.1z"/>
			<path class="st0" d="M525.9,96.1h3.6v1.1h-11v-1.1h3.5V52.5c-1.6,1.7-3.1,3.2-4.6,4.9c-0.3-0.3-0.5-0.5-0.8-0.8
				c0.1-0.1,0.2-0.3,0.3-0.4c2.3-2.5,4.6-4.9,6.9-7.4c0.4-0.4,0.7-0.6,1.2-0.5c0.3,0,0.6,0,0.9,0L525.9,96.1L525.9,96.1z"/>
			<path class="st0" d="M610.1,85.9v-1.1h-7.5V48.3c-0.4,0-0.7,0-1,0c-0.5-0.1-0.8,0.1-1.1,0.5c-8.9,11.9-17.9,23.7-26.9,35.5
				c-0.4,0.5-0.3,1-0.3,1.6h25v10.2h-3.6v1.1h11.5v-1.1h-3.7V85.9H610.1L610.1,85.9z M598,83.8h-23.5c7.8-10.3,15.6-20.5,23.5-30.9
				V83.8z"/>
			<path class="st0" d="M570.1,82.3c-0.1-2.6-1-5-2.8-7c-1.6-1.8-3.7-3.1-5.9-4.2c-1.5-0.7-3.1-1.4-4.7-2.1c0,0,0,0,0,0
				c0.1-0.1,0.3-0.1,0.4-0.2c2.6-1.1,4.8-2.7,6.6-4.8c2.1-2.4,3.1-5.2,2.3-8.3c-0.9-3.7-3.4-6.1-7.1-7.4c-4.6-1.7-9.3-1.5-13.7,0.6
				c-3.9,1.9-6.4,4.8-6.8,9.1c-0.2,2.5,0.4,4.9,2.1,6.9c1.5,1.8,3.5,3,5.6,4c0.2,0.1,0.4,0.2,0.6,0.3c-0.1,0.1-0.1,0.1-0.1,0.1
				c-0.1,0-0.2,0.1-0.3,0.1c-2.6,1-4.9,2.4-7,4.1c-3.2,2.7-5.4,6-5.7,10.2c-0.4,5.4,1.8,9.6,6.8,12.4c2.8,1.6,5.9,2.3,9.2,2.5
				c4.5,0.3,8.8-0.5,12.5-2.8C567.3,92.6,570.2,88.2,570.1,82.3L570.1,82.3z M542.3,61.4c-2.4-3.3-1.8-7.8,1.5-10.4
				c3.7-2.9,8-3.7,12.6-2.2c3.2,1.1,5.1,3.4,5.9,6.4c0.2,0.9,0.3,1.8,0.4,2.7c-0.2,4.7-2.4,8.2-6.7,10.5c-0.2,0.1-0.5,0.2-0.6,0.1
				c-2.8-1.2-5.6-2.3-8.4-3.5C545.1,64.2,543.5,63,542.3,61.4z M567,86.1c-0.3,4.8-4,9.3-10.3,10.8c-0.6,0.2-1.3,0.3-2,0.4
				c-0.9,0.1-1.8,0.2-2.7,0.2c-7.5,0-13.3-4.8-14.2-11.7c-0.5-4.5,0.6-8.6,3.8-12c1.6-1.8,3.7-3.2,6.1-4c0.2-0.1,0.4-0.1,0.5,0
				c3.1,1.2,6.2,2.3,9.2,3.6c2.3,0.9,4.4,2.1,6.2,3.8C566.2,79.7,567.2,82.7,567,86.1L567,86.1z"/>
		</g>
	</g>
	<g>
		<g>
			<g>
				<path class="st0" d="M76,38.7c-0.6-0.7-1.2-1.1-1.8-1.4c-0.6-0.3-1.4-0.4-2.2-0.4c-1.6,0-2.8,0.5-3.6,1.5
					c-0.8,1-1.3,2.5-1.3,4.3c0,1.9,0.4,3.4,1.3,4.5c0.9,1.1,2.1,1.6,3.7,1.6c1.1,0,2.1-0.3,2.9-1c0.5-0.3,0.8-0.6,1.1-1
					c0.7,0.7,1.1,1.4,1.1,1.9c0,0.3-0.2,0.7-0.7,1.1c-0.5,0.4-1.1,0.8-2,1c-0.8,0.2-1.8,0.4-2.8,0.4c-1.5,0-2.9-0.3-4-1
					c-1.2-0.7-2-1.6-2.6-2.9c-0.6-1.3-0.9-2.8-0.9-4.6c0-1.8,0.3-3.3,1-4.5c0.7-1.2,1.6-2.2,2.8-2.9c1.2-0.7,2.5-1,3.9-1
					c1,0,1.9,0.1,2.7,0.4c0.8,0.3,1.4,0.6,1.9,1c0.5,0.4,0.7,0.8,0.7,1.2c0,0.5-0.3,1.1-0.8,1.8C76.4,38.7,76,38.7,76,38.7z"/>
				<path class="st0" d="M82.4,38.3c-0.2-0.3-0.3-0.6-0.5-1c-0.1-0.3-0.2-0.6-0.2-0.8c0-0.4,0.3-0.7,0.9-1.1
					c0.6-0.3,1.4-0.6,2.3-0.8c0.9-0.2,1.8-0.3,2.7-0.3c2.1,0,3.7,0.5,4.6,1.4c1,0.9,1.4,2.4,1.4,4.6V47c0,0.6,0,1.1,0.1,1.4
					c0.1,0.3,0.2,0.6,0.4,0.7c0.2,0.1,0.6,0.2,1.2,0.2v1.4c-0.5,0.2-1,0.2-1.7,0.2c-1.7,0-2.6-0.6-2.8-1.9c-0.7,0.7-1.5,1.2-2.3,1.6
					c-0.8,0.3-1.8,0.5-2.8,0.5c-1.6,0-2.9-0.4-3.8-1.2c-0.9-0.8-1.3-2-1.3-3.5c0-1.8,0.8-3.2,2.3-4.2c1.5-1,3.7-1.5,6.4-1.6
					c0.7,0,1.2,0,1.4,0V40c0-1.1-0.3-1.9-0.8-2.4c-0.6-0.5-1.5-0.7-2.7-0.7c-0.9,0-1.7,0.1-2.4,0.3c-0.7,0.2-1.5,0.6-2.2,1.1
					L82.4,38.3L82.4,38.3z M91,42.7h-1c-2.1,0-3.6,0.3-4.7,0.9c-1.1,0.6-1.6,1.4-1.6,2.6c0,0.8,0.2,1.5,0.7,1.9
					c0.5,0.4,1.2,0.7,2.2,0.7c0.7,0,1.5-0.1,2.2-0.4c0.7-0.3,1.2-0.6,1.6-1c0.4-0.4,0.6-0.8,0.6-1.1L91,42.7L91,42.7z"/>
				<path class="st0" d="M98.9,33c0-2.2,0.5-3.8,1.5-4.9c1-1.1,2.5-1.7,4.4-1.7c0.9,0,1.7,0.1,2.4,0.4c0.7,0.2,1.3,0.5,1.7,0.9
					c0.4,0.4,0.6,0.7,0.6,1c0,0.5-0.3,1.1-0.8,1.8h-0.4c-0.9-1-2-1.6-3.3-1.6c-1.1,0-1.9,0.3-2.4,0.9c-0.5,0.6-0.8,1.5-0.8,2.8v2.2
					h5.7v2.5h-5.7v13.5h-2.9L98.9,33L98.9,33z"/>
				<path class="st0" d="M111.9,43.3c0.1,1.8,0.5,3.1,1.4,4.1c0.8,1,2.1,1.4,3.7,1.4c1.9,0,3.4-0.6,4.5-1.9c0.3,0.3,0.5,0.7,0.7,1
					c0.2,0.4,0.3,0.6,0.3,0.8c0,0.4-0.2,0.8-0.7,1.2c-1.2,0.9-2.9,1.4-5,1.4c-2.5,0-4.4-0.7-5.7-2.2c-1.3-1.5-2-3.6-2-6.4
					c0-1.7,0.3-3.2,0.9-4.4c0.6-1.2,1.5-2.2,2.6-2.8c1.1-0.7,2.4-1,3.8-1c1.4,0,2.6,0.3,3.5,0.9c1,0.6,1.7,1.4,2.2,2.5
					c0.5,1.1,0.8,2.3,0.8,3.7c0,0.9,0,1.5-0.1,1.9L111.9,43.3L111.9,43.3z M119.9,41.1c0-2.9-1.3-4.4-3.8-4.4
					c-1.2,0-2.2,0.4-2.9,1.2c-0.7,0.8-1.2,1.8-1.3,3.2H119.9z M117.6,28.1c0.4-0.5,0.7-0.8,0.9-1c0.3-0.2,0.5-0.2,0.9-0.2
					c0.3,0,0.6,0.1,1,0.2c0.4,0.2,0.7,0.4,1,0.6l-3.4,3.7c-0.6,0.6-1.1,1-1.7,1c-0.5,0-0.9-0.2-1.4-0.5L117.6,28.1L117.6,28.1z"/>
			</g>
			<path class="st0" d="M98.5,86.1c-1.1-0.8-2.3-1.5-3.3-2.4c-4.8-4-6-10.9-2.7-16c1.6-2.5,3.9-4.1,6.7-5.1c3-1,6.1-1.3,9.3-1.1
				c2.7,0.1,5.3,0.6,7.7,1.8c1.9,0.9,3.4,2.1,4.5,3.9c2.1,3.5,1.3,7.7-2,10.1c-1.6,1.2-3.4,2-5.1,2.8c-0.2,0.1-0.4,0.2-0.7,0.3
				c0.8,0.4,1.5,0.8,2.3,1.1c2.1,1.1,4,2.3,5.6,4.1c2.2,2.5,3.1,5.4,2.9,8.7c-0.2,2.7-0.9,5.2-2.7,7.3c-1.8,2.2-4.2,3.6-6.9,4.4
				c-3.5,1.1-7.1,1.4-10.8,1.2c-2.5-0.1-4.9-0.5-7.3-1.4c-2.3-0.9-4.3-2.1-5.7-4.2c-2.4-3.6-1.9-8.1,1.3-11.4c1.9-1.9,4-3.2,6.5-4.1
				C98.3,86.1,98.5,86.1,98.5,86.1L98.5,86.1z M99.2,86.3c-0.2,0.7-0.5,1.2-0.7,1.8C98,90.5,98,92.9,98,95.3c0,1.9,0.2,3.8,0.8,5.6
				c1.1,3.5,3.6,5.4,7.3,5.5c1.8,0,3.6-0.3,5-1.5c2-1.7,3.1-5.6,2.2-8.2c-0.6-1.9-1.9-3.2-3.5-4.2c-1.8-1.1-3.7-2.2-5.6-3.3
				C102.6,88.3,101,87.3,99.2,86.3L99.2,86.3z M111.9,79.9c0.1-0.2,0.1-0.4,0.2-0.5c0.6-1.7,0.9-3.4,1-5.2c0.1-2.6,0-5.1-0.7-7.6
				c-0.4-1.4-1.1-2.6-2.4-3.4c-2.3-1.3-4.7-1.2-7,0c-3,1.5-4.3,6-2.8,9.2c0.8,1.6,2.1,2.7,3.7,3.5c2.5,1.2,4.9,2.5,7.4,3.7
				C111.4,79.6,111.6,79.7,111.9,79.9L111.9,79.9z"/>
			<path class="st0" d="M83.3,60.6v0.7c0,12.9,0,25.8,0,38.6c0,2.2,0.7,4.1,2.2,5.6c0.3,0.3,0.7,0.5,1,0.8c0.1,0.1,0.3,0.3,0.4,0.4
				c0,0-0.1,0.1-0.1,0.1H66.6c0.1-0.2,0.1-0.4,0.2-0.5c1.7-1,2.6-2.7,3.1-4.6c0.2-0.6,0.2-1.3,0.2-1.9c0-7.5,0-15.1,0-22.6
				c0-1.1-0.1-2.2-0.4-3.2c-0.5-2.2-2.1-3.4-4.3-3.6c-0.5-0.1-1.1-0.1-1.6-0.1c-0.1-0.3,0-0.5,0.3-0.6c6.5-2.3,12.7-5.3,18.6-8.9
				C82.9,60.8,83.1,60.7,83.3,60.6L83.3,60.6z"/>
			<path class="st0" d="M140.6,94.9h-15.7c-0.1-0.5,0-0.8,0.3-1.2c9.1-10.7,18.2-21.5,27.3-32.3c0.4-0.5,0.9-0.1,1.3-0.3v32.7h5.2
				v1.1h-5.1c0,0.1-0.1,0.1-0.1,0.1c0,2.2-0.1,4.4,0.2,6.6c0.2,2,1.2,3.7,3,4.8c0.1,0.1,0.1,0.3,0.3,0.5h-20.2
				c0.1-0.2,0.1-0.4,0.2-0.5c1.7-1.1,2.6-2.7,3-4.6c0.2-0.7,0.2-1.4,0.2-2.1C140.6,98.1,140.6,96.6,140.6,94.9L140.6,94.9z
				 M126.7,93.8h13.9V77.4C135.9,82.9,131.3,88.3,126.7,93.8z"/>
			<path class="st0" d="M178.7,107H164c0.1-0.8,0.2-1.5,0.4-2.3c0.8-3.3,2.2-6.3,3.8-9.2c3.5-6.5,7.8-12.4,12.6-17.9
				c2-2.3,4.2-4.6,6.3-6.8c0.1-0.1,0.2-0.2,0.4-0.4c-0.2,0-0.4,0-0.5,0c-6.1,0-12.1,0-18.2,0.1c-1.3,0-2.5,0.1-3.8,0.3
				c-1.8,0.2-3.2,1.2-4.2,2.7c-0.1,0.2-0.3,0.3-0.4,0.4c0,0-0.1-0.1-0.1-0.1c1.1-3.9,2.2-7.8,3.3-11.7h29.9
				c-0.1,0.4-0.2,0.7-0.4,0.9c-2.5,4-5,7.9-7.4,12c-2.6,4.5-4.5,9.3-5.5,14.5c-0.5,2.6-0.8,5.1-1,7.7c-0.3,3.2-0.3,6.5-0.4,9.7
				C178.8,106.7,178.7,106.8,178.7,107L178.7,107z"/>
		</g>
	</g>
	<g>
		<g>
			<rect x="311.3" y="93.2" class="st0" width="64.6" height="5.1"/>
			<path class="st0" d="M328.9,91c-9.9,0-18-8.1-18-18s8.1-18,18-18s18,8.1,18,18S338.8,91,328.9,91L328.9,91z M328.9,60.1
				c-7.1,0-13,5.8-13,13c0,7.1,5.8,13,13,13s13-5.8,13-13S336,60.1,328.9,60.1z"/>
			<path class="st0" d="M328.9,60.1c-7,0-12.7-5.7-12.7-12.7s5.7-12.7,12.7-12.7s12.7,5.7,12.7,12.7S335.9,60.1,328.9,60.1z
				 M328.9,39.7c-4.2,0-7.7,3.4-7.7,7.7s3.4,7.7,7.7,7.7s7.7-3.4,7.7-7.7S333.1,39.7,328.9,39.7z"/>
			<rect x="295.4" y="103.3" class="st0" width="112.8" height="5.1"/>
			<rect x="295.4" y="25.3" class="st0" width="113.1" height="5.1"/>
			<polygon class="st0" points="300.7,98.3 305.8,98.3 305.8,35.5 295.4,35.5 295.4,40.5 300.7,40.5 			"/>
			<polygon class="st0" points="381.4,35.7 381.4,40.7 403.6,40.7 379.4,98.3 384.9,98.3 408.3,42.5 408.3,35.7 			"/>
			<polygon class="st0" points="371.5,35.6 349.1,74.3 365.6,74.3 365.6,69.2 357.9,69.2 371,46.6 371,88.5 376,88.5 376,35.6 			
				"/>
		</g>
	</g>
</g>
</svg>
