<?xml version="1.0" encoding="UTF-8"?>
<svg id="Layer_1" xmlns="http://www.w3.org/2000/svg" version="1.1" viewBox="0 0 193.1 100">
  <!-- Generator: Adobe Illustrator 30.1.0, SVG Export Plug-In . SVG Version: 2.1.1 Build 136)  -->
  <rect x="40" y="93.2" width="73.8" height="6.8" fill="#525146"/>
  <rect x="5.4" y="93.2" width="27.1" height="6.8" fill="#525146"/>
  <path d="M55.1,86.9c-11.3,0-20.5-9.2-20.5-20.5s9.2-20.5,20.5-20.5,20.5,9.2,20.5,20.5-9.2,20.5-20.5,20.5ZM55.1,52.5c-7.6,0-13.9,6.2-13.9,13.9s6.2,13.9,13.9,13.9,13.9-6.2,13.9-13.9-6.3-13.9-13.9-13.9Z" fill="#525146"/>
  <path d="M55.1,41c-11.3,0-20.5-9.2-20.5-20.5S43.8,0,55.1,0s20.5,9.2,20.5,20.5c.1,11.3-9.2,20.5-20.5,20.5ZM55.1,6.6c-7.6,0-13.9,6.2-13.9,13.9s6.2,13.9,13.9,13.9,13.9-6.3,13.9-13.9-6.3-13.9-13.9-13.9Z" fill="#525146"/>
  <polygon points="14.7 1 1.2 29.3 -.2 31.8 7.4 31.8 15.6 14.6 15.5 98.6 22.3 98.6 22.5 1 14.7 1" fill="#525146"/>
  <polygon points="140.1 99.8 147.6 99.8 193.1 9.9 193.1 1.7 135 1.7 135 8.5 186.4 8.5 140.1 99.8" fill="#525146"/>
  <polygon points="113.8 63 91.1 63 121.4 13.6 121.4 99.8 128.1 99.8 128.1 1 121.3 1 79.2 69.8 113.8 69.8 113.8 63" fill="#525146"/>
</svg>