<?xml version="1.0" encoding="UTF-8"?>
<svg id="Layer_1" xmlns="http://www.w3.org/2000/svg" version="1.1" viewBox="0 0 159.1 100">
  <!-- Generator: Adobe Illustrator 30.1.0, SVG Export Plug-In . SVG Version: 2.1.1 Build 136)  -->
  <g>
    <path d="M14.8,15.8c-.8-.9-1.4-1.3-2.2-1.7-.8-.4-1.7-.5-2.7-.5-1.9,0-3.5.6-4.4,1.8-1,1.2-1.6,3.1-1.6,5.3s.5,4.1,1.6,5.5,2.6,1.9,4.5,1.9,2.6-.4,3.6-1.2c.6-.4,1-.8,1.3-1.2.9.9,1.3,1.7,1.3,2.3s-.3.9-.9,1.3c-.6.5-1.3,1-2.5,1.2-1,.3-2.2.5-3.5.5-1.8,0-3.6-.4-4.9-1.2-1.4-.9-2.5-1.9-3.2-3.6-.8-1.6-1.1-3.5-1.1-5.7s.4-4,1.2-5.5,1.9-2.7,3.5-3.6c1.4-.9,3.1-1.2,4.8-1.2s2.3,0,3.3.5,1.7.8,2.3,1.2c.6.5.9,1,.9,1.4s-.4,1.3-1,2.2c0,.2-.5.2-.5.2Z" fill="#525146"/>
    <path d="M22.7,15.3c-.3-.4-.4-.8-.6-1.2,0-.4-.3-.8-.3-1,0-.5.4-.9,1.1-1.3.8-.4,1.7-.8,2.8-1s2.2-.4,3.3-.4c2.6,0,4.5.6,5.7,1.7,1.2,1.1,1.7,3,1.7,5.7v8.3c0,.8,0,1.3,0,1.7s.3.8.5.9c.3,0,.8.3,1.4.3v1.7c-.6.3-1.2.3-2.1.3-2.1,0-3.2-.8-3.5-2.3-.9.9-1.8,1.4-2.8,1.9-1,.4-2.2.6-3.5.6-1.9,0-3.6-.5-4.7-1.4s-1.6-2.5-1.6-4.3,1-3.9,2.8-5.2,4.5-1.8,7.9-1.9h1.7v-.8c0-1.3-.4-2.3-1-3-.8-.6-1.8-.9-3.3-.9s-2.1,0-3,.4c-.9.3-1.8.8-2.7,1.3h0ZM33.3,20.7h-1.2c-2.6,0-4.4.4-5.8,1.1s-1.9,1.7-1.9,3.2.3,1.8.9,2.3,1.4.9,2.7.9,1.8,0,2.7-.5,1.4-.8,1.9-1.2.8-1,.8-1.3v-4.3h0Z" fill="#525146"/>
    <path d="M43,8.8c0-2.7.6-4.7,1.8-6.1,1.2-1.3,3.1-2.1,5.4-2.1s2.1,0,3,.5c.9.3,1.6.6,2.1,1.1s.8.9.8,1.2c0,.6-.4,1.3-1,2.2h-.5c-1.1-1.2-2.5-1.9-4-1.9s-2.3.4-3,1.1c-.6.8-1,1.8-1,3.5v2.8h7v3.1h-7v16.5h-3.6V8.8h0Z" fill="#525146"/>
    <path d="M59,21.4c0,2.2.6,3.8,1.7,5,1,1.2,2.6,1.7,4.5,1.7s4.1-.8,5.5-2.3c.4.4.6.9.9,1.2.3.5.4.8.4,1,0,.5-.3,1-.9,1.4-1.4,1.1-3.6,1.7-6.2,1.7s-5.4-.9-7-2.7c-1.6-1.8-2.5-4.4-2.5-7.9s.4-3.9,1.1-5.4c.8-1.4,1.8-2.7,3.2-3.5,1.3-.9,3-1.2,4.7-1.2s3.2.4,4.3,1.1c1.2.8,2.1,1.7,2.7,3.1.6,1.3,1,2.8,1,4.5s0,1.8,0,2.3h-13.3ZM68.8,18.7c0-3.6-1.6-5.4-4.7-5.4s-2.7.5-3.6,1.4c-.9,1-1.4,2.2-1.6,3.9h9.9ZM66,2.7c.5-.6.9-1,1.1-1.2.4-.3.6-.3,1.1-.3s.8,0,1.2.3c.5.3.9.5,1.2.8l-4.1,4.5c-.8.8-1.3,1.2-2.1,1.2s-1.1-.3-1.7-.6l3.4-4.7h0Z" fill="#525146"/>
  </g>
  <path d="M42.5,73.9c-1.3-1-2.8-1.8-4-3-5.9-4.9-7.4-13.4-3.3-19.6,1.9-3.1,4.8-5,8.3-6.2,3.7-1.2,7.5-1.6,11.4-1.3,3.3,0,6.5.8,9.4,2.2,2.3,1.1,4.1,2.6,5.5,4.8,2.6,4.3,1.6,9.4-2.5,12.4-1.9,1.4-4.1,2.5-6.2,3.5-.3,0-.5.3-.9.4,1,.5,1.8,1,2.8,1.3,2.6,1.3,4.9,2.8,6.9,5,2.7,3.1,3.8,6.6,3.6,10.7-.3,3.3-1.1,6.3-3.3,8.9-2.2,2.7-5.2,4.4-8.5,5.4-4.3,1.3-8.7,1.7-13.3,1.4-3.1,0-6.1-.6-8.9-1.7-2.8-1.1-5.3-2.6-7-5.2-3-4.4-2.3-9.9,1.6-14,2.3-2.3,4.9-3.9,8-5,0,0,.4,0,.4,0h0ZM43.4,74.2c-.3.9-.6,1.4-.9,2.2-.6,3-.6,5.9-.6,8.8s.3,4.7,1,6.9c1.3,4.3,4.4,6.6,8.9,6.7,2.2,0,4.4-.4,6.2-1.8,2.5-2.1,3.8-6.9,2.7-10.1-.8-2.3-2.3-3.9-4.3-5.2-2.2-1.3-4.5-2.7-6.9-4-1.9-1.2-3.8-2.3-6.1-3.6h0ZM59,66.3c0-.3,0-.5.3-.6.8-2.1,1.1-4.1,1.2-6.3,0-3.2,0-6.2-.9-9.3-.5-1.7-1.3-3.2-3-4.1-2.8-1.6-5.8-1.4-8.6,0-3.7,1.8-5.3,7.4-3.5,11.3,1,1.9,2.6,3.3,4.5,4.3,3.1,1.4,6.1,3.1,9.1,4.5,0-.2.3,0,.7.2h0Z" fill="#525146"/>
  <path d="M23.9,42.6v48.2c0,2.7.9,5,2.7,6.9.4.4.9.6,1.2,1,0,0,.4.4.5.5h0c0,0-24.9,0-24.9,0,0-.3,0-.5.3-.6,2.1-1.2,3.2-3.3,3.8-5.7.3-.8.3-1.6.3-2.3v-27.8c0-1.3,0-2.7-.5-3.9-.6-2.7-2.6-4.1-5.3-4.4-.6,0-1.3,0-1.9,0,0-.4,0-.6.4-.8,8-2.8,15.6-6.5,22.9-11,0,0,.3,0,.6-.2h0Z" fill="#525146"/>
  <path d="M94.2,84.8h-19.3c0-.6,0-1,.4-1.4,11.1-13.2,22.4-26.4,33.5-39.7.5-.6,1.1,0,1.6-.4v40.2h6.3v1.3h-6.2c0,0,0,0,0,0,0,2.7,0,5.4.3,8.1.3,2.5,1.4,4.5,3.7,5.9,0,0,0,.4.4.6h-24.8c0-.3,0-.5.3-.6,2.1-1.3,3.2-3.3,3.7-5.7.3-.9.3-1.7.3-2.6,0-1.8,0-3.7,0-5.8h0ZM77.1,83.4h17.1v-20.2c-5.8,6.7-11.4,13.4-17.1,20.2Z" fill="#525146"/>
  <path d="M141,99.6h-18.1c0-1,.3-1.8.5-2.8,1-4,2.7-7.7,4.7-11.3,4.3-8,9.6-15.2,15.5-22,2.5-2.8,5.2-5.7,7.7-8.4,0,0,.3-.3.5-.5h-.6c-7.5,0-14.9,0-22.4,0-1.6,0-3.1,0-4.7.4-2.2.3-3.9,1.4-5.2,3.3,0,.3-.4.4-.5.5h0c1.3-4.9,2.7-9.7,4-14.4h36.7c0,.5-.3.9-.5,1.1-3.1,4.9-6.2,9.7-9.1,14.7-3.2,5.5-5.5,11.4-6.7,17.8-.6,3.2-1,6.2-1.2,9.4-.4,3.9-.4,8-.5,11.9,0,0,0,0,0,.3h0Z" fill="#525146"/>
</svg>