<?xml version="1.0" encoding="UTF-8"?>
<svg id="Layer_1" xmlns="http://www.w3.org/2000/svg" version="1.1" viewBox="0 0 136.2 100">
  <!-- Generator: Adobe Illustrator 30.1.0, SVG Export Plug-In . SVG Version: 2.1.1 Build 136)  -->
  <rect x="19.8" y="81.6" width="77.4" height="6.1" fill="#525146"/>
  <path d="M40.8,79c-11.8,0-21.6-9.7-21.6-21.6s9.7-21.6,21.6-21.6,21.6,9.7,21.6,21.6-9.6,21.6-21.6,21.6h0ZM40.8,42c-8.5,0-15.6,6.9-15.6,15.6s6.9,15.6,15.6,15.6,15.6-6.9,15.6-15.6-7.1-15.6-15.6-15.6Z" fill="#525146"/>
  <path d="M40.8,42c-8.4,0-15.2-6.8-15.2-15.2s6.8-15.2,15.2-15.2,15.2,6.8,15.2,15.2-6.8,15.2-15.2,15.2ZM40.8,17.6c-5,0-9.2,4.1-9.2,9.2s4.1,9.2,9.2,9.2,9.2-4.1,9.2-9.2c0-5.1-4.1-9.2-9.2-9.2Z" fill="#525146"/>
  <rect x=".7" y="93.7" width="135.1" height="6.1" fill="#525146"/>
  <rect x=".7" y=".3" width="135.4" height="6.1" fill="#525146"/>
  <polygon points="7 87.7 13.2 87.7 13.2 12.5 .7 12.5 .7 18.5 7 18.5 7 87.7" fill="#525146"/>
  <polygon points="103.7 12.8 103.7 18.7 130.3 18.7 101.3 87.7 107.9 87.7 135.9 20.9 135.9 12.8 103.7 12.8" fill="#525146"/>
  <polygon points="91.9 12.7 65 58.9 84.8 58.9 84.8 52.9 75.5 52.9 91.2 25.8 91.2 75.9 97.3 75.9 97.3 12.7 91.9 12.7" fill="#525146"/>
</svg>