<?xml version="1.0" encoding="UTF-8"?>
<svg id="Layer_1" xmlns="http://www.w3.org/2000/svg" version="1.1" viewBox="0 0 207.9 100">
  <!-- Generator: Adobe Illustrator 30.1.0, SVG Export Plug-In . SVG Version: 2.1.1 Build 136)  -->
  <path d="M33.2,41v49.6c0,2.6,1.3,5,3.8,7.1.5.5,1.3.6,1.6,1,.3.1.5.3.6.6h-.1c0,.1-34.3.1-34.3.1.1-.3.1-.5.5-.6,3-1.4,4.5-3.4,5.3-5.8.3-.8.3-1.6.3-2.4v-28.7c0-1.4-.1-2.6-.6-4-.9-2.6-3.4-4.4-7.3-4.6-.9,0-1.8-.1-2.9-.1-.1-.5,0-.6.5-.8,11-3,21.7-6.5,31.5-11.3.4.1.6-.1,1.1-.3h0Z" fill="#525146"/>
  <path d="M178,99.4h-28.8c.3-1.5.5-3,.8-4.5,1.5-6.4,4.4-12.3,7.3-18,6.8-12.6,15.1-24.2,24.5-34.9,4-4.6,8.1-8.9,12.4-13.4.1-.3.5-.5.8-.8h-1c-11.8,0-23.7,0-35.4.1-2.4,0-4.9.1-7.3.5-3.6.5-6.3,2.3-8.1,5.3-.1.3-.6.6-.8.8-.1,0-.1-.1-.3-.1,2.3-7.6,4.4-15.4,6.5-22.8h58.5c-.3.8-.5,1.4-.8,1.8-4.8,7.8-9.9,15.5-14.4,23.4-5,8.8-8.8,18.2-10.6,28.2-.9,4.9-1.6,10-1.9,15-.5,6.3-.6,12.6-.9,18.9-.4.3-.5.4-.5.6h0Z" fill="#525146"/>
  <g>
    <path d="M23.2,30.6c.8.8,1.3,1.3,1.3,1.8s-.3.8-.9,1.4c-.9.8-1.9,1.4-3.1,1.8s-2.5.6-3.9.6c-2.3,0-4.4-.5-6-1.5-1.8-1-3-2.4-3.9-4.4-.9-1.9-1.4-4.1-1.4-7s.5-4.9,1.5-6.9c1-1.9,2.4-3.3,4.1-4.4,1.8-1,3.8-1.5,5.6-1.5,2.9,0,5.3.8,7,2.3.6.5.9,1,.9,1.5s-.3,1-.9,1.9h-.5c-1.5-2.1-3.8-3.1-6.5-3.1s-4.6.9-6.1,2.6c-1.5,1.8-2.1,4.4-2.1,7.5s.8,5.8,2.1,7.6c1.5,1.8,3.4,2.6,6.1,2.6s3.4-.5,4.9-1.5c.8-.3,1.1-.6,1.8-1.3h0Z" fill="#525146"/>
    <path d="M50.1,35.4c-.8.1-1.4.3-1.9.3-1.3,0-2.1-.3-2.9-.9s-1-1.4-1.3-2.4c-2.4,2.4-5,3.4-8.5,3.4s-4.1-.6-5.5-1.8c-1.4-1.3-2.1-3-2.1-5.3s.6-3.4,1.6-4.6,2.6-2.3,4.8-3c2.1-.8,4.5-1,7.1-1h1.3c.5,0,.8,0,1.3.1v-1.3c0-2.1-.5-3.6-1.5-4.5-.9-.9-2.5-1.4-4.6-1.4s-2.6.1-4,.6c-1.3.5-2.4.9-3.3,1.6h-.5c-.5-.8-.8-1.3-.8-1.8s.5-.9,1.4-1.4c.9-.5,1.9-.9,3.3-1.3,1.4-.3,2.6-.5,4-.5,3.1,0,5.4.8,6.8,2.1s2.1,3.6,2.1,6.9v10.4c0,1,0,1.8.1,2.4s.5,1,.8,1.4c.3.3,1,.5,1.9.6l.5,1.1h0ZM44.4,22.4h-1.4c-7.8,0-11.6,2.1-11.6,6.3s.5,2.6,1.4,3.4c.9.9,2.1,1.3,3.8,1.3s2.5-.3,3.8-.8,2.3-1,3-1.8,1.3-1.3,1.3-1.6v-6.8h-.1Z" fill="#525146"/>
    <path d="M68.4,14.1c-.6-.9-1.5-1.6-2.4-2.1s-1.9-.6-3.1-.6-2.9.3-3.8,1-1.5,1.8-1.8,3.3c-.1.6-.1,1.4-.1,2.3v4h9.1v2.4h-9.3v10.9h-3v-16.4c0-1,0-1.9.1-2.6.8-4.8,3.6-7.1,8.4-7.1s4.5.6,5.8,1.8c.6.5.9,1,.9,1.5s0,.5-.1.6c-.1.3-.3.6-.8,1h0v.3Z" fill="#525146"/>
    <path d="M91.9,32.4c0,.5-.5,1-1.4,1.8-.9.6-1.9,1.3-3.1,1.5s-2.5.5-3.8.5c-3.8,0-6.5-1-8.5-3.3-1.9-2.3-3-5.5-3-9.6s.5-4.8,1.4-6.8c.9-1.9,2.3-3.3,3.9-4.4,1.6-1,3.6-1.5,5.6-1.5,3,0,5.4.9,7,2.9,1.6,1.9,2.5,4.5,2.5,7.6s0,1.8-.1,2.6h-17c0,3.1.8,5.6,2.3,7.3s3.4,2.5,6.1,2.5,3-.3,4.4-.9,2.3-1.4,2.9-2.3c.4,1,.9,1.6.9,2h0ZM89.5,21.5c0-5.6-2.3-8.5-6.9-8.5s-4,.8-5.4,2.3-1.9,3.6-2.1,6.3h14.4ZM84.5,7.5c-.5.5-1,.8-1.8.8s-.6,0-.9-.1-.6-.1-.8-.3l4.5-5.6c.6-.8,1-1.3,1.4-1.4.3-.1.6-.3,1-.3.8,0,1.6.3,2.4.9l-5.9,6h0Z" fill="#525146"/>
  </g>
  <path d="M92.2,73.7h-8.1c1-1.3,2.1-2.4,3.1-3.6-1.8-.9-3.8-1.8-5.6-2.5-1.3-.5-2.5-.9-3.9-1.5.5-.1.9-.3,1.3-.5,3-1,6.1-2.1,8.8-3.6,5.5-3.1,7-8.4,3.3-12.8-1.8-2.3-4.5-3.9-7.6-4.9-4.1-1.5-8.6-2.1-13.1-2.3-5.4-.1-10.6.1-15.8,1.4-4.8,1.3-8.6,3.1-11.5,6.4-5.5,6.4-3.4,15.1,4.6,20.3,1.8,1,3.8,2.1,5.6,3-.1,0-.3.1-.6.1-4.1,1-7.9,2.9-11.1,5.3-5.4,4-6.3,9.6-2.1,14.3,2.4,2.6,5.8,4.1,9.6,5.4,4,1,8,1.6,12.4,1.8,6.3.3,12.4,0,18.3-1.5,4.6-1,8.6-2.9,11.6-5.6,3-2.6,4.4-5.8,4.5-9.3.5-3.5-.5-6.8-3.5-9.8h0ZM60.9,44.3c3.9-1.5,7.9-1.6,11.8,0,2.3.9,3.3,2.5,4,4.1,1.4,3.1,1.5,6.4,1.3,9.5-.1,2.3-.8,4.5-1.8,6.5-.1.1-.1.5-.3.6-.5-.1-.8-.3-1-.5-4.1-1.5-8.4-3.1-12.5-4.6-2.6-1-4.9-2.4-6.3-4.5-2.5-3.5-.3-9.1,4.8-11.1ZM74.8,97c-2.5,1.5-5.5,1.9-8.6,1.9-6.1-.1-10.4-2.5-12.4-6.9-1-2.3-1.4-4.6-1.4-7s0-6.1.9-9.1c.3-.8.8-1.5,1.3-2.3,3,1.3,5.6,2.4,8.5,3.6,3.1,1.4,6.4,2.6,9.5,4.1,2.9,1.4,4.9,3,6,5.4,1.4,3.3-.4,8.1-3.8,10.3h0Z" fill="#525146"/>
  <path d="M147.1,76v-2.3h-10.1V10c-.9.3-1.8-.3-2.5.6-17.8,21-35.4,42.1-53.2,62.8-.6.8-.8,1.5-.6,2.4h30.5v9.3c0,1.4,0,2.9-.3,4.1-.9,3.8-2.5,7-6,9.1-.3.1-.3.6-.5.9h39.3c-.1-.5-.3-.8-.5-.9-3.6-2.1-5.5-5.5-6-9.4-.5-4.4-.3-8.6-.3-13,0,0,0-.1.1-.3l10,.3h0ZM111.1,73.7h-27.2c9.1-10.8,18-21.3,27.2-32v32Z" fill="#525146"/>
</svg>