<?xml version="1.0" encoding="utf-8"?>
<!-- Generator: Adobe Illustrator 26.4.0, SVG Export Plug-In . SVG Version: 6.00 Build 0)  -->
<svg version="1.1" id="a" xmlns="http://www.w3.org/2000/svg" xmlns:xlink="http://www.w3.org/1999/xlink" x="0px" y="0px"
	 viewBox="0 0 696.3 425.2" style="enable-background:new 0 0 696.3 425.2;" xml:space="preserve">
<style type="text/css">
	.st0{fill:#B40C2F;}
	.st1{fill:#FFFFFF;}
</style>
<rect x="179.9" y="44.3" class="st0" width="336.5" height="336.5"/>
<path class="st1" d="M312.4,226.4c0.7,0.1,1.3,0.2,2.1,0.2h0.3c0.2,0,0.3,0.1,0.5,0.1c0.6,0.1,1.2,0.1,1.8,0.1h0.6
	c14.1,0,23.7-7,24.4-17.8c0.7-10.3-8-15.6-16.1-19.7c4.1-1.6,11-5.6,10.7-13.6c-0.4-9.5-11.8-12.7-16.9-12.7h-0.3
	c-3.3-0.1-6.4,0.6-9.5,2.2c-5,2.6-7.8,6.6-8.2,11.8c-0.3,3.5,0.6,6.6,2.6,9.1c0.8,1.1,1.9,2.1,3.1,3l0.1,0.1
	c0.6,0.5,1.6,1.2,2.5,1.9c-2,0.6-4.5,1.5-7,2.9c-5.8,3.4-8.8,8.5-8.8,14.7C294.3,218.5,300.6,224.7,312.4,226.4L312.4,226.4z
	 M316.2,167.6c0.1,0,2.9-0.8,5.9,0.6c3.2,1.6,4.9,4.7,5,9c0.1,4.9-1.6,8.1-3.3,9.6c-10.3-4.7-12.6-7.2-13.3-10.5
	C309.8,173.7,311.7,169,316.2,167.6z M314.4,192.9c0.4,0.2,0.9,0.4,1.3,0.6c7,3.1,14.9,6.6,15,15c0.1,6.6-3.5,11.8-9.4,13.6
	c-2.6,0.7-5.2,0.3-6.3,0.1c-4.3-1.3-9.4-4.9-9.4-14.5C305.6,196.7,312.3,193.6,314.4,192.9L314.4,192.9z M279.6,282
	c0,0.5,0.3,1,0.8,1.2c0.2,0.1,0.3,0.1,0.4,0.1c0.3,0,0.7-0.2,1-0.4l9-10.7c0.2-0.2,0.3-0.5,0.3-0.8V165.9c0-0.7-0.6-1.2-1.2-1.2h-5
	c-1.3-0.2-2.1,0.6-2.6,1.1c-2.7,3.3-13,15.1-13,15.1c-0.4,0.5-0.4,1.3,0.1,1.7l2,1.8c0.2,0.2,0.6,0.3,0.9,0.3s0.7-0.2,0.8-0.4
	l6.6-7.7L279.6,282L279.6,282z M358.2,291.6h-7.5v-75.3c0-0.7-0.6-1.2-1.2-1.2h-2.7c-1.2,0-2.2,1.1-2.4,1.5l-64.5,76.8
	c-0.9,1.3-1,1.7-0.8,2.9l0.1,0.3c0.1,0.7,0.6,1.1,1.2,1.1h57.9v12.3h-5.9c-0.7,0-1.2,0.6-1.2,1.2v3c0,0.7,0.6,1.2,1.2,1.2h24.7
	c0.7,0,1.2-0.6,1.2-1.2v-3c0-0.7-0.6-1.2-1.2-1.2h-6.1v-12.3h7.4c0.7,0,1.2-0.6,1.2-1.2V293C359.5,292.2,358.9,291.6,358.2,291.6
	L358.2,291.6z M338.2,291.6h-48.5l48.5-57.5V291.6z M432,170.5L432,170.5c-0.2-0.7-0.4-1.3-0.7-1.9c-0.1-0.2-0.2-0.3-0.2-0.5
	c-0.2-0.6-1-1-1.6-0.7c-1,0.4-2,0.7-2.9,1.1c-2.1,0.8-4,1.6-6.1,2.2c-8,2.5-16.5,2.7-26.8,0.6c-5.4-1.1-10.9-2.4-16.3-3.6l-3.2-0.7
	c-7.1-1.6-13.3-1-18.9,2c-0.5,0.3-1.2,0.4-1.8,0.7l-0.3,0.1c-0.6,0.2-1,0.1-1.5-0.6c-0.3-0.6-0.6-1.2-0.7-1.7
	c-0.2-1-0.3-1.9-0.4-2.9c-0.1-0.4-0.1-0.8-0.2-1.3c-0.1-0.6-0.6-1.1-1.2-1.1h-2.9c-0.7,0-1.2,0.6-1.2,1.2v44.7
	c0,0.7,0.6,1.2,1.2,1.2h3.1c0.7,0,1.2-0.5,1.2-1.2c0.1-0.8,0.1-2.7,0.1-4.9c0.1-2.6,0.1-5.6,0.2-6.6c0-7,2.7-10.9,5-13
	c2.5-2.2,5.7-3.4,8.9-3.1c1.7,0.1,2.4,0.3,3.3,0.4c0.8,0.2,1.6,0.3,3.2,0.4c2,0.2,4,0.4,6.1,0.7c4.1,0.5,8.5,1,12.7,1.2
	c9.6,0.4,19.2-1.3,29.3-5.3c-29.1,37.2-48.3,74.5-48.6,131.9h-6.7c-0.7,0-1.2,0.6-1.2,1.2v3c0,0.7,0.6,1.2,1.2,1.2h27.9
	c0.7,0,1.2-0.6,1.2-1.2v-3c0-0.7-0.6-1.2-1.2-1.2h-7v-0.3c0-70.5,22.8-103.9,33.8-119.9l1.1-1.6c2.4-3.5,4.9-6.9,7.5-10.1
	c1.3-1.7,2.6-3.5,3.9-5.2C431.6,172.4,432.2,171.5,432,170.5L432,170.5z"/>
<g>
	<path class="st1" d="M303.3,132.2c0-7,4.7-11,10.1-11c2.7,0,4.7,1.1,6.1,2.5l-1.8,2.4c-1.2-1.1-2.5-1.9-4.1-1.9
		c-3.8,0-6.6,3.3-6.6,8.1s2.6,8,6.5,8c1.9,0,3.6-1,4.9-2.1l1.5,2.4c-1.9,1.7-4.3,2.7-6.8,2.7C307.6,143.2,303.3,139.1,303.3,132.2
		L303.3,132.2z"/>
	<path class="st1" d="M326.8,137.2c0-4.6,3.9-6.8,12.9-7.9c0-2.7-0.9-5.3-4.3-5.3c-2.4,0-4.6,1.2-6.3,2.2l-1.4-2.4
		c1.9-1.3,4.9-2.7,8.2-2.7c5.1,0,7.3,3.4,7.3,8.6v12.9h-2.9l-0.3-2.5h-0.1c-2,1.7-4.3,3-7,3C329.4,143.2,326.8,141,326.8,137.2z
		 M339.7,137.5v-5.8c-7,0.8-9.4,2.6-9.4,5.3c0,2.4,1.6,3.4,3.7,3.4C336,140.3,337.7,139.3,339.7,137.5z"/>
	<path class="st1" d="M350.2,121.8l3-0.2h7.9v2.9h-10.8L350.2,121.8L350.2,121.8L350.2,121.8z M353,118.3c0-4.3,2-7,6.2-7
		c1.3,0,2.5,0.3,3.5,0.7l-0.7,2.7c-0.8-0.4-1.6-0.6-2.4-0.6c-2,0-3,1.4-3,4.1v24.3h-3.5L353,118.3L353,118.3L353,118.3z"/>
	<path class="st1" d="M365.9,132.2c0-6.8,4.6-11,9.4-11c5.3,0,8.4,3.9,8.4,9.9c0,0.7-0.1,1.5-0.2,2h-14.1c0.3,4.4,3,7.3,7,7.3
		c2,0,3.6-0.7,5.2-1.7l1.3,2.4c-1.9,1.2-4.1,2.2-7,2.2C370.3,143.2,365.9,139.1,365.9,132.2L365.9,132.2z M380.6,130.4
		c0-4.2-1.9-6.5-5.2-6.5c-3,0-5.6,2.4-6,6.5H380.6L380.6,130.4z M372.9,116.1l6.1-7.2l2.5,2.4l-6.8,6.6L372.9,116.1z"/>
</g>
</svg>
