<?xml version="1.0" encoding="utf-8"?>
<!-- Generator: Adobe Illustrator 26.4.0, SVG Export Plug-In . SVG Version: 6.00 Build 0)  -->
<svg version="1.1" id="a" xmlns="http://www.w3.org/2000/svg" xmlns:xlink="http://www.w3.org/1999/xlink" x="0px" y="0px"
	 viewBox="0 0 700 700" style="enable-background:new 0 0 700 700;" xml:space="preserve">
<style type="text/css">
	.st0{fill:#FFFFFF;}
	.st1{fill:#525146;}
</style>
<rect x="44.6" y="43.5" class="st0" width="610.7" height="610.7"/>
<g>
	<path class="st1" d="M585.7,332.1v-5.5H573l17.8-25.4v55.9h5.5V292h-5.7L562.5,332h23.2V332.1z M514.2,352h5.5v-60h-5.7l-9.2,12.3
		l4.4,3.2l5.1-6.8L514.2,352L514.2,352z M575,351.3C575,351.3,574.9,351.3,575,351.3c-0.3-0.9-0.6-1.9-0.9-2.7
		c0-0.1-0.1-0.2-0.1-0.5c-0.3-0.7-0.6-1.5-0.9-2.2c-0.1-0.2-0.2-0.6-0.3-0.8c-0.3-0.6-0.6-1.2-0.9-1.6c-0.3-0.5-0.7-1-1-1.5
		c-0.2-0.2-0.3-0.6-0.6-0.8c-0.5-0.7-1-1.3-1.6-2c-0.1-0.1-0.2-0.2-0.3-0.3c-0.5-0.6-1-1-1.5-1.5c-0.2-0.2-0.5-0.5-0.7-0.6
		c-0.3-0.3-0.7-0.7-1.2-0.9c-0.5-0.3-0.9-0.7-1.4-1c-0.2-0.2-0.5-0.3-0.7-0.6c-0.7-0.5-1.4-0.9-2.1-1.3c-0.1,0-0.2-0.1-0.2-0.2
		c0,0-0.1,0-0.1-0.1c-0.8-0.5-1.6-0.8-2.4-1.2c-0.1,0-0.2-0.1-0.3-0.1c-0.2-0.1-0.3-0.1-0.6-0.2c6.4-3.9,10.8-10.9,10.8-19
		c0-12.3-10-22.3-22.3-22.3c-12.3,0-22.3,10-22.3,22.3c0,8,4.3,15.1,10.8,19c-0.2,0.1-0.6,0.2-0.8,0.3c-0.2,0.1-0.3,0.2-0.6,0.2
		c-0.5,0.2-0.8,0.3-1.3,0.6c-0.2,0.1-0.5,0.2-0.7,0.3c-0.2,0.1-0.6,0.3-0.8,0.5l0,0c-2.6,1.5-4.8,3.2-6.8,5.3l3.9,3.7
		c1.9-2,3.9-3.6,6.4-4.9c0.1-0.1,0.3-0.2,0.5-0.2c0.3-0.2,0.7-0.3,1.2-0.6c0.1-0.1,0.2-0.1,0.5-0.2c0.3-0.1,0.8-0.3,1.2-0.5
		c0.1,0,0.2-0.1,0.3-0.1c0.3-0.1,0.8-0.2,1.2-0.3c0.1,0,0.3-0.1,0.5-0.1c0.7-0.2,1.5-0.3,2.2-0.5c0.2,0,0.3-0.1,0.6-0.1
		c0.6-0.1,1-0.1,1.6-0.2c0.2,0,0.5,0,0.8-0.1c0.5,0,0.9,0,1.4,0c0.1,0,0.2,0,0.3,0s0.2,0,0.3,0c0.7,0,1.5,0,2.2,0.1l0,0
		c1.6,0.1,3.2,0.5,4.8,0.9c0.1,0,0.2,0,0.2,0.1c0.6,0.2,1.2,0.3,1.7,0.6c0.2,0.1,0.5,0.1,0.7,0.2c0.5,0.2,0.9,0.5,1.5,0.7
		c0.2,0.1,0.5,0.2,0.8,0.3c0.6,0.3,1.2,0.7,1.7,1c0.1,0.1,0.2,0.1,0.2,0.2c3.4,2.2,6,5.2,8,8.8c0.1,0.1,0.1,0.2,0.2,0.3
		c0.2,0.5,0.5,1,0.7,1.5c0.1,0.2,0.2,0.6,0.3,0.8c0.1,0.3,0.3,0.8,0.5,1.2c0.1,0.5,0.3,0.8,0.5,1.3c0.7,2.3,1,4.8,1,7.3
		c0,14.2-11.5,25.6-25.6,25.6s-25.6-11.5-25.6-25.6h-5.5c0,17.2,13.9,31.1,31.1,31.1s31.1-13.9,31.1-31.1
		C576.1,356.9,575.7,354.1,575,351.3L575,351.3L575,351.3z M545.9,328.8c-0.2,0-0.5,0-0.6,0h-0.1c-0.1,0-0.3,0-0.5,0
		c-9.1-0.2-16.4-7.7-16.4-16.8c0-9.3,7.5-16.8,16.8-16.8c9.3,0,16.8,7.5,16.8,16.8C561.9,321.1,554.8,328.5,545.9,328.8L545.9,328.8
		z M603.4,292.2v5.5h38.8l-58.5,91.5h6.5l62-96.9L603.4,292.2L603.4,292.2z"/>
</g>
<g>
	<rect x="79.6" y="376.7" class="st1" width="62" height="5.7"/>
	<rect x="50.5" y="376.7" class="st1" width="22.8" height="5.7"/>
	<path class="st1" d="M92.3,371.4c-9.5,0-17.2-7.7-17.2-17.2s7.7-17.2,17.2-17.2s17.2,7.7,17.2,17.2S101.8,371.4,92.3,371.4z
		 M92.3,342.5c-6.4,0-11.7,5.2-11.7,11.7s5.2,11.7,11.7,11.7s11.7-5.2,11.7-11.7S98.7,342.5,92.3,342.5z"/>
	<path class="st1" d="M92.3,332.8c-9.5,0-17.2-7.7-17.2-17.2c0-9.5,7.7-17.2,17.2-17.2s17.2,7.7,17.2,17.2
		C109.6,325.1,101.8,332.8,92.3,332.8z M92.3,303.9c-6.4,0-11.7,5.2-11.7,11.7c0,6.4,5.2,11.7,11.7,11.7S104,322,104,315.6
		C104,309.2,98.7,303.9,92.3,303.9z"/>
	<polygon class="st1" points="58.3,299.2 47,323 45.8,325.1 52.2,325.1 59.1,310.6 59,381.2 64.7,381.2 64.9,299.2 	"/>
	<polygon class="st1" points="163.7,382.2 170,382.2 208.2,306.7 208.2,299.8 159.4,299.8 159.4,305.5 202.6,305.5 	"/>
	<polygon class="st1" points="141.6,351.3 122.5,351.3 148,309.8 148,382.2 153.6,382.2 153.6,299.2 147.9,299.2 112.5,357 
		141.6,357 	"/>
</g>
<g>
	<g>
		<g>
			<path class="st1" d="M278.9,396c-0.6-0.7-1.2-1.2-1.9-1.4c-0.7-0.3-1.4-0.4-2.2-0.4c-1.7,0-2.9,0.6-3.7,1.6
				c-0.8,1-1.3,2.6-1.3,4.4c0,2,0.4,3.6,1.3,4.7c0.9,1.1,2.1,1.7,3.8,1.7c1.1,0,2.1-0.3,3-1c0.4-0.3,0.9-0.7,1.1-1
				c0.8,0.8,1.1,1.4,1.1,1.9c0,0.3-0.2,0.7-0.8,1.1c-0.4,0.4-1.2,0.8-2,1c-0.8,0.2-1.9,0.3-2.9,0.3c-1.6,0-3-0.3-4.2-1
				c-1.2-0.7-2.1-1.7-2.7-3c-0.6-1.3-0.9-2.9-0.9-4.8s0.3-3.4,1-4.7c0.7-1.2,1.7-2.2,2.9-3c1.2-0.7,2.6-1,4-1c1,0,2,0.1,2.8,0.4
				c0.8,0.3,1.4,0.7,2,1s0.8,0.8,0.8,1.2s-0.3,1.1-0.9,1.9L278.9,396L278.9,396z"/>
			<path class="st1" d="M289.1,395.5c-0.2-0.3-0.3-0.7-0.4-1c-0.1-0.3-0.2-0.7-0.2-0.9c0-0.4,0.3-0.8,1-1.1c0.7-0.3,1.4-0.7,2.3-0.8
				c1-0.2,1.9-0.3,2.8-0.3c2.2,0,3.8,0.4,4.8,1.4c1,0.9,1.4,2.6,1.4,4.8v6.9c0,0.7,0,1.1,0.1,1.4c0.1,0.3,0.2,0.6,0.4,0.7
				s0.6,0.2,1.2,0.2v1.4c-0.4,0.1-1.1,0.2-1.7,0.2c-1.8,0-2.7-0.7-2.9-2c-0.8,0.8-1.6,1.3-2.4,1.7c-0.9,0.3-1.8,0.4-2.9,0.4
				c-1.7,0-3-0.4-3.9-1.2c-0.9-0.9-1.3-2.1-1.3-3.7c0-1.9,0.8-3.3,2.3-4.3s3.8-1.6,6.7-1.7c0.7,0,1.2,0,1.4,0v-0.6
				c0-1.2-0.3-2-0.9-2.4c-0.6-0.4-1.6-0.8-2.8-0.8c-0.9,0-1.8,0.1-2.4,0.3c-0.8,0.2-1.6,0.7-2.3,1.2H289.1L289.1,395.5z
				 M297.8,400.1h-1c-2.1,0-3.8,0.3-4.9,0.9s-1.7,1.4-1.7,2.7c0,0.9,0.2,1.6,0.8,2c0.6,0.4,1.2,0.7,2.2,0.7c0.8,0,1.6-0.1,2.2-0.4
				c0.7-0.3,1.3-0.7,1.7-1c0.4-0.4,0.7-0.8,0.7-1.1L297.8,400.1L297.8,400.1z"/>
			<path class="st1" d="M310.3,390.1c0-2.2,0.6-3.9,1.6-5.1c1-1.2,2.6-1.8,4.6-1.8c0.9,0,1.8,0.1,2.4,0.3c0.8,0.2,1.3,0.6,1.8,0.9
				s0.7,0.8,0.7,1c0,0.4-0.3,1.1-0.9,1.8H320c-0.9-1.1-2-1.7-3.4-1.7c-1.1,0-2,0.3-2.6,0.9c-0.6,0.7-0.8,1.6-0.8,2.9v2.3h5.9v2.6
				h-5.9v13.9h-3v-18H310.3z"/>
			<path class="st1" d="M327.9,400.6c0.1,1.8,0.6,3.2,1.4,4.2s2.1,1.4,3.8,1.4c1.9,0,3.4-0.7,4.7-2c0.3,0.3,0.6,0.7,0.7,1.1
				c0.1,0.4,0.3,0.7,0.3,0.9c0,0.4-0.2,0.8-0.8,1.2c-1.2,0.9-3,1.4-5.1,1.4c-2.6,0-4.6-0.8-5.9-2.3s-2.1-3.8-2.1-6.7
				c0-1.8,0.3-3.3,1-4.6c0.7-1.2,1.6-2.2,2.7-2.9c1.1-0.7,2.4-1,3.9-1s2.7,0.3,3.7,0.9s1.8,1.4,2.3,2.6c0.6,1.1,0.8,2.3,0.8,3.8
				c0,0.9,0,1.6-0.1,2L327.9,400.6L327.9,400.6z M336.1,398.4c0-3-1.3-4.4-3.9-4.4c-1.2,0-2.2,0.4-3,1.2c-0.8,0.8-1.2,1.9-1.3,3.2
				H336.1z M333.8,385.1c0.3-0.4,0.7-0.8,1-1c0.2-0.1,0.6-0.2,0.9-0.2s0.7,0.1,1,0.2c0.3,0.1,0.7,0.3,1,0.6l-3.6,3.8
				c-0.6,0.7-1.2,1-1.8,1c-0.4,0-1-0.2-1.4-0.6L333.8,385.1L333.8,385.1z"/>
			<path class="st1" d="M363.8,390.5l-4.4,2.3c-0.6-0.7-0.9-1.2-0.9-1.7c0-0.2,0.1-0.4,0.2-0.6s0.3-0.3,0.6-0.4l4.1-2.3
				c0.8-0.4,1.4-0.8,2-0.8c0.2,0,0.6,0,0.8,0.1c0.2,0.1,0.4,0.2,0.6,0.3v20.8h-2.8L363.8,390.5L363.8,390.5z"/>
			<path class="st1" d="M377.8,395.3c-0.6-0.9-0.8-1.8-0.8-2.7c0-1.1,0.3-2.1,0.9-3s1.4-1.4,2.4-2c1-0.4,2.1-0.7,3.3-0.7
				c2,0,3.6,0.4,4.8,1.4c1.2,1,1.8,2.3,1.8,4c0,1-0.2,1.9-0.8,2.8c-0.6,0.8-1.3,1.4-2.2,2c1.1,0.3,2,1.1,2.7,2.1s1,2.1,1,3.3
				c0,2-0.7,3.6-2,4.7c-1.3,1.1-3.1,1.7-5.3,1.7c-2.3,0-4.1-0.6-5.4-1.7c-1.2-1.1-1.9-2.6-1.9-4.6c0-1.1,0.3-2.2,1.1-3.2
				c0.7-1,1.6-1.8,2.7-2.2C379.1,396.7,378.3,396.1,377.8,395.3L377.8,395.3z M380.3,405.5c0.9,0.7,2,1,3.3,1c1.3,0,2.4-0.3,3.3-1.1
				c0.8-0.8,1.2-1.8,1.2-3c0-1.2-0.4-2.2-1.2-3c-0.8-0.8-1.9-1.1-3.3-1.1c-1.3,0-2.4,0.3-3.3,1.1c-0.9,0.8-1.2,1.8-1.2,3
				C379.1,403.9,379.6,404.9,380.3,405.5L380.3,405.5z M380.9,395.1c0.8,0.7,1.7,1,2.8,1s2-0.3,2.8-1c0.8-0.7,1.1-1.4,1.1-2.4
				c0-1-0.3-1.9-1.1-2.4c-0.8-0.6-1.7-0.9-2.8-0.9s-2.1,0.3-2.8,0.9s-1.1,1.4-1.1,2.4C379.8,393.5,380.1,394.4,380.9,395.1
				L380.9,395.1z"/>
			<path class="st1" d="M397.1,400.6l8.6-11.9c0.4-0.7,0.9-1.1,1.2-1.3c0.3-0.2,0.7-0.3,1.1-0.3s0.9,0.1,1.2,0.3v13.1h1
				c1,0,1.6,0.4,1.6,1.4c0,0.1,0,0.2,0,0.3c0,0.1,0,0.2,0,0.3v0.1v0.1h-2.4v5.6h-2.9v-5.6h-9.3V400.6L397.1,400.6z M406.5,400.5
				v-9.2l-6.7,9.2H406.5z"/>
			<path class="st1" d="M429.4,389.8h-10.7v-0.1v-0.1c0-0.1,0-0.3,0-0.6c0-0.6,0.2-1,0.6-1.2c0.3-0.3,0.8-0.4,1.4-0.4h10.8
				c0.4,0,0.8,0.1,1,0.2c0.2,0.1,0.2,0.4,0.2,0.9v0.8l-9.1,19.2h-3L429.4,389.8L429.4,389.8z"/>
		</g>
		<path class="st1" d="M331.2,331L331.2,331c-0.3,0-0.4-0.2-0.4-0.4c0.2-1.8,0.1-11.3,0-13.3c-0.1-2.1,0.4-3.6,0.4-3.6s0,0,0-0.1
			c0.1-0.2,0.2-0.4,0.3-0.6c-0.3-0.2-0.6-0.6-0.6-0.9l0,0c-0.3-0.2-0.4-0.7-0.3-1.4c0-0.3-0.3-2.8-0.3-5.9c0-5.9,2.2-10.3,2.2-10.5
			c3.2-6,6.9-9.5,16.3-9.6c4.6-0.1,9.2,1.1,13.1,3.3c3.6,2.1,6.2,5,7.3,7.9c1.7,4.4,2,8,1,12.5c-0.1,0.3-0.2,0.7-0.4,1.1
			c0.1,0.1,0.2,0.3,0.3,0.6c1.3,2.4,0.3,7.6-0.8,8.8c-0.4,0.4-0.7,1.1-1,1.8c-0.6,1.4-1.3,3-3.3,3.1c-1,0-1.6-0.4-1.8-0.9
			c-0.9-1.3-0.1-4,0.2-4.6c0.2-0.4,0.7-0.7,1-0.9c0.3-0.2,0.7-0.3,0.9-0.8c0.1-0.2,0.1-0.3,0-0.7c-0.2-0.3-0.4-0.9-0.1-1.8
			c0.2-0.7,1-1.6,1.8-2.7c0.6-0.7,1.1-1.3,1.4-2c-0.2-0.1-0.6-0.1-0.9,0c-4,0.7-10.8,4.6-10.9,4.7c-0.1,0.1-0.2,0.1-0.3,0
			c0,0-0.8-0.2-1.8-0.4c0,0.2-0.1,0.3-0.1,0.6c-0.3,1.2-1,2.1-2.1,2.8c-0.2,0.1-0.4,0-0.7-0.1c-0.1-0.2,0-0.4,0.1-0.7
			c0.9-0.4,1.4-1.2,1.7-2.2c0-0.2,0.1-0.3,0.1-0.6c-0.1,0-0.2,0-0.3-0.1c0,0.2-0.1,0.4-0.2,0.7c0,0.1-0.1,0.1-0.1,0.2
			c-0.6,1.1-1.9,3.4-6.4,2.3c-1.6-0.3-2.6-1.7-2.6-3.4c0-1.8,1.1-3.9,3.2-4.3c3.2-0.8,5.9,0.6,6.9,2c0.2,0.4,0.4,1.1,0.6,1.9
			c0.8,0.2,1.4,0.3,1.8,0.4c1.1-0.7,7.2-4,11-4.7c0.6-0.1,1.1,0,1.6,0.1c0.1-0.2,0.2-0.6,0.3-0.8c1-4.3,0.8-7.6-0.9-12
			c-2-5.3-9.9-10.9-19.6-10.7c-9,0.1-12.5,3.3-15.6,9.1c0,0-2.2,4.3-2.1,10.1c0,3.2,0.3,5.8,0.3,5.8v0.1c0,0.4,0,0.6,0,0.7h0.1
			c0.1,0.1,0.2,0.2,0.2,0.3c0,0.2,0.1,0.4,0.3,0.6c1-1.1,2.3-2,3.8-1.9c0.7,0.1,1.1,0.3,1.3,0.7c0.7,0.3,1.2,0.8,1.2,1.3
			c0,0.3,0,1-1.2,1.3c-1.7,0.4-3.7,0.3-5-0.2c-0.1,0.2-0.2,0.3-0.3,0.6c-0.1,0.2-0.4,1.4-0.3,3.2c0.1,2,0.2,11.6,0,13.5
			C331.6,330.9,331.4,331,331.2,331L331.2,331z M369.3,310.3c-0.4,0.7-1,1.3-1.4,2c-0.8,0.9-1.4,1.9-1.7,2.3c-0.2,0.6-0.1,0.8,0.1,1
			c0.1,0.3,0.3,0.8,0,1.4c-0.3,0.6-0.9,0.9-1.2,1.1c-0.3,0.2-0.6,0.3-0.7,0.6c-0.2,0.6-0.9,2.7-0.2,3.7c0.1,0.2,0.3,0.4,1,0.4
			c1.4,0,2-1.2,2.6-2.6c0.3-0.7,0.7-1.4,1.1-2c0.9-1,1.8-5.8,0.7-7.8C369.5,310.5,369.3,310.3,369.3,310.3L369.3,310.3z
			 M349.3,309.7c-0.6,0-1.1,0.1-1.7,0.2c-1.7,0.3-2.6,2-2.6,3.4c0,1.3,0.7,2.3,1.9,2.6c4,0.9,4.9-0.9,5.4-1.9c0-0.1,0.1-0.1,0.1-0.2
			c0.1-0.1,0.1-0.2,0.1-0.3c-0.1,0-0.1,0-0.2,0c-0.2,0-0.7,0-1.1,0.1c-2.1,0.2-5.1,0.4-5.4-1.1c-0.1-0.4,0.1-0.9,0.4-1.2
			c0.3-0.3,1.4-1.2,3.8-0.9c0.4,0.1,0.8,0.2,1.1,0.6c0.3,0.1,0.7,0.2,0.9,0.3c0.7,0.4,1.1,1,1.3,1.6c0.1,0,0.2,0,0.3,0.1
			c0-0.6-0.2-1-0.3-1.2C352.9,310.5,351.3,309.7,349.3,309.7L349.3,309.7z M333,312.7c0.7,0.2,1.6,0.4,2.4,0.3
			c-0.7-0.1-0.9-0.7-0.9-1.1c0-0.2,0.1-0.4,0.2-0.6C334.2,311.7,333.5,312.1,333,312.7z M337.4,312.1c0,0.1-0.1,0.2-0.2,0.3
			c-0.1,0.1-0.3,0.3-0.4,0.4c0.1,0,0.2-0.1,0.4-0.1c0.4-0.1,0.6-0.2,0.6-0.3C337.7,312.3,337.7,312.2,337.4,312.1L337.4,312.1z
			 M349.1,311.1c-1,0-1.7,0.3-2,0.7c-0.1,0.1-0.2,0.3-0.2,0.4c0.1,0.6,1.3,0.6,2.4,0.6c-0.2-0.2-0.4-0.4-0.6-0.8
			C348.8,311.7,348.9,311.3,349.1,311.1z M351.7,311.8c0,0.3-0.2,0.7-0.4,0.9h0.1c0.6,0,0.9-0.1,1.2-0.1c-0.2-0.3-0.6-0.6-0.8-0.7
			C351.8,311.9,351.7,311.9,351.7,311.8L351.7,311.8z M336.1,311.7c-0.3,0-0.6,0.2-0.6,0.4c0,0,0,0.1,0.1,0.1c0.3,0,0.7,0,0.9-0.2
			c0-0.1,0.1-0.1,0.1-0.2C336.5,311.7,336.3,311.7,336.1,311.7L336.1,311.7L336.1,311.7z M350.4,311.6c-0.2,0-0.6,0-0.7,0.1
			c-0.1,0-0.1,0.1-0.1,0.2s0.2,0.2,0.3,0.2c0.2,0.1,0.4,0,0.6-0.1c0.1-0.1,0.2-0.3,0.2-0.4C350.7,311.6,350.5,311.6,350.4,311.6z
			 M331.3,311.3L331.3,311.3L331.3,311.3z"/>
		<path class="st1" d="M341.4,340.4c-1.2,0-2.2-0.2-2.9-1c-1-1-1.2-2.1-1.3-3.2c-0.1-0.6-0.1-1-0.3-1.4c-0.4-1.3-0.3-2.3,0.1-3.2
			c0.7-1,1.9-1.6,3.8-1.7c3.4-0.3,4.9,0.9,5,1.8c0,0.3,0,0.7-0.2,0.9c-0.7,0.8-2.4,0.9-3.4,0.9c-1.9,0-3-0.7-3.1-0.7
			c-0.2-0.1-0.3-0.4-0.2-0.6c0.1-0.2,0.4-0.3,0.6-0.2c0,0,1,0.6,2.7,0.6c1.3,0,2.4-0.2,2.7-0.6c0-0.1,0.1-0.1,0-0.1
			c0-0.3-1.1-1.2-4-1c-1.6,0.1-2.7,0.6-3.1,1.3c-0.3,0.6-0.4,1.3-0.1,2.4c0.2,0.6,0.2,1.1,0.3,1.7c0.1,1,0.2,1.9,1.1,2.8
			c1.2,1.2,4.4,0.8,6.6-0.4c1.7-0.9,3.8-5,5.3-8.1c0.3-0.8,0.8-1.4,1.1-2.1c0.4-0.9,1.6-2.2,2.9-3.7c1.7-1.9,3.4-4,4.7-6.1
			c0.8-1.2,1.2-3.1,1.3-5.2l0,0c0-0.2,0-0.6,0-0.9c0.1-2.8,0.2-5.8,0.4-6.6c0.1-0.3,0.2-0.8,0.6-1.3c0.4-1,1-2.3,1.2-3.9
			c0-0.2,0-0.4,0.1-0.7c0.2-2.1,0.6-3.9-2.3-7.6c-3-3.9-6.2-4.1-9.6-4.2h-0.4c-1.9-0.1-2.9,0.3-3.7,0.7c-0.8,0.3-1.3,0.6-2.2,0.2
			c-1.2-0.6-1.8-0.7-3.8-0.3c-1.2,0.2-2.6,1.1-2.6,1.1c-0.2,0.1-0.4,0.1-0.7-0.1c-0.1-0.2-0.1-0.4,0.1-0.7c0.1,0,1.4-1,2.9-1.3
			c2.1-0.4,2.8-0.3,4.3,0.3c0.4,0.2,0.8,0.1,1.4-0.2c0.9-0.3,2-0.8,4.1-0.7h0.3c3.4,0.2,7,0.4,10.2,4.7c3.1,4,2.8,6.1,2.6,8.2
			c0,0.2,0,0.4-0.1,0.7c-0.2,1.7-0.8,3.1-1.2,4.1c-0.2,0.4-0.3,0.9-0.4,1.1c-0.2,0.8-0.3,4.6-0.4,6.3c0,0.4,0,0.8,0,1l0,0
			c-0.1,1.3-0.3,3.8-1.4,5.6c-1.3,2.1-3.1,4.3-4.8,6.2c-1.2,1.4-2.3,2.7-2.8,3.6c-0.3,0.6-0.7,1.3-1.1,2c-1.7,3.3-3.8,7.4-5.7,8.5
			C344.9,339.8,343.1,340.4,341.4,340.4L341.4,340.4z"/>
		<path class="st1" d="M364.3,360c-0.1,0-0.1,0-0.2-0.1c-0.2-0.1-0.3-0.4-0.1-0.7c5.1-8.8,13-12.7,15.3-13.7
			c-4-3.6-11.6-16.1-13.6-19.5c-1.2,3.1-4.9,11.9-6.7,15.5c-2.3,4.8-9.9,9.2-16.1,9.5c-6.2,0.2-11.3-4.6-12.6-8.1
			c-0.9-2.4-1.2-4.6-1.2-7c-0.6,1.9-0.6,4.7,1.2,8.3c0.1,0.1,0,0.3-0.1,0.4s-2.4,2.9-7.1,6.4c1.4,0.8,4.8,2.8,7.7,5.8
			c0.2,0.2,0.1,0.4,0,0.7c-0.2,0.2-0.4,0.1-0.7,0c-3.4-3.7-8-5.9-8-5.9c-0.1-0.1-0.2-0.2-0.2-0.3c0-0.1,0-0.3,0.2-0.4
			c4.2-3.1,6.7-5.8,7.4-6.4c-2.4-5.3-1.4-8.8-0.1-10.8c0.2-2.4,2.2-3.7,4.1-4.7c0.9-0.4,1.7-1,2.2-1.4c1.7-1.8,3.9-2.6,5.4-2
			c0.4,0,0.8-0.1,1.1-0.2c0.9-0.2,1.6-0.3,3.2,0.4c1.2,0.6,2.3,1.4,3.4,2.4c1.9,1.6,4,3.2,6.7,3.4c0.2,0,0.3,0.1,0.4,0.3
			c0.1,0.2,0,0.3-0.1,0.4c-0.1,0.1-2.1,1.9-4.6,1.3c-2-0.4-3.1-1.1-4.3-1.9c-0.8-0.6-1.6-1-2.6-1.4c-0.9-0.3-1.4-0.6-1.9-0.7
			c-0.2-0.1-0.4-0.1-0.7-0.2c-0.1-0.1-0.2-0.1-0.3-0.2c-0.6,0.4-2.2,1.3-3.7,1.9c-0.7,0.2-1.3,0.4-2,0.8c-1.2,0.4-2.3,0.9-3.2,1
			c-1.1,0.2-1.8,0.6-2.2,1.1c-0.2,3.3,0.1,5.7,1.1,8.8c1.1,3.2,5.9,7.8,11.7,7.6c5.9-0.2,13.2-4.6,15.3-9c2-4,6.4-14.8,6.9-16.2
			c0.1-0.2,0.2-0.3,0.3-0.3c0.2,0,0.3,0.1,0.4,0.2c0.1,0.2,10.3,17.6,14.5,20.6c0.1,0.1,0.2,0.2,0.2,0.4c0,0.1-0.1,0.3-0.3,0.3
			c-0.1,0-9.8,3.6-15.6,13.6C364.6,360,364.4,360,364.3,360L364.3,360z M341.2,328.1c0.2,0,0.4,0.1,0.6,0.2l0.1,0.1
			c0.2,0.1,0.3,0.1,0.7,0.2c0.4,0.1,1.1,0.3,2,0.8c1.1,0.4,2,1,2.8,1.6c1.1,0.8,2.1,1.4,4,1.8c1.1,0.2,2.1-0.1,2.9-0.6
			c-2.3-0.6-4.2-2.1-5.9-3.4c-1.1-0.9-2.2-1.8-3.3-2.3c-1.4-0.7-1.9-0.6-2.7-0.3c-0.3,0.1-0.8,0.2-1.3,0.2c-0.1,0-0.1,0-0.2,0
			c-1-0.4-3,0.1-4.6,1.8c-0.6,0.7-1.4,1.1-2.4,1.7c-1.3,0.8-2.7,1.4-3.2,2.8c0.6-0.3,1.2-0.4,1.8-0.6c0.8-0.1,1.9-0.6,3.1-1
			c0.7-0.2,1.3-0.6,2.1-0.8c1.6-0.6,3.2-1.6,3.6-1.8C341,328.1,341.1,328.1,341.2,328.1z"/>
		<path class="st1" d="M340.4,324.7c-0.6,0-1.1-0.3-1.7-0.6c-0.1-0.1-0.2-0.1-0.4-0.2c-1.2-0.7-1.8-1.8-1.2-2.8
			c0.3-0.7,0.9-1.8,1-2.8c0-0.1,0-0.6,0.1-1.1c-1.3,0.3-2.8,0.4-3.3,0.4c-2,0-3.2-0.4-4.1-1.3c-0.8-0.8-1.1-1.9-1-3.3
			c0.1-2.8,2.3-4.3,6.1-4.2c1.3,0,2.4,0.4,3.1,1.2c0.4,0.4,0.7,1,0.8,1.7c0.3-0.2,0.8-0.3,1.2-0.4c1-0.2,2.6,0.1,3.3,0.7
			c0.3,0.2,0.6,0.6,0.6,0.9c0,0.2-0.1,0.4-0.3,0.6c-0.2,0-0.4-0.1-0.6-0.3c0-0.1-0.1-0.2-0.2-0.3c-0.6-0.4-1.9-0.7-2.7-0.6
			c-0.9,0.1-1.4,0.8-1.4,0.8c-0.1,0.1-0.3,0.1-0.4,0.1c-0.2-0.1-0.2-0.2-0.2-0.4c0-0.8-0.2-1.3-0.6-1.9c-0.6-0.6-1.4-0.9-2.6-1
			c-1.9-0.1-5.1,0.2-5.2,3.3c0,1.2,0.2,2.1,0.8,2.8c0.7,0.7,1.8,1,3.4,1c1.3,0,2.6-0.1,3.4-0.4c0.1-0.7,0.1-1.3,0.2-1.8
			c0.1-0.4,0.4-0.8,0.9-0.8s1,0.2,1.2,0.7c0.1,0.2,0.3,1-0.6,1.9c-0.2,0.2-0.6,0.4-0.9,0.7c-0.1,0.8-0.1,1.4-0.1,1.6l0,0
			c-0.2,1.1-0.8,2.3-1.1,3c-0.3,0.7,0.1,1.3,0.8,1.7c0.1,0.1,0.2,0.1,0.4,0.2c0.8,0.4,1.2,0.7,1.7,0.3c0.7-0.4,1.3-0.3,1.9-0.3
			c0.1,0,0.2,0,0.3,0c0.4,0,1.1,0,2-0.7c0.3-0.2,0.4-0.7,0.3-1.2c0-0.2-0.2-0.9-1-1.1c-0.2-0.1-0.3-0.3-0.3-0.6
			c0-0.2,0.3-0.3,0.6-0.3c0.9,0.2,1.4,0.9,1.6,1.8c0.1,0.9-0.1,1.7-0.8,2.1c-0.9,0.7-1.7,0.9-2.6,0.8c-0.1,0-0.2,0-0.3,0
			c-0.4-0.1-0.9-0.1-1.2,0.1C341.1,324.6,340.8,324.7,340.4,324.7L340.4,324.7z M339.5,314.6L339.5,314.6c0,0-0.1,0-0.1,0.1
			c-0.1,0.3-0.1,0.7-0.1,1.1c0.1,0,0.1-0.1,0.2-0.2c0.3-0.3,0.4-0.7,0.3-0.9C339.8,314.6,339.7,314.6,339.5,314.6L339.5,314.6z"/>
		<path class="st1" d="M334.4,364.4c-0.1,0-0.3,0-0.4-0.1l-16-9.2c-0.3-0.1-0.4-0.4-0.4-0.8v-63.2c0-0.3,0.2-0.7,0.4-0.8l31.9-18.5
			c0.3-0.1,0.7-0.1,0.9,0l9.8,5.7c0.4,0.2,0.6,0.8,0.3,1.2c-0.2,0.4-0.8,0.6-1.2,0.3l-9.3-5.4l-31,17.9v62l15.6,9
			c0.4,0.2,0.6,0.8,0.3,1.2C335.1,364.3,334.8,364.4,334.4,364.4L334.4,364.4z"/>
		<path class="st1" d="M350.3,373.6c-0.1,0-0.3,0-0.4-0.1l-5.1-3c-0.4-0.2-0.6-0.8-0.3-1.2c0.2-0.4,0.8-0.6,1.2-0.3l4.7,2.7l31-17.9
			v-62l-7.9-4.6c-0.4-0.2-0.6-0.8-0.3-1.2c0.2-0.4,0.8-0.6,1.2-0.3l8.3,4.8c0.3,0.1,0.4,0.4,0.4,0.8v63.2c0,0.3-0.2,0.7-0.4,0.8
			l-31.9,18.5C350.7,373.6,350.5,373.6,350.3,373.6L350.3,373.6z"/>
		<path class="st1" d="M341.3,368.4c-0.1,0-0.3,0-0.4-0.1l-3.6-2.1c-0.4-0.2-0.6-0.8-0.3-1.2c0.2-0.4,0.8-0.6,1.2-0.3l3.6,2.1
			c0.4,0.2,0.6,0.8,0.3,1.2C342,368.3,341.7,368.4,341.3,368.4z"/>
	</g>
</g>
<g>
	<g>
		<path class="st1" d="M513.9,581.3v0.7c0,13,0,25.9,0,38.9c0,2.1,1,4,3,5.7c0.4,0.4,1,0.5,1.3,0.8c0.2,0.1,0.4,0.2,0.5,0.5
			l-0.1,0.1h-27.4c0.1-0.2,0.1-0.4,0.4-0.5c2.4-1.1,3.6-2.7,4.2-4.6c0.2-0.6,0.2-1.3,0.2-1.9c0-7.6,0-15.2,0-22.9
			c0-1.1-0.1-2.1-0.5-3.2c-0.7-2.1-2.7-3.5-5.8-3.7c-0.7,0-1.4-0.1-2.3-0.1c-0.1-0.4,0-0.5,0.4-0.6c8.8-2.4,17.3-5.2,25.2-9
			C513.3,581.6,513.5,581.4,513.9,581.3L513.9,581.3z"/>
		<path class="st1" d="M629.6,627.9h-23c0.2-1.2,0.4-2.4,0.6-3.6c1.2-5.1,3.5-9.8,5.8-14.4c5.4-10.1,12.1-19.3,19.6-27.9
			c3.2-3.7,6.5-7.1,9.9-10.7c0.1-0.2,0.4-0.4,0.6-0.6c-0.4,0-0.6,0-0.8,0c-9.4,0-18.9,0-28.3,0.1c-1.9,0-3.9,0.1-5.8,0.4
			c-2.9,0.4-5,1.8-6.5,4.2c-0.1,0.2-0.5,0.5-0.6,0.6c-0.1,0-0.1-0.1-0.2-0.1c1.8-6.1,3.5-12.3,5.2-18.2h46.7
			c-0.2,0.6-0.4,1.1-0.6,1.4c-3.8,6.2-7.9,12.4-11.5,18.7c-4,7-7,14.5-8.5,22.5c-0.7,3.9-1.3,8-1.5,12c-0.4,5-0.5,10.1-0.7,15.1
			C629.7,627.6,629.6,627.7,629.6,627.9L629.6,627.9z"/>
		<g>
			<path class="st1" d="M505.9,573c0.6,0.6,1,1,1,1.4c0,0.2-0.2,0.6-0.7,1.1c-0.7,0.6-1.5,1.1-2.5,1.4s-2,0.5-3.1,0.5
				c-1.8,0-3.5-0.4-4.8-1.2c-1.4-0.8-2.4-1.9-3.1-3.5c-0.7-1.5-1.1-3.3-1.1-5.6c0-2.1,0.4-3.9,1.2-5.5c0.8-1.5,1.9-2.6,3.3-3.5
				c1.4-0.8,3-1.2,4.5-1.2c2.3,0,4.2,0.6,5.6,1.8c0.5,0.4,0.7,0.8,0.7,1.2c0,0.4-0.2,0.8-0.7,1.5h-0.4c-1.2-1.7-3-2.5-5.2-2.5
				c-2.1,0-3.7,0.7-4.9,2.1c-1.2,1.4-1.7,3.5-1.7,6c0,2.6,0.6,4.6,1.7,6.1c1.2,1.4,2.7,2.1,4.9,2.1c1.4,0,2.7-0.4,3.9-1.2
				C505.1,573.8,505.4,573.5,505.9,573L505.9,573z"/>
			<path class="st1" d="M527.4,576.8c-0.6,0.1-1.1,0.2-1.5,0.2c-1,0-1.7-0.2-2.3-0.7c-0.6-0.5-0.8-1.1-1-1.9c-1.9,1.9-4,2.7-6.8,2.7
				c-1.9,0-3.3-0.5-4.4-1.4c-1.1-1-1.7-2.4-1.7-4.2c0-1.4,0.5-2.7,1.3-3.7c0.8-1,2.1-1.8,3.8-2.4c1.7-0.6,3.6-0.8,5.7-0.8
				c0.4,0,0.6,0,1,0c0.4,0,0.6,0,1,0.1v-1c0-1.7-0.4-2.9-1.2-3.6c-0.7-0.7-2-1.1-3.7-1.1c-1.1,0-2.1,0.1-3.2,0.5
				c-1,0.4-1.9,0.7-2.6,1.3h-0.4c-0.4-0.6-0.6-1-0.6-1.4c0-0.4,0.4-0.7,1.1-1.1c0.7-0.4,1.5-0.7,2.6-1c1.1-0.2,2.1-0.4,3.2-0.4
				c2.5,0,4.3,0.6,5.4,1.7c1.1,1.1,1.7,2.9,1.7,5.5v8.3c0,0.8,0,1.4,0.1,1.9s0.4,0.8,0.6,1.1c0.2,0.2,0.8,0.4,1.5,0.5L527.4,576.8
				L527.4,576.8z M522.8,566.4c-0.1,0-0.4,0-0.5,0h-0.6c-6.2,0-9.3,1.7-9.3,5c0,1.2,0.4,2.1,1.1,2.7c0.7,0.7,1.7,1,3,1
				c1.1,0,2-0.2,3-0.6s1.8-0.8,2.4-1.4c0.6-0.6,1-1,1-1.3V566.4L522.8,566.4z"/>
			<path class="st1" d="M542,559.8c-0.5-0.7-1.2-1.3-1.9-1.7c-0.7-0.4-1.5-0.5-2.5-0.5c-1.3,0-2.3,0.2-3,0.8
				c-0.7,0.6-1.2,1.4-1.4,2.6c-0.1,0.5-0.1,1.1-0.1,1.8v3.2h7.3v1.9H533v8.7h-2.4v-13.1c0-0.8,0-1.5,0.1-2.1
				c0.6-3.8,2.9-5.7,6.7-5.7c2,0,3.6,0.5,4.6,1.4c0.5,0.4,0.7,0.8,0.7,1.2c0,0.1,0,0.4-0.1,0.5c-0.1,0.2-0.2,0.5-0.6,0.8H542V559.8z
				"/>
			<path class="st1" d="M560.8,574.4c0,0.4-0.4,0.8-1.1,1.4c-0.7,0.5-1.5,1-2.5,1.2s-2,0.4-3,0.4c-3,0-5.2-0.8-6.8-2.6
				c-1.5-1.8-2.4-4.4-2.4-7.7c0-2,0.4-3.8,1.1-5.4c0.7-1.5,1.8-2.6,3.1-3.5c1.3-0.8,2.9-1.2,4.5-1.2c2.4,0,4.3,0.7,5.6,2.3
				c1.3,1.5,2,3.6,2,6.1c0,0.7,0,1.4-0.1,2.1h-13.6c0,2.5,0.6,4.5,1.8,5.8s2.7,2,4.9,2c1.3,0,2.4-0.2,3.5-0.7s1.8-1.1,2.3-1.8
				C560.4,573.6,560.8,574.1,560.8,574.4L560.8,574.4z M558.9,565.7c0-4.5-1.8-6.8-5.5-6.8c-1.8,0-3.2,0.6-4.3,1.8
				c-1.1,1.2-1.5,2.9-1.7,5H558.9z M554.9,554.5c-0.4,0.4-0.8,0.6-1.4,0.6c-0.2,0-0.5,0-0.7-0.1c-0.2-0.1-0.5-0.1-0.6-0.2l3.6-4.5
				c0.5-0.6,0.8-1,1.1-1.1c0.2-0.1,0.5-0.2,0.8-0.2c0.6,0,1.3,0.2,1.9,0.7L554.9,554.5L554.9,554.5z"/>
		</g>
		<path class="st1" d="M561,607.4h-6.5c0.8-1,1.7-1.9,2.5-2.9c-1.4-0.7-3-1.4-4.5-2c-1-0.4-2-0.7-3.1-1.2c0.4-0.1,0.7-0.2,1-0.4
			c2.4-0.8,4.9-1.7,7-2.9c4.4-2.5,5.6-6.7,2.6-10.2c-1.4-1.8-3.6-3.1-6.1-3.9c-3.3-1.2-6.9-1.7-10.5-1.8c-4.3-0.1-8.5,0.1-12.6,1.1
			c-3.8,1-6.9,2.5-9.2,5.1c-4.4,5.1-2.7,12.1,3.7,16.2c1.4,0.8,3,1.7,4.5,2.4c-0.1,0-0.2,0.1-0.5,0.1c-3.3,0.8-6.3,2.3-8.9,4.2
			c-4.3,3.2-5,7.7-1.7,11.4c1.9,2.1,4.6,3.3,7.7,4.3c3.2,0.8,6.4,1.3,9.9,1.4c5,0.2,9.9,0,14.6-1.2c3.7-0.8,6.9-2.3,9.3-4.5
			c2.4-2.1,3.5-4.6,3.6-7.4C564.2,612.4,563.4,609.8,561,607.4L561,607.4z M536,583.9c3.1-1.2,6.3-1.3,9.4,0c1.8,0.7,2.6,2,3.2,3.3
			c1.1,2.5,1.2,5.1,1,7.6c-0.1,1.8-0.6,3.6-1.4,5.2c-0.1,0.1-0.1,0.4-0.2,0.5c-0.4-0.1-0.6-0.2-0.8-0.4c-3.3-1.2-6.7-2.5-10-3.7
			c-2.1-0.8-3.9-1.9-5-3.6C530.2,590,532,585.5,536,583.9z M547.1,626c-2,1.2-4.4,1.5-6.9,1.5c-4.9-0.1-8.3-2-9.9-5.5
			c-0.8-1.8-1.1-3.7-1.1-5.6c0-2.4,0-4.9,0.7-7.3c0.2-0.6,0.6-1.2,1-1.8c2.4,1,4.5,1.9,6.8,2.9c2.5,1.1,5.1,2.1,7.6,3.3
			c2.3,1.1,3.9,2.4,4.8,4.3C551.2,620.4,549.8,624.3,547.1,626L547.1,626z"/>
		<path class="st1" d="M604.9,609.2v-1.8h-8.1v-50.9c-0.7,0.2-1.4-0.2-2,0.5c-14.2,16.8-28.3,33.6-42.5,50.2
			c-0.5,0.6-0.6,1.2-0.5,1.9h24.4c0,2.5,0,5,0,7.4c0,1.1,0,2.3-0.2,3.3c-0.7,3-2,5.6-4.8,7.3c-0.2,0.1-0.2,0.5-0.4,0.7h31.4
			c-0.1-0.4-0.2-0.6-0.4-0.7c-2.9-1.7-4.4-4.4-4.8-7.5c-0.4-3.5-0.2-6.9-0.2-10.4c0,0,0-0.1,0.1-0.2L604.9,609.2L604.9,609.2z
			 M576.1,607.4h-21.7c7.3-8.6,14.4-17,21.7-25.6V607.4z"/>
	</g>
</g>
<g>
	<path class="st1" d="M146.8,609.7v-4.9h-16.1l22.1-36.5v53.3h4.9V551l-35.6,58.7H146.8z M46.7,557.5h4.7l-0.1,64.2h4.9l0.1-69.1
		h-9.6V557.5z M165.5,553.1v4.9h34.4l-38,63.7h5.7l40.9-68.5L165.5,553.1L165.5,553.1z M132.3,565.9c-0.8-12.5-11.6-22-24-21.2
		c-12.5,0.8-22,11.6-21.2,24c0.1,2.3,0.7,4.4,1.3,6.6c-12.6,1-23.6,10.3-26.1,23c-3.1,15.6,7,30.8,22.6,33.9
		c1.9,0.3,3.8,0.6,5.7,0.6c13.5,0,25.5-9.5,28.2-23.1c1.4-7,0.1-14.2-3.4-20.3C125.6,586.6,133,576.9,132.3,565.9L132.3,565.9z
		 M96.3,555.5c3.1-3.6,7.6-5.7,12.2-6c9.8-0.6,18.2,6.9,18.9,16.7c0.6,9.8-6.9,18.2-16.7,18.9c-4.8,0.2-9.3-1.3-12.9-4.4
		c-3.6-3.1-5.7-7.6-6-12.2C91.5,563.6,93.2,559,96.3,555.5L96.3,555.5z M114.1,608.7c-2.6,13-15.3,21.3-28.2,18.8
		c-6.2-1.2-11.7-4.9-15.2-10.2c-3.6-5.3-4.8-11.8-3.6-18c2.2-11.2,12.5-19.3,23.8-19.2c1.7,2.4,3.8,4.6,6.2,6.2l-3.2,5.7
		c-0.7,1.1-0.2,2.7,0.9,3.3c0.3,0.2,0.8,0.3,1.2,0.3c0.9,0,1.7-0.4,2.1-1.2l3.3-5.8c2.6,1,5.3,1.6,8.2,1.6c0.1,0,0.3,0,0.4,0
		C114,595.4,115.4,602.2,114.1,608.7L114.1,608.7z M105.7,562.5c0.9,0.4,1.8,1,2.6,1.8c0.8,0.7,1.4,1.6,2,2.6c0,0.1,0.1,0.1,0.2,0.1
		l0,0c0.1,0,0.1,0,0.2-0.1c0.4-2.1,1.8-3.9,3.3-5.3c1.3-1.1-0.6-2.9-1.6-1.6c-0.8,1-1.2,2.1-1.7,3.3c-0.2,0.7-0.4,1.4-0.4,2.2
		c-0.7-1.9-1.9-3.4-3.3-4.8C105.5,559.5,104.2,561.7,105.7,562.5L105.7,562.5z M105.4,569.2c1.9,1.1,3.9,1.2,5.1,3.1
		c0.1,0.2,0.2,0.2,0.3,0c0.7-2,2.3-2.7,3.9-4c1.6-1.3,2.2-3.7,1.7-5.7c0-0.1-0.2-0.2-0.3,0c-0.8,1.2-1.4,2.2-2.2,3.3
		c-1,1.1-2.1,1.9-2.9,3.1c-0.2,0.3-0.3,0.8-0.4,1.1c-0.2-0.3-0.4-0.8-0.7-1.1c-0.9-0.9-2-1.3-3.1-2c-1.3-0.8-2.2-1.8-3.4-2.9
		c-0.1-0.1-0.3,0-0.3,0.1C102.6,566.3,103.7,568.2,105.4,569.2L105.4,569.2z M106.1,577.8c1.8,0.4,3.7,0.6,5.3,0.3
		c2.8-0.3,5.2-1.6,6.6-2.6c1.4-1.1,2.4-2.9,3.1-4.6c1.2-3.1,0.4-7-2-9.3c-0.1-0.1-0.3,0-0.3,0.2c0.7,3.4,0.6,6.9-1.9,9.6
		c-1.7,1.8-5,3.3-5.6,5.9c-1.3-2.3-5.1-2.8-7.1-4.2c-3.1-1.8-3.7-5.2-3.9-8.8c-0.3-1-1.3,2.1-1.3,2.4c-0.2,0.9-0.2,1.8-0.1,2.8
		C99,573.4,102.4,576.9,106.1,577.8z M109.9,560.2c0,0,0-0.9,1.2-2.4c1.1-1.3-1.1-2.6-2-0.6c-0.6-1.9-2.1-0.8-2,0
		C107.3,558.6,108.4,558.5,109.9,560.2L109.9,560.2z"/>
</g>
<g>
	<g>
		<path class="st1" d="M337.2,544.1c-0.9-0.7-1.8-1.2-2.7-1.9c-3.8-3.1-4.8-8.7-2.2-12.8c1.2-2,3.1-3.2,5.3-4c2.4-0.9,4.9-1,7.4-0.9
			c2.1,0.1,4.2,0.4,6.1,1.4c0.8,0.3,1.6,0.9,2.1,1.4c3.2,2.9,2.7,8.1-1,10.3c-1,0.7-2.1,1.1-3.2,1.7c-0.2,0.1-0.3,0.1-0.6,0.2
			c0.7,0.3,1.2,0.6,1.8,0.9c1.7,0.9,3.2,1.9,4.4,3.2c1.8,2,2.4,4.3,2.3,6.9c-0.1,2.1-0.8,4.1-2.1,5.9c-1.4,1.8-3.3,2.9-5.4,3.6
			c-2.8,0.9-5.7,1.1-8.6,1c-2-0.1-3.9-0.4-5.8-1.1c-1.8-0.7-3.4-1.7-4.6-3.3c-1.9-2.9-1.6-6.4,1-9c1.4-1.6,3.2-2.6,5.2-3.3
			C337,544.1,337.1,544.1,337.2,544.1L337.2,544.1z M338.2,544.6c-0.2-0.1-0.6,0-0.7,0.2c-0.1,0.3-0.2,0.7-0.3,1
			c-0.4,1.9-0.4,3.8-0.4,5.8c0,1.6,0.2,3,0.7,4.4c0.9,2.8,2.9,4.3,5.8,4.3c1.4,0,2.9-0.2,4-1.2c1.7-1.3,2.4-4.4,1.8-6.6
			c-0.4-1.4-1.6-2.6-2.8-3.3c-1.4-0.9-3-1.8-4.4-2.6C340.5,545.9,339.4,545.3,338.2,544.6L338.2,544.6z M347.8,539.1
			c0.1-0.2,0.1-0.3,0.1-0.4c0.4-1.3,0.8-2.8,0.8-4.1c0.1-2,0-4.1-0.6-6c-0.3-1.1-0.9-2.1-1.9-2.7c-1.8-1-3.8-1-5.6,0
			c-2.4,1.2-3.4,4.8-2.2,7.3c0.7,1.3,1.7,2.1,2.9,2.8c2,1,3.9,2,5.9,3C347.4,539,347.7,539.1,347.8,539.1z"/>
		<path class="st1" d="M325.1,524.5v1c0,17.3,0,42.6,0,59.9c0,3.4,1.8,4.8,3.2,5h0.1v0.9l-25.9,30.8c0,0,0.2-2.3,0.3-2.4
			c2.1-3.4,3.7-7.6,4.1-10c0.6-2.9,0.3-52.4,0.3-62.6c0-1.4-0.1-2.9-0.4-4.3c-0.7-2.9-2.8-4.6-5.8-4.9c-0.8-0.1-1.4-0.1-2.2-0.2
			c-0.1-0.4,0-0.6,0.4-0.8c8.8-3.1,17.1-7.1,25-12C324.5,524.7,324.8,524.6,325.1,524.5L325.1,524.5z"/>
		<path class="st1" d="M320.5,635.8h-20.7c-0.6,0-0.9-0.6-0.8-1c0.1-0.2,0.2-0.4,0.4-0.7c12.9-15.2,25.8-30.6,38.8-45.9
			c0.3-0.4,0.8-0.4,1.1-0.3c0.4,0,0.8,0.3,0.8,0.8v44.8c0,0.4,0.3,0.8,0.8,0.8h5.8c0.4,0,0.8,0.3,0.8,0.8l0,0c0,0.4-0.3,0.8-0.8,0.8
			h-6.4c-0.1,0.1-0.1,0.1-0.1,0.2c0.1,3.1-0.1,6.3,0.2,9.5c0.3,2.9,1.8,5.2,4.3,6.8c0.1,0.1,0.2,0.3,0.3,0.7h-28.7
			c0.1-0.2,0.2-0.6,0.3-0.7c2.4-1.6,3.8-3.9,4.3-6.6c0.2-1,0.2-2,0.2-3c0-2,0-3.9,0-6C321.3,636.1,321,635.8,320.5,635.8
			L320.5,635.8z M303.3,634.1h17.2c0.4,0,0.8-0.3,0.8-1.8v-20.5c0,0.2-0.9-0.1-1.4,0.4c-5.8,6.8-11.5,13.6-17.2,20.5
			C302.3,633.3,302.6,634.1,303.3,634.1z"/>
		<path class="st1" d="M372.5,652.8H345c-0.7,0-1.2-0.6-1.1-1.2c0.2-1.1,0.3-2.1,0.6-3.2c1.6-6.3,4.2-12.2,7.3-17.9
			c6.7-12.6,15.1-24,24.5-34.8c4-4.6,8.2-8.9,12.2-13.3c0.2-0.2,0.4-0.4,0.8-0.8c-0.4,0-0.7-0.1-1-0.1c-11.8,0-29,0-40.9,0.1
			c-2.4,0-4.7,0.1-7.2,0.2c-2.6,0.2-4.3,1.9-7.9,5.2h-1.1c-0.7,0-1.4-0.8-1.4-1.7l0.1-19.7c0.1-0.4,0.6-0.8,1-0.8h68.6
			c0.8,0,1.3,0.8,1,1.6c0,0.1-0.1,0.2-0.2,0.3c-4.8,7.8-9.8,15.5-14.3,23.2c-5.1,8.8-8.8,18.1-10.6,28.1c-0.9,5-1.6,10-2,15
			c-0.4,6.3-0.6,12.7-0.9,18.9C372.5,652.3,372.5,652.6,372.5,652.8L372.5,652.8z"/>
	</g>
</g>
<g>
	<g>
		<g>
			<path class="st1" d="M520.7,58.7c-0.3-0.4-0.8-0.7-1.1-0.9c-0.4-0.2-0.9-0.2-1.3-0.2c-1.1,0-1.9,0.3-2.4,1.1s-0.9,1.9-0.9,3.2
				c0,1.4,0.3,2.4,0.9,3.2c0.6,0.8,1.4,1.1,2.6,1.1c0.4,0,0.9-0.1,1.3-0.3c0.4-0.2,0.8-0.6,1.1-0.9c0.1,0.1,0.3,0.2,0.4,0.4
				c0.1,0.2,0.2,0.3,0.2,0.4c0,0.2-0.1,0.3-0.2,0.4c-0.3,0.3-0.8,0.6-1.3,0.8s-1.1,0.3-1.8,0.3c-1.6,0-2.7-0.4-3.6-1.4
				c-0.8-1-1.2-2.3-1.2-4.1c0-1.8,0.4-3.1,1.2-4.1c0.8-1,2-1.4,3.6-1.4c0.6,0,1.1,0.1,1.6,0.2c0.4,0.1,0.9,0.3,1.2,0.6
				c0.3,0.2,0.4,0.4,0.4,0.7s-0.1,0.4-0.4,0.9L520.7,58.7L520.7,58.7z"/>
			<path class="st1" d="M535.7,56.6c0.1,0,0.2-0.1,0.3-0.1s0.3,0,0.4,0c0.4,0,0.8,0.2,1,0.7l3.7,10.1h-1.4l-1.1-2.9h-4.3l-1,2.9
				h-1.4L535.7,56.6L535.7,56.6z M538.2,63.3l-1.8-5.1l-1.8,5.1H538.2L538.2,63.3z"/>
			<path class="st1" d="M551.9,56.5h6.2v0.1c0,0,0,0.1,0,0.2c0,0.6-0.3,0.9-1,0.9h-3.9V61h3.7v1.2h-3.7v5.1h-1.4
				C551.9,67.3,551.9,56.5,551.9,56.5z"/>
			<path class="st1" d="M568.9,56.5h6.2c0,0.1,0,0.2,0,0.3c0,0.6-0.3,0.9-1,0.9h-3.9v3.3h3.7v1.2h-3.7v3.8h4.1
				c0.3,0,0.6,0.1,0.8,0.2c0.2,0.1,0.2,0.3,0.2,0.7c0,0.1,0,0.2,0,0.3h-6.4V56.5L568.9,56.5z M572.9,54c0.2-0.1,0.3-0.2,0.4-0.3
				c0.1-0.1,0.2-0.1,0.3-0.1c0.2,0,0.3,0.1,0.6,0.2c0.2,0.1,0.3,0.2,0.4,0.4l-2,1.2c-0.3,0.2-0.6,0.3-0.8,0.3c-0.1,0-0.2,0-0.4-0.1
				c-0.1-0.1-0.3-0.2-0.3-0.3L572.9,54L572.9,54z"/>
		</g>
		<polygon class="st1" points="593.3,142.4 498.3,142.4 498.3,47.5 593.3,47.5 593.3,79.4 591.7,79.4 591.7,49.1 499.9,49.1 
			499.9,140.8 591.7,140.8 591.7,122 593.3,122 		"/>
		<path class="st1" d="M636.4,127.5h4.1v1.2h-14v-1.2h3.9c0.2-18.7,6.1-35.5,18.8-50.3c-0.3,0.1-0.4,0.2-0.7,0.2
			c-4.3,1.8-8.8,2.8-13.5,2.6c-2.7-0.1-5.3-0.4-8-0.8c-1.4-0.1-2.8-0.2-4.2-0.3c-1.7-0.1-2.8,0.7-3.6,1.9c-1,1.6-1.3,3.2-1.6,5
			c-0.1,0.7-0.1,1.3-0.1,2h-1.3V72.5h1.2c0.1,0.6,0.1,1.1,0.2,1.7c0.1,0.3,0.2,0.6,0.3,0.9c0.2,0.4,0.7,0.7,1.2,0.4
			c0.3-0.1,0.7-0.2,1-0.3c2.4-1.2,5-1.3,7.7-0.8c2.8,0.6,5.6,1.2,8.3,1.8c3.9,0.8,7.8,0.9,11.7-0.2c1.3-0.3,2.6-0.9,3.9-1.3
			c0.1,0.2,0.2,0.6,0.3,0.9c0,0.1-0.1,0.3-0.2,0.6c-1.7,2-3.3,4-4.9,6.1c-4.2,5.8-6.9,12.3-8.5,19.2c-1.3,6.1-1.9,12.2-2.2,18.5
			c-0.1,2.3-0.1,4.7-0.1,7.1C636.4,127,636.4,127.2,636.4,127.5L636.4,127.5z"/>
		<path class="st1" d="M520.5,127.5h4v1.2h-12.2v-1.2h3.9V79c-1.8,1.9-3.4,3.6-5.1,5.4c-0.3-0.3-0.6-0.6-0.9-0.9
			c0.1-0.1,0.2-0.3,0.3-0.4c2.6-2.8,5.1-5.4,7.7-8.2c0.4-0.4,0.8-0.7,1.3-0.6c0.3,0,0.7,0,1,0L520.5,127.5L520.5,127.5z"/>
		<path class="st1" d="M614.1,116.1v-1.2h-8.3V74.3c-0.4,0-0.8,0-1.1,0c-0.6-0.1-0.9,0.1-1.2,0.6c-9.9,13.2-19.9,26.4-29.9,39.5
			c-0.4,0.6-0.3,1.1-0.3,1.8H601v11.3h-4v1.2h12.8v-1.2h-4.1v-11.3H614.1L614.1,116.1z M600.6,113.8h-26.1
			c8.7-11.5,17.3-22.8,26.1-34.4V113.8z"/>
		<path class="st1" d="M569.6,112.1c-0.1-2.9-1.1-5.6-3.1-7.8c-1.8-2-4.1-3.4-6.6-4.7c-1.7-0.8-3.4-1.6-5.2-2.3l0,0
			c0.1-0.1,0.3-0.1,0.4-0.2c2.9-1.2,5.3-3,7.3-5.3c2.3-2.7,3.4-5.8,2.6-9.2c-1-4.1-3.8-6.8-7.9-8.2c-5.1-1.9-10.3-1.7-15.2,0.7
			c-4.3,2.1-7.1,5.3-7.6,10.1c-0.2,2.8,0.4,5.4,2.3,7.7c1.7,2,3.9,3.3,6.2,4.4c0.2,0.1,0.4,0.2,0.7,0.3c-0.1,0.1-0.1,0.1-0.1,0.1
			c-0.1,0-0.2,0.1-0.3,0.1c-2.9,1.1-5.4,2.7-7.8,4.6c-3.6,3-6,6.7-6.3,11.3c-0.4,6,2,10.7,7.6,13.8c3.1,1.8,6.6,2.6,10.2,2.8
			c5,0.3,9.8-0.6,13.9-3.1C566.5,123.6,569.7,118.7,569.6,112.1L569.6,112.1z M538.7,88.9c-2.7-3.7-2-8.7,1.7-11.6
			c4.1-3.2,8.9-4.1,14-2.4c3.6,1.2,5.7,3.8,6.6,7.1c0.2,1,0.3,2,0.4,3c-0.2,5.2-2.7,9.1-7.5,11.7c-0.2,0.1-0.6,0.2-0.7,0.1
			c-3.1-1.3-6.2-2.6-9.3-3.9C541.8,92,540,90.6,538.7,88.9z M566.2,116.3c-0.3,5.3-4.4,10.3-11.5,12c-0.7,0.2-1.4,0.3-2.2,0.4
			c-1,0.1-2,0.2-3,0.2c-8.3,0-14.8-5.3-15.8-13c-0.6-5,0.7-9.6,4.2-13.3c1.8-2,4.1-3.6,6.8-4.4c0.2-0.1,0.4-0.1,0.6,0
			c3.4,1.3,6.9,2.6,10.2,4c2.6,1,4.9,2.3,6.9,4.2C565.3,109.2,566.4,112.6,566.2,116.3L566.2,116.3z"/>
	</g>
</g>
<g>
	<g>
		<g>
			<path class="st1" d="M62.3,63c-0.8-0.9-1.5-1.4-2.3-1.8c-0.8-0.4-1.8-0.5-2.8-0.5c-2,0-3.6,0.6-4.6,1.9c-1,1.3-1.7,3.2-1.7,5.5
				c0,2.4,0.5,4.3,1.7,5.7s2.7,2,4.7,2c1.4,0,2.7-0.4,3.7-1.3c0.6-0.4,1-0.8,1.4-1.3c0.9,0.9,1.4,1.8,1.4,2.4c0,0.4-0.3,0.9-0.9,1.4
				c-0.6,0.5-1.4,1-2.6,1.3c-1,0.3-2.3,0.5-3.6,0.5c-1.9,0-3.7-0.4-5.1-1.3c-1.5-0.9-2.6-2-3.3-3.7c-0.8-1.7-1.1-3.6-1.1-5.9
				c0-2.3,0.4-4.2,1.3-5.7s2-2.8,3.6-3.7c1.5-0.9,3.2-1.3,5-1.3c1.3,0,2.4,0.1,3.4,0.5c1,0.4,1.8,0.8,2.4,1.3c0.6,0.5,0.9,1,0.9,1.5
				c0,0.6-0.4,1.4-1,2.3C62.8,63,62.3,63,62.3,63z"/>
			<path class="st1" d="M70.5,62.5c-0.3-0.4-0.4-0.8-0.6-1.3c-0.1-0.4-0.3-0.8-0.3-1c0-0.5,0.4-0.9,1.1-1.4c0.8-0.4,1.8-0.8,2.9-1
				s2.3-0.4,3.4-0.4c2.7,0,4.7,0.6,5.9,1.8c1.3,1.1,1.8,3.1,1.8,5.9v8.6c0,0.8,0,1.4,0.1,1.8c0.1,0.4,0.3,0.8,0.5,0.9
				c0.3,0.1,0.8,0.3,1.5,0.3v1.8c-0.6,0.3-1.3,0.3-2.2,0.3c-2.2,0-3.3-0.8-3.6-2.4c-0.9,0.9-1.9,1.5-2.9,2c-1,0.4-2.3,0.6-3.6,0.6
				c-2,0-3.7-0.5-4.9-1.5s-1.7-2.6-1.7-4.5c0-2.3,1-4.1,2.9-5.4s4.7-1.9,8.2-2c0.9,0,1.5,0,1.8,0v-0.8c0-1.4-0.4-2.4-1-3.1
				c-0.8-0.6-1.9-0.9-3.4-0.9c-1.1,0-2.2,0.1-3.1,0.4c-0.9,0.3-1.9,0.8-2.8,1.4L70.5,62.5L70.5,62.5z M81.5,68.1h-1.3
				c-2.7,0-4.6,0.4-6,1.1s-2,1.8-2,3.3c0,1,0.3,1.9,0.9,2.4c0.6,0.5,1.5,0.9,2.8,0.9c0.9,0,1.9-0.1,2.8-0.5c0.9-0.4,1.5-0.8,2-1.3
				s0.8-1,0.8-1.4L81.5,68.1L81.5,68.1z"/>
			<path class="st1" d="M91.6,55.7c0-2.8,0.6-4.9,1.9-6.3c1.3-1.4,3.2-2.2,5.6-2.2c1.1,0,2.2,0.1,3.1,0.5c0.9,0.3,1.7,0.6,2.2,1.1
				c0.5,0.5,0.8,0.9,0.8,1.3c0,0.6-0.4,1.4-1,2.3h-0.5c-1.1-1.3-2.6-2-4.2-2c-1.4,0-2.4,0.4-3.1,1.1c-0.6,0.8-1,1.9-1,3.6V58h7.3
				v3.2h-7.3v17.2h-3.7L91.6,55.7L91.6,55.7z"/>
			<path class="st1" d="M108.2,68.8c0.1,2.3,0.6,4,1.8,5.2c1,1.3,2.7,1.8,4.7,1.8c2.4,0,4.3-0.8,5.7-2.4c0.4,0.4,0.6,0.9,0.9,1.3
				c0.3,0.5,0.4,0.8,0.4,1c0,0.5-0.3,1-0.9,1.5c-1.5,1.1-3.7,1.8-6.4,1.8c-3.2,0-5.6-0.9-7.3-2.8c-1.7-1.9-2.6-4.6-2.6-8.2
				c0-2.2,0.4-4.1,1.1-5.6c0.8-1.5,1.9-2.8,3.3-3.6c1.4-0.9,3.1-1.3,4.9-1.3s3.3,0.4,4.5,1.1c1.3,0.8,2.2,1.8,2.8,3.2
				c0.6,1.4,1,2.9,1,4.7c0,1.1,0,1.9-0.1,2.4L108.2,68.8L108.2,68.8z M118.4,66c0-3.7-1.7-5.6-4.9-5.6c-1.5,0-2.8,0.5-3.7,1.5
				c-0.9,1-1.5,2.3-1.7,4.1H118.4z M115.5,49.4c0.5-0.6,0.9-1,1.1-1.3c0.4-0.3,0.6-0.3,1.1-0.3c0.4,0,0.8,0.1,1.3,0.3
				c0.5,0.3,0.9,0.5,1.3,0.8l-4.3,4.7c-0.8,0.8-1.4,1.3-2.2,1.3c-0.6,0-1.1-0.3-1.8-0.6L115.5,49.4L115.5,49.4z"/>
		</g>
		<path class="st1" d="M91.1,123.5c-1.4-1-2.9-1.9-4.2-3.1c-6.1-5.1-7.7-13.9-3.4-20.4c2-3.2,5-5.2,8.6-6.5
			c3.8-1.3,7.8-1.7,11.9-1.4c3.4,0.1,6.8,0.8,9.8,2.3c2.4,1.1,4.3,2.7,5.7,5c2.7,4.5,1.7,9.8-2.6,12.9c-2,1.5-4.3,2.6-6.5,3.6
			c-0.3,0.1-0.5,0.3-0.9,0.4c1,0.5,1.9,1,2.9,1.4c2.7,1.4,5.1,2.9,7.2,5.2c2.8,3.2,4,6.9,3.7,11.1c-0.3,3.4-1.1,6.6-3.4,9.3
			c-2.3,2.8-5.4,4.6-8.8,5.6c-4.5,1.4-9.1,1.8-13.8,1.5c-3.2-0.1-6.3-0.6-9.3-1.8c-2.9-1.1-5.5-2.7-7.3-5.4
			c-3.1-4.6-2.4-10.3,1.7-14.6c2.4-2.4,5.1-4.1,8.3-5.2C90.8,123.5,91.1,123.5,91.1,123.5L91.1,123.5z M92,123.8
			c-0.3,0.9-0.6,1.5-0.9,2.3c-0.6,3.1-0.6,6.1-0.6,9.2c0,2.4,0.3,4.9,1,7.2c1.4,4.5,4.6,6.9,9.3,7c2.3,0,4.6-0.4,6.4-1.9
			c2.6-2.2,4-7.2,2.8-10.5c-0.8-2.4-2.4-4.1-4.5-5.4c-2.3-1.4-4.7-2.8-7.2-4.2C96.3,126.3,94.3,125.1,92,123.8L92,123.8z
			 M108.2,115.6c0.1-0.3,0.1-0.5,0.3-0.6c0.8-2.2,1.1-4.3,1.3-6.6c0.1-3.3,0-6.5-0.9-9.7c-0.5-1.8-1.4-3.3-3.1-4.3
			c-2.9-1.7-6-1.5-8.9,0c-3.8,1.9-5.5,7.7-3.6,11.8c1,2,2.7,3.4,4.7,4.5c3.2,1.5,6.3,3.2,9.5,4.7
			C107.6,115.2,107.8,115.3,108.2,115.6L108.2,115.6z"/>
		<path class="st1" d="M71.7,90.9v0.9c0,16.5,0,33,0,49.3c0,2.8,0.9,5.2,2.8,7.2c0.4,0.4,0.9,0.6,1.3,1c0.1,0.1,0.4,0.4,0.5,0.5
			l-0.1,0.1H50.3c0.1-0.3,0.1-0.5,0.3-0.6c2.2-1.3,3.3-3.4,4-5.9c0.3-0.8,0.3-1.7,0.3-2.4c0-9.6,0-19.3,0-28.9
			c0-1.4-0.1-2.8-0.5-4.1c-0.6-2.8-2.7-4.3-5.5-4.6c-0.6-0.1-1.4-0.1-2-0.1c-0.1-0.4,0-0.6,0.4-0.8c8.3-2.9,16.2-6.8,23.8-11.4
			C71.2,91.2,71.4,91.1,71.7,90.9L71.7,90.9z"/>
		<path class="st1" d="M144.9,134.8h-20.1c-0.1-0.6,0-1,0.4-1.5c11.6-13.7,23.3-27.5,34.9-41.3c0.5-0.6,1.1-0.1,1.7-0.4v41.8h6.6
			v1.4h-6.5c0,0.1-0.1,0.1-0.1,0.1c0,2.8-0.1,5.6,0.3,8.4c0.3,2.6,1.5,4.7,3.8,6.1c0.1,0.1,0.1,0.4,0.4,0.6h-25.8
			c0.1-0.3,0.1-0.5,0.3-0.6c2.2-1.4,3.3-3.4,3.8-5.9c0.3-0.9,0.3-1.8,0.3-2.7C144.9,138.9,144.9,136.9,144.9,134.8L144.9,134.8z
			 M127.1,133.4h17.8v-21C138.9,119.4,133,126.3,127.1,133.4z"/>
		<path class="st1" d="M193.6,150.2h-18.8c0.1-1,0.3-1.9,0.5-2.9c1-4.2,2.8-8,4.9-11.8c4.5-8.3,10-15.8,16.1-22.9
			c2.6-2.9,5.4-5.9,8-8.7c0.1-0.1,0.3-0.3,0.5-0.5c-0.3,0-0.5,0-0.6,0c-7.8,0-15.5,0-23.3,0.1c-1.7,0-3.2,0.1-4.9,0.4
			c-2.3,0.3-4.1,1.5-5.4,3.4c-0.1,0.3-0.4,0.4-0.5,0.5l-0.1-0.1c1.4-5,2.8-10,4.2-14.9h38.2c-0.1,0.5-0.3,0.9-0.5,1.1
			c-3.2,5.1-6.4,10.1-9.5,15.3c-3.3,5.7-5.7,11.9-7,18.5c-0.6,3.3-1,6.5-1.3,9.8c-0.4,4.1-0.4,8.3-0.5,12.4
			C193.7,149.8,193.6,150,193.6,150.2L193.6,150.2z"/>
	</g>
</g>
<g>
	<g>
		<rect x="298.3" y="134.7" class="st1" width="81.8" height="6.5"/>
		<path class="st1" d="M320.5,131.9c-12.5,0-22.8-10.3-22.8-22.8s10.3-22.8,22.8-22.8c12.5,0,22.8,10.3,22.8,22.8
			S333.1,131.9,320.5,131.9L320.5,131.9z M320.5,92.8c-9,0-16.5,7.3-16.5,16.5c0,9,7.3,16.5,16.5,16.5c9.1,0,16.5-7.3,16.5-16.5
			S329.5,92.8,320.5,92.8z"/>
		<path class="st1" d="M320.5,92.8c-8.9,0-16.1-7.2-16.1-16.1s7.2-16.1,16.1-16.1c8.9,0,16.1,7.2,16.1,16.1S329.4,92.8,320.5,92.8z
			 M320.5,67c-5.3,0-9.7,4.3-9.7,9.7c0,5.4,4.3,9.7,9.7,9.7c5.4,0,9.7-4.3,9.7-9.7C330.3,71.3,325.9,67,320.5,67z"/>
		<rect x="278.1" y="147.5" class="st1" width="142.8" height="6.5"/>
		<rect x="278.1" y="48.7" class="st1" width="143.2" height="6.5"/>
		<polygon class="st1" points="284.8,141.1 291.3,141.1 291.3,61.6 278.1,61.6 278.1,68 284.8,68 		"/>
		<polygon class="st1" points="387,61.9 387,68.2 415.1,68.2 384.5,141.1 391.4,141.1 421,70.5 421,61.9 		"/>
		<polygon class="st1" points="374.5,61.8 346.1,110.7 367,110.7 367,104.3 357.2,104.3 373.8,75.7 373.8,128.7 380.2,128.7 
			380.2,61.8 		"/>
	</g>
</g>
</svg>
